<svg width="412" height="249" viewBox="0 0 412 249" fill="none" xmlns="http://www.w3.org/2000/svg">
<g filter="url(#filter0_i)">
<path fill-rule="evenodd" clip-rule="evenodd" d="M322.305 231.759C305.307 246.871 278.626 249.969 254.336 248.765C178.052 244.976 109.193 208.196 49.6274 166.587C28.0614 151.527 6.83286 135.294 -7.16238 114.55C-35.6766 72.3242 -27.2038 13.8301 12.4135 -20.956C25.8967 -32.7896 42.237 -41.8799 59.0139 -49.9066C88.8432 -64.2046 121.029 -75.6837 154.886 -78.9677C179.024 -81.2925 203.464 -79.4036 227.469 -76.1545C294.524 -67.0526 360.333 -46.9656 415.517 -12.6038C439.713 2.46724 462.519 21.2058 472.493 45.5764C482.467 69.947 476.083 100.868 451.375 115.323C441.156 121.292 428.936 123.989 416.978 126.523C399.369 130.249 381.48 133.922 365.594 141.495C349.178 149.319 329.747 164.448 333.006 181.768C336.474 200.327 339.279 216.647 322.305 231.759Z" fill="url(#paint0_linear)"/>
</g>
<mask id="mask0" mask-type="alpha" maskUnits="userSpaceOnUse" x="-24" y="-80" width="501" height="329">
<path fill-rule="evenodd" clip-rule="evenodd" d="M322.305 231.759C305.307 246.871 278.626 249.969 254.336 248.765C178.052 244.976 109.193 208.196 49.6274 166.587C28.0614 151.527 6.83286 135.294 -7.16238 114.55C-35.6766 72.3242 -27.2038 13.8301 12.4135 -20.956C25.8967 -32.7896 42.237 -41.8799 59.0139 -49.9066C88.8432 -64.2046 121.029 -75.6837 154.886 -78.9677C179.024 -81.2925 203.464 -79.4036 227.469 -76.1545C294.524 -67.0526 360.333 -46.9656 415.517 -12.6038C439.713 2.46724 462.519 21.2058 472.493 45.5764C482.467 69.947 476.083 100.868 451.375 115.323C441.156 121.292 428.936 123.989 416.978 126.523C399.369 130.249 381.48 133.922 365.594 141.495C349.178 149.319 329.747 164.448 333.006 181.768C336.474 200.327 339.279 216.647 322.305 231.759Z" fill="white"/>
</mask>
<g mask="url(#mask0)">
<path fill-rule="evenodd" clip-rule="evenodd" d="M142.03 182.804C140.584 174.563 140.519 165.6 137.377 161.708C130.626 153.347 88.5974 167.015 88.5974 167.015C88.5974 167.015 80.5118 179.451 78.5618 182.262C77.9178 183.191 76.5461 185.537 75 188.258C81.7927 192.976 89.5401 196.393 97.9017 198.136C99.0272 196.241 100.713 193.451 102.854 190.033C104.828 186.885 110.732 180.262 110.732 180.262C110.732 180.262 113.833 186.791 114.794 189.491C116.63 194.651 117.63 197.461 118.176 199C127.165 197.933 135.575 194.969 143 190.503C142.804 188.124 142.504 185.504 142.03 182.804Z" fill="black"/>
<path fill-rule="evenodd" clip-rule="evenodd" d="M66.5972 102.905C67.7777 98.0862 77.3744 81.056 93.1625 81.056C108.951 81.056 120.752 79.5328 131.972 92.3788C143.194 105.225 138.388 131.185 138.088 141.329C137.786 151.473 146.498 166.99 141.392 169.078C136.286 171.167 88.761 174.449 87.5914 169.078C86.423 163.708 90.6269 150.876 86.1218 141.329C81.6156 131.781 62.3921 120.061 66.5972 102.905Z" fill="#161515"/>
<path fill-rule="evenodd" clip-rule="evenodd" d="M127.41 146.456C127.787 150.24 129.701 165.088 128.726 166.09C127.678 167.169 100.405 167.123 97.9285 166.792C95.4536 166.462 95.7286 149.437 96.7193 148.441C97.7087 147.445 127.264 144.989 127.41 146.456Z" fill="#1C1B1B"/>
<path fill-rule="evenodd" clip-rule="evenodd" d="M68.7967 97C63.1597 104.323 59.777 113.659 63.6841 126.177C67.5936 138.694 82.9242 148 82.9242 148C82.9242 148 90.0753 139.894 87.4014 134.492C84.7276 129.087 68.7967 97 68.7967 97Z" fill="#353535"/>
<path fill-rule="evenodd" clip-rule="evenodd" d="M78 124C78 124 73.4621 112.109 71.9699 109.461C70.4766 106.813 68 105 68 105C68 105 68 105 69.9891 111.995C71.7522 118.195 75.9328 123.014 78 124Z" fill="#262626"/>
<path fill-rule="evenodd" clip-rule="evenodd" d="M69.1163 88.0862C69.1163 88.0862 66.6152 85.5745 69.1005 79.8617C71.5871 74.1476 88.7459 64.8033 100.225 69.0915C111.704 73.3785 112.939 73.1911 113 75.565C113.063 77.9413 101.523 91.5159 101.685 95.9746C101.849 100.432 99.0364 108.901 98.7153 108.999C98.3954 109.099 92.048 102.005 87.6178 98.5988C83.1875 95.1922 69.1163 88.0862 69.1163 88.0862Z" fill="#161515"/>
<path fill-rule="evenodd" clip-rule="evenodd" d="M73 75.0622C73.5876 77.8877 79.0834 86.6233 83.2303 89.8705C87.3784 93.119 92.5182 94.4215 95.1811 93.8817C97.8451 93.3431 101.065 89.1331 102.282 82.9134C103.497 76.6948 102.803 66 102.803 66L73 75.0622Z" fill="#FFB18F"/>
<path fill-rule="evenodd" clip-rule="evenodd" d="M68 88.6458C68 88.6458 68.3162 86.8949 69.2528 87.005C75.8058 87.774 91.9938 96.0872 95.7941 102.04C100.708 109.733 101 115 101 115C101 115 93.9697 105.25 85.9408 99.3483C79.5369 94.6398 68 88.6458 68 88.6458Z" fill="#353535"/>
<path fill-rule="evenodd" clip-rule="evenodd" d="M114 75.3331C114 75.3331 112.3 73.5602 111.734 74.1035C107.012 78.6181 97.1311 93.7515 97.0055 100.717C96.8444 109.748 100.303 114 100.303 114C100.303 114 100.3 102.805 104.119 93.6299C107.168 86.3117 114 75.3331 114 75.3331Z" fill="#353535"/>
<path fill-rule="evenodd" clip-rule="evenodd" d="M100 113C98.1091 108.467 94.2251 101.958 86.5257 97.2601C81.855 94.411 78.0119 92.8439 75 92C78.5243 93.9766 82.5912 96.3829 85.561 98.5218C92.1009 103.229 97.9816 110.412 100 113Z" fill="#7C7C7C"/>
<path fill-rule="evenodd" clip-rule="evenodd" d="M104.048 94.2003C105.302 91.0871 107.212 87.3173 109 84C107.266 86.1891 105.377 89.0972 103.473 92.9534C99.6235 100.756 99.652 108.121 100.382 113C100.539 109.498 101.209 101.259 104.048 94.2003Z" fill="#474747"/>
<path fill-rule="evenodd" clip-rule="evenodd" d="M72 118.003L150.776 103L159 145.998L80.2201 161L72 118.003Z" fill="#91EBF2"/>
<path fill-rule="evenodd" clip-rule="evenodd" d="M82 120.9L144.481 109L151 143.101L88.5219 155L82 120.9Z" fill="#2ECAEF"/>
<path fill-rule="evenodd" clip-rule="evenodd" d="M104 120.869L131.163 116L132 120.132L104.838 125L104 120.869Z" fill="white"/>
<path fill-rule="evenodd" clip-rule="evenodd" d="M87 124.362L99.1344 122L100 126.636L87.8668 129L87 124.362Z" fill="#9EE9EF"/>
<path fill-rule="evenodd" clip-rule="evenodd" d="M89 133.362L101.133 131L102 135.638L89.8658 138L89 133.362Z" fill="#9EE9EF"/>
<path fill-rule="evenodd" clip-rule="evenodd" d="M108 138.179L123.603 135L125 142.821L109.397 146L108 138.179Z" fill="#0097BA"/>
<path fill-rule="evenodd" clip-rule="evenodd" d="M106 129.87L133.163 125L134 129.131L106.838 134L106 129.87Z" fill="white"/>
<path fill-rule="evenodd" clip-rule="evenodd" d="M97.0788 154.529C95.6859 154.171 90.9346 153.042 87.4709 153.001C85.0231 152.97 83.8567 153.824 83.8762 154.948C83.8946 156.011 84.591 156.374 86.8198 156.332C88.8295 156.293 90.5381 157.287 90.3508 157.798C89.5798 159.915 81 160.377 81 161.118C81 163.229 85.7121 166.093 93.5379 164.572C101.365 163.05 106 157.651 106 157.651L97.0788 154.529Z" fill="black"/>
<path fill-rule="evenodd" clip-rule="evenodd" d="M120.908 83C131.395 86.9116 139.245 94.2248 141.85 101.338C144.453 108.453 146.562 129.47 143.443 136.951C140.324 144.43 104.25 163 101.191 163C98.1317 163 93.1365 152.327 95.715 151.13C98.2923 149.932 126.199 130.707 125.586 128.294C124.974 125.882 117.952 111.992 115.914 99.8186C114.804 93.1965 120.908 83 120.908 83Z" fill="#353535"/>
<path fill-rule="evenodd" clip-rule="evenodd" d="M128.905 130.483C125.86 127.723 130.171 123.608 125.906 112.011C122.748 103.433 119.356 93.5915 118.045 89C116.522 92.5158 114.951 97.2667 115.556 100.93C117.559 113.084 124.46 126.95 125.062 129.358C125.665 131.767 98.2356 150.961 95.7025 152.156C94.3646 152.788 95.1018 156.056 96.5393 159C97.7205 158.807 98.8612 158.535 99.875 158.154C105.254 156.143 122.891 140.712 125.009 136.988C127.126 133.263 137.221 138.718 137.991 136.62C138.263 135.879 131.948 133.244 128.905 130.483Z" fill="#3D3B3B"/>
<path fill-rule="evenodd" clip-rule="evenodd" d="M73.1278 138.958C73.549 136.766 76.1306 135.695 78.2145 135.027C81.2512 134.052 83.8219 133.259 84.1192 135.153C84.2891 136.24 81.3592 136.778 80.0084 137.436C79.3056 137.776 77.7145 138.099 77.672 138.979C77.5895 140.684 78.9379 139.49 81.5085 138.532C82.9577 137.993 86.8816 136.727 87.3877 137.585C88.6379 139.708 85.3863 140.149 82.9723 141.091C81.3884 141.711 79.5763 142.354 79.7147 143.042C79.9234 144.078 81.4005 143.395 83.0512 143.042C85.4058 142.54 87.5358 141.39 87.963 143.218C88.3247 144.762 85.9616 144.867 83.9275 145.345C81.4163 145.933 79.0495 146.604 79.3821 147.8C79.6552 148.783 80.739 148.826 81.6748 148.756C83.6507 148.609 87.1365 146.385 87.5395 149.011C87.6548 149.763 85.9349 150.354 83.7393 151.112C81.2524 151.97 78.2376 152.495 76.9413 151.308C74.3792 148.96 72.4797 142.34 73.1278 138.958Z" fill="black"/>
<path fill-rule="evenodd" clip-rule="evenodd" d="M78.1709 83.6796C82.3099 83.2506 103.004 77.366 103 78.0562C102.991 80.94 102.318 86.639 100.254 90.317C97.7499 94.7834 88.7017 95.593 83.1271 90.4801C80.9529 88.484 77.1491 83.7848 78.1709 83.6796Z" fill="black"/>
<path fill-rule="evenodd" clip-rule="evenodd" d="M77.4245 82.1293C77.4245 82.1293 85.9977 79.9386 88.208 79.0702C89.1529 78.6992 89.6141 76.5633 90.5959 76.2288C91.5789 75.8943 92.9707 77.9523 94.4446 77.9268C95.9174 77.9013 103.349 76.1923 103.349 76.1923L103.41 71.6322C103.41 71.6322 92.7109 72.3802 86.0942 74.1768C79.4764 75.9746 75.8267 79.9386 75.8267 79.9386L77.4245 82.1293Z" fill="#DB826A"/>
<path fill-rule="evenodd" clip-rule="evenodd" d="M68.3723 88.5018C67.9934 88.5066 68.3104 64.0239 75.3155 55.2309C79.3274 50.1952 88.6835 47.5655 94.3421 50.1636C101.755 53.5682 114.807 74.7266 114.707 75.5391C114.606 76.3516 105.182 71.8231 89.5748 75.9393C73.6568 80.1369 69.5734 88.4859 68.3723 88.5018Z" fill="#353535"/>
<path fill-rule="evenodd" clip-rule="evenodd" d="M83.7787 52.1708C78.395 53.7257 78.7499 72.8265 79.2852 79C81.8834 77.6582 85.0754 76.3792 88.9995 75.3549C93.1275 74.276 96.8127 73.8106 100 73.6863C97.3046 67.7307 91.0026 50.0818 83.7787 52.1708Z" fill="#444444"/>
<path fill-rule="evenodd" clip-rule="evenodd" d="M131.485 115C131.485 115 136.358 120.357 134.629 123.725C132.899 127.092 127 128 127 128C127 128 127.54 127.549 129.267 124.827C130.995 122.105 131.485 115 131.485 115Z" fill="#2D2D2D"/>
<path fill-rule="evenodd" clip-rule="evenodd" d="M128.605 107C128.605 107 129.48 114.511 128.625 119.831C127.772 125.153 126.474 128 126.474 128C126.474 128 125.408 118.955 126.474 115.446C127.539 111.936 128.605 107 128.605 107Z" fill="#2D2D2D"/>
<path fill-rule="evenodd" clip-rule="evenodd" d="M126 130.921C126 130.921 128.239 128.937 132.733 130.793C137.229 132.648 138 136 138 136C138 136 134.486 134.256 131.999 132.734C129.035 130.921 126 130.921 126 130.921Z" fill="#262626"/>
<path fill-rule="evenodd" clip-rule="evenodd" d="M108 123.001C108 123.553 107.551 124 106.999 124C106.448 124 106 123.553 106 123.001C106 122.448 106.448 122 106.999 122C107.551 122 108 122.448 108 123.001Z" fill="#353535"/>
<path fill-rule="evenodd" clip-rule="evenodd" d="M112 122C112 122.552 111.553 123 110.999 123C110.447 123 110 122.552 110 122C110 121.446 110.447 121 110.999 121C111.553 121 112 121.446 112 122Z" fill="#353535"/>
<path fill-rule="evenodd" clip-rule="evenodd" d="M116 121.001C116 121.552 115.554 122 114.999 122C114.449 122 114 121.552 114 121.001C114 120.448 114.449 120 114.999 120C115.554 120 116 120.448 116 121.001Z" fill="#353535"/>
<path fill-rule="evenodd" clip-rule="evenodd" d="M109 132.001C109 132.552 108.553 133 108.001 133C107.447 133 107 132.552 107 132.001C107 131.448 107.447 131 108.001 131C108.553 131 109 131.448 109 132.001Z" fill="#353535"/>
<path fill-rule="evenodd" clip-rule="evenodd" d="M114 130.999C114 131.553 113.551 132 113.002 132C112.449 132 112 131.553 112 130.999C112 130.448 112.449 130 113.002 130C113.551 130 114 130.448 114 130.999Z" fill="#353535"/>
<path fill-rule="evenodd" clip-rule="evenodd" d="M118 130.001C118 130.553 117.552 131 117 131C116.447 131 116 130.553 116 130.001C116 129.448 116.447 129 117 129C117.552 129 118 129.448 118 130.001Z" fill="#353535"/>
<path fill-rule="evenodd" clip-rule="evenodd" d="M121 119.999C121 120.552 120.553 121 119.999 121C119.447 121 119 120.552 119 119.999C119 119.447 119.447 119 119.999 119C120.553 119 121 119.447 121 119.999Z" fill="#353535"/>
<path fill-rule="evenodd" clip-rule="evenodd" d="M124 119.999C124 120.552 123.553 121 122.999 121C122.447 121 122 120.552 122 119.999C122 119.448 122.447 119 122.999 119C123.553 119 124 119.448 124 119.999Z" fill="#353535"/>
<path fill-rule="evenodd" clip-rule="evenodd" d="M119.992 83C119.992 83 119.532 83.7751 118.895 85.0134C123.494 88.9849 134.722 96.7733 136.812 110.919C139.34 128.017 141.573 134.575 140.241 136.494C136.092 142.48 109.708 154.836 104.846 157.985C102.732 159.354 100.212 160.489 98 161.492C98.8052 162.408 99.626 163 100.342 163C103.391 163 139.34 144.43 142.449 136.951C145.556 129.47 143.455 108.453 140.861 101.338C138.265 94.2248 130.442 86.9116 119.992 83Z" fill="#282727"/>
<rect x="108" y="22" width="6" height="192" fill="#DCB528"/>
<rect x="38" y="2" width="6" height="192" fill="#DCB528"/>
<path fill-rule="evenodd" clip-rule="evenodd" d="M112 0H412V262H112V148.984L-3 126.5L0 115L112 136.66V25.5312L66.4179 15.1405L61.9804 14.1289L58.3913 13.3107L54.3962 12.4L0 0H112Z" fill="url(#paint1_linear)"/>
<rect x="41" y="7" width="15" height="177" fill="#FDD207"/>
<rect x="143" width="310" height="256" fill="url(#paint2_linear)"/>
<circle cx="261.815" cy="126.395" r="3.705" fill="#F2F2F2"/>
<path d="M210.07 190.52L206.643 278.436C206.643 278.436 195.505 344.16 198.075 345.867C200.645 347.574 198.075 356.963 198.075 356.963L212.64 358.67C212.64 358.67 212.64 351.842 216.067 349.281C219.494 346.72 251.194 226.369 251.194 226.369L283.75 342.452C283.75 342.452 282.893 349.281 285.464 349.281C288.034 349.281 288.891 358.67 288.891 358.67H303.455V349.281C303.455 349.281 307.739 348.427 305.169 341.599C302.599 334.771 293.174 190.52 293.174 190.52L210.07 190.52Z" fill="#2F2E41"/>
<circle cx="261.815" cy="47.165" r="17.385" fill="#FFB8B8"/>
<path d="M249.845 56.2924L247.28 83.0363L267.8 87.35L272.93 55.43L249.845 56.2924Z" fill="#FFB8B8"/>
<path d="M271.505 76.8049C271.505 76.8049 266.375 87.918 247.565 75.95L212.51 190.501C212.51 190.501 259.535 218.711 289.46 197.34L279.2 81.934L271.505 76.8049Z" fill="#575A89"/>
<path d="M250.7 64.265L234.489 61.7L232.783 72.815C232.783 72.815 210.599 75.38 208.039 83.93L210.599 147.2C210.599 147.2 202.92 160.88 209.746 169.43C209.746 169.43 198.654 192.515 207.186 196.79C207.186 196.79 226.81 187.385 238.755 189.95C238.755 189.95 245.581 188.24 245.581 183.11C245.581 177.98 250.7 64.265 250.7 64.265Z" fill="#2F2E41"/>
<path d="M270.811 66.26L280.164 68.8147L281.014 80.7367C281.014 80.7367 303.97 95.2133 304.821 103.729C305.671 112.245 287.816 153.12 287.816 153.12C287.816 153.12 294.618 165.042 292.067 172.706C292.067 172.706 303.12 194.847 296.318 200.808C296.318 200.808 283.565 204.214 281.864 199.105C280.164 193.995 264.86 135.237 271.662 107.135C271.662 107.135 264.86 71.3694 270.811 66.26Z" fill="#2F2E41"/>
<path d="M280.34 93.7562H280.02V85.005C280.02 83.6617 279.485 82.3734 278.532 81.4235C277.58 80.4736 276.288 79.94 274.941 79.94H256.349C255.002 79.94 253.71 80.4736 252.758 81.4235C251.805 82.3734 251.27 83.6617 251.27 85.005V133.015C251.27 134.358 251.805 135.647 252.758 136.597C253.71 137.546 255.002 138.08 256.349 138.08H274.941C276.288 138.08 277.58 137.546 278.532 136.597C279.485 135.647 280.02 134.358 280.02 133.015V99.9855H280.34V93.7562Z" fill="white"/>
<path d="M288.89 128.454C288.89 128.454 282.002 106.362 271.671 113.159C261.34 119.957 278.559 138.65 278.559 138.65L288.89 128.454Z" fill="#FFB8B8"/>
<path d="M241.58 112.218C241.58 112.218 253.613 97.7552 259.629 104.561C265.645 111.367 249.315 126.68 249.315 126.68L241.58 112.218Z" fill="#FFB8B8"/>
<path d="M210.8 83.3882C210.8 83.3882 206.525 82.5347 203.96 90.2162C201.395 97.8977 191.99 126.917 191.99 132.038C191.99 137.159 195.41 157.642 214.22 154.228C233.03 150.814 255.26 126.917 255.26 126.917L243.29 108.993L217.64 124.356L210.8 83.3882Z" fill="#2F2E41"/>
<path opacity="0.1" d="M214.403 104.971L217.97 123.26L244.43 108.002L219.677 117.327L214.22 103.88L214.403 104.971Z" fill="black"/>
<path opacity="0.1" d="M289.46 123.545L292.88 126.11L294.59 114.14L289.46 123.545Z" fill="black"/>
<path opacity="0.1" d="M210.23 156.32C210.23 156.32 235.429 149.531 247.28 134.66C247.28 134.66 235.109 154.621 210.23 156.32Z" fill="black"/>
<path opacity="0.1" d="M273.5 140.93C273.5 140.93 278.766 166.695 292.31 167.431C292.31 167.431 276.054 172.423 273.5 140.93Z" fill="black"/>
<path d="M301.353 99.89C301.353 99.89 303.91 101.6 305.615 109.294C307.321 116.988 318.404 146.055 314.141 152.894C309.878 159.733 303.058 175.121 288.564 164.862L274.07 138.361L288.564 124.682L294.532 128.957L301.353 99.89Z" fill="#2F2E41"/>
<path d="M244.989 51.3075C244.989 51.3075 230.289 27.6788 245.946 26.4499C251.171 26.0874 256.273 24.7086 260.961 22.3921C266.151 19.7727 272.685 17.7817 276.161 21.8139C277.678 23.6577 279.447 25.2828 281.416 26.6424C284.47 28.6512 288.004 31.9075 286.047 35.4005L282.839 41.127L278.349 52.58C279.394 47.64 279.421 43.4923 276.745 41.4451C276.745 41.4451 261.815 47.7465 254.291 36.3549C245.868 30.0872 243.189 49.8151 244.989 51.3075Z" fill="#2F2E41"/>
<circle cx="265.805" cy="97.325" r="4.275" fill="#FED404"/>
</g>
<defs>
<filter id="filter0_i" x="-24" y="-80" width="501" height="330" filterUnits="userSpaceOnUse" color-interpolation-filters="sRGB">
<feFlood flood-opacity="0" result="BackgroundImageFix"/>
<feBlend mode="normal" in="SourceGraphic" in2="BackgroundImageFix" result="shape"/>
<feColorMatrix in="SourceAlpha" type="matrix" values="0 0 0 0 0 0 0 0 0 0 0 0 0 0 0 0 0 0 127 0" result="hardAlpha"/>
<feOffset dy="1"/>
<feGaussianBlur stdDeviation="13.5"/>
<feComposite in2="hardAlpha" operator="arithmetic" k2="-1" k3="1"/>
<feColorMatrix type="matrix" values="0 0 0 0 0.587126 0 0 0 0 0.587126 0 0 0 0 0.587126 0 0 0 0.691215 0"/>
<feBlend mode="normal" in2="shape" result="effect1_innerShadow"/>
</filter>
<linearGradient id="paint0_linear" x1="559.969" y1="-67.5518" x2="94.3144" y2="-221.153" gradientUnits="userSpaceOnUse">
<stop stop-color="#2ECAEF"/>
<stop offset="1" stop-color="#0F677C"/>
</linearGradient>
<linearGradient id="paint1_linear" x1="-71.7265" y1="252.087" x2="310.918" y2="383.377" gradientUnits="userSpaceOnUse">
<stop stop-color="#FFD700"/>
<stop offset="1" stop-color="#FAC811"/>
</linearGradient>
<linearGradient id="paint2_linear" x1="207.061" y1="262.386" x2="534.146" y2="115.517" gradientUnits="userSpaceOnUse">
<stop stop-color="#E7BE29"/>
<stop offset="1" stop-color="#FFD700"/>
</linearGradient>
</defs>
</svg>
