<svg width="296" height="195" viewBox="0 0 296 195" fill="none" xmlns="http://www.w3.org/2000/svg">
<path d="M214.114 0.0997314L169.419 30.6015H234.995L214.114 0.0997314Z" fill="#F2F2F2"/>
<path d="M238.485 33.86H165.334L143.033 49.0792H248.904L238.485 33.86Z" fill="#F2F2F2"/>
<path d="M140.378 52.0811L69.6951 100.319L120.044 173.863L266.504 73.9113L251.559 52.0811H140.378Z" fill="#F2F2F2"/>
<ellipse cx="147.653" cy="187.008" rx="147.653" ry="7.28" fill="#F2F2F2"/>
<ellipse cx="67.5141" cy="82.522" rx="5.02887" ry="2.90686" fill="#3F3D56"/>
<path d="M199.654 103.795H86.6368L89.416 93.8061L91.8193 85.1647L95.9007 70.498H190.655L194.62 85.1647L197.333 95.2064L199.654 103.795Z" fill="#3F3D56"/>
<path opacity="0.1" d="M197.333 95.2064H89.416V93.8061L91.8193 85.1647H194.62L197.333 95.2064Z" fill="black"/>
<rect x="60.1693" y="81.5971" width="14.6896" height="11.3632" fill="#FED404"/>
<rect x="49.5822" y="87.1465" width="187.391" height="99.8902" fill="#3F3D56"/>
<rect x="49.5822" y="124.671" width="187.391" height="24.8404" fill="#FED404"/>
<ellipse cx="143.278" cy="137.092" rx="46.4508" ry="46.3776" fill="#2F2E41"/>
<ellipse cx="143.278" cy="137.092" rx="43.1424" ry="43.0744" fill="#3F3D56"/>
<ellipse cx="143.278" cy="137.092" rx="32.82" ry="32.7682" fill="#2F2E41"/>
<ellipse opacity="0.2" cx="208.124" cy="94.0173" rx="3.17612" ry="3.17112" fill="#FED404"/>
<ellipse opacity="0.5" cx="217.652" cy="94.0173" rx="3.17612" ry="3.17112" fill="#FED404"/>
<ellipse cx="227.181" cy="94.0173" rx="3.17612" ry="3.17112" fill="#FED404"/>
<rect x="132.029" y="72.8765" width="22.2329" height="10.0419" fill="#2F2E41"/>
<ellipse cx="154.215" cy="61.0635" rx="4.01032" ry="4.004" stroke="#3F3D56" stroke-width="0.84"/>
<ellipse cx="141.82" cy="45.7755" rx="4.01032" ry="4.004" stroke="#3F3D56" stroke-width="0.84"/>
<ellipse cx="162.236" cy="34.1275" rx="4.01032" ry="4.004" stroke="#3F3D56" stroke-width="0.84"/>
</svg>
