<!-- Generated by IcoMoon.io -->
<svg version="1.1" xmlns="http://www.w3.org/2000/svg" width="24" height="24" viewBox="0 0 1024 1024">
<title></title>
<g id="icomoon-ignore">
</g>
<path fill="#000" d="M955.554 386.391v456.444c0 63.022-51.089 114.111-114.111 114.111h-456.444c-63.022 0-114.111-51.089-114.111-114.111v-57.055h-114.111c-63.022 0-114.111-51.089-114.111-114.111v-513.499c0-63.022 51.089-114.111 114.111-114.111h142.635c25.545 0 54.072 0 85.583 0s60.039 0 85.583 0h142.642c63.022 0 114.111 51.089 114.111 114.111v114.111h114.111c63.022 0 114.111 51.089 114.111 114.111zM385 272.28h285.277v-114.111c-0.036-31.496-25.56-57.019-57.055-57.055h-456.444c-31.496 0.036-57.019 25.56-57.055 57.055v513.499c0.036 31.496 25.56 57.019 57.055 57.055h114.111v-342.333c0-63.022 51.089-114.111 114.111-114.111zM898.499 386.391c-0.036-31.496-25.56-57.019-57.055-57.055h-456.444c-31.496 0.036-57.019 25.56-57.055 57.055v456.444c0.036 31.496 25.56 57.019 57.055 57.055h456.444c31.496-0.036 57.019-25.56 57.055-57.055v-456.444z"></path>
</svg>
