<?xml version="1.0" encoding="UTF-8"?>
<svg width="21px" height="24px" viewBox="0 0 21 24" version="1.1" xmlns="http://www.w3.org/2000/svg" xmlns:xlink="http://www.w3.org/1999/xlink">
    <!-- Generator: Sketch 63.1 (92452) - https://sketch.com -->
    <title>Cryptonomic Pictogram</title>
    <desc>Created with Sketch.</desc>
    <defs>
        <linearGradient x1="87.8530488%" y1="67.4084162%" x2="-4.40569989%" y2="24.6653263%" id="linearGradient-1">
            <stop stop-color="#FBC80A" offset="15.3%"></stop>
            <stop stop-color="#EB148D" offset="47.09%"></stop>
            <stop stop-color="#6BCBDA" offset="90.51%"></stop>
        </linearGradient>
        <linearGradient x1="132.080201%" y1="111.377662%" x2="-257.181544%" y2="-150.502433%" id="linearGradient-2">
            <stop stop-color="#FBC80A" offset="15.3%"></stop>
            <stop stop-color="#EB148D" offset="47.09%"></stop>
            <stop stop-color="#6BCBDA" offset="90.51%"></stop>
        </linearGradient>
        <linearGradient x1="108.627929%" y1="111.727591%" x2="10.170911%" y2="3.76357881%" id="linearGradient-3">
            <stop stop-color="#FBC80A" offset="15.3%"></stop>
            <stop stop-color="#EB148D" offset="47.09%"></stop>
            <stop stop-color="#6BCBDA" offset="90.51%"></stop>
        </linearGradient>
        <linearGradient x1="265.749741%" y1="250.952873%" x2="12.8428976%" y2="15.3165091%" id="linearGradient-4">
            <stop stop-color="#FBC80A" offset="15.3%"></stop>
            <stop stop-color="#EB148D" offset="47.09%"></stop>
            <stop stop-color="#6BCBDA" offset="90.51%"></stop>
        </linearGradient>
        <linearGradient x1="400.948097%" y1="344.09022%" x2="-201.128028%" y2="-150.515927%" id="linearGradient-5">
            <stop stop-color="#FBC80A" offset="15.3%"></stop>
            <stop stop-color="#EB148D" offset="47.09%"></stop>
            <stop stop-color="#6BCBDA" offset="90.51%"></stop>
        </linearGradient>
        <linearGradient x1="107.0804%" y1="95.9013554%" x2="23.4582609%" y2="14.5760542%" id="linearGradient-6">
            <stop stop-color="#FBC80A" offset="15.3%"></stop>
            <stop stop-color="#EB148D" offset="47.09%"></stop>
            <stop stop-color="#6BCBDA" offset="90.51%"></stop>
        </linearGradient>
    </defs>
    <g id="Icons" stroke="none" stroke-width="1" fill="none" fill-rule="evenodd">
        <g id="Icon/-Cryptonomic-Pictogram" transform="translate(-2.000000, 0.000000)" fill-rule="nonzero">
            <g id="Cryptonomic-Pictogram" transform="translate(2.000000, 0.000000)">
                <path d="M11.8754911,22.443296 C6.66600977,22.443296 2.3283192,18.6637642 1.44589685,13.7041253 L0.186052904,13.7041253 C1.07910684,19.349502 5.98027192,23.6818768 11.8754911,23.6818768 C15.1393906,23.6818768 18.0949739,22.3529275 20.2372402,20.2106612 L19.3601336,19.3335546 C17.4464466,21.2578732 14.7991796,22.443296 11.8754911,22.443296 Z" id="Path" fill="url(#linearGradient-1)"></path>
                <path d="M13.7307043,19.742871 L13.7307043,21.0186624 C15.5646544,20.6465566 17.2072357,19.7375552 18.4830271,18.4617639 L17.6059205,17.5846573 C16.5587085,18.6318694 15.2244434,19.3920284 13.7307043,19.742871 Z" id="Path" fill="url(#linearGradient-2)"></path>
                <path d="M11.8754911,2.50905631 C11.668175,2.50905631 11.4608589,2.5143721 11.2535428,2.5303195 L11.2535428,3.77421606 L11.2535428,3.77421606 L11.2535428,5.02342841 C7.761064,5.33706045 5.01811261,8.27669634 5.01811261,11.8542279 C5.01811261,14.9958641 7.13911572,17.6484469 10.0255936,18.4617639 L10.0255936,17.1593936 C7.83548516,16.3939188 6.26200917,14.3048104 6.26200917,11.8542279 C6.26200917,8.75511809 8.78169708,6.23543019 11.8808069,6.23543019 C12.088123,6.23543019 12.2954391,6.24606178 12.4974394,6.26732497 L12.4974394,5.90053496 L12.4974394,5.01811261 L12.4974394,3.77421606 C14.5227581,3.92837418 16.3460766,4.83205971 17.6856575,6.2035354 L18.562764,5.32642886 C16.8617089,3.58816315 14.4961791,2.50905631 11.8754911,2.50905631 Z" id="Path" fill="url(#linearGradient-3)"></path>
                <path d="M10.0202778,2.69510921 C6.35237773,3.43932083 3.46058402,6.33111454 2.7163724,10.0043304 L3.98684795,10.0043304 C4.68853318,7.02748398 7.03811557,4.67258579 10.0202778,3.97090055 L10.0202778,2.69510921 Z" id="Path" fill="url(#linearGradient-4)"></path>
                <path d="M15.9261286,7.9630643 L16.8032351,7.08595775 C15.968655,6.22479859 14.9161271,5.58690292 13.7307043,5.25200769 L13.7307043,6.55437802 C14.5706003,6.84674687 15.3201277,7.33048442 15.9261286,7.9630643 Z" id="Path" fill="url(#linearGradient-5)"></path>
                <path d="M0.430579578,12.4708604 L1.30237033,12.4708604 L2.12100311,12.4708604 L2.55158269,12.4708604 C2.87053052,17.3401307 6.93179963,21.1993995 11.8754911,21.1993995 C12.0828072,21.1993995 12.2901233,21.1940837 12.4921236,21.1781363 L12.4921236,20.4126615 L12.4921236,19.9342397 L12.4921236,18.6850274 C14.1347049,18.536185 15.6178124,17.8079208 16.7234982,16.702235 L15.8463916,15.8251284 C14.8310744,16.8404457 13.4277039,17.4730256 11.8754911,17.4730256 C11.668175,17.4730256 11.4608589,17.462394 11.2588586,17.4411308 L11.2588586,17.6856575 L11.2588586,18.6850274 L11.2588586,19.9342397 C7.08064195,19.6152919 3.77421606,16.1121815 3.77421606,11.8542279 C3.77421606,11.6469118 3.77953185,11.4395957 3.79547924,11.2375954 L3.15758357,11.2375954 L2.55158269,11.2375954 L1.30237033,11.2375954 C1.62131816,5.68258727 6.24074598,1.26515975 11.8754911,1.26515975 C14.8363902,1.26515975 17.515552,2.48779312 19.4398706,4.44932231 L20.3169771,3.57221576 C18.169395,1.38210729 15.181917,0.021263189 11.8754911,0.021263189 C5.35300784,0.021263189 0.0425263781,5.33174465 0.0425263781,11.8542279 C0.0425263781,12.061544 0.0478421753,12.2688601 0.0584737699,12.4708604 L0.430579578,12.4708604 L0.430579578,12.4708604 Z" id="Path" fill="url(#linearGradient-6)"></path>
            </g>
        </g>
    </g>
</svg>