<?xml version="1.0" encoding="UTF-8"?>
<svg width="196px" height="161px" viewBox="0 0 196 161" version="1.1" xmlns="http://www.w3.org/2000/svg" xmlns:xlink="http://www.w3.org/1999/xlink">
    <!-- Generator: Sketch 63.1 (92452) - https://sketch.com -->
    <title>Group 3</title>
    <desc>Created with Sketch.</desc>
    <defs>
        <linearGradient x1="36.7747314%" y1="12.8342744%" x2="58.6423613%" y2="92.9521127%" id="linearGradient-1">
            <stop stop-color="#F9EFE4" offset="0%"></stop>
            <stop stop-color="#F9EFE4" offset="100%"></stop>
        </linearGradient>
    </defs>
    <g id="Components" stroke="none" stroke-width="1" fill="none" fill-rule="evenodd">
        <g id="My-Account---Default-State---Delegation-Enabled" transform="translate(-108.000000, -388.000000)">
            <g id="Group-5" transform="translate(0.000000, 381.000000)">
                <g id="Group-3" transform="translate(102.000000, 0.000000)">
                    <g id="Group-56">
                        <g id="Group-55" fill-rule="nonzero">
                            <g id="undraw_cookie_love_ulvn-copy-2" transform="translate(103.815148, 87.481042) rotate(2.000000) translate(-103.815148, -87.481042) translate(3.315148, 3.481042)">
                                <path d="M49.7868219,3.51804343 L190.644362,157.387863 C195.277019,157.955172 197.830249,158.576009 197.830249,159.226674 C197.830249,161.914034 154.276436,164.092569 100.550085,164.092569 C46.8237344,164.092569 3.26992148,161.914034 3.26992148,159.226674 C3.26992148,156.539315 46.8237344,154.360779 100.550085,154.360779 C119.994743,154.360779 138.106938,154.646138 153.304177,155.137699 L29.4292933,43.0393406 L49.7868219,3.51804343 Z" id="Combined-Shape" fill="url(#linearGradient-1)" style="mix-blend-mode: multiply;" transform="translate(100.550085, 83.805306) rotate(-2.000000) translate(-100.550085, -83.805306) "></path>
                                <ellipse id="Oval" fill="#F9EFE4" style="mix-blend-mode: darken;" cx="99.9156712" cy="29.8922007" rx="8.26690623" ry="8.20526349"></ellipse>
                                <ellipse id="Oval" fill="#DFAA88" cx="134.641757" cy="45.1091113" rx="2.75563541" ry="2.73508783"></ellipse>
                                <ellipse id="Oval" fill="#DFAA88" cx="135.411119" cy="66.9764848" rx="2.75563541" ry="2.73508783"></ellipse>
                                <ellipse id="Oval" fill="#DFAA88" cx="160.901394" cy="70.4717902" rx="2.75563541" ry="2.73508783"></ellipse>
                                <path d="M158.18121,83.108315 C157.067708,81.3026129 153.178197,81.3492225 153.178197,81.3492225 C149.636911,86.5222986 141.124469,81.0272426 141.124469,81.0272426 C134.802012,83.8082412 130.944382,74.9458661 130.944382,74.9458661 C122.43713,73.6951682 123.751437,64.9107403 123.751437,64.9107403 C119.518942,64.0752584 120.706537,56.5516549 120.706537,56.5516549 C120.706537,56.5516549 123.055062,54.657848 121.899348,53.2724405 C121.164592,52.3916669 121.118998,49.863886 121.183152,48.1382618 C115.659991,46.4868156 109.918321,45.6495603 104.145394,45.6537856 C71.8812233,45.6537856 45.7259384,71.3691527 45.7259384,103.090638 C45.7259384,134.812123 71.8812233,160.527474 104.145394,160.527474 C136.409566,160.527474 162.56488,134.812123 162.56488,103.090638 C162.571861,96.1991833 161.314479,89.3629933 158.853096,82.9104058 C158.553216,83.2431295 158.320743,83.3345851 158.18121,83.108315 Z" id="Path" fill="#3F3D56"></path>
                                <path d="M158.18121,83.108315 C157.067708,81.3026129 153.178197,81.3492225 153.178197,81.3492225 C149.636911,86.5222986 141.124469,81.0272426 141.124469,81.0272426 C134.802012,83.8082412 130.944382,74.9458661 130.944382,74.9458661 C122.43713,73.6951682 123.751437,64.9107403 123.751437,64.9107403 C119.518942,64.0752584 120.706537,56.5516549 120.706537,56.5516549 C120.706537,56.5516549 123.055062,54.657848 121.899348,53.2724405 C121.164592,52.3916669 121.118998,49.863886 121.183152,48.1382618 C115.659991,46.4868156 109.918321,45.6495603 104.145394,45.6537856 C71.8812233,45.6537856 45.7259384,71.3691527 45.7259384,103.090638 C45.7259384,134.812123 71.8812233,160.527474 104.145394,160.527474 C136.409566,160.527474 162.56488,134.812123 162.56488,103.090638 C162.571861,96.1991833 161.314479,89.3629933 158.853096,82.9104058 C158.553216,83.2431295 158.320743,83.3345851 158.18121,83.108315 Z" id="Path" fill="#65617D"></path>
                                <path d="M97.0019106,77.9268941 C97.0019106,77.9268941 87.3637961,71.8404383 78.1637753,77.9268941 C74.9437671,80.0571522 73.3337643,83.0927709 72.6012119,86.1390417 C71.2987211,91.5553761 72.7271239,97.2654957 76.2100877,101.631392 L97.0230719,127.720477 C98.4793772,129.575018 100.875074,130.441351 103.19231,129.951399 C103.23736,129.941388 103.28271,129.930944 103.328359,129.920069 C104.990659,129.514167 106.410066,128.44468 107.250604,126.964759 L121.725218,101.740261 C124.403054,97.1466228 125.500704,91.8125879 124.852163,86.5448662 C124.173382,81.3573075 121.663075,75.8890091 114.525758,74.014162 C114.525758,74.0141644 106.201931,70.5361911 97.0019106,77.9268941 Z" id="Path" fill="#FFD700"></path>
                                <path d="M97.0019106,77.9268941 C97.0019106,77.9268941 87.3637961,71.8404383 78.1637753,77.9268941 C74.9437671,80.0571522 73.3337643,83.0927709 72.6012119,86.1390417 C71.2987211,91.5553761 72.7271239,97.2654957 76.2100877,101.631392 L97.0230719,127.720477 C98.4793772,129.575018 100.875074,130.441351 103.19231,129.951399 C103.23736,129.941388 103.28271,129.930944 103.328359,129.920069 C104.990659,129.514167 106.410066,128.44468 107.250604,126.964759 L121.725218,101.740261 C124.403054,97.1466228 125.500704,91.8125879 124.852163,86.5448662 C124.173382,81.3573075 121.663075,75.8890091 114.525758,74.014162 C114.525758,74.0141644 106.201931,70.5361911 97.0019106,77.9268941 Z" id="Path" fill="#000000" opacity="0.1"></path>
                                <path d="M97.1334019,79.7510845 C97.1334019,79.7510845 88.2984606,74.1328205 79.8651087,79.7510845 C76.9134364,81.7174792 75.4376002,84.5195891 74.7660938,87.3315309 C73.5721437,92.3312225 74.8815128,97.6021025 78.0742288,101.632161 L97.1527985,125.714393 C98.4877426,127.426281 100.683799,128.225977 102.807934,127.773714 C102.849237,127.764472 102.890807,127.754832 102.932644,127.744795 C104.456419,127.370114 105.757542,126.382896 106.528036,125.016816 L119.796433,101.732664 C122.251116,97.4923821 123.257295,92.568658 122.662799,87.7061461 C122.040582,82.91763 119.739469,77.8699695 113.196927,76.139343 C113.196927,76.139343 105.566751,72.9289075 97.1334019,79.7510845 Z" id="Path" fill="#FFD700"></path>
                                <path d="M97.6028187,81.5655064 C97.6028187,81.5655064 89.9003455,76.6384197 82.5479886,81.5655064 C80.2650014,83.1185157 78.6711744,85.5019969 78.1025757,88.2133786 C77.1053315,92.6171953 78.1678756,97.2376051 80.9866713,100.754697 C80.9866713,100.754697 100.706222,124.095246 102.549994,123.680226 C102.585998,123.672122 102.62224,123.663668 102.658719,123.654863 C103.987189,123.33418 117.360905,100.842836 117.360905,100.842836 C119.500943,97.1242075 120.37815,92.8062172 119.859858,88.541908 C119.317399,84.342473 117.311242,79.9158118 111.60733,78.398092 C111.607313,78.3980705 104.955176,75.5825949 97.6028187,81.5655064 Z" id="Path" fill="#000000" opacity="0.1"></path>
                                <polyline id="Path" fill="#000000" opacity="0.1" points="69.5082381 110.204417 70.6105286 112.219846 72.8148916 116.250464 73.5498246 119.071872 72.0801766 121.490291 73.9171821 126.327128 74.6521151 129.148537 73.1824671 130.760736 76.1217631 133.179155"></polyline>
                                <polyline id="Path" fill="#000000" opacity="0.1" points="129.22987 92.9111627 129.22987 96.106549 127.392707 101.298844 126.290453 104.094659 128.127616 107.68938 128.862525 110.08586 131.801724 111.284101 132.903978 113.281247 132.903978 118.073971"></polyline>
                                <path d="M150.317391,95.5669426 L146.643211,97.618258 C146.643211,97.618258 144.80612,98.4387846 144.80612,98.8490467 L144.80612,102.131153" id="Path" fill="#000000" opacity="0.1"></path>
                                <polyline id="Path" fill="#000000" opacity="0.1" points="134.470069 83.9598812 135.572324 87.8210603 134.470069 90.524092"></polyline>
                                <polyline id="Path" fill="#000000" opacity="0.1" points="138.098569 120.076563 135.554867 123.905497 132.587299 126.458287 132.587299 128.160064 134.283016 130.287473 134.283016 132.840264 133.011165 135.393055"></polyline>
                                <polyline id="Path" fill="#000000" opacity="0.1" points="114.711575 51.1127715 110.629188 51.1127715 107.363133 54.1760179 102.056006 57.2392643 99.606525 59.4274459 99.606525 60.3027704 94.2993977 63.3660169 92.6664914 66.4292633"></polyline>
                                <path d="M72.1895469,61.1937329 L68.5821698,68.4489144 L67.3797092,71.2703727 L64.5739718,74.8979622 C64.5739718,74.8979622 62.5698739,78.5255518 62.1690529,78.9286186 C61.768232,79.3316854 58.9624969,80.1378143 58.9624969,80.1378143 L62.9706926,84.1684707" id="Path" fill="#000000" opacity="0.1"></path>
                                <polyline id="Path" fill="#000000" opacity="0.1" points="57.0585088 87.7567894 56.2105243 92.9285796 57.0585088 96.1113468 57.0585088 101.680894 54.5148067 112.024475 57.0585088 114.809248 60.0260775 118.389773"></polyline>
                                <polyline id="Path" fill="#000000" opacity="0.1" points="61.8982351 89.6450743 64.0025575 90.7391095 65.4053696 95.4798562 68.2112021 94.7504273 69.6140143 97.3033202"></polyline>
                                <polyline id="Path" fill="#000000" opacity="0.1" points="105.46853 141.676797 111.881681 141.190511 114.68739 139.488727 118.69558 139.488727"></polyline>
                                <polyline id="Path" fill="#000000" opacity="0.1" points="66.7795045 133.22643 69.1603923 136.223102 73.1284602 137.507426 75.9063197 138.363727 76.699792 143.072746"></polyline>
                                <polyline id="Path" fill="#000000" opacity="0.1" points="114.480452 119.563578 117.323298 117.512181 118.541592 114.229994 120.978179 113.819812 122.196232 109.717261"></polyline>
                                <path d="M49.3881116,144.886227 C49.3881116,144.886227 48.6543419,149.433311 47.4313923,150.151271 C46.2084428,150.869232 53.79073,152.544473 53.79073,152.544473 L55.0136796,145.364868 L49.3881116,144.886227 Z" id="Path" fill="#FBBEBE"></path>
                                <path d="M57.9309558,93.3884507 L60.6253549,96.4589598 L59.400628,107.087645 L58.4208466,128.108822 C58.4208466,128.108822 60.3804095,146.295684 58.4208466,146.76807 C56.4612836,147.240456 47.6432503,147.004263 47.8881957,145.823298 C48.133141,144.642333 48.3780864,143.697561 48.8679771,142.04421 C49.3578679,140.390859 48.3780864,134.486034 48.3780864,134.486034 L49.6028132,127.872629 L45.1937966,99.2932758 L57.9309558,93.3884507 Z" id="Path" fill="#444053"></path>
                                <path d="M48.5664966,149.666056 C48.5664966,149.666056 46.0182271,149.17905 45.7865663,149.666056 C45.5549054,150.153061 41.153349,155.266619 40.4583664,155.266619 C39.7633838,155.266619 34.6668448,160.136674 39.9950447,160.380177 C45.3232445,160.62368 54.1263574,156.24063 54.1263574,156.24063 C54.1263574,156.24063 52.8308496,150.044342 52.8994513,150.342204 C52.968053,150.640067 48.5664966,150.883569 48.5664966,149.666056 Z" id="Path" fill="#B7B5C8"></path>
                                <path d="M47.0083824,137.985578 C47.0083824,137.985578 53.0599738,145.913781 53.2761021,146.681026 C53.4922304,147.448271 56.7341544,146.681026 56.7341544,146.681026 L58.030924,141.566057 L56.9502827,139.775817 L50.8986912,133.893602 L47.0083824,137.985578 Z" id="Path" fill="#FBBEBE"></path>
                                <path d="M56.4145525,144.303073 L52.8628446,147.598247 C52.8628446,147.598247 57.394334,154.443474 57.394334,155.167788 C57.394334,155.892103 57.6392793,161.928055 60.088733,160.962303 C62.5381867,159.996551 62.7831321,150.339026 62.7831321,150.339026 C62.7831321,150.339026 62.5381867,140.440063 61.0685145,139.715749 C59.5988423,138.991435 56.3776931,139.220275 56.3776931,139.220275 C56.3776931,139.220275 58.3741154,144.061635 56.4145525,144.303073 Z" id="Path" fill="#B7B5C8"></path>
                                <path d="M36.8656073,71.6775695 C36.8656073,71.6775695 35.6721081,75.4963942 35.4334083,76.4511004 C35.1947085,77.4058066 33.7625095,80.0312486 33.7625095,84.0887499 C33.7625095,88.1462511 34.2399092,92.9197821 33.7625095,93.3971351 C33.2851099,93.8744882 25.6467154,120.606261 28.988513,123.47038 C32.3303105,126.334498 43.3105026,135.88156 44.0266021,137.074943 C44.7427016,138.268326 44.9814014,141.132444 46.4136004,140.655091 C47.8457994,140.177738 53.3358954,135.404207 53.5745952,134.449501 C53.8132951,133.494795 50.4714975,131.824059 50.4714975,131.824059 C50.4714975,131.824059 43.7879023,122.038321 42.1170035,122.276997 C40.4461047,122.515674 40.6848045,121.083614 40.9235044,120.367585 C41.1622042,119.651555 41.6396038,119.174202 40.9235044,119.174202 C40.2074049,119.174202 40.6848045,117.26479 40.9235044,116.310083 C41.1622042,115.355377 46.6523002,102.466844 46.6523002,102.466844 L61.2129897,96.0225771 C61.2129897,96.0225771 60.4968902,78.5991893 55.245494,73.8256584 L54.0519949,70.9615399 C54.0519949,70.9615399 40.6848045,70.0068337 36.8656073,71.6775695 Z" id="Path" fill="#444053"></path>
                                <path d="M42.3991811,34.5296877 C42.3991811,34.5296877 43.5279956,42.6193841 40.8188408,43.0816525 C38.109686,43.5439209 35.852057,43.3127867 35.852057,43.5439209 C35.852057,43.775055 42.624944,50.9402147 42.624944,50.9402147 L48.9463052,50.4779463 L54.5903778,44.2373234 C54.5903778,44.2373234 49.3978311,43.3127867 49.3978311,40.0769081 C49.3978311,36.8410296 49.1720681,34.5296877 49.1720681,34.5296877 L42.3991811,34.5296877 Z" id="Path" fill="#FBBEBE"></path>
                                <path d="M42.3991811,34.5296877 C42.3991811,34.5296877 43.5279956,42.6193841 40.8188408,43.0816525 C38.109686,43.5439209 35.852057,43.3127867 35.852057,43.5439209 C35.852057,43.775055 42.624944,50.9402147 42.624944,50.9402147 L48.9463052,50.4779463 L54.5903778,44.2373234 C54.5903778,44.2373234 49.3978311,43.3127867 49.3978311,40.0769081 C49.3978311,36.8410296 49.1720681,34.5296877 49.1720681,34.5296877 L42.3991811,34.5296877 Z" id="Path" fill="#000000" opacity="0.1"></path>
                                <ellipse id="Oval" fill="#FBBEBE" cx="45.3296254" cy="30.1421208" rx="7.71577915" ry="7.65824593"></ellipse>
                                <path d="M38.9516136,43.2913958 C38.9516136,43.2913958 29.487719,44.4605936 28.7597272,47.5005081 C28.0317353,50.5404225 33.6130064,69.4814277 34.3409983,71.1183047 C35.0689902,72.7551816 36.0058286,74.824225 36.0058286,74.824225 C38.2273147,73.2232335 39.8793087,71.7265221 42.5915731,72.2875025 C47.2021884,73.2228608 53.7541154,72.7551816 53.7541154,72.7551816 C53.7541154,72.7551816 55.938091,64.1031175 56.423419,63.1677593 C56.9087469,62.232401 58.8500586,57.0879304 58.8500586,55.684893 C58.8500586,54.2818556 61.7620262,48.4358663 61.7620262,48.4358663 C61.7620262,48.4358663 60.3060424,44.2267541 54.9674352,44.4605936 C54.9674352,44.4605936 52.6387857,43.4562387 51.9831295,44.1922557 C51.3274733,44.9282728 47.6875163,48.2020268 43.076901,46.7989894 C38.4662857,45.3959519 38.9516136,43.2913958 38.9516136,43.2913958 Z" id="Path" fill="#A36468"></path>
                                <path d="M31.9105434,47.0715239 L29.0597073,47.0715239 L27.5047058,64.9081149 C27.5047058,64.9081149 33.2063779,66.2627927 33.9838787,65.3596742 C34.7613794,64.4565556 31.9105434,47.0715239 31.9105434,47.0715239 Z" id="Path" fill="#A36468"></path>
                                <path d="M57.3618359,47.0753933 L61.8862581,48.2974538 C61.8862581,48.2974538 65.220043,60.7624712 65.4581704,61.0068833 C65.6962979,61.2512954 65.9344254,62.717768 65.9344254,62.717768 C65.9344254,62.717768 65.9344254,62.9621801 66.4106804,63.6954164 C66.8869354,64.4286527 67.6013178,63.9398285 67.1250628,64.9174769 C66.6488079,65.8951253 65.9344254,65.4063011 66.4106804,66.3839495 C66.8869354,67.361598 66.6488079,70.0501311 66.6488079,70.0501311 C66.6488079,70.0501311 65.4581704,65.4063011 61.1718757,66.6283616 L58.3143458,53.430108 L57.3618359,47.0753933 Z" id="Path" fill="#A36468"></path>
                                <ellipse id="Oval" fill="#FFB9B9" transform="translate(38.045011, 31.909481) rotate(-16.160120) translate(-38.045011, -31.909481) " cx="38.0450108" cy="31.9094806" rx="1.25144367" ry="1.54184499"></ellipse>
                                <ellipse id="Oval" fill="#FFB9B9" transform="translate(53.523000, 31.909493) rotate(-73.839880) translate(-53.523000, -31.909493) " cx="53.523" cy="31.9094925" rx="1.54184499" ry="1.25144367"></ellipse>
                                <ellipse id="Oval" fill="#3F3D56" cx="51.3446207" cy="60.0379436" rx="3.85788957" ry="3.82912296"></ellipse>
                                <ellipse id="Oval" fill="#000000" opacity="0.1" cx="51.3446207" cy="60.0379436" rx="3.85788957" ry="3.82912296"></ellipse>
                                <ellipse id="Oval" fill="#3F3D56" cx="51.3446207" cy="60.0379436" rx="3.85788957" ry="3.82912296"></ellipse>
                                <path d="M51.1985615,57.8483287 C51.1985615,57.8483287 50.194269,57.1460567 49.2356287,57.8483287 C48.9379599,58.0696864 48.7301473,58.4094159 48.6560097,58.795883 C48.5259846,59.4235824 48.6645255,60.0821533 49.0320554,60.5834631 L51.2007663,63.5937418 C51.3525123,63.8077276 51.6021431,63.9076895 51.8435985,63.8511569 L51.8577755,63.8475427 C52.0309872,63.8007073 52.1788892,63.6773046 52.2664731,63.5065441 L53.7747254,60.596026 C54.053757,60.065991 54.1681324,59.4505246 54.1005535,58.8427101 C54.0686921,58.1538435 53.6326328,57.567904 53.0245446,57.3968605 C53.0245446,57.3968605 52.157192,56.9955557 51.1985615,57.8483287 Z" id="Path" fill="#000000" opacity="0.1"></path>
                                <path d="M51.1793269,57.7576885 C51.1793269,57.7576885 50.1750359,57.1724529 49.2163949,57.7576885 C48.9187259,57.9421537 48.7109135,58.225262 48.6367759,58.5473182 C48.5067505,59.0704 48.6452909,59.6192083 49.0128204,60.0369657 L51.1815322,62.5455324 C51.3332767,62.7238565 51.5829083,62.8071609 51.8243656,62.7600522 L51.8385431,62.7570408 C52.011754,62.7180109 52.1596554,62.6151755 52.2472391,62.4728757 L53.7554934,60.0474449 C54.0345237,59.605749 54.1488983,59.0928609 54.0813194,58.5863494 C54.0494587,58.0122934 53.6133985,57.52401 53.0053091,57.3814744 C53.0053091,57.3814744 52.1379679,57.0470466 51.1793269,57.7576885 Z" id="Path" fill="#FFD700"></path>
                                <path d="M52.8731821,57.4288566 C52.6318672,57.2946899 52.3293196,57.2946899 52.0880047,57.4288566 C51.9689372,57.5028124 51.8858119,57.6163154 51.8561561,57.7454334 C51.8041437,57.9551464 51.8595591,58.1751745 52.0065716,58.3426614 C52.0065716,58.3426614 53.0350322,59.4541572 53.1311937,59.4343934 L53.136863,59.4331869 C53.2061501,59.4179147 53.9036412,58.3468578 53.9036412,58.3468578 C54.0152535,58.1697742 54.0610036,57.9641484 54.0339722,57.761079 C54.0212289,57.530929 53.8468038,57.3351667 53.6035665,57.2780223 C53.3482489,57.2044852 53.0695764,57.2620348 52.8731821,57.4288566 Z" id="Path" fill="#000000" opacity="0.1"></path>
                                <ellipse id="Oval" fill="#3F3D56" cx="48.0783407" cy="61.2458561" rx="3.85788957" ry="3.82912296"></ellipse>
                                <ellipse id="Oval" fill="#000000" opacity="0.1" cx="48.0783407" cy="61.2458561" rx="3.85788957" ry="3.82912296"></ellipse>
                                <ellipse id="Oval" fill="#65617D" cx="48.0783407" cy="61.2458561" rx="3.85788957" ry="3.82912296"></ellipse>
                                <path d="M47.9322815,59.0562412 C47.9322815,59.0562412 46.927989,58.3539692 45.9693488,59.0562412 C45.6716799,59.2775989 45.4638674,59.6173284 45.3897297,60.0037955 C45.2597047,60.6314949 45.3982455,61.2900658 45.7657754,61.7913756 L47.9344863,64.8016543 C48.0862323,65.0156401 48.3358631,65.115602 48.5773185,65.0590694 L48.5914955,65.0554552 C48.7647072,65.0086198 48.9126092,64.8852171 49.0001931,64.7144566 L50.5084454,61.8039385 C50.787477,61.2739035 50.9018524,60.6584371 50.8342736,60.0506226 C50.8024121,59.361756 50.3663528,58.7758165 49.7582646,58.604773 C49.7582646,58.604773 48.890912,58.2034682 47.9322815,59.0562412 Z" id="Path" fill="#000000" opacity="0.1"></path>
                                <path d="M47.9130469,58.965601 C47.9130469,58.965601 46.908756,58.3803654 45.9501149,58.965601 C45.652446,59.1500662 45.4446335,59.4331745 45.3704959,59.7552307 C45.2404705,60.2783125 45.3790109,60.8271208 45.7465405,61.2448782 L47.9152522,63.7534449 C48.0669968,63.931769 48.3166283,64.0150734 48.5580856,63.9679647 L48.5722631,63.9649533 C48.7454741,63.9259234 48.8933754,63.823088 48.9809591,63.6807882 L50.4892134,61.2553574 C50.7682437,60.8136615 50.8826183,60.3007734 50.8150394,59.7942619 C50.7831787,59.2202059 50.3471185,58.7319225 49.7390291,58.5893869 C49.7390291,58.5893869 48.8716879,58.2549591 47.9130469,58.965601 Z" id="Path" fill="#FFD700"></path>
                                <path d="M48.5822557,60.8616877 C48.3409408,60.727521 48.0383932,60.727521 47.7970783,60.8616877 C47.6780107,60.9356435 47.5948855,61.0491466 47.5652296,61.1782645 C47.5132172,61.3879775 47.5686326,61.6080056 47.7156451,61.7754926 C47.7156451,61.7754926 48.7441057,62.8869883 48.8402673,62.8672245 L48.8459366,62.866018 C48.9152236,62.8507459 49.6127147,61.779689 49.6127147,61.779689 C49.7243271,61.6026053 49.7700771,61.3969795 49.7430457,61.1939101 C49.7303024,60.9637601 49.5558773,60.7679978 49.3126401,60.7108535 C49.0573225,60.6373163 48.7786499,60.694866 48.5822557,60.8616877 Z" id="Path" fill="#000000" opacity="0.1"></path>
                                <path d="M44.6249141,51.4318355 C44.5198051,51.2597629 44.1526534,51.2642035 44.1526534,51.2642035 C43.8183731,51.7571713 43.0148411,51.2335214 43.0148411,51.2335214 C42.4180314,51.4985352 42.0538888,50.6539973 42.0538888,50.6539973 C41.2508459,50.5348123 41.3749105,49.697704 41.3749105,49.697704 C40.9753815,49.6180871 41.0874868,48.9011277 41.0874868,48.9011277 C41.0874868,48.9011277 41.3091751,48.7206569 41.2000812,48.5886355 C41.1349861,48.4341799 41.1116788,48.2655235 41.1324684,48.0993754 C38.6822233,47.3591456 36.0411328,48.3920065 34.7581419,50.5922064 C33.4751509,52.7924064 33.88848,55.5799315 35.7557201,57.319956 C37.6229603,59.0599805 40.4518719,59.2938012 42.5833571,57.8842873 C44.7148422,56.4747733 45.5870013,53.7934989 44.6883311,51.412976 C44.6600296,51.4446838 44.6380866,51.4533985 44.6249141,51.4318355 Z" id="Path" fill="#3F3D56"></path>
                                <path d="M44.6249141,51.4318355 C44.5198051,51.2597629 44.1526534,51.2642035 44.1526534,51.2642035 C43.8183731,51.7571713 43.0148411,51.2335214 43.0148411,51.2335214 C42.4180314,51.4985352 42.0538888,50.6539973 42.0538888,50.6539973 C41.2508459,50.5348123 41.3749105,49.697704 41.3749105,49.697704 C40.9753815,49.6180871 41.0874868,48.9011277 41.0874868,48.9011277 C41.0874868,48.9011277 41.3091751,48.7206569 41.2000812,48.5886355 C41.1349861,48.4341799 41.1116788,48.2655235 41.1324684,48.0993754 C38.6822233,47.3591456 36.0411328,48.3920065 34.7581419,50.5922064 C33.4751509,52.7924064 33.88848,55.5799315 35.7557201,57.319956 C37.6229603,59.0599805 40.4518719,59.2938012 42.5833571,57.8842873 C44.7148422,56.4747733 45.5870013,53.7934989 44.6883311,51.412976 C44.6600296,51.4446838 44.6380866,51.4533985 44.6249141,51.4318355 Z" id="Path" fill="#000000" opacity="0.1"></path>
                                <path d="M43.5067172,50.0008775 C43.4121192,49.8460112 43.0816833,49.8500085 43.0816833,49.8500085 C42.7808249,50.2936772 42.0576531,49.8223943 42.0576531,49.8223943 C41.5205256,50.0609048 41.1927987,49.3008286 41.1927987,49.3008286 C40.4700602,49.1935608 40.5817182,48.440164 40.5817182,48.440164 C40.2221425,48.3685095 40.3230367,47.7232453 40.3230367,47.7232453 C40.3230367,47.7232453 40.5225562,47.5608235 40.4243711,47.4420052 C40.36579,47.3029941 40.3448163,47.1512041 40.3635278,47.0016717 C38.1583069,46.3354629 35.7813239,47.2650367 34.6266309,49.2452171 C33.471938,51.2253974 33.843934,53.734171 35.524451,55.3001935 C37.2049679,56.8662159 39.7509896,57.0766538 41.6693262,55.8080896 C43.5876628,54.5395255 44.3726043,52.1263769 43.5637986,49.9839063 C43.5383209,50.0124325 43.5185723,50.0202763 43.5067172,50.0008775 Z" id="Path" fill="#65617D"></path>
                                <path d="M39.9326869,51.5792868 C39.9326869,51.5792868 38.9283972,50.9940508 37.969755,51.5792868 C37.6720881,51.7637524 37.4642779,52.0468604 37.3901426,52.3689157 C37.2601131,52.8920009 37.3986529,53.440814 37.7661851,53.8585746 L39.9348968,56.3671405 C40.086644,56.5454617 40.3362757,56.6287626 40.5777314,56.5816514 L40.5919062,56.5786404 C40.7651172,56.5396106 40.9130188,56.4367757 41.0006035,56.2944764 L42.5088579,53.8690436 C42.7878873,53.4273469 42.902262,52.9144587 42.8346842,52.4079467 C42.8028242,51.8338901 42.3667636,51.345606 41.7586738,51.2030712 C41.7586738,51.2030712 40.8913265,50.8686537 39.9326869,51.5792868 Z" id="Path" fill="#FFD700"></path>
                                <path d="M39.9326869,51.5792868 C39.9326869,51.5792868 38.9283972,50.9940508 37.969755,51.5792868 C37.6720881,51.7637524 37.4642779,52.0468604 37.3901426,52.3689157 C37.2601131,52.8920009 37.3986529,53.440814 37.7661851,53.8585746 L39.9348968,56.3671405 C40.086644,56.5454617 40.3362757,56.6287626 40.5777314,56.5816514 L40.5919062,56.5786404 C40.7651172,56.5396106 40.9130188,56.4367757 41.0006035,56.2944764 L42.5088579,53.8690436 C42.7878873,53.4273469 42.902262,52.9144587 42.8346842,52.4079467 C42.8028242,51.8338901 42.3667636,51.345606 41.7586738,51.2030712 C41.7586738,51.2030712 40.8913265,50.8686537 39.9326869,51.5792868 Z" id="Path" fill="#000000" opacity="0.1"></path>
                                <path d="M39.9326832,51.5792947 C39.9326832,51.5792947 38.9283934,50.9940582 37.9697561,51.5792947 C37.6720879,51.7637592 37.4642765,52.0468677 37.390141,52.368924 C37.2601145,52.8920062 37.3986541,53.4408156 37.7661831,53.8585733 L39.9348857,56.3671384 C40.0866321,56.5454604 40.3362632,56.6287623 40.5777189,56.5816519 L40.59191,56.5786396 C40.7651229,56.5396115 40.9130265,56.436776 41.0006113,56.2944747 L42.5088582,53.8690422 C42.7878877,53.427346 42.9022622,52.9144577 42.834684,52.4079458 C42.8028224,51.8338899 42.366763,51.345607 41.7586756,51.2030722 C41.7586756,51.2030722 40.8913206,50.8686498 39.9326832,51.5792947 Z" id="Path" fill="#FFD700"></path>
                                <path d="M41.1280436,52.2721139 C41.0073865,52.2050304 40.8561128,52.2050304 40.7354557,52.2721139 C40.6759212,52.3090912 40.6343582,52.3658429 40.6195307,52.4304021 C40.5935254,52.5352586 40.6212338,52.6452722 40.6947404,52.7290151 C40.6947404,52.7290151 41.2089714,53.2847636 41.2570511,53.2748817 L41.2598863,53.2742778 C41.3979047,53.0994772 41.5258749,52.9181753 41.6432733,52.7311139 C41.6990794,52.6425722 41.7219547,52.5397594 41.7084398,52.4382247 C41.702065,52.3231507 41.6148537,52.2252708 41.4932367,52.1966958 C41.3655774,52.1599278 41.226241,52.1887029 41.1280436,52.2721139 L41.1280436,52.2721139 Z" id="Path" fill="#000000" opacity="0.1"></path>
                                <polyline id="Path" fill="#000000" opacity="0.1" points="37.3436926 53.3888893 37.5272112 53.4848322 37.8946293 53.6767179 38.0172289 53.8110857 37.7720297 53.926241 38.0785287 54.1565516 38.2007475 54.2909194 37.9559291 54.3677692 38.4459467 54.4829245"></polyline>
                                <polyline id="Path" fill="#000000" opacity="0.1" points="42.2015729 52.1427956 42.2015729 52.2817498 41.8954546 52.5075099 41.7115552 52.6289734 42.0176735 52.7853104 42.1402731 52.8894991 42.6302907 52.9415395 42.8138094 53.0284533 42.8138094 53.2368307"></polyline>
                                <path d="M44.1461426,52.0855236 L43.8380284,52.427408 C43.8380284,52.427408 43.6839702,52.5641635 43.6839702,52.6325412 L43.6839702,53.1795588" id="Path" fill="#000000" opacity="0.1"></path>
                                <polyline id="Path" fill="#000000" opacity="0.1" points="42.778514 52.1237049 42.8590327 52.7671608 42.778514 53.21774"></polyline>
                                <polyline id="Path" fill="#000000" opacity="0.1" points="43.102296 53.2170736 42.8712182 53.4904879 42.6015875 53.6728271 42.6015875 53.7945125 42.7557991 53.9464303 42.7557991 54.1287695 42.6401404 54.3111087"></polyline>
                                <polyline id="Path" fill="#000000" opacity="0.1" points="41.5198861 46.7141335 41.3158073 46.7141335 41.1524681 46.9329793 40.8870894 47.1518252 40.7646167 47.3080882 40.7646167 47.3706711 40.4992381 47.5893227 40.417632 47.8081686"></polyline>
                                <path d="M37.2289597,50.1469646 L36.9283421,50.4924501 L36.8281383,50.6268048 L36.5943246,50.7995469 C36.5943246,50.7995469 36.4273169,50.9722903 36.3939212,50.991484 C36.308566,51.0159513 36.2190119,51.0352485 36.1267055,51.0490639 L36.4607251,51.2409997" id="Path" fill="#000000" opacity="0.1"></path>
                                <polyline id="Path" fill="#000000" opacity="0.1" points="36.165467 51.2590907 36.0883612 51.6285097 36.165467 51.8558853 36.165467 52.2537484 35.9343892 52.9924098 36.165467 53.1913413 36.4350977 53.4471609"></polyline>
                                <polyline id="Path" fill="#000000" opacity="0.1" points="36.1651736 51.2403333 36.4658167 51.3967628 36.6661416 52.0739764 37.0671029 51.96969 37.2674278 52.3343684"></polyline>
                                <polyline id="Path" fill="#000000" opacity="0.1" points="38.5799137 57.8967716 39.1142204 57.8203458 39.3480444 57.5522603 39.6821678 57.5522603"></polyline>
                                <polyline id="Path" fill="#000000" opacity="0.1" points="36.3190461 55.613808 36.5835761 55.9468395 37.0243681 56.0893983 37.3330322 56.1846346 37.4213002 56.7078431"></polyline>
                                <polyline id="Path" fill="#000000" opacity="0.1" points="40.6484407 54.3683806 41.0545723 54.1405039 41.2284226 53.775731 41.5764838 53.730099 41.7506948 53.2743455"></polyline>
                                <path d="M27.49741,63.5476164 L26.8161885,65.3943328 C26.8161885,65.3943328 26.3620409,71.396161 29.0869267,71.1653214 C31.8118125,70.9344819 33.4013293,67.4718887 33.4013293,67.4718887 C33.4013293,67.4718887 31.8118125,63.0859374 29.995222,63.5476164 C28.1786314,64.0092955 27.49741,63.5476164 27.49741,63.5476164 Z" id="Path" fill="#A36468"></path>
                                <path d="M31.5469435,65.3282746 C31.5469435,65.3282746 30.2276623,69.9089617 31.7668237,69.9089617 C33.3059851,69.9089617 36.1644276,67.1096529 36.3843078,64.8193093 C36.604188,62.5289658 40.5620316,53.8765567 37.703589,54.6400045 C34.8451465,55.4034524 33.5258653,61.7655179 33.5258653,61.7655179 L31.5469435,65.3282746 Z" id="Path" fill="#FBBEBE"></path>
                                <path d="M66.0270119,66.4867002 L67.5590142,68.9401273 C67.5590142,68.9401273 68.2340769,73.5365686 64.8008646,73.5365686 C61.3676523,73.5365686 56.4630632,69.071652 56.4630632,69.071652 C56.4630632,69.071652 54.0107687,68.1316695 52.539392,68.3666651 C51.0680153,68.6016608 42.9754433,68.3666651 46.4086557,64.3717397 C49.841868,60.3768143 55.7273749,64.3717397 55.7273749,64.3717397 L61.8581112,67.1916871 L65.0460941,65.5467178 L66.0270119,66.4867002 Z" id="Path" fill="#FBBEBE"></path>
                                <path d="M63.5375723,62.8248391 L60.9176339,66.7813014 C60.9176339,66.7813014 66.9434922,67.5231381 67.4674799,68.7595326 C67.9914675,69.995927 65.1095353,62.3302813 65.1095353,62.3302813 L63.5375723,62.8248391 Z" id="Path" fill="#A36468"></path>
                            </g>
                            <g id="Group-51-Copy" transform="translate(39.681150, 11.132325)">
                                <path d="M15.5025075,27.2953118 C12.5159404,29.4230687 8.44590884,29.2216617 5.68708201,26.8095917 C5.61579289,25.4313795 5.5016726,24.413411 5.5016726,24.413411 C5.5016726,24.413411 15.7918395,18.6455612 15.4352471,24.413411 C15.36276,25.3739186 15.385288,26.3391717 15.5025075,27.2953118 L15.5025075,27.2953118 Z" id="Path" fill="#000000" opacity="0.1"></path>
                                <ellipse id="Oval" fill="#FBBEBE" cx="10.9014612" cy="20.719964" rx="7.89592011" ry="7.84225515"></ellipse>
                                <path d="M18.8197936,19.6797225 C18.591854,19.7593787 18.4480512,19.9832259 18.4713608,20.2221019 C18.2635155,20.4042505 17.9721219,20.1897266 17.8030031,19.9569832 C17.6318489,19.7262665 17.4382798,19.4409146 17.1794934,19.4732899 C17.0565646,19.5122383 16.9372569,19.5616713 16.8229036,19.6210365 C16.4153727,19.7505506 16.0709949,19.2749614 15.8427805,18.8580584 C15.4454465,18.127465 15.0481045,17.3975447 14.6507547,16.6682972 C13.854024,17.1277039 12.9126274,16.6460373 12.1220159,16.1704352 C11.3314044,15.694833 10.3900077,15.2111527 9.59126273,15.670562 C8.41961115,16.3424659 8.37680358,18.5828218 7.16236804,19.135319 C6.77112771,19.3134142 6.31673434,19.2749484 5.95402014,19.5198469 C5.59538972,19.7626952 5.40182325,20.2301931 5.24083784,20.6774578 C5.18127058,20.932063 5.04134069,21.1610989 4.84146666,21.3311447 C4.71447642,21.3970939 4.57315454,21.4311447 4.42985464,21.4303206 C4.06978023,21.4910913 3.69959195,21.439473 3.37028539,21.2825766 C3.01465898,21.0606269 2.86213586,20.623012 3.00349528,20.2301931 C3.0131552,20.2099915 3.02404535,20.1903932 3.0361052,20.1715071 C3.1666264,20.0147798 3.28385084,19.8475828 3.38657592,19.6716313 C3.5088323,19.3498429 3.33359431,18.9754434 3.37232335,18.6273417 C3.435479,18.0323408 4.06918626,17.718654 4.17718744,17.133771 C4.22201198,16.9050784 4.17514948,16.660206 4.21793082,16.4294893 C4.22392186,16.3992606 4.23210193,16.3695007 4.24240727,16.3404417 L3.86950067,16.5954425 C4.28722919,16.1117492 4.49711505,15.4398531 4.80276386,14.8529408 C5.48888315,13.5543771 6.68019153,12.5912758 8.09968878,12.187575 C9.42824461,11.8030732 10.832176,11.9082902 12.1729621,12.234132 C13.4479269,12.5496017 14.6693033,13.0494205 15.7979586,13.7175743 C16.2011416,13.9323346 16.5593752,14.2215124 16.853452,14.5696026 C17.0998424,14.9305093 17.3094027,15.3149076 17.4790258,15.7170982 C17.874321,16.5306711 18.9542882,17.2835209 18.0944019,17.3968552 C17.3791843,17.4919803 18.0312227,17.9898424 18.4061698,18.3257865 C18.4907258,18.3916514 18.5637074,18.4709784 18.6221486,18.5605436 C18.7486753,18.820727 18.7317364,19.1272264 18.5772978,19.3720924 C18.4326318,19.5542489 19.0195028,19.5906749 18.8197936,19.6797225 Z" id="Path" fill="#000000" opacity="0.1"></path>
                                <path d="M18.8197936,19.4773433 C18.5918534,19.5569987 18.4480502,19.7808464 18.4713608,20.0197226 C18.2635155,20.2018686 17.9721219,19.9873448 17.8030031,19.754604 C17.6318489,19.5238873 17.4382798,19.2385354 17.1794934,19.2709106 C17.0565642,19.3098579 16.9372564,19.3592909 16.8229036,19.4186573 C16.4153727,19.5481713 16.0709949,19.0725822 15.8427805,18.6556765 C15.4454465,17.9250867 15.0481045,17.1951663 14.6507547,16.4659154 C13.854024,16.9253247 12.9126274,16.4436581 12.1220159,15.9680559 C11.3314044,15.4924538 10.3900077,15.0087709 9.59126273,15.4681802 C8.41961115,16.1400866 8.37680358,18.3804425 7.16236804,18.9329372 C6.77112771,19.111035 6.31673434,19.0725822 5.95402014,19.317465 C5.59538972,19.5603134 5.40182325,20.0278113 5.24083784,20.4750785 C5.18126989,20.7296827 5.04134008,20.9587176 4.84146666,21.1287628 C4.71447661,21.1947128 4.57315475,21.2287646 4.42985464,21.2279414 C4.06977994,21.2887099 3.69959207,21.2370908 3.37028539,21.0801947 C3.01465816,20.8582457 2.86213481,20.4206302 3.00349528,20.0278113 C3.0131552,20.0076096 3.02404535,19.9880113 3.0361052,19.9691252 C3.16662638,19.8123989 3.28385082,19.6452028 3.38657592,19.4692521 C3.5088323,19.1474611 3.33359431,18.7730616 3.37232335,18.4249598 C3.435479,17.829972 4.06918626,17.5162722 4.17718744,16.9313892 C4.22201198,16.7026992 4.17514948,16.4578242 4.21793082,16.2271075 C4.22392219,16.1968788 4.23210226,16.167119 4.24240727,16.1380599 L3.86950067,16.3930607 C4.28722919,15.9093699 4.49711505,15.2374713 4.80276386,14.650559 C5.48888322,13.3519959 6.68019171,12.3888954 8.09968878,11.9851958 C9.42824461,11.6006784 10.832176,11.7059084 12.1729621,12.0317502 C13.4479265,12.3472211 14.6693028,12.8470398 15.7979586,13.5151925 C16.2011416,13.7299528 16.5593752,14.0191306 16.853452,14.3672208 C17.0998424,14.7281275 17.3094027,15.1125258 17.4790258,15.5147163 C17.874321,16.3282919 18.9542882,17.0811417 18.0944019,17.1944734 C17.3791843,17.2895985 18.0312227,17.7874605 18.4061698,18.1234073 C18.490727,18.1892708 18.5637088,18.268598 18.6221486,18.3581644 C18.7486753,18.6183478 18.7317364,18.9248471 18.5772978,19.1697132 C18.4326318,19.351867 19.0195028,19.3882957 18.8197936,19.4773433 Z" id="Path" fill="#E3787D"></path>
                                <path d="M18.4061672,18.1234151 L18.3246306,18.9754434 C18.3246306,18.9754434 9.77463155,8.21283469 3.12374255,20.3657977 C3.12374255,20.3657977 3.09110903,20.2180511 3.03611307,19.9691252 C3.16663424,19.8123989 3.28385869,19.6452028 3.38658379,19.4692521 C3.50884017,19.1474611 3.33360218,18.7730616 3.37233122,18.4249598 C3.43548687,17.829972 4.06919413,17.5162722 4.17719531,16.9313892 C4.22201985,16.7026992 4.17515735,16.4578242 4.21793869,16.2271075 C4.22393006,16.1968788 4.23211013,16.167119 4.24241514,16.1380599 L3.86950854,16.3930607 C4.28723706,15.9093699 4.49712292,15.2374713 4.80277173,14.650559 C5.48889109,13.3519959 6.68019958,12.3888954 8.09969665,11.9851958 C9.42825248,11.6006784 10.8321838,11.7059084 12.17297,12.0317502 C13.4479344,12.3472211 14.6693106,12.8470398 15.7979665,13.5151925 C16.2011494,13.7299528 16.5593831,14.0191306 16.8534598,14.3672208 C17.0998503,14.7281275 17.3094106,15.1125258 17.4790336,15.5147163 C17.8743289,16.3282919 18.9542961,17.0811417 18.0944098,17.1944734 C17.3791817,17.2896063 18.03122,17.7874684 18.4061672,18.1234151 Z" id="Path" fill="#000000" opacity="0.1"></path>
                                <g id="Group" opacity="0.1" transform="translate(2.893199, 14.834226)" fill="#000000">
                                    <path d="M15.7238034,4.53288789 C15.6383406,4.62829088 15.6025047,4.75779177 15.6268707,4.88317526 C15.4190254,5.06532126 15.1276292,4.85080001 14.9585129,4.6180566 C14.7873561,4.38733989 14.5937896,4.10198799 14.3350033,4.13436325 C14.2120743,4.17331118 14.0927666,4.2227442 13.9784135,4.28210988 C13.57088,4.41162394 13.2265048,3.93603483 12.9982878,3.51913174 C12.6009537,2.78853841 12.2036126,2.05861804 11.8062645,1.32937063 C11.0095339,1.78877733 10.0681373,1.30711069 9.27752574,0.831508554 C8.48691423,0.355906418 7.54551758,-0.127773903 6.7467726,0.331632789 C5.5751184,1.00353924 5.53231083,3.24389515 4.31787529,3.79639243 C3.92663758,3.97448762 3.47224421,3.93602181 3.10952739,4.18092027 C2.75089697,4.42376597 2.5573305,4.89126647 2.39634771,5.33853114 C2.3367782,5.59313607 2.19684764,5.82217155 1.99697391,5.99221804 C1.86998464,6.05816735 1.72866359,6.09221819 1.58536451,6.09139397 C1.22528896,6.1521627 0.855100191,6.1005436 0.525792642,5.94364734 C0.328433812,5.81363805 0.18687839,5.61530723 0.128708592,5.38729983 C0.0458447489,5.75860669 0.204216838,6.14193302 0.525792642,6.34840841 C0.855099837,6.50530583 1.22528898,6.55692498 1.58536451,6.49615504 C1.72866359,6.49697926 1.86998464,6.46292841 1.99697391,6.39697911 C2.19684764,6.22693262 2.3367782,5.99789714 2.39634771,5.74329221 C2.5573305,5.29602754 2.75089697,4.82852704 3.10952739,4.58568134 C3.47223634,4.3407959 3.92662971,4.37924869 4.31787529,4.2011535 C5.53231083,3.64865622 5.5751184,1.40830552 6.7467726,0.736396463 C7.54551758,0.276987166 8.48691423,0.760680512 9.27752574,1.23626962 C10.0681373,1.71185873 11.0095339,2.19353839 11.8062645,1.7341317 C12.2035969,2.46269833 12.600938,3.19261869 12.9982878,3.92389281 C13.2265048,4.3407959 13.57088,4.81637459 13.9784135,4.68687095 C14.0927666,4.62750527 14.2120743,4.57807225 14.3350033,4.53912432 C14.5937896,4.50674906 14.7873561,4.79210096 14.9585129,5.02281766 C15.1276292,5.25556107 15.4190254,5.47008494 15.6268707,5.28793633 C15.6035597,5.04906082 15.7473617,4.82521334 15.9753008,4.74555697 C16.1341696,4.67474195 15.7962886,4.63694303 15.7238034,4.53288789 Z" id="Path"></path>
                                    <path d="M15.0575099,2.51093211 C15.1191637,2.48632286 15.1838819,2.47009795 15.2499092,2.46269746 C15.6290346,2.41273046 15.6306266,2.23823021 15.4804867,1.98924447 C15.409133,2.02748296 15.3306731,2.05085713 15.2499092,2.05793639 C14.8407836,2.11234756 14.8796385,2.29864597 15.0575099,2.51093211 Z" id="Path"></path>
                                    <path d="M15.8381231,4.20615515 C15.8665221,4.07566648 15.8658059,3.94058403 15.8360248,3.81039966 C15.8178861,3.8910792 15.7827015,3.96701246 15.7327998,4.03317363 C15.6689806,4.11352565 15.747556,4.1654907 15.8381231,4.20615515 Z" id="Path"></path>
                                    <path d="M0.539630809,3.62317386 C0.535303103,3.64630909 0.530377387,3.66916298 0.527827975,3.69317611 C0.519524253,3.87543944 0.532881935,4.0580396 0.567624508,4.23719664 C0.591650634,4.03236076 0.582197599,3.82501485 0.539630809,3.62317386 L0.539630809,3.62317386 Z" id="Path"></path>
                                    <path d="M1.36688094,1.15401594 C1.270985,1.33444351 1.15641061,1.5044495 1.02501579,1.66127695 L1.35389782,1.43637727 C1.3522982,1.34208009 1.35663436,1.2477758 1.36688094,1.15401594 Z" id="Path"></path>
                                </g>
                                <path d="M3.12330454,20.1634159 C3.12330454,20.1634159 1.89379284,14.7044414 2.2850017,13.8289443 C2.2850017,13.8289443 1.22315058,11.6659551 1.22315058,11.1509571 C1.17163011,10.2915793 0.902509446,9.45902642 0.440732855,8.73046631 C-0.118136574,7.8549719 -0.732893731,3.78648975 2.62032284,2.80799263 C5.97353941,1.8294955 8.54433825,0.953995879 8.93554711,0.28450429 C9.32675597,-0.384987299 15.0831082,0.0270053204 16.6479436,2.60199501 C18.2127791,5.17698471 19.2187425,4.66198677 19.2187425,4.66198677 C19.2187425,4.66198677 21.6218808,6.15547923 21.6218808,7.49447282 C21.6218808,8.83346642 20.8953508,9.50296322 21.6218808,9.81196355 C22.3484108,10.1209639 21.7895413,15.6829359 18.6039853,15.8374347 L18.3245519,18.7729235 C18.3245519,18.7729235 9.77384994,8.00947076 3.12330454,20.1634159 Z" id="Path" fill="#A36468"></path>
                                <path d="M19.45962,9.81670991 C19.45962,9.81670991 17.6766708,10.6768295 18.0077901,11.1321853 L19.45962,9.81670991 Z" id="Path" fill="#000000" opacity="0.1"></path>
                                <path d="M2.2850017,13.8289443 C2.2850017,13.8289443 13.6730394,9.23467163 18.6039853,15.8374347 C18.6039853,15.8374347 12.6187473,10.7831588 2.2850017,13.8289443 Z" id="Path" fill="#000000" opacity="0.1"></path>
                            </g>
                        </g>
                        <g id="tz_white" transform="translate(99.754002, 101.390223) rotate(-5.000000) translate(-99.754002, -101.390223) translate(88.180333, 86.620749)" fill="#FFFFFF">
                            <g id="path4987">
                                <path d="M14.8990099,29.5097918 C12.6584996,29.5097918 11.0257877,29.0032756 10.0008743,27.9902432 C8.97595966,26.9772097 8.46350235,25.8853851 8.46350235,24.7147693 C8.46350235,24.2870442 8.55288464,23.9268549 8.73164923,23.6342012 C8.91041264,23.3415475 9.15472366,23.1108011 9.46458228,22.9419618 C9.77443973,22.7731225 10.155803,22.6887028 10.6086721,22.6887028 C11.0615412,22.6887028 11.4429045,22.7731225 11.752762,22.9419618 C12.0626194,23.1108011 12.3069304,23.3415475 12.485695,23.6342012 C12.6644596,23.9268549 12.7538419,24.2870442 12.7538419,24.7147693 C12.7538419,25.232542 12.6227479,25.6546391 12.3605598,25.9810607 C12.0983729,26.3074822 11.7885155,26.5213447 11.4309875,26.6226483 C11.7408449,27.0278615 12.2294664,27.3148871 12.8968518,27.4837253 C13.5642384,27.6638206 14.2316245,27.7538682 14.8990099,27.7538682 C15.8285834,27.7538682 16.6687746,27.5174937 17.4195836,27.0447448 C18.1703925,26.5719959 18.7245615,25.8741291 19.0820907,24.9511443 C19.4396187,24.0281584 19.6183827,22.9813576 19.6183827,21.8107419 C19.6183827,20.5388226 19.4217423,19.4526259 19.0284613,18.5521519 C18.6470981,17.6404231 18.0810114,16.9650682 17.3302013,16.5260871 C16.5793923,16.0871061 15.7689952,15.8676156 14.8990099,15.8676156 C14.3269644,15.8676156 13.6119084,16.0927341 12.7538419,16.5429711 L11.180717,17.2858606 L11.180717,16.5429711 L18.2597754,7.62827993 L8.46350235,7.62827993 L8.46350235,16.880648 C8.46350235,17.6460505 8.64226635,18.2763822 8.99979435,18.771643 C9.35732353,19.2669038 9.90553376,19.5145342 10.644425,19.5145342 C11.2164694,19.5145342 11.764679,19.3344395 12.289054,18.9742502 C12.8134289,18.6140597 13.266298,18.1750786 13.6476613,17.657307 C13.6953319,17.5560035 13.7549201,17.4828398 13.8264259,17.437816 C13.8979317,17.3815362 13.9753958,17.3533963 14.0588181,17.3533963 C14.1899121,17.3533963 14.3448415,17.4153041 14.523606,17.5391195 C14.6904518,17.7192148 14.7738747,17.9274493 14.7738747,18.1638232 C14.7619571,18.2763828 14.732163,18.4339655 14.6844924,18.6365716 C14.2792938,19.4920218 13.7191666,20.1448653 13.0041106,20.5951023 C12.2890546,21.0453393 11.5024927,21.2704578 10.644425,21.2704578 C8.52309113,21.2704578 7.05722544,20.8765006 6.24682797,20.0885861 C5.43643073,19.3006717 5.03123211,18.231359 5.03123211,16.880648 L5.03123211,7.62827993 L0.0258373761,7.62827993 L0.0258373761,5.90612418 L5.03123211,5.90612418 L5.03123211,1.98906435 L3.88714192,0.908496231 L3.88714192,0.0305335934 L7.21215375,0.0305335934 L8.46350235,0.638353367 L8.46350235,5.90612418 L21.4060233,5.87235633 L22.6931248,7.08799587 L14.7559982,14.5844403 C15.2327026,14.4043451 15.7332423,14.2917855 16.2576173,14.2467617 C17.1156849,14.2467617 18.0810108,14.5056481 19.1535948,15.0234208 C20.2380976,15.5299375 21.0723306,16.2278049 21.6562937,17.117023 C22.2402557,17.9949839 22.6156602,18.8391776 22.7825071,19.649604 C22.9612705,20.4600303 23.0506522,21.1804096 23.0506522,21.8107419 C23.0506522,23.2514994 22.7288772,24.5909538 22.085327,25.8291053 C21.4417756,27.0672567 20.4645316,27.9902426 19.1535948,28.598063 C17.8426592,29.2058822 16.4244642,29.5097918 14.8990099,29.5097918 L14.8990099,29.5097918 Z" fill-rule="nonzero"></path>
                            </g>
                        </g>
                    </g>
                    <polygon id="Path-3" fill="#A36468" points="40.0374828 73.6895653 36.119969 84.5029769 35.8481681 91.6513021 35 97.7420587 48.7069388 100 57.9590196 100 68 98.3255867 66.2066836 86.8447827 58.5074604 72"></polygon>
                </g>
            </g>
        </g>
    </g>
</svg>