<svg width="34" height="38" viewBox="0 0 34 38" fill="none" xmlns="http://www.w3.org/2000/svg">
<path fill-rule="evenodd" clip-rule="evenodd" d="M9.57828 6.69832C7.66407 7.43483 5.86246 8.49356 4.39865 9.78246C1.02063 12.7285 -0.555782 16.6872 0.176125 20.5999C1.18953 26.2158 6.03136 29.0698 9.18418 30.4047L9.12788 30.4508L9.07158 30.4968C8.95898 30.6349 6.14396 34.4555 9.01528 36.8032L10.1976 37.7698C10.3665 37.9079 10.5917 38 10.8169 38C10.9295 38 10.9858 38 11.0984 37.954C11.4362 37.8619 11.6614 37.6317 11.7177 37.3556C11.8303 36.8492 12.1681 35.9746 13.0689 35.0079C14.026 33.9492 14.2512 33.1667 14.2512 32.6603H14.3075C14.9268 32.6603 15.8839 32.4762 17.1225 31.6936C18.3048 30.9111 19.3182 30.6809 19.9938 30.5889C20.3317 30.5428 20.6132 30.3587 20.7258 30.0825C20.8384 29.8063 20.7258 29.5301 20.5006 29.346L19.2056 28.3793C16.4822 26.1963 12.1886 28.1545 11.5614 28.4405C11.5273 28.4561 11.5041 28.4667 11.4925 28.4714C10.9858 27.1825 10.5917 25.4793 11.3236 23.9603C11.8303 22.9015 12.8437 22.0269 14.3075 21.3365C14.4201 21.3825 14.4764 21.4746 14.4764 21.7047C14.5327 22.2571 14.8705 22.7174 15.4898 22.9476C15.7713 23.0396 15.9965 23.0857 16.278 23.0857C16.6721 23.0857 17.0099 22.9936 17.3477 22.8095C18.9241 21.8888 19.656 20.738 19.9375 20.1857C23.8786 20.2777 26.581 22.3492 28.5515 23.8682C29.6212 24.6968 30.4657 25.3412 31.2539 25.4793C33.1118 25.8016 33.6185 24.9269 33.7874 24.5587C33.9563 24.0523 33.8437 23.4539 33.3933 22.9476C33.0555 22.5793 32.4362 21.4746 33.6185 18.8968C34.5193 16.9634 33.7874 14.0174 31.8169 11.4396C30.522 9.73643 28.7204 8.30944 26.6936 7.2507C26.6889 7.24383 26.684 7.23664 26.6789 7.22913C26.0696 6.33158 22.4071 0.936701 14.7579 0.0236989C14.1949 -0.0683648 13.5756 0.115763 13.1815 0.437986C12.7874 0.806241 12.5622 1.26656 12.6748 1.72688C12.8437 2.69355 12.4496 4.3507 9.57828 6.69832ZM14.026 1.08242C14.1949 0.944328 14.4201 0.852264 14.6453 0.898296C19.8812 1.54274 23.203 4.58085 24.7794 6.33006C23.0904 5.73164 21.2325 5.31736 19.3182 5.17926C16.841 4.99513 14.3075 5.27132 11.9992 5.86974C13.8008 3.98243 14.026 2.50941 13.8571 1.54274C13.8008 1.31258 13.9134 1.17449 14.026 1.08242ZM15.8879 22.0872C15.788 22.0318 15.6024 21.9289 15.6024 21.7047C15.6024 21.3825 15.4898 21.1063 15.3209 20.9682C15.3772 20.9682 15.4898 20.9222 15.6024 20.8761C16.6721 20.5079 17.6292 20.3238 18.5863 20.2317C18.2485 20.738 17.6292 21.4285 16.6158 22.073C16.4469 22.2111 16.1654 22.2111 15.9402 22.119C15.9296 22.1103 15.9111 22.1 15.8879 22.0872ZM14.026 20.4158C14.026 20.4619 13.9697 20.4619 13.9697 20.4619C12.1681 21.2444 10.9295 22.3031 10.1976 23.592C9.8035 24.3746 9.6909 25.2032 9.7472 26.0317C8.79009 23.7301 9.18419 21.7047 10.8169 20.0476C11.6051 19.265 12.6748 18.6666 13.8571 18.2984C14.5327 18.1142 15.2646 18.0222 15.9402 17.9761H16.5595C18.699 17.9761 20.7258 18.7127 22.4148 19.5412C21.5703 19.3571 20.6695 19.219 19.7124 19.219H19.4872H19.4309C18.136 19.265 16.7284 19.4492 15.2083 19.9555C15.0113 20.0246 14.8142 20.1051 14.6172 20.1857C14.4201 20.2662 14.2231 20.3468 14.026 20.4158ZM9.94984 30.8517C9.96207 30.8343 9.96982 30.8232 9.9724 30.819C10.0059 30.7916 10.0195 30.7805 10.025 30.7663C10.0287 30.7567 10.0287 30.7456 10.0287 30.727C10.2539 30.819 10.4791 30.9111 10.7043 30.9571C10.8169 31.0032 10.9858 31.0032 11.0984 31.0032C11.3799 31.0032 11.6614 30.9111 11.8866 30.727C12.1681 30.4508 12.2807 30.0365 12.0555 29.7143C11.9828 29.6251 11.9336 29.5359 11.8775 29.4344C11.8467 29.3786 11.8139 29.3192 11.774 29.254C11.8022 29.2309 11.8303 29.2194 11.8585 29.2079C11.8866 29.1964 11.9148 29.1849 11.9429 29.1619C11.9429 29.1619 16.1091 27.0905 18.4174 28.9778L19.4872 29.8524C18.7553 29.9444 17.6292 30.2667 16.3906 31.0492C14.589 32.154 13.7445 31.7857 13.7445 31.7857C13.5756 31.6936 13.3504 31.6936 13.1815 31.7857C13.0689 31.8778 12.9563 32.0619 13.0126 32.2C13.0126 32.223 13.0267 32.2345 13.0408 32.246C13.0548 32.2575 13.0689 32.269 13.0689 32.2921C13.1252 32.2921 13.1252 32.3381 13.1252 32.3381C13.1252 32.3381 13.5756 33.0286 12.2244 34.5016C11.3236 35.5143 10.9295 36.3889 10.7606 37.0333L9.6909 36.1587C7.48812 34.3577 9.69454 31.2153 9.94984 30.8517ZM11.0984 30.1285C8.56487 29.2539 2.37183 26.6301 1.24583 20.4158C0.626522 16.8253 2.03403 13.1888 5.18685 10.3809C8.73377 7.34275 13.9134 5.73164 19.1493 6.09989C24.0475 6.42212 28.3263 8.53958 30.9161 11.8999C32.7177 14.2475 33.3933 16.8714 32.6051 18.5285C31.2539 21.4285 31.9858 22.8555 32.4925 23.4539C32.7177 23.7301 32.8303 24.0063 32.7177 24.2825L32.7149 24.2894C32.6575 24.431 32.5323 24.7398 31.5354 24.5587C31.0287 24.4666 30.1842 23.8682 29.3397 23.1777C29.0442 22.9844 28.7486 22.7657 28.4368 22.535C28.1546 22.3262 27.859 22.1075 27.5381 21.8888C27.5216 21.8753 27.4911 21.8486 27.4472 21.8103C27.0425 21.456 25.4998 20.1057 23.3156 18.9428C21.1199 17.792 18.9804 17.1475 16.8973 17.1015H16.7847H16.6158H16.0528C14.7016 17.1015 11.8866 16.9634 9.46568 15.8587C9.29678 15.7666 9.29678 15.6285 9.29678 15.5825C9.29678 15.5825 9.35308 15.3983 9.57828 15.3983C12.7874 15.1682 16.7847 14.3856 17.5729 11.9459C17.6855 11.7158 17.4603 11.4396 17.1788 11.3936C16.8973 11.3015 16.5595 11.4856 16.5032 11.7158C15.8276 13.7412 11.8303 14.2936 9.52198 14.4777C8.90267 14.5237 8.33967 14.892 8.22707 15.3983C8.05817 15.9047 8.33967 16.411 8.90267 16.6412C10.1413 17.2396 11.4925 17.5618 12.7311 17.746C11.6614 18.1602 10.7043 18.8047 9.97238 19.5412C5.63725 23.8682 10.3665 29.1619 10.8732 29.7142C10.9013 29.7833 10.9436 29.8523 10.9858 29.9214C11.028 29.9904 11.0702 30.0595 11.0984 30.1285ZM3.27266 21.4746H3.21635C3.10375 21.4746 2.99115 21.4285 2.87855 21.3825C1.86515 18.5745 1.80885 14.3856 7.49518 10.2428C9.63459 8.67769 12.0555 7.66499 14.589 7.29674C14.7579 7.2507 14.9268 7.34277 14.9268 7.48086C14.9831 7.61896 14.8705 7.75705 14.7016 7.75705C12.2244 8.12531 9.97239 9.04595 7.88928 10.565C2.42815 14.5237 2.48445 18.5285 3.44156 21.1984C3.49786 21.2904 3.44156 21.4285 3.27266 21.4746ZM5.18688 24.5127C5.13058 24.5587 5.07428 24.5587 5.01797 24.5587C4.90537 24.5587 4.84907 24.5127 4.79277 24.4666C4.56757 24.1904 4.34237 23.9143 4.11717 23.592C4.06087 23.4539 4.11717 23.3158 4.22977 23.2698C4.39867 23.2238 4.56757 23.2698 4.62387 23.3619C4.79277 23.6381 5.01797 23.9143 5.24318 24.1904C5.35578 24.2825 5.29948 24.4206 5.18688 24.5127ZM29.396 18.7587C28.4389 18.7587 27.707 18.1603 27.707 17.3777C27.707 16.5952 28.4389 15.9968 29.396 15.9968C30.3531 15.9968 31.085 16.5952 31.085 17.3777C31.085 18.1603 30.3531 18.7587 29.396 18.7587ZM30.522 17.5618H30.1279C30.0153 17.838 29.7338 18.0222 29.396 18.0222C29.0582 18.0222 28.7204 17.838 28.6641 17.5618H28.27C28.3826 17.9761 28.833 18.2983 29.396 18.2983C29.959 18.2983 30.4094 17.9761 30.522 17.5618ZM29.396 16.4571C28.8893 16.4571 28.4952 16.7333 28.3263 17.1015H30.4657C30.2968 16.7333 29.9027 16.4571 29.396 16.4571Z" fill="#F5942A"/>
</svg>
