<svg width="56" height="79" viewBox="0 0 56 79" fill="none" xmlns="http://www.w3.org/2000/svg">
<path fill-rule="evenodd" clip-rule="evenodd" d="M15.776 13.9255C12.6232 15.4566 9.65582 17.6577 7.24484 20.3372C1.68104 26.4619 -0.915401 34.6919 0.290089 42.8262C1.95923 54.5014 9.93401 60.4346 15.1269 63.2099L15.0342 63.3055L14.9414 63.4012C14.756 63.6883 10.1195 71.6313 14.8487 76.5119L16.796 78.5215C17.0742 78.8086 17.4451 79 17.8161 79C18.0015 79 18.0942 79 18.2797 78.9043C18.8361 78.7129 19.207 78.2344 19.2997 77.6602C19.4852 76.6076 20.0416 74.7893 21.5253 72.7796C23.1017 70.5786 23.4726 68.9517 23.4726 67.899H23.5653C24.5853 67.899 26.1618 67.5163 28.2018 65.8894C30.1491 64.2625 31.8183 63.784 32.931 63.5927C33.4874 63.497 33.9511 63.1142 34.1365 62.54C34.322 61.9658 34.1365 61.3916 33.7656 61.0088L31.6328 58.9991C27.1472 54.4607 20.0753 58.5317 19.0423 59.1264C18.9862 59.1586 18.9479 59.1807 18.9288 59.1905C18.0942 56.511 17.4451 52.9702 18.6506 49.8122C19.4852 47.6111 21.1543 45.7928 23.5653 44.3574C23.7508 44.4531 23.8435 44.6445 23.8435 45.123C23.9362 46.2713 24.4926 47.2283 25.5126 47.7068C25.9763 47.8982 26.3472 47.9939 26.8109 47.9939C27.46 47.9939 28.0164 47.8025 28.5727 47.4197C31.1692 45.5057 32.3747 43.1133 32.8383 41.9649C39.3294 42.1563 43.7805 46.4627 47.026 49.6208C48.7879 51.3433 50.1788 52.6831 51.477 52.9702C54.5371 53.6401 55.3717 51.8218 55.6499 51.0562C55.9281 50.0036 55.7426 48.7595 55.0008 47.7068C54.4444 46.9412 53.4244 44.6445 55.3717 39.2854C56.8554 35.2661 55.6499 29.1414 52.4043 23.7823C50.2716 20.2415 47.3042 17.2749 43.9659 15.0738C43.9582 15.0595 43.9502 15.0446 43.9418 15.029C42.9382 13.163 36.9058 1.94735 24.3072 0.0492688C23.3799 -0.142127 22.3598 0.240665 21.7107 0.91055C21.0616 1.67613 20.6907 2.63311 20.8761 3.59009C21.1543 5.59974 20.5052 9.04487 15.776 13.9255ZM23.1017 2.25033C23.3799 1.96323 23.7508 1.77184 24.1217 1.86754C32.7456 3.20731 38.2167 9.52336 40.8131 13.1599C38.0312 11.9158 34.9711 11.0545 31.8183 10.7674C27.7382 10.3846 23.5653 10.9588 19.7634 12.2029C22.7308 8.27929 23.1017 5.21696 22.8235 3.20731C22.7308 2.72882 22.9162 2.44172 23.1017 2.25033ZM26.1683 45.9182C26.0037 45.803 25.6981 45.5892 25.6981 45.123C25.6981 44.4531 25.5126 43.8789 25.2344 43.5918C25.3272 43.5918 25.5126 43.4961 25.6981 43.4004L25.6981 43.4004C27.46 42.6348 29.0364 42.252 30.6128 42.0606C30.0564 43.1133 29.0364 44.5488 27.3672 45.8885C27.089 46.1756 26.6254 46.1756 26.2545 45.9842C26.237 45.9662 26.2065 45.9449 26.1683 45.9182ZM23.1017 42.4434C23.1017 42.5391 23.0089 42.5391 23.0089 42.5391C20.0416 44.166 18.0015 46.367 16.796 49.0466C16.1469 50.6734 15.9614 52.396 16.0542 54.1186C14.4778 49.3337 15.1269 45.123 17.816 41.6778C19.1143 40.051 20.8761 38.8069 22.8235 38.0413C23.9362 37.6585 25.1417 37.4671 26.2545 37.3714H27.2745C30.7982 37.3714 34.1365 38.9026 36.9184 40.6252C35.5275 40.2424 34.0438 39.9553 32.4674 39.9553H32.0965H32.0037C29.8709 40.051 27.5527 40.4338 25.049 41.4865C24.7244 41.63 24.3999 41.7975 24.0753 41.965C23.7507 42.1324 23.4262 42.2999 23.1017 42.4434ZM16.388 64.1391C16.4081 64.1028 16.4209 64.0799 16.4251 64.0711C16.4782 64.0164 16.5009 63.993 16.5106 63.965C16.5179 63.9441 16.5179 63.9207 16.5179 63.8797L16.5179 63.8798C16.8888 64.0712 17.2597 64.2625 17.6306 64.3582C17.8161 64.4539 18.0943 64.4539 18.2797 64.4539C18.7434 64.4539 19.207 64.2625 19.578 63.8797C20.0416 63.3056 20.2271 62.4443 19.8561 61.7744C19.7364 61.589 19.6553 61.4036 19.5629 61.1925C19.5123 61.0766 19.4582 60.953 19.3925 60.8174C19.4389 60.7696 19.4852 60.7456 19.5316 60.7217C19.578 60.6978 19.6243 60.6739 19.6707 60.626C19.6707 60.626 26.5327 56.3196 30.3346 60.2432L32.0965 62.0615C30.891 62.2529 29.0364 62.9228 26.9964 64.5496C24.029 66.8464 22.638 66.0808 22.638 66.0808C22.3599 65.8894 21.9889 65.8894 21.7107 66.0808C21.5253 66.2722 21.3398 66.655 21.4326 66.9421C21.4326 66.9899 21.4557 67.0138 21.4789 67.0378C21.5021 67.0617 21.5253 67.0856 21.5253 67.1335C21.618 67.1335 21.618 67.2292 21.618 67.2292C21.618 67.2292 22.3599 68.6646 20.1343 71.727C18.6507 73.8323 18.0015 75.6506 17.7234 76.9903L15.9615 75.1721C12.3334 71.4279 15.9675 64.895 16.388 64.1391ZM18.2797 62.6357C14.1069 60.8174 3.90657 55.3626 2.05198 42.4434C1.03194 34.979 3.35019 27.4189 8.54308 21.5813C14.3851 15.2652 22.9162 11.9158 31.5401 12.6814C39.6076 13.3513 46.6551 17.7534 50.9207 24.7393C53.888 29.6199 55.0008 35.0747 53.7026 38.5198C51.4771 44.5488 52.6826 47.5154 53.5171 48.7595C53.888 49.3337 54.0735 49.9078 53.888 50.482L53.8834 50.4964C53.7889 50.7907 53.5826 51.4328 51.9407 51.0562C51.1061 50.8648 49.7152 49.6208 48.3242 48.1853C47.8375 47.7834 47.3507 47.3288 46.8371 46.8491C46.3723 46.415 45.8855 45.9604 45.3569 45.5057C45.3297 45.4777 45.2795 45.4222 45.2072 45.3424C44.5406 44.6058 41.9998 41.7987 38.4021 39.3811C34.7857 36.9886 31.2619 35.6489 27.8309 35.5532H27.6455H27.3673H26.44C24.2144 35.5532 19.5779 35.2661 15.5906 32.9693C15.3124 32.7779 15.3124 32.4908 15.3124 32.3951C15.3124 32.3951 15.4051 32.0124 15.776 32.0124C21.0616 31.5339 27.6455 29.907 28.9437 24.835C29.1291 24.3565 28.7582 23.7823 28.2946 23.6866C27.8309 23.4952 27.2745 23.878 27.1818 24.3565C26.069 28.5672 19.4852 29.7156 15.6833 30.0984C14.6633 30.1941 13.736 30.9597 13.5505 32.0124C13.2723 33.065 13.736 34.1177 14.6633 34.5962C16.7033 35.8403 18.9288 36.5101 20.9689 36.8929C19.207 37.7542 17.6306 39.094 16.4251 40.6252C9.28491 49.6208 17.0742 60.626 17.9088 61.7744C17.9552 61.9179 18.0247 62.0615 18.0943 62.205C18.1638 62.3486 18.2334 62.4921 18.2797 62.6357ZM5.39025 44.6445H5.29752C5.11206 44.6445 4.92661 44.5488 4.74114 44.4531C3.072 38.6155 2.97927 29.907 12.345 21.2942C15.8687 18.0405 19.8561 15.9351 24.029 15.1695C24.3072 15.0738 24.5854 15.2652 24.5854 15.5523C24.6781 15.8394 24.4926 16.1265 24.2144 16.1265C20.1343 16.8921 16.4251 18.806 12.9941 21.9641C3.99931 30.1941 4.09203 38.5198 5.66844 44.0703C5.76117 44.2617 5.66845 44.5488 5.39025 44.6445ZM8.54309 50.9605C8.45036 51.0562 8.35764 51.0562 8.2649 51.0562C8.07944 51.0562 7.98671 50.9605 7.89398 50.8648L7.89391 50.8647C7.52302 50.2906 7.15212 49.7164 6.78122 49.0466C6.68849 48.7595 6.78122 48.4724 6.96668 48.3767C7.24487 48.281 7.52306 48.3767 7.6158 48.5681C7.89398 49.1423 8.26489 49.7164 8.6358 50.2906L8.63583 50.2906C8.82129 50.482 8.72855 50.7691 8.54309 50.9605ZM48.417 38.9983C46.8406 38.9983 45.6351 37.7542 45.6351 36.1273C45.6351 34.5005 46.8406 33.2564 48.417 33.2564C49.9934 33.2564 51.1989 34.5005 51.1989 36.1273C51.1989 37.7542 49.9934 38.9983 48.417 38.9983ZM50.2716 36.5101H49.6225C49.437 37.0843 48.9734 37.4671 48.417 37.4671C47.8606 37.4671 47.3043 37.0843 47.2115 36.5101H46.5624C46.7479 37.3714 47.4897 38.0413 48.417 38.0413C49.3443 38.0413 50.0862 37.3714 50.2716 36.5101ZM48.417 34.2134C47.5824 34.2134 46.9333 34.7876 46.6551 35.5531H50.1789C49.9007 34.7876 49.2516 34.2134 48.417 34.2134Z" fill="black"/>
</svg>
