<svg width="47" height="35" viewBox="0 0 47 35" fill="none" xmlns="http://www.w3.org/2000/svg">
<path fill-rule="evenodd" clip-rule="evenodd" d="M1.634 0.00275175C4.10927 0.0481424 5.79799 0.67158 7.01799 1.71075C8.41228 2.89829 9.1504 4.55319 9.87237 6.30532C11.2895 9.74451 12.6433 13.6527 18.4868 16.3144C18.7248 16.133 18.9792 15.9657 19.2388 15.802C19.0531 12.1044 20.6727 8.84534 24.093 8.55992C24.979 8.48916 25.8552 8.48271 26.52 8.25247C26.737 8.17733 27.0072 7.94201 27.2721 7.55214C27.9036 6.59801 28.2772 5.50962 28.9471 4.66563C29.2944 4.23463 29.7671 3.84575 30.3828 3.84575C35.0183 3.84575 39.3697 9.13026 38.8263 16.4681C39.6869 17.3771 41.2713 18.9506 42.1934 20.0721C43.8203 20.1507 45.0285 20.8485 45.6973 21.8655C46.353 22.8625 46.4825 24.0858 46.2614 25.2132C46.5164 25.5106 46.774 25.8368 46.9109 26.2381C47.098 26.8404 46.9829 27.4644 46.6374 27.8604C44.2555 30.539 39.8232 31.6455 35.3566 31.7206C32.6568 31.766 29.9416 31.4375 27.631 30.7641C26.4051 33.3784 24.11 35 21.324 35C20.3821 35 19.4476 34.6898 18.726 34.1289C18.0044 33.5681 17.4954 32.7226 17.4954 31.7206C17.4954 30.3997 18.3157 29.2953 19.4439 28.5436C20.1932 28.0445 21.0913 27.6896 22.0419 27.5017C21.2411 26.4018 20.8579 25.0519 20.5036 23.71C20.4332 23.4433 20.3536 23.1748 20.2814 22.9072C19.3967 22.8315 18.5822 23.1837 17.6663 23.8807C16.6196 24.6773 15.5042 25.9045 14.1966 27.2455C11.5815 29.9277 8.17771 33.0605 2.81332 33.9068C2.40792 33.9639 2.05775 33.4391 2.26638 33.087C3.7941 30.5426 3.14378 28.1509 2.93297 25.6229C2.82756 24.3589 2.84028 23.0604 3.37736 21.7798C3.84382 20.6677 4.80481 19.6079 6.23174 18.6029C4.27377 17.2336 2.97063 15.904 2.28347 14.5719C1.51884 13.0898 1.39372 11.6225 1.42887 10.1823C1.49918 7.30184 2.1637 4.51573 0.0615044 0.839416C-0.127468 0.512439 0.145233 0.0279627 0.522987 0.0195408C0.909573 0.00204081 1.28036 -0.00397481 1.63397 0.00258769L1.634 0.00275175ZM1.36053 1.12997C1.55919 1.54341 1.72964 1.9452 1.87329 2.34272C5.37246 5.21108 7.70215 14.445 15.2564 15.7336C13.8387 14.7551 12.7575 13.6872 11.9063 12.5738C8.46564 12.3894 5.90823 4.3445 3.42866 1.30081C2.82174 1.1945 2.14096 1.13265 1.36053 1.12997ZM4.42001 1.52285C6.99385 3.914 7.80533 9.67998 11.5303 12.0443C10.2619 10.2291 9.52522 8.36163 8.84685 6.71526C8.13309 4.98303 7.46965 3.52928 6.31722 2.54769C5.81412 2.11916 5.19647 1.76511 4.42001 1.52285ZM2.14676 3.19672C2.6799 5.09121 2.67624 6.80172 2.60824 8.35496C5.66998 12.0996 10.3304 16.215 17.5296 17.288C17.5406 17.2219 17.5639 17.1578 17.598 17.1C16.8078 16.7172 16.1049 16.3003 15.4615 15.8703C7.78726 16.0178 4.85752 7.13127 2.14676 3.19672ZM30.3828 4.9389C29.9117 5.09525 29.7559 5.40724 29.5111 5.7929C31.6319 7.07423 34.9824 10.2519 35.4763 14.3159C35.676 14.4127 35.8815 14.5008 36.0745 14.6063C35.9791 12.2461 35.3383 9.46593 32.5706 5.96374C34.5968 8.31503 36.9589 10.8774 36.6556 14.965C37.0379 15.1987 37.4131 15.44 37.7666 15.6995C37.9643 9.21163 34.0376 4.9389 30.3828 4.9389ZM29.4257 5.92956C29.0495 6.57717 28.6928 7.27466 28.3489 7.87671C30.9217 8.97538 34.1508 10.9613 34.4166 13.8548C34.5853 13.918 34.7478 13.9898 34.9122 14.0598C34.4925 11.1138 32.5422 9.04938 29.4257 5.92956ZM28.2805 7.9792C28.0439 8.44956 27.598 8.8257 27.255 9.10647C30.0431 10.0599 32.5786 11.1371 32.7928 13.3766C33.1542 13.4537 33.5082 13.5575 33.8525 13.667C33.4566 11.3891 30.7284 9.86329 28.2805 7.9792ZM2.57406 8.86738C2.51715 9.7677 2.51211 10.6618 2.55701 11.4977C4.78048 13.9138 7.85383 15.5468 12.1457 16.5193C7.97922 14.7411 4.61769 12.042 2.57407 8.86738H2.57406ZM27.0328 9.20895C26.7543 9.34688 26.4124 9.40397 26.144 9.46517C28.5561 10.3114 30.7713 11.3349 31.1178 13.1716C31.4729 13.1913 31.8196 13.2219 32.1604 13.2741C31.5011 11.1406 29.342 10.4513 27.0328 9.20895ZM25.5287 9.55059C25.0592 9.59926 24.6003 9.61933 24.1784 9.65307C23.8729 9.67768 23.605 9.72056 23.358 9.77267C26.0976 10.5524 29.0146 11.2455 29.4599 13.1716C29.7915 13.1596 30.1292 13.1383 30.4512 13.1377C29.7551 11.3078 27.6535 10.5712 25.5287 9.55086V9.55059ZM22.982 9.87505C22.5692 10.01 22.3331 10.2693 22.0761 10.5583C24.2813 11.0025 26.598 11.5712 27.1866 13.3253C27.7382 13.2627 28.2869 13.2196 28.8275 13.1887C28.0557 11.2606 25.3535 10.9138 22.982 9.87505ZM21.9906 10.6608C21.6432 11.044 21.3225 11.4166 21.0677 11.8223C22.9201 12.1119 24.6911 12.4404 25.4261 13.5815C25.8006 13.5141 26.1784 13.4621 26.5542 13.4107C25.8296 11.6695 24.1076 11.413 21.9906 10.6608ZM2.60824 12.0785C2.71049 12.7506 2.91311 13.4088 3.25774 14.0769C3.56322 14.669 3.99128 15.2777 4.59092 15.9045C6.65415 17.0006 9.29817 17.196 12.7609 17.288C8.14653 16.6109 4.59075 14.7888 2.60824 12.0785ZM20.8967 12.0954C20.437 12.9274 20.2106 13.8874 20.2814 15.204C21.6192 14.5358 23.1498 14.049 24.7254 13.718C23.8445 12.868 22.511 12.5798 20.8967 12.0954ZM30.5196 14.2304C26.4944 14.2304 21.5596 15.2576 18.9141 17.4415C19.3898 18.0957 21.0529 21.0175 21.5633 23.4196C22.0955 25.6123 23.0012 27.1715 24.3322 28.0824C26.2495 29.4196 29.6264 30.3456 33.1859 30.576C32.0894 28.802 31.8951 27.3833 32.28 25.8449C32.7353 24.0249 34.073 22.5779 35.7839 21.4382C35.8912 21.3599 36.0277 21.3227 36.1599 21.3357C36.6119 21.3778 36.7841 22.1028 36.3992 22.3434C34.8284 23.3899 33.7048 24.6586 33.3397 26.1181C33.021 27.392 33.2561 28.8609 34.3652 30.6103C34.6918 30.6168 35.013 30.6327 35.3395 30.6272C39.6459 30.5549 43.8377 29.3955 45.8511 27.1087C45.9765 26.9216 45.9253 26.7925 45.8681 26.5964C45.7684 26.3039 45.5444 25.944 45.3383 25.7424C45.1985 25.6098 45.1375 25.3998 45.1845 25.213C45.4206 24.2897 45.304 23.2597 44.7913 22.4801C44.2786 21.7005 43.3991 21.1308 41.9199 21.1308C41.7565 21.1309 41.5947 21.0533 41.4926 20.9258C40.0637 19.1699 37.8931 16.7211 35.0489 15.3235C33.2429 14.4877 31.9538 14.2613 30.5195 14.2304H30.5196ZM6.55651 17.3219C10.2145 18.6753 14.2016 18.4436 17.6834 17.8001C17.6197 17.7509 17.5862 17.6666 17.5467 17.6124C13.0613 17.892 9.3174 18.0629 6.55654 17.322L6.55651 17.3219ZM7.58203 18.3467C7.70982 18.5865 7.62302 18.9177 7.39402 19.0641C5.69593 20.1084 4.84275 21.1542 4.40292 22.1898C7.46648 22.6114 11.8884 20.4601 15.8033 18.9958C13.025 19.4811 10.1273 19.2787 7.58203 18.3467ZM18.521 18.7737C13.5314 21.0373 8.97647 26.2179 3.9927 24.8544C4.00085 25.0747 4.00784 25.292 4.02686 25.5205C4.09306 26.3143 4.19453 27.1537 4.24906 28.0313C4.33808 29.4638 4.28792 30.9934 3.65084 32.5575C8.06316 31.5492 11.0186 28.9471 13.4104 26.4941C14.7008 25.1706 15.8416 23.9041 17.0168 23.0097C17.9325 22.3128 18.9129 21.8414 19.9738 21.8141C19.7539 21.1141 19.6785 20.8341 19.3235 20.1693C13.604 22.1777 9.43288 29.3366 4.24906 28.0313C8.11505 28.8967 14.3648 20.7995 19.1021 19.7132C18.9305 19.397 18.7408 19.0758 18.5209 18.7737H18.521ZM12.0602 21.5237C9.52187 22.4571 7.00563 22.9599 4.36873 22.2411C4.03178 23.0628 3.96188 23.9136 3.9927 24.8202C6.14932 25.1465 9.08611 23.3656 12.0602 21.5237ZM43.7488 25.1791C43.7488 26.6883 42.5244 27.9119 41.0141 27.9119C39.5038 27.9119 38.2794 26.6883 38.2794 25.1791C38.2794 23.6698 39.5038 22.4462 41.0141 22.4462C42.8 22.4517 43.7156 24.0213 43.7488 25.1791ZM41.0141 23.5393C40.1079 23.5393 39.3733 24.2735 39.3733 25.1791C39.3733 26.0846 40.1079 26.8187 41.0141 26.8187C41.9203 26.8187 42.6549 26.0846 42.6549 25.1791C42.6549 24.2735 41.9203 23.5393 41.0141 23.5393ZM41.0141 24.0688C41.6182 24.0688 42.108 24.5582 42.108 25.162C42.108 25.7657 41.6182 26.2551 41.0141 26.2551C40.41 26.2551 39.9202 25.7657 39.9202 25.162C39.9202 24.5582 40.41 24.0688 41.0141 24.0688ZM22.9478 28.4756C21.8798 28.5716 20.8451 28.9255 20.0592 29.4492C20.0035 29.4863 19.9583 29.5303 19.9054 29.5687C21.6149 29.6514 21.7162 29.7619 23.2042 28.6634C23.1153 28.5988 23.0305 28.544 22.9478 28.4756ZM23.6998 28.988C22.6991 30.2105 20.9898 30.156 19.5807 29.8249C18.9862 30.347 18.6222 30.9572 18.5893 31.6183C21.3943 31.1191 22.912 30.563 23.9391 29.1417C23.8543 29.0919 23.7713 29.0339 23.6998 28.988ZM24.4348 29.4492C23.6305 31.1252 20.9911 31.638 18.5893 31.7038C18.5893 31.7092 18.5893 31.7152 18.5893 31.7207C18.5893 32.3584 18.9007 32.8794 19.4097 33.275C19.5598 33.3916 19.7263 33.4955 19.9054 33.5824C22.1605 32.5565 23.9771 31.1648 24.9988 29.7564C24.8061 29.6601 24.6153 29.5522 24.4348 29.4491V29.4492ZM25.5287 30.0128C24.7748 31.7157 22.3921 33.0246 20.1105 33.668C20.4896 33.8201 20.9067 33.9071 21.324 33.9071C23.6537 33.9071 25.5103 32.6483 26.5884 30.4227C26.2232 30.2918 25.8655 30.1627 25.5287 30.0128Z" fill="#F5942A"/>
</svg>
