<svg width="15" height="16" viewBox="0 0 15 16" fill="none" xmlns="http://www.w3.org/2000/svg">
<path fill-rule="evenodd" clip-rule="evenodd" d="M0 15.4783C0 15.7664 0.238818 16 0.533394 16C0.827987 16 1.06679 15.7664 1.06679 15.4783V8.34783H4.97834V9.91305C4.97838 10.1862 5.23245 10.4348 5.51173 10.4348H14.4016C14.6013 10.4349 14.7961 10.3151 14.8826 10.1391C14.9692 9.96303 14.9431 9.73946 14.8184 9.58696L12.2403 6.43478L14.8184 3.28261C14.9431 3.1301 14.9692 2.90653 14.8826 2.73048C14.7961 2.55443 14.6013 2.4347 14.4016 2.43478H8.8899V1.21739C8.88986 0.944217 8.63579 0.69568 8.3565 0.695652H1.06679V0.521739C1.06679 0.233582 0.827987 0 0.533394 0C0.238818 0 0 0.233582 0 0.521739V15.4783ZM1.06679 1.73913H7.82311V7.30434H1.06679V1.73913ZM8.8899 3.47826H13.2904L11.1401 6.10869C10.9901 6.29201 10.9901 6.57755 11.1401 6.76087L13.2904 9.39131H6.04513V8.34783H8.3565C8.63579 8.34779 8.88986 8.09926 8.8899 7.82607V3.47826Z" fill="#7D7C7C"/>
</svg>
