<?xml version="1.0" encoding="UTF-8"?>
<svg width="212px" height="110px" viewBox="0 0 212 110" version="1.1" xmlns="http://www.w3.org/2000/svg" xmlns:xlink="http://www.w3.org/1999/xlink">
    <!-- Generator: Sketch 63.1 (92452) - https://sketch.com -->
    <title>Galleon Logo</title>
    <desc>Created with Sketch.</desc>
    <g id="Symbols" stroke="none" stroke-width="1" fill="none" fill-rule="evenodd">
        <g id="Galleon-Logo" fill="#000000">
            <g>
                <path d="M22.869,89.061 C29.484,89.061 34.776,86.793 38.556,84.273 C40.383,83.139 41.265,81.564 41.265,79.359 L41.265,67.578 C41.265,65.373 39.564,63.672 37.359,63.672 L25.074,63.672 C23.184,63.672 21.609,65.184 21.609,67.074 C21.609,68.964 23.184,70.413 25.074,70.413 L33.768,70.413 L33.768,78.666 C31.059,80.682 27.279,82.005 23.121,82.005 C14.112,82.005 8.127,75.327 8.127,66.255 L8.127,66.129 C8.127,57.687 14.301,50.568 22.428,50.568 C27.216,50.568 30.303,51.954 33.138,54.033 C33.768,54.474 34.524,54.915 35.532,54.915 C37.674,54.915 39.375,53.151 39.375,51.072 C39.375,49.56 38.556,48.489 37.8,47.922 C33.768,45.024 29.358,43.449 22.743,43.449 C9.45,43.449 5.68434189e-14,53.907 5.68434189e-14,66.255 L5.68434189e-14,66.381 C5.68434189e-14,79.233 9.072,89.061 22.869,89.061 Z M56.969,88.998 C62.072,88.998 65.537,86.856 67.805,84.147 L67.805,85.407 C67.805,87.108 69.317,88.62 71.522,88.62 C73.601,88.62 75.239,87.045 75.239,84.966 L75.239,68.586 C75.239,64.239 74.105,60.711 71.648,58.317 C69.317,55.923 65.6,54.6 60.623,54.6 C56.276,54.6 53.063,55.356 49.913,56.553 C48.779,56.994 47.834,58.191 47.834,59.577 C47.834,61.341 49.283,62.727 51.047,62.727 C51.425,62.727 51.803,62.664 52.244,62.538 C54.323,61.719 56.717,61.215 59.615,61.215 C64.97,61.215 67.868,63.735 67.868,68.46 L67.868,69.279 C65.285,68.46 62.639,67.893 58.922,67.893 C50.795,67.893 45.188,71.421 45.188,78.603 L45.188,78.729 C45.188,85.407 50.732,88.998 56.969,88.998 Z M59.111,83.454 C55.457,83.454 52.622,81.627 52.622,78.414 L52.622,78.288 C52.622,74.823 55.52,72.744 60.434,72.744 C63.458,72.744 66.041,73.311 67.994,74.067 L67.994,76.335 C67.994,80.556 64.151,83.454 59.111,83.454 Z M84.895,88.62 C87.037,88.62 88.738,86.982 88.738,84.84 L88.738,45.78 C88.738,43.701 87.037,42 84.895,42 C82.753,42 81.115,43.701 81.115,45.78 L81.115,84.84 C81.115,86.982 82.816,88.62 84.895,88.62 Z M99.213,88.62 C101.355,88.62 103.056,86.982 103.056,84.84 L103.056,45.78 C103.056,43.701 101.355,42 99.213,42 C97.071,42 95.433,43.701 95.433,45.78 L95.433,84.84 C95.433,86.982 97.134,88.62 99.213,88.62 Z M124.556,89.061 C129.722,89.061 133.502,87.36 136.526,84.651 C137.093,84.084 137.534,83.265 137.534,82.32 C137.534,80.556 136.211,79.233 134.51,79.233 C133.628,79.233 133.124,79.485 132.557,79.926 C130.415,81.69 127.895,82.824 124.682,82.824 C119.768,82.824 115.925,79.8 115.106,74.382 L135.959,74.382 C137.912,74.382 139.55,72.87 139.55,70.728 C139.55,63.042 134.321,54.348 123.737,54.348 C114.224,54.348 107.483,62.16 107.483,71.673 L107.483,71.799 C107.483,82.068 114.917,89.061 124.556,89.061 Z M132.116,69.342 L115.043,69.342 C115.736,64.176 119.012,60.585 123.674,60.585 C128.714,60.585 131.612,64.428 132.116,69.342 Z M159.475,89.061 C169.744,89.061 177.304,81.186 177.304,71.736 L177.304,71.61 C177.304,62.097 169.807,54.348 159.601,54.348 C149.395,54.348 141.835,62.223 141.835,71.736 L141.835,71.862 C141.835,81.312 149.332,89.061 159.475,89.061 Z M159.601,82.383 C153.679,82.383 149.458,77.532 149.458,71.736 L149.458,71.61 C149.458,65.814 153.364,61.026 159.475,61.026 C165.46,61.026 169.681,65.877 169.681,71.736 L169.681,71.862 C169.681,77.595 165.775,82.383 159.601,82.383 Z M207.435,88.62 C209.577,88.62 211.215,86.982 211.215,84.84 L211.215,67.074 C211.215,59.388 206.868,54.348 199.371,54.348 C194.205,54.348 191.118,57.057 188.976,60.144 L188.976,58.506 C188.976,56.364 187.275,54.663 185.133,54.663 C182.991,54.663 181.353,56.364 181.353,58.506 L181.353,84.84 C181.353,86.982 183.054,88.62 185.133,88.62 C187.275,88.62 188.976,86.982 188.976,84.84 L188.976,69.531 C188.976,64.365 192.063,61.278 196.473,61.278 C201.009,61.278 203.592,64.239 203.592,69.405 L203.592,84.84 C203.592,86.982 205.293,88.62 207.435,88.62 Z" id="Galleon"></path>
                <path d="M19.904,109.292 L19.904,103.196 L23.252,103.196 L23.252,101.3 L14,101.3 L14,103.196 L17.36,103.196 L17.36,109.292 L19.904,109.292 Z M38.693905,109.292 L38.693905,107.372 L33.065905,107.372 L33.065905,105.776 L37.097905,105.776 L37.097905,104.66 L33.065905,104.66 L33.065905,103.124 L38.693905,103.124 L38.693905,101.3 L30.521905,101.3 L30.521905,109.292 L38.693905,109.292 Z M54.86781,109.292 L54.86781,107.372 L49.55181,107.372 L54.92781,101.72 L54.92781,101.3 L45.89181,101.3 L45.89181,103.1 L51.06381,103.1 L45.62781,108.872 L45.62781,109.292 L54.86781,109.292 Z M66.661715,109.592 C69.673715,109.592 71.665715,107.624 71.665715,105.392 L71.665715,105.2 C71.665715,102.944 69.673715,101 66.661715,101 C63.637715,101 61.645715,102.944 61.645715,105.2 L61.645715,105.392 C61.645715,107.624 63.637715,109.592 66.661715,109.592 Z M66.661715,107.792 C65.089715,107.792 64.237715,106.664 64.237715,105.392 L64.237715,105.188 C64.237715,103.928 65.089715,102.8 66.661715,102.8 C68.209715,102.8 69.085715,103.928 69.085715,105.188 L69.085715,105.392 C69.085715,106.664 68.209715,107.792 66.661715,107.792 Z M83.13562,109.592 C85.64362,109.592 87.63562,108.524 87.63562,106.88 C87.63562,103.868 81.05962,104.924 81.05962,103.484 C81.05962,103.016 81.76762,102.62 83.05162,102.62 C84.25162,102.62 85.61962,103.004 86.66362,103.532 L87.55162,102.092 C86.32762,101.48 85.01962,101 83.14762,101 C80.51962,101 78.63562,102.188 78.63562,103.676 C78.63562,106.676 85.15162,105.656 85.15162,107.096 C85.15162,107.528 84.57562,107.96 83.06362,107.96 C81.81562,107.96 80.27962,107.552 79.03162,106.988 L78.27562,108.512 C79.52362,109.124 81.25162,109.592 83.13562,109.592 Z M109.12343,109.292 L111.40343,103.928 L113.59943,109.292 L116.01143,109.292 L119.52743,101.3 L117.17543,101.3 L114.97943,106.796 L112.77143,101.3 L110.45543,101.3 L108.27143,106.712 L106.15943,101.3 L103.41143,101.3 L106.83143,109.292 L109.12343,109.292 Z M126.749335,109.292 L127.577335,107.612 L131.573335,107.612 L132.377335,109.292 L135.113335,109.292 L131.033335,101.3 L128.417335,101.3 L124.409335,109.292 L126.749335,109.292 Z M130.925335,106.148 L128.249335,106.148 L129.605335,103.376 L130.925335,106.148 Z M150.39924,109.292 L150.39924,107.372 L144.45924,107.372 L144.45924,101.3 L141.91524,101.3 L141.91524,109.292 L150.39924,109.292 Z M165.985145,109.292 L165.985145,107.372 L160.045145,107.372 L160.045145,101.3 L157.501145,101.3 L157.501145,109.292 L165.985145,109.292 Z M181.25905,109.292 L181.25905,107.372 L175.63105,107.372 L175.63105,105.776 L179.66305,105.776 L179.66305,104.66 L175.63105,104.66 L175.63105,103.124 L181.25905,103.124 L181.25905,101.3 L173.08705,101.3 L173.08705,109.292 L181.25905,109.292 Z M194.144955,109.292 L194.144955,103.196 L197.492955,103.196 L197.492955,101.3 L188.240955,101.3 L188.240955,103.196 L191.600955,103.196 L191.600955,109.292 L194.144955,109.292 Z" id="TEZOSWALLET"></path>
                <g id="Waves-Copy" transform="translate(26.000000, 0.000000)">
                    <path d="M117.635137,13.9433275 C103.472956,2.14448273 83.3925838,-2.04264 65.5831633,2.09734691 C41.3797656,7.71543182 27.3512718,28.0277031 0.810076909,26.1139318 C42.7063475,40.1220273 76.3898191,-4.34701545 117.635137,13.9433275 Z" id="Path"></path>
                    <path d="M98.7997645,17.1859104 C80.5783151,15.6646298 61.3148015,22.7114369 49.0060564,36.4336589 C87.1735035,12.3708053 126.933191,51.5023304 166.363636,31.5825569 C140.378265,37.3134184 123.559848,19.2443349 98.7997645,17.1859104 Z" id="Path"></path>
                </g>
            </g>
        </g>
    </g>
</svg>
