<svg width="91" height="68" viewBox="0 0 91 68" fill="none" xmlns="http://www.w3.org/2000/svg">
<path fill-rule="evenodd" clip-rule="evenodd" d="M3.1637 0.00534626C7.95625 0.0935338 11.2259 1.30478 13.588 3.32375C16.2876 5.63097 17.7167 8.8462 19.1146 12.2503C21.8584 18.9322 24.4796 26.5252 35.7935 31.6965C36.2543 31.3442 36.7469 31.019 37.2496 30.701C36.89 23.5171 40.0259 17.1852 46.6481 16.6307C48.3637 16.4932 50.06 16.4807 51.3473 16.0334C51.7674 15.8874 52.2906 15.4302 52.8034 14.6727C54.0262 12.819 54.7495 10.7044 56.0465 9.06465C56.719 8.22729 57.6342 7.47175 58.8263 7.47175C67.8014 7.47175 76.2263 17.7388 75.1743 31.9952C76.8406 33.7611 79.9083 36.8184 81.6937 38.9971C84.8435 39.1499 87.1829 40.5056 88.4778 42.4816C89.7474 44.4187 89.9981 46.7954 89.5699 48.9857C90.0636 49.5635 90.5625 50.1972 90.8274 50.9768C91.1897 52.1471 90.9669 53.3595 90.2979 54.1288C85.6861 59.333 77.1044 61.4827 68.4564 61.6286C63.229 61.7168 57.9721 61.0785 53.4983 59.7702C51.1249 64.8495 46.6811 68 41.2869 68C39.4631 68 37.6539 67.3973 36.2568 66.3075C34.8597 65.2179 33.8741 63.5753 33.8741 61.6286C33.8741 59.0622 35.4623 56.9165 37.6467 55.4562C39.0975 54.4864 40.8363 53.7969 42.6769 53.4319C41.1265 51.2949 40.3844 48.6723 39.6985 46.0651C39.5622 45.547 39.408 45.0253 39.2682 44.5054C37.5554 44.3583 35.9784 45.0427 34.205 46.3968C32.1783 47.9446 30.0188 50.3287 27.4871 52.9342C22.4237 58.1452 15.8334 64.2317 5.44707 65.8762C4.66214 65.987 3.98416 64.9673 4.38809 64.2834C7.34602 59.3399 6.08691 54.6931 5.67873 49.7817C5.47463 47.3259 5.49926 44.8031 6.53914 42.3151C7.44229 40.1544 9.30293 38.0954 12.0657 36.1427C8.27474 33.4823 5.75164 30.8991 4.42119 28.3112C2.94073 25.4316 2.69847 22.5809 2.76653 19.7828C2.90265 14.1864 4.1893 8.77341 0.11908 1.63086C-0.246803 0.995596 0.281197 0.0543275 1.0126 0.037965C1.76109 0.00396501 2.479 -0.00772249 3.16364 0.00502751L3.1637 0.00534626ZM2.63422 2.19537C3.01885 2.99862 3.34887 3.77924 3.62701 4.55157C10.402 10.1244 14.9127 28.0646 29.5389 30.5682C26.7942 28.667 24.7007 26.5923 23.0527 24.4291C16.3909 24.0709 11.4393 8.44075 6.63847 2.5273C5.46336 2.32075 4.14526 2.20058 2.63422 2.19537ZM8.55788 2.95867C13.5413 7.60435 15.1124 18.8068 22.3246 23.4003C19.8688 19.8737 18.4425 16.2454 17.129 13.0468C15.747 9.68132 14.4625 6.85688 12.2312 4.9498C11.2571 4.11722 10.0613 3.42936 8.55788 2.95867ZM4.15649 6.21077C5.18875 9.89148 5.18166 13.2148 5.05 16.2325C10.978 23.5077 20.0013 31.5034 33.9403 33.5881C33.9616 33.4596 34.0067 33.3351 34.0727 33.2229C32.5427 32.4791 31.1818 31.6691 29.936 30.8337C15.0775 31.1202 9.40498 13.855 4.15649 6.21077ZM58.8263 9.59558C57.9141 9.89935 57.6125 10.5055 57.1386 11.2548C61.2448 13.7442 67.7319 19.918 68.6881 27.8138C69.0749 28.0019 69.4728 28.173 69.8464 28.378C69.6617 23.7924 68.4209 18.391 63.0623 11.5867C66.9852 16.1549 71.5588 21.1333 70.9715 29.0749C71.7117 29.5288 72.4382 29.9977 73.1226 30.5019C73.5053 17.8969 65.9026 9.59558 58.8263 9.59558ZM56.9731 11.5203C56.2447 12.7785 55.5541 14.1336 54.8883 15.3033C59.8697 17.4379 66.1217 21.2961 66.6363 26.9179C66.963 27.0407 67.2777 27.1802 67.596 27.3162C66.7834 21.5926 63.0073 17.5816 56.9731 11.5203ZM54.7559 15.5024C54.2977 16.4163 53.4345 17.1471 52.7703 17.6926C58.1686 19.545 63.0778 21.6377 63.4925 25.9888C64.1921 26.1387 64.8776 26.3403 65.5443 26.553C64.7777 22.1273 59.4954 19.163 54.7559 15.5024ZM4.98382 17.228C4.87364 18.9772 4.86388 20.7144 4.9508 22.3385C9.25582 27.0325 15.2064 30.2052 23.5161 32.0946C15.4491 28.6398 8.94064 23.396 4.98383 17.228H4.98382ZM52.3401 17.8917C51.8009 18.1596 51.139 18.2706 50.6192 18.3895C55.2895 20.0336 59.5784 22.022 60.2494 25.5906C60.9369 25.6288 61.6082 25.6883 62.268 25.7897C60.9915 21.6446 56.8112 20.3054 52.3401 17.8917ZM49.4279 18.5554C48.5189 18.65 47.6303 18.689 46.8135 18.7545C46.222 18.8024 45.7032 18.8857 45.2251 18.9869C50.5295 20.5017 56.1772 21.8483 57.0393 25.5906C57.6815 25.5672 58.3353 25.5257 58.9587 25.5247C57.611 21.9693 53.5419 20.5383 49.4279 18.556V18.5554ZM44.497 19.1858C43.6979 19.4479 43.2406 19.9519 42.7431 20.5132C47.0128 21.3763 51.4982 22.4812 52.6379 25.8892C53.7059 25.7675 54.7683 25.6837 55.8149 25.6238C54.3206 21.8778 49.0887 21.2039 44.497 19.1858ZM42.5776 20.7124C41.9049 21.4569 41.2839 22.1809 40.7906 22.9691C44.3772 23.5316 47.8061 24.17 49.2293 26.387C49.9543 26.2559 50.6858 26.1549 51.4135 26.0551C50.0106 22.6722 46.6765 22.1738 42.5776 20.7124ZM5.05 23.4667C5.24796 24.7726 5.64027 26.0514 6.30754 27.3493C6.899 28.4997 7.7278 29.6825 8.88881 30.9001C12.8836 33.0298 18.0028 33.4095 24.7073 33.5881C15.7731 32.2727 8.88847 28.7325 5.05 23.4667ZM40.4597 23.4997C39.5696 25.1162 39.1311 26.9813 39.2683 29.5391C41.8585 28.2411 44.822 27.2951 47.8725 26.6521C46.1671 25.0007 43.5852 24.4408 40.4597 23.4997ZM59.0911 27.6477C51.2976 27.6477 41.743 29.6433 36.6209 33.8863C37.5419 35.1574 40.7619 40.834 41.7502 45.501C42.7806 49.761 44.5342 52.7904 47.1113 54.5601C50.8235 57.158 57.3618 58.9572 64.2535 59.4049C62.1305 55.9583 61.7544 53.2019 62.4996 50.2129C63.3811 46.677 65.9712 43.8656 69.2837 41.6513C69.4914 41.4992 69.7557 41.4269 70.0117 41.4522C70.887 41.534 71.2204 42.9426 70.475 43.4101C67.4336 45.4432 65.2583 47.9082 64.5513 50.7438C63.9343 53.2188 64.3894 56.0726 66.5369 59.4714C67.1692 59.4842 67.7912 59.515 68.4232 59.5043C76.7613 59.3638 84.8772 57.1112 88.7755 52.6683C89.0183 52.3047 88.9193 52.054 88.8085 51.6731C88.6154 51.1048 88.1818 50.4054 87.7826 50.0139C87.512 49.7561 87.3939 49.3481 87.4848 48.9852C87.942 47.1915 87.7163 45.1902 86.7237 43.6756C85.731 42.1609 84.0281 41.054 81.164 41.054C80.8476 41.0542 80.5344 40.9035 80.3367 40.6558C77.5701 37.2444 73.3674 32.4868 67.8606 29.7713C64.3639 28.1475 61.868 27.7077 59.091 27.6477H59.0911ZM12.6945 33.6539C19.7771 36.2835 27.4967 35.8333 34.2382 34.5831C34.1147 34.4875 34.0499 34.3236 33.9735 34.2183C25.2889 34.7616 18.0401 35.0937 12.6946 33.6541L12.6945 33.6539ZM14.6801 35.6451C14.9275 36.111 14.7595 36.7544 14.3161 37.0388C11.0283 39.0678 9.37638 41.0996 8.5248 43.1117C14.4564 43.9306 23.0181 39.7511 30.5979 36.9061C25.2186 37.8489 19.6081 37.4558 14.6801 35.6451ZM35.8597 36.4747C26.1991 40.8725 17.38 50.9377 7.73055 48.2885C7.74632 48.7166 7.75986 49.1388 7.79668 49.5826C7.92485 51.1248 8.12132 52.7557 8.22691 54.4608C8.39925 57.244 8.30214 60.2158 7.06864 63.2547C15.6116 61.2955 21.3339 56.2401 25.9648 51.4742C28.4633 48.9029 30.6721 46.4422 32.9475 44.7046C34.7204 43.3506 36.6186 42.4346 38.6726 42.3816C38.2469 41.0217 38.1009 40.4777 37.4137 39.1861C26.3398 43.0881 18.2637 56.9968 8.22691 54.4608C15.7121 56.1422 27.8128 40.4104 36.9848 38.2999C36.6527 37.6857 36.2853 37.0616 35.8597 36.4747H35.8597ZM23.3505 41.8175C18.436 43.631 13.5641 44.6079 8.4586 43.2112C7.80621 44.8076 7.67086 46.4608 7.73055 48.2221C11.9061 48.856 17.5923 45.3959 23.3505 41.8175ZM84.7052 48.9193C84.7052 51.8516 82.3346 54.2288 79.4103 54.2288C76.486 54.2288 74.1154 51.8516 74.1154 48.9193C74.1154 45.987 76.486 43.6098 79.4103 43.6098C82.8681 43.6204 84.6409 46.67 84.7052 48.9193ZM79.4103 45.7335C77.6557 45.7335 76.2333 47.1599 76.2333 48.9193C76.2333 50.6787 77.6557 52.105 79.4103 52.105C81.1648 52.105 82.5872 50.6787 82.5872 48.9193C82.5872 47.1599 81.1648 45.7335 79.4103 45.7335ZM79.4103 46.7623C80.58 46.7623 81.5282 47.7132 81.5282 48.8862C81.5282 50.0592 80.58 51.01 79.4103 51.01C78.2405 51.01 77.2923 50.0592 77.2923 48.8862C77.2923 47.7132 78.2405 46.7623 79.4103 46.7623ZM44.4308 55.3239C42.363 55.5106 40.3597 56.1982 38.8381 57.2155C38.7302 57.2878 38.6427 57.3732 38.5403 57.4478C41.8501 57.6085 42.0463 57.8232 44.9272 55.6889C44.7551 55.5633 44.5909 55.4569 44.4308 55.3239ZM45.8869 56.3195C43.9494 58.6946 40.6398 58.5888 37.9115 57.9454C36.7606 58.9598 36.0558 60.1455 35.9921 61.4299C41.4229 60.46 44.3616 59.3795 46.3502 56.6181C46.186 56.5214 46.0252 56.4086 45.8869 56.3195ZM47.3099 57.2155C45.7526 60.4719 40.6423 61.4681 35.9921 61.5959C35.992 61.6065 35.9921 61.6182 35.9921 61.6288C35.9921 62.8677 36.595 63.8799 37.5806 64.6487C37.8711 64.8751 38.1935 65.077 38.5403 65.2459C42.9064 63.2526 46.4237 60.5487 48.402 57.8125C48.0288 57.6253 47.6594 57.4157 47.3099 57.2153V57.2155ZM49.4279 58.3105C47.9682 61.619 43.355 64.1621 38.9374 65.4121C39.6714 65.7076 40.4788 65.8766 41.287 65.8766C45.7976 65.8766 49.3923 63.4309 51.4797 59.107C50.7726 58.8526 50.08 58.6018 49.4279 58.3105Z" fill="black"/>
</svg>
