<?xml version="1.0" encoding="UTF-8"?>
<svg width="35px" height="35px" viewBox="0 0 35 35" version="1.1" xmlns="http://www.w3.org/2000/svg" xmlns:xlink="http://www.w3.org/1999/xlink">
    <!-- Generator: Sketch 63.1 (92452) - https://sketch.com -->
    <title>noun_link_1880307</title>
    <desc>Created with Sketch.</desc>
    <g id="Delegate" stroke="none" stroke-width="1" fill="none" fill-rule="evenodd">
        <g id="Delegate--Review-Delegation" transform="translate(-189.000000, -325.000000)" fill="#F5942A">
            <g id="Group-11" transform="translate(162.000000, 215.000000)">
                <g id="Group-3" transform="translate(0.000000, 83.000000)">
                    <g id="Group">
                        <g id="noun_link_1880307" transform="translate(27.547619, 27.547619)">
                            <path d="M31.1743563,2.60683523 C27.5317776,-0.868945077 21.6265307,-0.868945077 17.9849766,2.60683523 L12.7809219,7.57193762 C13.1928937,7.52916761 13.6091689,7.51078172 14.0275616,7.51078172 C15.3445596,7.51078172 16.6252172,7.71048376 17.8376341,8.09547903 L20.7865347,5.28185146 C21.7993526,4.31411484 23.1462699,3.78235846 24.5785735,3.78235846 C26.0110138,3.78235846 27.3579311,4.31411484 28.370749,5.28185146 C29.3836352,6.24756694 29.9405587,7.53112356 29.9405587,8.90022019 C29.9405587,10.2672957 29.3836352,11.5528734 28.370749,12.5185889 L22.6010273,18.0256186 C21.5882777,18.9934204 20.241292,19.5250464 18.8089884,19.5250464 C17.3744989,19.5250464 16.0297674,18.9934204 15.0159249,18.0256186 C14.5228021,17.5569741 14.1386321,17.0109393 13.8739346,16.4160059 C13.2164603,16.4506261 12.6017474,16.7114188 12.1321228,17.1595911 L10.5952381,18.628441 C11.0157484,19.3720263 11.5557996,20.0729067 12.213274,20.7025908 C15.854828,24.1785015 21.7610995,24.1785015 25.4036782,20.7025908 L31.1744246,15.19354 C34.8148857,11.7179552 34.8148857,6.08261554 31.1743563,2.60683523 Z" id="Path"></path>
                            <path d="M19.9371252,26.3924243 C18.618082,26.3924243 17.3247201,26.1886987 16.0847703,25.7873758 L13.1158984,28.621214 C12.104213,29.5889265 10.7575075,30.1205686 9.32535656,30.1205686 C7.8932056,30.1205686 6.54861748,29.5889265 5.5347464,28.621214 C4.52094362,27.6555225 3.9638746,26.3701937 3.9638746,25.0031792 C3.9638746,23.6361647 4.52094362,22.3506404 5.5347464,21.3831235 L11.3038532,15.8766673 C12.3176559,14.9110409 13.6623124,14.3793336 15.0944633,14.3793336 C16.5287316,14.3793336 17.8733881,14.9110409 18.8860297,15.8766673 C19.3791683,16.3472243 19.7641852,16.8932087 20.0300839,17.488022 C20.6896055,17.4554259 21.3053458,17.1926363 21.7749202,16.7445054 L23.3095238,15.2777468 C22.8890583,14.5320789 22.3479719,13.8313283 21.6895431,13.2018327 C18.0483771,9.72637322 12.1427352,9.72637322 8.50156923,13.2018327 L2.73246247,18.7103751 C-0.910820824,22.185965 -0.910820824,27.820589 2.73246247,31.2980695 C6.37362841,34.7736594 12.2772213,34.7736594 15.9183189,31.2980695 L21.1132129,26.3396186 C20.7258738,26.3741053 20.3342316,26.3926198 19.9393109,26.3926198 L19.9371252,26.3924243 L19.9371252,26.3924243 Z" id="Path"></path>
                        </g>
                    </g>
                </g>
            </g>
        </g>
    </g>
</svg>