<svg viewBox="0 0 32 32" xmlns="http://www.w3.org/2000/svg">
<path d="M19.4283 10.2858C20.0345 10.2858 20.6159 10.045 21.0445 9.61632C21.4732 9.18767 21.714 8.60628 21.714 8.00007C21.714 7.39386 21.4732 6.81248 21.0445 6.38383C20.6159 5.95517 20.0345 5.71436 19.4283 5.71436C18.8221 5.71436 18.2407 5.95517 17.8121 6.38383C17.3834 6.81248 17.1426 7.39386 17.1426 8.00007C17.1426 8.60628 17.3834 9.18767 17.8121 9.61632C18.2407 10.045 18.8221 10.2858 19.4283 10.2858Z" />
<path d="M0 6.85716C0 5.03853 0.722449 3.29438 2.00841 2.00841C3.29438 0.722449 5.03853 0 6.85716 0H20.5715C22.3901 0 24.1342 0.722449 25.4202 2.00841C26.7062 3.29438 27.4286 5.03853 27.4286 6.85716V20.5715C27.4286 22.3901 26.7062 24.1342 25.4202 25.4202C24.1342 26.7062 22.3901 27.4286 20.5715 27.4286H6.85716C5.03853 27.4286 3.29438 26.7062 2.00841 25.4202C0.722449 24.1342 0 22.3901 0 20.5715V6.85716ZM6.85716 2.28572C5.64474 2.28572 4.48197 2.76735 3.62466 3.62466C2.76735 4.48197 2.28572 5.64474 2.28572 6.85716V20.5715C2.28572 21.4172 2.51658 22.2126 2.91886 22.8938L10.4823 15.3303C11.3396 14.4733 12.5021 13.9919 13.7143 13.9919C14.9265 13.9919 16.089 14.4733 16.9463 15.3303L24.512 22.8938C24.912 22.2126 25.1429 21.4195 25.1429 20.5715V6.85716C25.1429 5.64474 24.6613 4.48197 23.804 3.62466C22.9467 2.76735 21.7839 2.28572 20.5715 2.28572H6.85716ZM15.3303 16.9463C14.9017 16.5178 14.3204 16.2771 13.7143 16.2771C13.1082 16.2771 12.5269 16.5178 12.0983 16.9463L4.53487 24.512C5.21601 24.912 6.00915 25.1429 6.85716 25.1429H20.5715C21.4172 25.1429 22.2126 24.912 22.8938 24.5098L15.3303 16.9463Z"/>
<path d="M11.4287 32.0001C10.4638 32.0012 9.50955 31.7981 8.62869 31.4042C7.74783 31.0102 6.9603 30.4344 6.31787 29.7144H21.7145C23.8362 29.7144 25.871 28.8715 27.3713 27.3712C28.8716 25.8709 29.7145 23.8361 29.7145 21.7143V6.31775C31.1179 7.57489 32.0002 9.3989 32.0002 11.4286V21.7143C32.0002 24.4423 30.9165 27.0585 28.9876 28.9875C27.0586 30.9164 24.4424 32.0001 21.7145 32.0001H11.4287Z" />
</svg>
