<svg width="301" height="195" viewBox="0 0 301 195" fill="none" xmlns="http://www.w3.org/2000/svg">
<path d="M214.114 0L169.419 30.5017H234.995L214.114 0Z" fill="#F2F2F2"/>
<path d="M238.485 33.7603H165.334L143.033 48.9795H248.904L238.485 33.7603Z" fill="#F2F2F2"/>
<path d="M140.378 51.9814L69.6951 100.219L120.044 173.763L266.504 73.8116L251.559 51.9814H140.378Z" fill="#F2F2F2"/>
<ellipse cx="131.653" cy="186.908" rx="131.653" ry="7.28" fill="#F2F2F2"/>
<ellipse cx="245" cy="159.5" rx="56" ry="5.5" fill="#F2F2F2"/>
<rect x="70" y="67" width="117" height="114" fill="#FED404"/>
<path fill-rule="evenodd" clip-rule="evenodd" d="M71.1577 64H182.842C184.588 64 186 65.4136 186 67.1577V178.842C186 180.586 184.588 182 182.842 182H71.1577C69.4136 182 68 180.586 68 178.842V67.1577C68 65.4136 69.4136 64 71.1577 64ZM129.248 72.3544H76.3544V173.646H80.4714C80.4042 173.23 80.3924 172.826 80.4596 172.477C81.2131 167.928 83.7181 168.266 85.3683 168.49C86.1216 168.592 86.6967 168.669 86.8458 168.247C87.2104 159.926 93.514 162.81 93.514 162.81C92.2549 148.121 98.0499 148.338 98.0499 148.338C104.114 147.533 103.994 154.632 103.994 154.632C103.994 154.632 104.831 144.543 102.467 129.411C100.182 114.798 103.599 113.431 103.599 113.431C109.435 111.985 111.256 119.911 112.347 124.659C112.505 125.343 112.647 125.962 112.783 126.476C113.867 130.564 116.355 157.48 116.355 157.48C116.761 162.906 117.486 168.455 118.192 173.646H153.36L152.546 167.112C151.814 161.104 145.278 161.648 138.583 162.205C136.546 162.375 134.494 162.546 132.586 162.534C124.408 162.483 124.628 155.12 125.172 150.993C125.74 146.694 125.343 146.322 123.148 145.933C122.766 145.866 122.372 145.832 121.978 145.798C120.111 145.637 118.248 145.476 117.712 141.754C117.522 140.425 119.243 138.285 119.243 138.285C114.073 134.835 119.296 130.914 119.296 130.914C126.51 126.25 122.484 125.045 119.208 124.064C118.374 123.815 117.589 123.58 117.05 123.306C114.406 121.96 110.5 117.531 120.819 107.92C129.795 99.5582 128.213 94.487 127.275 91.4773C127.134 91.0271 127.008 90.623 126.934 90.2609C125.706 84.2594 126.41 77.9488 129.248 72.3544Z" fill="#3F3D56"/>
<rect x="70" y="66" width="117" height="114" stroke="#E3787D" stroke-width="8"/>
<ellipse cx="151.406" cy="51.94" rx="4.01032" ry="4.004" stroke="#3F3D56" stroke-width="0.84"/>
<ellipse cx="139.01" cy="36.652" rx="4.01032" ry="4.004" stroke="#3F3D56" stroke-width="0.84"/>
<ellipse cx="159.427" cy="25.004" rx="4.01032" ry="4.004" stroke="#3F3D56" stroke-width="0.84"/>
<path fill-rule="evenodd" clip-rule="evenodd" d="M254.827 102.247C254.577 100.996 250.155 100 244.719 100C239.274 100 234.845 101.001 234.61 102.254L234.61 103.725C235.47 104.325 239.021 105.223 244.719 105.223C250.4 105.223 253.946 104.331 254.828 103.698L254.827 102.247ZM239.315 102.718C238.458 102.718 237.763 102.557 237.763 102.356C237.763 102.157 238.458 101.995 239.315 101.995C240.173 101.995 240.867 102.157 240.867 102.356C240.867 102.557 240.173 102.718 239.315 102.718ZM248.757 102.356C248.757 102.557 249.452 102.718 250.308 102.718C251.165 102.718 251.862 102.557 251.862 102.356C251.862 102.157 251.165 101.995 250.308 101.995C249.452 101.995 248.757 102.157 248.757 102.356Z" fill="#3F3D56"/>
<g filter="url(#filter0_d)">
<path d="M254.829 107.071L254.828 105.177C251.75 106.541 245.084 106.563 244.719 106.563C244.354 106.563 237.686 106.541 234.609 105.176L234.608 107.071C235.911 107.793 239.572 108.545 244.719 108.545C249.864 108.545 253.524 107.794 254.829 107.071Z" fill="#60E4F8"/>
</g>
<defs>
<filter id="filter0_d" x="220.608" y="91.1764" width="48.2206" height="31.3688" filterUnits="userSpaceOnUse" color-interpolation-filters="sRGB">
<feFlood flood-opacity="0" result="BackgroundImageFix"/>
<feColorMatrix in="SourceAlpha" type="matrix" values="0 0 0 0 0 0 0 0 0 0 0 0 0 0 0 0 0 0 127 0"/>
<feOffset/>
<feGaussianBlur stdDeviation="7"/>
<feColorMatrix type="matrix" values="0 0 0 0 0 0 0 0 0 0.906207 0 0 0 0 0.985604 0 0 0 1 0"/>
<feBlend mode="normal" in2="BackgroundImageFix" result="effect1_dropShadow"/>
<feBlend mode="normal" in="SourceGraphic" in2="effect1_dropShadow" result="shape"/>
</filter>
</defs>
</svg>
