<?xml version="1.0" encoding="UTF-8"?>
<svg width="100%" height="100%" viewBox="0 0 24 24" version="1.1" xmlns="http://www.w3.org/2000/svg" xmlns:xlink="http://www.w3.org/1999/xlink">
    <!-- Generator: Sketch 63.1 (92452) - https://sketch.com -->
    <title>noun_QR Code_2802515</title>
    <desc>Created with Sketch.</desc>
    <g id="Icons" stroke="none" stroke-width="1" fill="none" fill-rule="evenodd">
        <g id="Icon/-Receive">
            <g id="noun_QR-Code_2802515">
                <path d="M0.555555556,17.6666667 C0.862380417,17.6666667 1.11111111,17.9153974 1.11111111,18.2222222 L1.11111111,18.2222222 L1.11111111,22.8888889 L5.77777778,22.8888889 C6.08460264,22.8888889 6.33333333,23.1376196 6.33333333,23.4444444 C6.33333333,23.7512693 6.08460264,24 5.77777778,24 L5.77777778,24 L0.555555556,24 C0.248730695,24 -4.59632332e-13,23.7512693 -4.59632332e-13,23.4444444 L-4.59632332e-13,23.4444444 L-4.59632332e-13,18.2222222 C-4.59632332e-13,17.9153974 0.248730695,17.6666667 0.555555556,17.6666667 Z M23.4444444,17.6666667 C23.7512693,17.6666667 24,17.9153974 24,18.2222222 L24,18.2222222 L24,23.4444444 C24,23.7512693 23.7512693,24 23.4444444,24 L23.4444444,24 L18.2222222,24 C17.9153974,24 17.6666667,23.7512693 17.6666667,23.4444444 C17.6666667,23.1376196 17.9153974,22.8888889 18.2222222,22.8888889 L18.2222222,22.8888889 L22.8888889,22.8888889 L22.8888889,18.2222222 C22.8888889,17.9153974 23.1376196,17.6666667 23.4444444,17.6666667 Z M8.66388889,14.1716667 C8.97071375,14.1716667 9.21944444,14.4203974 9.21944444,14.7272222 L9.21944444,14.7272222 L9.21944444,18.1327778 C9.21944444,18.4396026 8.97071375,18.6883333 8.66388889,18.6883333 L8.66388889,18.6883333 L5.25555556,18.6883333 C4.94873069,18.6883333 4.7,18.4396026 4.7,18.1327778 L4.7,18.1327778 L4.7,14.7272222 C4.7,14.4203974 4.94873069,14.1716667 5.25555556,14.1716667 L5.25555556,14.1716667 Z M11.9,11.51 C12.1552783,11.51 12.3675927,11.6939502 12.4116221,11.9365293 L12.42,12.03 L12.419,17.61 L18.8,17.61 C19.0552783,17.61 19.2675927,17.7939502 19.3116221,18.0365293 L19.32,18.13 C19.32,18.3852783 19.1360498,18.5975927 18.8934707,18.6416221 L18.8,18.65 L11.9,18.65 C11.6447217,18.65 11.4324073,18.4660498 11.3883779,18.2234707 L11.38,18.13 L11.379,12.55 L5.2,12.55 C4.94472172,12.55 4.73240729,12.3660498 4.6883779,12.1234707 L4.68,12.03 C4.68,11.7747217 4.86395017,11.5624073 5.10652934,11.5183779 L5.2,11.51 L11.9,11.51 Z M8.10833333,15.2827778 L5.81111111,15.2827778 L5.81111111,17.5772222 L8.10833333,17.5772222 L8.10833333,15.2827778 Z M18.72,11.81 C18.9752783,11.81 19.1875927,11.9939502 19.2316221,12.2365293 L19.24,12.33 L19.24,15.33 C19.24,15.6171881 19.0071881,15.85 18.72,15.85 C18.4647217,15.85 18.2524073,15.6660498 18.2083779,15.4234707 L18.2,15.33 L18.2,12.851 L15.74,12.851 L15.74,15.33 C15.74,15.5852783 15.5560498,15.7975927 15.3134707,15.8416221 L15.22,15.85 C14.9647217,15.85 14.7524073,15.6660498 14.7083779,15.4234707 L14.7,15.33 L14.7,12.33 C14.7,12.0747217 14.8839502,11.8624073 15.1265293,11.8183779 L15.22,11.81 L18.72,11.81 Z M11.9,5.31 C12.1552783,5.31 12.3675927,5.49395017 12.4116221,5.73652934 L12.42,5.83 L12.42,9.33 C12.42,9.61718807 12.1871881,9.85 11.9,9.85 C11.6447217,9.85 11.4324073,9.66604983 11.3883779,9.42347066 L11.38,9.33 L11.38,5.83 C11.38,5.54281193 11.6128119,5.31 11.9,5.31 Z M8.66388889,5.33 C8.94003126,5.33 9.16911736,5.53147186 9.21217316,5.79544156 L9.21944444,5.88555556 L9.21944444,9.28555556 C9.21944444,9.56169793 9.01797258,9.79078403 8.75400289,9.83383983 L8.66388889,9.84111111 L5.25555556,9.84111111 C4.97941318,9.84111111 4.75032708,9.63963925 4.70727128,9.37566955 L4.7,9.28555556 L4.7,5.88555556 C4.7,5.60941318 4.90147186,5.38032708 5.16544156,5.33727128 L5.25555556,5.33 L8.66388889,5.33 Z M18.6638889,5.33 C18.9400313,5.33 19.1691174,5.53147186 19.2121732,5.79544156 L19.2194444,5.88555556 L19.2194444,9.28555556 C19.2194444,9.56169793 19.0179726,9.79078403 18.7540029,9.83383983 L18.6638889,9.84111111 L15.2555556,9.84111111 C14.9794132,9.84111111 14.7503271,9.63963925 14.7072713,9.37566955 L14.7,9.28555556 L14.7,5.88555556 C14.7,5.60941318 14.9014719,5.38032708 15.1654416,5.33727128 L15.2555556,5.33 L18.6638889,5.33 Z M8.10833333,6.44111111 L5.81111111,6.44111111 L5.81111111,8.73555556 L8.10833333,8.73555556 L8.10833333,6.44111111 Z M18.1083333,6.44111111 L15.8111111,6.44111111 L15.8111111,8.73555556 L18.1083333,8.73555556 L18.1083333,6.44111111 Z M23.4444444,-3.33066907e-14 C23.7512693,-3.33066907e-14 24,0.248730695 24,0.555555556 L24,0.555555556 L24,5.77777778 C24,6.08460264 23.7512693,6.33333333 23.4444444,6.33333333 C23.1376196,6.33333333 22.8888889,6.08460264 22.8888889,5.77777778 L22.8888889,5.77777778 L22.8888889,1.11111111 L18.2222222,1.11111111 C17.9153974,1.11111111 17.6666667,0.862380417 17.6666667,0.555555556 C17.6666667,0.248730695 17.9153974,-3.33066907e-14 18.2222222,-3.33066907e-14 L18.2222222,-3.33066907e-14 Z M5.39766082,-3.46389584e-14 C5.68429983,-3.46389584e-14 5.91666667,0.232366833 5.91666667,0.519005848 C5.91666667,0.805644863 5.68429983,1.0380117 5.39766082,1.0380117 L5.39766082,1.0380117 L1.0380117,1.0380117 L1.0380117,5.39766082 C1.0380117,5.68429983 0.805644863,5.91666667 0.519005848,5.91666667 C0.232366833,5.91666667 -4.96491737e-13,5.68429983 -4.96491737e-13,5.39766082 L-4.96491737e-13,5.39766082 L-4.96491737e-13,0.519005848 C-4.96491737e-13,0.232366833 0.232366833,-3.46389584e-14 0.519005848,-3.46389584e-14 L0.519005848,-3.46389584e-14 Z" id="Combined-Shape" fill="#000000"></path>
                <g id="Group" transform="translate(4.000000, 4.000000)"></g>
            </g>
        </g>
    </g>
</svg>
