<svg width="16" height="10" viewBox="0 0 16 10" fill="none" xmlns="http://www.w3.org/2000/svg">
<path fill-rule="evenodd" clip-rule="evenodd" d="M0 9.44444C0 9.2971 0.0766233 9.15579 0.213013 9.05161C0.349404 8.94742 0.534388 8.88889 0.727273 8.88889H15.2727C15.4656 8.88889 15.6506 8.94742 15.787 9.05161C15.9234 9.15579 16 9.2971 16 9.44444C16 9.59179 15.9234 9.7331 15.787 9.83728C15.6506 9.94147 15.4656 10 15.2727 10H0.727273C0.534388 10 0.349404 9.94147 0.213013 9.83728C0.0766233 9.7331 0 9.59179 0 9.44444ZM0 5C0 4.85266 0.0766233 4.71135 0.213013 4.60716C0.349404 4.50298 0.534388 4.44444 0.727273 4.44444H15.2727C15.4656 4.44444 15.6506 4.50298 15.787 4.60716C15.9234 4.71135 16 4.85266 16 5C16 5.14734 15.9234 5.28865 15.787 5.39284C15.6506 5.49702 15.4656 5.55556 15.2727 5.55556H0.727273C0.534388 5.55556 0.349404 5.49702 0.213013 5.39284C0.0766233 5.28865 0 5.14734 0 5ZM0 0.555556C0 0.408213 0.0766233 0.266905 0.213013 0.162719C0.349404 0.0585317 0.534388 0 0.727273 0H15.2727C15.4656 0 15.6506 0.0585317 15.787 0.162719C15.9234 0.266905 16 0.408213 16 0.555556C16 0.702898 15.9234 0.844206 15.787 0.948393C15.6506 1.05258 15.4656 1.11111 15.2727 1.11111H0.727273C0.534388 1.11111 0.349404 1.05258 0.213013 0.948393C0.0766233 0.844206 0 0.702898 0 0.555556Z" fill="#909090"/>
</svg>
