<svg width="48" height="37" viewBox="0 0 48 37" fill="none" xmlns="http://www.w3.org/2000/svg">
<path fill-rule="evenodd" clip-rule="evenodd" d="M10.3033 7.84619C9.17999 8.55447 8.11286 9.35127 7.10189 10.2366C2.72105 14.0878 0.699116 18.0276 1.03611 21.9231C1.48542 26.8367 5.58545 29.9354 6.25943 30.4224C8.16903 35.4245 11.9882 36 13.6732 36C14.1787 36 14.5156 35.9557 14.5156 35.9557C14.6841 35.9115 14.7403 35.8229 14.7965 35.6901C14.8526 35.5573 14.7403 35.4245 14.628 35.3803C12.2691 34.4064 12.2129 33.7867 12.0444 31.4848C12.0378 31.4019 12.0313 31.3166 12.0245 31.2289L12.0243 31.2258L12.0242 31.225L12.0238 31.2196L12.0233 31.2129L12.0231 31.2107C11.9724 30.5516 11.911 29.7528 11.7636 28.7845C11.1458 24.4906 17.2115 23.2954 17.4924 23.2511C17.6609 23.2068 17.7732 23.1183 17.7732 22.9855C17.8294 22.8527 17.717 22.7199 17.6047 22.6756C12.8869 20.6394 7.83204 23.0298 6.42792 23.7823C5.41695 21.746 9.34849 19.3999 9.91013 19.09C12.606 18.6473 15.1896 18.1604 17.717 17.6292C17.2219 18.9562 17.4689 20.4552 17.5343 20.8521C17.543 20.9053 17.5485 20.9387 17.5485 20.9492C17.5766 20.9714 17.6047 21.0046 17.6328 21.0378C17.6609 21.071 17.689 21.1042 17.717 21.1263C17.7732 21.1706 17.8855 21.1706 17.9417 21.1706H17.9979C19.9636 20.8607 21.7047 17.4521 22.0979 16.6111C25.6924 15.77 29.0061 14.7518 32.1514 13.6894C32.376 14.619 32.6007 15.6372 32.713 16.1684C32.7692 16.2569 32.8253 16.3455 32.9938 16.3897H33.1062C33.2185 16.3897 33.3308 16.3455 33.387 16.2569C34.5103 15.106 35.0719 13.6894 35.2966 12.4942C43.8671 9.15896 47.4311 6.1458 47.8888 5.75889L47.8888 5.75888L47.8888 5.75888L47.8888 5.75887L47.8889 5.75877L47.889 5.75869C47.9111 5.74003 47.9259 5.7275 47.9337 5.72138C47.9898 5.72138 47.9898 5.67711 47.9898 5.67711V5.58858C48.1583 3.99497 46.1926 3.19816 45.1254 2.97682C45.1215 2.97682 45.0878 2.9717 45.0259 2.96228C44.1959 2.83607 38.2966 1.93902 31.0842 2.26855C29.1185 2.35709 26.9842 2.53415 24.7938 2.88829C21.8732 2.66696 14.0663 1.87015 12.6622 1.07334C12.5499 0.98481 12.3814 0.98481 12.2691 1.02908C12.1006 1.07334 12.0444 1.16188 12.0444 1.29468L12.0444 1.29902C12.0468 1.46543 12.1118 6.04863 8.843 7.31499C8.73067 7.35926 8.61834 7.49206 8.67451 7.62486C8.67451 7.75766 8.84301 7.84619 9.0115 7.84619H10.3033ZM10.191 7.315C12.3252 5.80992 12.7184 2.93257 12.7745 1.78162C14.7403 2.44563 19.6828 2.97683 22.491 3.24243C21.6486 3.4195 20.8061 3.59657 19.9636 3.81791C19.9636 3.81791 15.8636 3.86217 14.1787 2.8883C14.0102 2.79976 13.7855 2.84403 13.6732 2.97683C13.5608 3.10963 13.617 3.2867 13.7855 3.37524C14.9088 3.99497 16.7622 4.26058 18.1664 4.34911C17.2115 4.65898 16.3129 4.96885 15.4143 5.32298C15.0773 5.27872 13.8417 5.01311 13.3362 4.39338C13.2239 4.26058 12.9992 4.21631 12.8307 4.30484C12.6622 4.39338 12.606 4.57044 12.7184 4.70325C13.1677 5.23445 13.8978 5.54432 14.4595 5.72139C13.8417 5.98697 13.2801 6.25255 12.7185 6.51814L12.7184 6.51819C12.606 6.47393 12.4375 6.38539 12.1006 6.20832C11.9321 6.11979 11.7074 6.16406 11.5951 6.29686C11.4827 6.42966 11.5389 6.60673 11.7074 6.69526C11.8197 6.78379 11.9321 6.82806 12.0444 6.87233C11.904 6.93873 11.7776 7.0162 11.6512 7.09367C11.5249 7.17113 11.3985 7.2486 11.2581 7.315H10.191ZM34.6788 10.5022C33.724 10.1038 32.376 11.1219 31.9267 11.4761C32.0952 11.6974 32.2637 12.0516 32.376 12.3614C32.713 11.9188 32.8815 11.3876 32.8815 11.3876C32.9377 11.2105 33.1623 11.1219 33.3308 11.1662C33.4993 11.2105 33.5555 11.299 33.6117 11.3876V11.3433C33.6117 11.1662 33.7802 11.0777 34.0048 11.0777C34.2295 11.0777 34.398 11.2105 34.3418 11.3876C34.3418 11.4761 34.2856 13.6894 33.05 14.7518C33.0596 14.7896 33.0692 14.826 33.0785 14.8614L33.0786 14.8619L33.0786 14.8621C33.1238 15.0339 33.1623 15.1806 33.1623 15.3273C34.6226 13.5124 34.6788 11.1219 34.6788 10.5022ZM33.5953 11.6874C33.5323 12.1704 33.3938 13.2322 32.8815 13.9993C32.8492 13.8464 32.7983 13.6936 32.7501 13.5491L32.7501 13.5491L32.7501 13.549L32.7501 13.5489C32.7146 13.4425 32.6807 13.3406 32.6569 13.2468C33.2747 12.5385 33.6117 11.6089 33.6117 11.5646C33.6068 11.5994 33.6014 11.6402 33.5954 11.6863L33.5953 11.6872L33.5953 11.6874ZM21.0869 16.8767L19.9075 17.1423H20.0198C20.1883 17.1865 20.3006 17.3636 20.2445 17.4964C20.236 17.5031 20.2136 17.5418 20.1766 17.6056L20.1766 17.6057C19.9677 17.9662 19.2946 19.128 18.054 19.8426C18.054 19.9888 18.071 20.1216 18.0864 20.241C18.0988 20.3384 18.1102 20.427 18.1102 20.5066C19.2897 20.0196 20.4691 18.0719 21.0869 16.8767ZM18.1102 18.7359C18.6718 18.2932 19.1211 17.8063 19.1211 17.8063C19.2335 17.6735 19.1773 17.4964 19.0088 17.4521C19.0088 17.4079 18.9527 17.4079 18.9527 17.4079C19.065 17.3857 19.1914 17.3525 19.3177 17.3193C19.4441 17.2861 19.5705 17.2529 19.6828 17.2308C19.6266 17.2751 19.5705 17.3193 19.5705 17.3636C19.5559 17.3636 19.5114 17.4316 19.4368 17.5455C19.2229 17.8722 18.762 18.5763 18.054 19.1343C18.054 19.0679 18.0681 19.0015 18.0821 18.9351C18.0961 18.8687 18.1102 18.8023 18.1102 18.7359ZM13.1677 35.3802C11.5041 34.4624 11.4283 33.5446 11.2644 31.5616L11.2581 31.4848C11.2513 31.3995 11.2446 31.3117 11.2376 31.2214L11.2374 31.2192V31.2191C11.1866 30.559 11.1253 29.7622 10.9773 28.8287C10.4156 25.1103 14.4595 23.4282 16.3691 22.897C12.3814 21.6575 8.0567 23.6052 6.82108 24.2692C6.98957 24.402 7.21423 24.6234 7.43889 24.889C9.23616 23.4282 12.2691 23.2954 12.4375 23.2954C12.6622 23.2954 12.8307 23.4282 12.8307 23.561C12.8307 23.738 12.6622 23.8708 12.4937 23.8708C12.4375 23.8708 9.46082 24.0036 7.83204 25.4202C8.00053 25.6858 8.11287 26.0399 8.22519 26.3941C9.23616 25.9071 10.5841 25.8628 10.6964 25.8628C10.9211 25.8628 11.0896 25.9956 11.0896 26.1284C11.0896 26.2612 10.9211 26.4383 10.7526 26.4383C10.3033 26.4383 9.0115 26.5711 8.33752 27.0581C8.33752 27.5007 8.28136 27.9877 8.0567 28.5189C8.50602 29.0501 9.9663 29.5813 10.8649 29.8026C11.0334 29.8469 11.1458 30.0239 11.0896 30.1567C11.0334 30.2895 10.8649 30.3781 10.7526 30.3781H10.6403C10.4156 30.3338 8.67451 29.8469 7.77588 29.1386C7.7478 29.205 7.70567 29.2714 7.66354 29.3378C7.62142 29.4042 7.5793 29.4706 7.55122 29.537C7.94437 30.9978 10.2471 32.7242 10.2471 32.7242C10.4156 32.857 10.4156 33.0341 10.2471 33.1226C10.191 33.1669 10.0786 33.2112 9.9663 33.2112C9.88406 33.2112 9.83193 33.1874 9.76583 33.1574L9.76579 33.1573L9.76574 33.1573C9.75115 33.1507 9.73587 33.1437 9.71943 33.1367C9.70866 33.132 9.69738 33.1273 9.68548 33.1226L9.65599 33.0999C9.39086 32.8968 7.68325 31.5889 6.98957 30.201C8.56218 34.4506 11.4827 35.2474 13.1677 35.3802ZM6.48408 29.7584C5.41695 28.9615 2.10323 26.0399 1.76624 21.8346C1.42925 18.1161 3.45119 14.3534 7.71971 10.635C14.3471 4.7475 24.1198 3.15389 31.1404 2.79975C38.2445 2.47039 44.0368 3.36632 44.8577 3.49328C44.9194 3.50282 44.953 3.50802 44.9569 3.50802C45.0131 3.50802 46.9789 3.90643 47.2035 5.10163C46.4172 4.92457 44.9569 4.92457 42.8227 6.20831C42.6542 6.29684 42.6542 6.47391 42.7665 6.60671C42.8227 6.69525 42.935 6.73951 43.0473 6.73951C43.1035 6.73951 43.2158 6.73951 43.272 6.69525C45.0693 5.5443 46.3049 5.5443 46.9227 5.67711C45.8556 6.51818 42.3172 9.08566 35.2966 11.8745C35.3963 11.1276 35.3632 10.5553 35.3546 10.4055V10.4054C35.3535 10.3865 35.3528 10.3744 35.3528 10.3694C35.3528 10.2809 35.2966 10.1923 35.1843 10.1481C33.5439 9.14716 31.455 10.9752 31.1247 11.2642C31.1044 11.2819 31.0907 11.2939 31.0842 11.299C30.9719 11.3875 30.9719 11.5646 31.0842 11.6532C31.3651 11.9188 31.5897 12.4942 31.8144 13.1582C25.3554 15.4158 17.8855 17.2308 9.57314 18.5588C9.57314 18.5588 9.51698 18.5588 9.46082 18.6031L9.43152 18.6201C8.95012 18.8983 3.89899 21.8178 5.86627 24.402L5.92244 24.4463L5.9786 24.4906C5.98513 24.4957 5.99772 24.5045 6.0156 24.5168C6.15151 24.6111 6.59247 24.9167 6.98956 25.4645C6.98956 25.4866 7.0036 25.4977 7.01765 25.5087C7.03169 25.5198 7.04573 25.5309 7.04573 25.553C7.49504 26.217 7.77587 27.1909 7.21423 28.4746C7.04573 28.873 6.82107 29.3157 6.48408 29.7584ZM3.73201 22.8084C3.90051 22.7199 4.12517 22.8084 4.2375 22.9412C4.46215 23.2954 4.74298 23.6938 5.07997 24.0479C5.1923 24.1807 5.1923 24.3578 5.0238 24.4463C4.96764 24.4906 4.85531 24.4906 4.79914 24.4906C4.68681 24.4906 4.57448 24.4463 4.51832 24.3578L4.51825 24.3577C4.18129 23.9593 3.84432 23.5609 3.56352 23.1626C3.45119 23.074 3.50735 22.897 3.73201 22.8084ZM8.78684 11.6089C8.95533 11.5203 8.95533 11.3433 8.78684 11.2105C8.61834 11.1219 8.39368 11.1219 8.28135 11.1219C5.52928 13.3353 1.14843 17.6735 3.05804 22.1444C3.1142 22.2772 3.22653 22.3658 3.39502 22.3658H3.50735C3.67585 22.3215 3.78818 22.1444 3.73201 22.0116C1.99091 17.8505 6.14709 13.6894 8.78684 11.6089ZM10.1348 9.88248C10.3033 9.79394 10.528 9.79394 10.6403 9.92675C10.7526 10.0595 10.7526 10.2366 10.5841 10.3251C10.5841 10.3251 10.2471 10.5465 9.68548 10.9449C9.62931 10.9892 9.51698 11.0334 9.46082 11.0334C9.34849 11.0334 9.23616 10.9892 9.18 10.9449C9.06767 10.8121 9.06767 10.635 9.18 10.5465C9.52238 10.3036 9.78128 10.1265 9.94397 10.0153C10.0481 9.94403 10.1129 9.89976 10.1348 9.88248ZM36.4199 4.2163C35.8582 5.10164 35.8021 5.89844 36.1391 6.69525C36.6841 7.84087 38.0374 8.52324 38.5648 8.78918C38.6895 8.85207 38.7681 8.89167 38.7788 8.9086C38.835 8.95287 38.8911 8.95287 38.9473 8.95287C39.0596 8.95287 39.2281 8.86433 39.2843 8.7758C39.3966 8.59873 39.2843 8.46593 39.1158 8.3774C39.1158 8.36944 39.0613 8.34288 38.9687 8.29772C38.5462 8.09168 37.3299 7.49851 36.8692 6.51818C36.5884 5.89844 36.6445 5.19017 37.0939 4.4819C37.2062 4.3491 37.0939 4.17203 36.9254 4.0835C36.7569 3.99496 36.5322 4.0835 36.4199 4.2163ZM35.0719 3.72937C35.2404 3.8179 35.2966 3.99497 35.1843 4.12777C34.3418 5.32298 34.1171 6.42966 34.5103 7.40353C35.1843 9.04141 37.3185 9.88248 37.3747 9.88248C37.5432 9.97102 37.6555 10.1038 37.5432 10.2809C37.487 10.3694 37.3185 10.458 37.2062 10.458C37.15 10.458 37.0939 10.458 37.0377 10.4137L37.0287 10.4102C36.8352 10.335 34.5513 9.44744 33.7802 7.5806C33.3308 6.42966 33.5555 5.14591 34.5103 3.8179C34.6788 3.6851 34.9034 3.64084 35.0719 3.72937ZM41.0816 4.03923C41.8679 4.03923 42.4857 4.52617 42.4857 5.14591C42.4857 5.76564 41.8679 6.25258 41.0816 6.25258C40.2953 6.25258 39.6774 5.76564 39.6774 5.14591C39.6774 4.52617 40.2953 4.03923 41.0816 4.03923ZM41.0816 5.67712C41.4747 5.67712 41.7555 5.45578 41.7555 5.14592C41.7555 4.83605 41.4747 4.61471 41.0816 4.61471C40.6884 4.61471 40.4076 4.83605 40.4076 5.14592C40.4076 5.45578 40.7446 5.67712 41.0816 5.67712Z" fill="#F5942A"/>
<path d="M7.10189 10.2366L6.96984 10.0864L6.97013 10.0862L7.10189 10.2366ZM10.3033 7.84619V7.64619H10.9955L10.41 8.01537L10.3033 7.84619ZM1.03611 21.9231L0.836933 21.9413L0.836849 21.9403L1.03611 21.9231ZM6.25943 30.4224L6.37655 30.2602L6.42497 30.2952L6.44627 30.351L6.25943 30.4224ZM14.5156 35.9557L14.5665 36.1492L14.5542 36.1524L14.5417 36.154L14.5156 35.9557ZM14.7965 35.6901L14.6123 35.6122L14.6123 35.6122L14.7965 35.6901ZM14.628 35.3803L14.5546 35.5664L14.5517 35.5651L14.628 35.3803ZM12.0444 31.4848L12.2438 31.469L12.2439 31.4702L12.0444 31.4848ZM12.0245 31.2289L12.2239 31.2132L12.2239 31.2135L12.0245 31.2289ZM12.0243 31.2258L12.2236 31.21L12.2236 31.2101L12.0243 31.2258ZM12.0242 31.225L11.8248 31.2408L11.8248 31.2402L12.0242 31.225ZM12.0238 31.2196L12.2232 31.2042L12.2232 31.2043L12.0238 31.2196ZM12.0233 31.2129L11.8239 31.2282L11.8238 31.2277L12.0233 31.2129ZM12.0231 31.2107L12.2225 31.1954L12.2226 31.1959L12.0231 31.2107ZM11.7636 28.7845L11.5658 28.8146L11.5656 28.813L11.7636 28.7845ZM17.4924 23.2511L17.5432 23.4445L17.5335 23.4471L17.5235 23.4487L17.4924 23.2511ZM17.7732 22.9855H17.5732V22.945L17.589 22.9076L17.7732 22.9855ZM17.6047 22.6756L17.5313 22.8618L17.5254 22.8593L17.6047 22.6756ZM6.42792 23.7823L6.5224 23.9586L6.34054 24.0561L6.24878 23.8713L6.42792 23.7823ZM9.91013 19.09L9.81352 18.9149L9.8437 18.8982L9.87773 18.8927L9.91013 19.09ZM17.717 17.6292L17.6759 17.4335L18.0314 17.3587L17.9044 17.6991L17.717 17.6292ZM17.5343 20.8521L17.7316 20.8195L17.7316 20.8195L17.5343 20.8521ZM17.5485 20.9492L17.4247 21.1063L17.3485 21.0462V20.9492H17.5485ZM17.6328 21.0378L17.7855 20.9086L17.7855 20.9086L17.6328 21.0378ZM17.717 21.1263L17.5932 21.2834L17.5932 21.2834L17.717 21.1263ZM17.9979 21.1706L18.029 21.3681L18.0135 21.3706H17.9979V21.1706ZM22.0979 16.6111L21.9167 16.5264L21.9578 16.4384L22.0523 16.4163L22.0979 16.6111ZM32.1514 13.6894L32.0874 13.5L32.2944 13.43L32.3458 13.6425L32.1514 13.6894ZM32.713 16.1684L32.5441 16.2755L32.5248 16.2451L32.5173 16.2098L32.713 16.1684ZM32.9938 16.3897V16.5897H32.968L32.943 16.5832L32.9938 16.3897ZM33.387 16.2569L33.2181 16.1498L33.2293 16.1322L33.2439 16.1172L33.387 16.2569ZM35.2966 12.4942L35.1 12.4573L35.1206 12.3481L35.2241 12.3078L35.2966 12.4942ZM47.8888 5.75889L47.7596 5.60616L47.7682 5.5989L47.7776 5.59265L47.8888 5.75889ZM47.8888 5.75888L48.0166 5.91269L48.0086 5.91934L48 5.92512L47.8888 5.75888ZM47.8888 5.75888L48.0201 5.90983L48.0166 5.91268L47.8888 5.75888ZM47.8888 5.75887L47.7575 5.60794L47.7593 5.60641L47.8888 5.75887ZM47.8889 5.75877L47.7595 5.60631L47.7598 5.60606L47.8889 5.75877ZM47.889 5.75869L47.7599 5.60598L47.7599 5.60596L47.889 5.75869ZM47.9337 5.72138L47.8099 5.5643L47.8643 5.52138H47.9337V5.72138ZM47.9898 5.58858H47.7898V5.57803L47.7909 5.56755L47.9898 5.58858ZM45.1254 2.97682V2.77682H45.1459L45.166 2.78099L45.1254 2.97682ZM45.0259 2.96228L45.0559 2.76455L45.0259 2.96228ZM31.0842 2.26855L31.0934 2.46834L31.0932 2.46835L31.0842 2.26855ZM24.7938 2.88829L24.8257 3.08573L24.8023 3.08951L24.7787 3.08772L24.7938 2.88829ZM12.6622 1.07334L12.5635 1.24729L12.5503 1.2398L12.5384 1.23042L12.6622 1.07334ZM12.2691 1.02908L12.3424 1.21515L12.3313 1.2195L12.3199 1.22251L12.2691 1.02908ZM12.0444 1.29468L11.8444 1.29714V1.29468H12.0444ZM12.0444 1.29902L11.8445 1.30185L11.8445 1.30148L12.0444 1.29902ZM8.843 7.31499L8.76967 7.12891L8.77076 7.1285L8.843 7.31499ZM8.67451 7.62486L8.85871 7.54695L8.87451 7.5843V7.62486H8.67451ZM12.7745 1.78162L12.5748 1.77188L12.5877 1.50741L12.8385 1.59214L12.7745 1.78162ZM10.191 7.315V7.515H9.56031L10.0757 7.15155L10.191 7.315ZM22.491 3.24243L22.5099 3.04332L22.5322 3.43816L22.491 3.24243ZM19.9636 3.81791L20.0144 4.01134L19.9905 4.01763L19.9658 4.01789L19.9636 3.81791ZM14.1787 2.8883L14.2718 2.71111L14.2787 2.71514L14.1787 2.8883ZM13.6732 2.97683L13.8259 3.10599L13.8259 3.106L13.6732 2.97683ZM13.7855 3.37524L13.8785 3.19815L13.8821 3.20012L13.7855 3.37524ZM18.1664 4.34911L18.1789 4.14951L18.2281 4.53934L18.1664 4.34911ZM15.4143 5.32298L15.4876 5.50906L15.4395 5.52801L15.3882 5.52128L15.4143 5.32298ZM13.3362 4.39338L13.4889 4.2642L13.4912 4.26697L13.3362 4.39338ZM12.8307 4.30484L12.7377 4.12779L12.8307 4.30484ZM12.7184 4.70325L12.5657 4.83241L12.5657 4.83241L12.7184 4.70325ZM14.4595 5.72139L14.5196 5.53064L15.033 5.69251L14.5385 5.90513L14.4595 5.72139ZM12.7185 6.51814L12.6327 6.33748L12.633 6.33734L12.7185 6.51814ZM12.7184 6.51819L12.8042 6.69885L12.7258 6.73609L12.645 6.70426L12.7184 6.51819ZM12.1006 6.20832L12.1936 6.03128V6.03128L12.1006 6.20832ZM11.5951 6.29686L11.7478 6.42602L11.7478 6.42602L11.5951 6.29686ZM11.7074 6.69526L11.8004 6.51821L11.8167 6.52678L11.8312 6.53818L11.7074 6.69526ZM12.0444 6.87233L12.1177 6.68625L12.5475 6.85563L12.1299 7.05313L12.0444 6.87233ZM11.6512 7.09367L11.7558 7.26418V7.26418L11.6512 7.09367ZM11.2581 7.315L11.3436 7.4958L11.303 7.515H11.2581V7.315ZM31.9267 11.4761L31.7676 11.5972L31.6485 11.4407L31.8029 11.319L31.9267 11.4761ZM34.6788 10.5022L34.7558 10.3176L34.8788 10.369V10.5022H34.6788ZM32.376 12.3614L32.5352 12.4826L32.313 12.7744L32.188 12.4296L32.376 12.3614ZM32.8815 11.3876L33.0722 11.448L32.8815 11.3876ZM33.6117 11.3876H33.8117V12.0762L33.4428 11.4947L33.6117 11.3876ZM34.3418 11.3876H34.1418V11.3566L34.1512 11.3271L34.3418 11.3876ZM33.05 14.7518L32.8562 14.801L32.8257 14.681L32.9196 14.6002L33.05 14.7518ZM33.0785 14.8614L33.2719 14.8106L33.272 14.811L33.0785 14.8614ZM33.0786 14.8619L32.8852 14.9128L32.885 14.9123L33.0786 14.8619ZM33.0786 14.8621L33.272 14.8112L33.2721 14.8113L33.0786 14.8621ZM33.1623 15.3273L33.3182 15.4527L32.9623 15.8949V15.3273H33.1623ZM32.8815 13.9993L33.0478 14.1104L32.7841 14.5053L32.6858 14.0407L32.8815 13.9993ZM33.5953 11.6874L33.7937 11.7122L33.7936 11.7133L33.5953 11.6874ZM32.7501 13.5491L32.9375 13.4788L32.9399 13.4859L32.7501 13.5491ZM32.7501 13.5491L32.5628 13.6194L32.5609 13.614L32.7501 13.5491ZM32.7501 13.549L32.5609 13.6139L32.5598 13.6106L32.7501 13.549ZM32.7501 13.5489L32.9398 13.4857L32.9403 13.4873L32.7501 13.5489ZM32.6569 13.2468L32.463 13.2959L32.4372 13.1943L32.5061 13.1153L32.6569 13.2468ZM33.6117 11.5646L33.4136 11.5367L33.8117 11.5646H33.6117ZM33.5954 11.6863L33.3971 11.6607L33.3971 11.6604L33.5954 11.6863ZM33.5953 11.6872L33.3968 11.6624L33.3969 11.6616L33.5953 11.6872ZM19.9075 17.1423V17.3423L19.8635 16.9472L19.9075 17.1423ZM21.0869 16.8767L21.043 16.6816L21.4617 16.5873L21.2646 16.9685L21.0869 16.8767ZM20.0198 17.1423V16.9423H20.0456L20.0706 16.9488L20.0198 17.1423ZM20.2445 17.4964L20.4287 17.5743L20.4086 17.6217L20.3682 17.6535L20.2445 17.4964ZM20.1766 17.6056L20.3498 17.7059L20.3462 17.7116L20.1766 17.6056ZM20.1766 17.6057L20.0034 17.5053L20.007 17.4997L20.1766 17.6057ZM18.054 19.8426H17.854V19.7269L17.9542 19.6692L18.054 19.8426ZM18.0864 20.241L18.2847 20.2155V20.2155L18.0864 20.241ZM18.1102 20.5066L18.1865 20.6914L17.9102 20.8055V20.5066H18.1102ZM19.1211 17.8063L19.274 17.9355L19.2681 17.9419L19.1211 17.8063ZM18.1102 18.7359H17.9102V18.6388L17.9864 18.5788L18.1102 18.7359ZM19.0088 17.4521L18.958 17.6456L18.8088 17.6064V17.4521H19.0088ZM18.9527 17.4079V17.6079L18.914 17.2116L18.9527 17.4079ZM19.3177 17.3193L19.3685 17.5128H19.3685L19.3177 17.3193ZM19.6828 17.2308L19.6441 17.0346L19.8066 17.3879L19.6828 17.2308ZM19.5705 17.3636H19.7705V17.5636H19.5705V17.3636ZM19.4368 17.5455L19.2695 17.436V17.436L19.4368 17.5455ZM18.054 19.1343L18.1778 19.2913L17.854 19.5466V19.1343H18.054ZM11.2644 31.5616L11.4638 31.5451V31.5452L11.2644 31.5616ZM13.1677 35.3802L13.2643 35.2051L13.152 35.5796L13.1677 35.3802ZM11.2581 31.4848L11.0588 31.5012L11.0587 31.5006L11.2581 31.4848ZM11.2376 31.2214L11.437 31.2058L11.437 31.206L11.2376 31.2214ZM11.2374 31.2192L11.0381 31.2347L11.0374 31.227V31.2192H11.2374ZM11.2374 31.2191L11.4369 31.2038L11.4374 31.2114V31.2191H11.2374ZM10.9773 28.8287L10.7797 28.8601L10.7795 28.8586L10.9773 28.8287ZM16.3691 22.897L16.4284 22.706L17.0771 22.9076L16.4227 23.0896L16.3691 22.897ZM6.82108 24.2692L6.69727 24.4263L6.45768 24.2375L6.7264 24.0931L6.82108 24.2692ZM7.43889 24.889L7.56503 25.0442L7.41285 25.1679L7.28619 25.0181L7.43889 24.889ZM7.83204 25.4202L7.66315 25.5273L7.57104 25.3821L7.70079 25.2693L7.83204 25.4202ZM8.22519 26.3941L8.31198 26.5742L8.10426 26.6743L8.03455 26.4545L8.22519 26.3941ZM8.33752 27.0581H8.13752V26.9558L8.2204 26.8959L8.33752 27.0581ZM8.0567 28.5189L7.904 28.648L7.82461 28.5542L7.87249 28.441L8.0567 28.5189ZM10.8649 29.8026L10.9128 29.6084L10.9158 29.6092L10.8649 29.8026ZM11.0896 30.1567L11.2738 30.2346L11.2738 30.2347L11.0896 30.1567ZM10.6403 30.3781V30.5781H10.6208L10.6016 30.5743L10.6403 30.3781ZM7.77588 29.1386L7.59167 29.0607L7.69378 28.8192L7.89968 28.9815L7.77588 29.1386ZM7.66354 29.3378L7.49466 29.2307L7.49466 29.2307L7.66354 29.3378ZM7.55122 29.537L7.35809 29.589L7.3402 29.5225L7.36702 29.4591L7.55122 29.537ZM10.2471 32.7242L10.3671 32.5642L10.3709 32.5672L10.2471 32.7242ZM10.2471 33.1226L10.1233 32.9656L10.1378 32.9542L10.1541 32.9456L10.2471 33.1226ZM9.76583 33.1574L9.68293 33.3395L9.67639 33.3362L9.76583 33.1574ZM9.76574 33.1573L9.84861 32.9751L9.85518 32.9784L9.76574 33.1573ZM9.71943 33.1367L9.64039 33.3204L9.64036 33.3204L9.71943 33.1367ZM9.68548 33.1226L9.61215 33.3087L9.58583 33.2983L9.56343 33.2811L9.68548 33.1226ZM9.65599 33.0999L9.7776 32.9411L9.77803 32.9415L9.65599 33.0999ZM6.98957 30.201L6.802 30.2704L7.16847 30.1116L6.98957 30.201ZM1.76624 21.8346L1.96544 21.8165L1.9656 21.8186L1.76624 21.8346ZM6.48408 29.7584L6.64322 29.8795L6.52319 30.0372L6.36442 29.9186L6.48408 29.7584ZM7.71971 10.635L7.85254 10.7845L7.85108 10.7858L7.71971 10.635ZM31.1404 2.79975L31.1303 2.6L31.1311 2.59997L31.1404 2.79975ZM44.8577 3.49328L44.8882 3.29563H44.8882L44.8577 3.49328ZM47.2035 5.10163L47.4001 5.06469L47.4563 5.36356L47.1596 5.29675L47.2035 5.10163ZM42.8227 6.20831L42.9259 6.37998L42.9157 6.38536L42.8227 6.20831ZM42.7665 6.60671L42.9192 6.47755L42.9281 6.48801L42.9354 6.49958L42.7665 6.60671ZM43.272 6.69525L43.1482 6.53817L43.1559 6.53211L43.1641 6.52682L43.272 6.69525ZM46.9227 5.67711L46.9647 5.48157L47.3805 5.57094L47.0465 5.83418L46.9227 5.67711ZM35.2966 11.8745L35.3704 12.0604L35.0532 12.1864L35.0984 11.848L35.2966 11.8745ZM35.3546 10.4055L35.1546 10.417V10.4055H35.3546ZM35.3546 10.4054L35.5546 10.3939V10.4054H35.3546ZM35.1843 10.1481L35.1109 10.3341L35.0949 10.3278L35.0801 10.3188L35.1843 10.1481ZM31.1247 11.2642L30.993 11.1137L30.993 11.1137L31.1247 11.2642ZM31.0842 11.299L31.208 11.4561L31.208 11.4561L31.0842 11.299ZM31.0842 11.6532L31.208 11.4961L31.2151 11.5017L31.2217 11.5078L31.0842 11.6532ZM31.8144 13.1582L32.0038 13.0941L32.0673 13.2817L31.8804 13.347L31.8144 13.1582ZM9.57314 18.5588L9.60469 18.7563L9.58902 18.7588H9.57314V18.5588ZM9.46082 18.6031L9.58462 18.7601L9.57349 18.7689L9.56124 18.776L9.46082 18.6031ZM9.43152 18.6201L9.53195 18.793L9.5316 18.7932L9.43152 18.6201ZM5.86627 24.402L5.74247 24.5591L5.72252 24.5434L5.70713 24.5232L5.86627 24.402ZM5.92244 24.4463L6.04623 24.2892L6.04624 24.2892L5.92244 24.4463ZM5.9786 24.4906L5.8548 24.6477L5.85479 24.6477L5.9786 24.4906ZM6.0156 24.5168L6.12953 24.3525L6.12954 24.3525L6.0156 24.5168ZM6.98956 25.4645L7.15149 25.3471L7.18956 25.3996V25.4645H6.98956ZM7.04573 25.553L6.88008 25.6651L6.84573 25.6143V25.553H7.04573ZM7.21423 28.4746L7.03001 28.3967L7.03099 28.3944L7.21423 28.4746ZM4.2375 22.9412L4.3902 22.8121L4.39904 22.8225L4.40638 22.8341L4.2375 22.9412ZM3.73201 22.8084L3.82504 22.9855L3.81544 22.9905L3.80534 22.9945L3.73201 22.8084ZM5.07997 24.0479L5.2251 23.9098L5.23267 23.9187L5.07997 24.0479ZM5.0238 24.4463L4.89999 24.2892L4.91446 24.2778L4.93077 24.2693L5.0238 24.4463ZM4.51832 24.3578L4.67017 24.2276L4.67951 24.2385L4.6872 24.2506L4.51832 24.3578ZM4.51825 24.3577L4.36639 24.4879L4.36555 24.4869L4.51825 24.3577ZM3.56352 23.1626L3.68732 23.0055L3.71021 23.0235L3.72699 23.0473L3.56352 23.1626ZM8.78684 11.2105L8.87987 11.0334L8.89618 11.042L8.91064 11.0534L8.78684 11.2105ZM8.78684 11.6089L8.66304 11.4518L8.6775 11.4404L8.69381 11.4318L8.78684 11.6089ZM8.28135 11.1219L8.15601 10.9661L8.21091 10.9219H8.28135V11.1219ZM3.05804 22.1444L3.24196 22.0659L3.24224 22.0665L3.05804 22.1444ZM3.50735 22.3658L3.55817 22.5592L3.53319 22.5658H3.50735V22.3658ZM3.73201 22.0116L3.54781 22.0895L3.54751 22.0888L3.73201 22.0116ZM10.6403 9.92675L10.793 9.79758L10.793 9.79759L10.6403 9.92675ZM10.1348 9.88248L10.011 9.7254L10.0255 9.714L10.0418 9.70543L10.1348 9.88248ZM10.5841 10.3251L10.4743 10.158L10.4825 10.1526L10.4911 10.1481L10.5841 10.3251ZM9.68548 10.9449L9.56152 10.7876L9.56976 10.7818L9.68548 10.9449ZM9.18 10.9449L9.05619 11.102L9.04034 11.0895L9.0273 11.074L9.18 10.9449ZM9.18 10.5465L9.05604 10.3892L9.06428 10.3834L9.18 10.5465ZM9.94397 10.0153L9.83107 9.85019L9.94397 10.0153ZM36.1391 6.69525L35.9583 6.78126L35.9549 6.77315L36.1391 6.69525ZM36.4199 4.2163L36.251 4.10916L36.2583 4.09759L36.2672 4.08714L36.4199 4.2163ZM38.5648 8.78918L38.4748 8.96776L38.5648 8.78918ZM38.7788 8.9086L38.655 9.06567L38.6282 9.04455L38.6099 9.01574L38.7788 8.9086ZM39.2843 8.7758L39.4532 8.88294L39.2843 8.7758ZM39.1158 8.3774L39.0228 8.55444L38.9158 8.49823V8.3774H39.1158ZM38.9687 8.29772L38.8811 8.47748H38.8811L38.9687 8.29772ZM36.8692 6.51818L36.6882 6.60325L36.687 6.60073L36.8692 6.51818ZM37.0939 4.4819L36.925 4.37476L36.9323 4.3632L36.9412 4.35274L37.0939 4.4819ZM36.9254 4.0835L37.0184 3.90645V3.90645L36.9254 4.0835ZM35.1843 4.12777L35.0208 4.01255L35.0259 4.00534L35.0316 3.99861L35.1843 4.12777ZM35.0719 3.72937L35.165 3.55232V3.55232L35.0719 3.72937ZM34.5103 7.40353L34.3253 7.47964L34.3248 7.4784L34.5103 7.40353ZM37.3747 9.88248V9.68248H37.424L37.4677 9.70544L37.3747 9.88248ZM37.5432 10.2809L37.7121 10.388L37.5432 10.2809ZM37.0377 10.4137L37.1103 10.2273L37.1381 10.2382L37.1615 10.2566L37.0377 10.4137ZM37.0287 10.4102L37.1012 10.2238L37.1014 10.2239L37.0287 10.4102ZM33.7802 7.5806L33.5953 7.65697L33.5938 7.65333L33.7802 7.5806ZM34.5103 3.8179L34.3479 3.70115L34.3644 3.67827L34.3865 3.66083L34.5103 3.8179ZM6.97013 10.0862C7.98886 9.19401 9.06438 8.39093 10.1966 7.67702L10.41 8.01537C9.29561 8.718 8.23686 9.50853 7.23366 10.3871L6.97013 10.0862ZM0.836849 21.9403C0.492149 17.9557 2.5648 13.9589 6.96984 10.0864L7.23394 10.3868C2.8773 14.2168 0.906082 18.0995 1.23536 21.9059L0.836849 21.9403ZM6.1423 30.5845C5.46563 30.0956 1.295 26.9506 0.836937 21.9413L1.23528 21.9049C1.67585 26.7229 5.70527 29.7753 6.37655 30.2602L6.1423 30.5845ZM13.6732 36.2C12.8097 36.2 11.3974 36.0528 9.95446 35.2624C8.50728 34.4697 7.04374 33.0376 6.07258 30.4937L6.44627 30.351C7.38472 32.8093 8.78558 34.166 10.1466 34.9116C11.5119 35.6595 12.8517 35.8 13.6732 35.8V36.2ZM14.5156 35.9557C14.5417 36.154 14.5417 36.154 14.5416 36.154C14.5416 36.154 14.5416 36.154 14.5416 36.154C14.5416 36.154 14.5415 36.1541 14.5415 36.1541C14.5414 36.1541 14.5413 36.1541 14.5411 36.1541C14.5409 36.1541 14.5405 36.1542 14.5401 36.1542C14.5392 36.1543 14.5381 36.1545 14.5366 36.1547C14.5336 36.1551 14.5293 36.1556 14.5237 36.1562C14.5127 36.1576 14.4967 36.1594 14.476 36.1616C14.4347 36.1659 14.3748 36.1716 14.2989 36.1773C14.1473 36.1887 13.9317 36.2 13.6732 36.2V35.8C13.9202 35.8 14.1257 35.7892 14.269 35.7784C14.3406 35.7731 14.3965 35.7677 14.4342 35.7637C14.453 35.7618 14.4673 35.7601 14.4766 35.759C14.4813 35.7585 14.4847 35.758 14.4869 35.7578C14.488 35.7576 14.4888 35.7575 14.4892 35.7575C14.4894 35.7575 14.4896 35.7574 14.4897 35.7574C14.4897 35.7574 14.4897 35.7574 14.4897 35.7574C14.4897 35.7574 14.4897 35.7574 14.4897 35.7574C14.4897 35.7574 14.4896 35.7574 14.4896 35.7574C14.4896 35.7574 14.4896 35.7574 14.5156 35.9557ZM14.9807 35.768C14.9508 35.8387 14.9114 35.9222 14.8431 35.994C14.7706 36.0701 14.6794 36.1195 14.5665 36.1492L14.4648 35.7623C14.5204 35.7477 14.5415 35.7307 14.5533 35.7183C14.5693 35.7015 14.586 35.6744 14.6123 35.6122L14.9807 35.768ZM14.7013 35.1942C14.7952 35.2312 14.8855 35.3023 14.9443 35.3949C15.0053 35.4911 15.0404 35.6269 14.9807 35.768L14.6123 35.6122C14.6123 35.6122 14.6121 35.6125 14.612 35.6131C14.6118 35.6137 14.6117 35.6145 14.6116 35.6153C14.6113 35.6171 14.6114 35.6186 14.6115 35.6192C14.6117 35.6204 14.6114 35.6168 14.6065 35.6091C14.6016 35.6014 14.5938 35.5923 14.5832 35.5837C14.5726 35.575 14.5622 35.5693 14.5546 35.5663L14.7013 35.1942ZM12.2439 31.4702C12.3294 32.6389 12.3862 33.3142 12.6874 33.8296C12.9814 34.3324 13.5288 34.7101 14.7043 35.1954L14.5517 35.5651C13.3682 35.0765 12.7081 34.6574 12.3421 34.0315C11.9835 33.418 11.9279 32.6325 11.8449 31.4994L12.2439 31.4702ZM12.2239 31.2135C12.2307 31.3013 12.2372 31.3864 12.2438 31.469L11.845 31.5006C11.8384 31.4175 11.8318 31.332 11.8251 31.2442L12.2239 31.2135ZM12.2236 31.2101L12.2239 31.2132L11.8251 31.2446L11.8249 31.2415L12.2236 31.2101ZM12.2236 31.2091L12.2236 31.21L11.8249 31.2417L11.8248 31.2408L12.2236 31.2091ZM12.2232 31.2043L12.2236 31.2097L11.8248 31.2402L11.8244 31.2348L12.2232 31.2043ZM12.2227 31.1975L12.2232 31.2042L11.8244 31.2349L11.8239 31.2282L12.2227 31.1975ZM12.2226 31.1959L12.2227 31.198L11.8238 31.2277L11.8237 31.2255L12.2226 31.1959ZM11.9613 28.7544C12.1099 29.7307 12.1718 30.5361 12.2225 31.1954L11.8237 31.226C11.773 30.5672 11.7121 29.7749 11.5658 28.8146L11.9613 28.7544ZM17.5235 23.4487C17.3961 23.4688 15.8355 23.7733 14.3901 24.5979C12.9435 25.4231 11.6701 26.7307 11.9615 28.756L11.5656 28.813C11.2392 26.5444 12.6898 25.1074 14.1919 24.2505C15.6951 23.3929 17.3078 23.0777 17.4612 23.0535L17.5235 23.4487ZM17.9732 22.9855C17.9732 23.2626 17.7342 23.3944 17.5432 23.4445L17.4416 23.0577C17.5075 23.0403 17.5447 23.0185 17.5621 23.0029C17.5699 22.9959 17.572 22.9917 17.5724 22.9909C17.5725 22.9906 17.5732 22.9896 17.5732 22.9855H17.9732ZM17.678 22.4896C17.7719 22.5266 17.8623 22.5976 17.921 22.6902C17.9821 22.7864 18.0171 22.9222 17.9574 23.0634L17.589 22.9076C17.589 22.9076 17.5889 22.9079 17.5887 22.9085C17.5885 22.9091 17.5884 22.9099 17.5883 22.9107C17.5881 22.9125 17.5881 22.9139 17.5882 22.9146C17.5884 22.9158 17.5881 22.9122 17.5833 22.9045C17.5784 22.8968 17.5705 22.8877 17.5599 22.8791C17.5493 22.8704 17.539 22.8647 17.5314 22.8617L17.678 22.4896ZM6.33344 23.606C7.04452 23.2249 8.67759 22.4302 10.7315 21.9877C12.7852 21.5452 15.2741 21.4519 17.684 22.492L17.5254 22.8593C15.2175 21.8631 12.8201 21.9469 10.8158 22.3787C8.81185 22.8104 7.21544 23.5872 6.5224 23.9586L6.33344 23.606ZM10.0067 19.2651C9.73241 19.4165 8.62592 20.0709 7.717 20.9338C7.26197 21.3658 6.86821 21.8392 6.64822 22.3173C6.43039 22.7907 6.38864 23.2534 6.60706 23.6934L6.24878 23.8713C5.96172 23.293 6.0323 22.6989 6.28484 22.1501C6.53524 21.6059 6.9699 21.0915 7.44159 20.6437C8.38611 19.747 9.52621 19.0734 9.81352 18.9149L10.0067 19.2651ZM17.7582 17.8249C15.2279 18.3567 12.6415 18.8442 9.94254 19.2874L9.87773 18.8927C12.5706 18.4505 15.1513 17.9641 17.6759 17.4335L17.7582 17.8249ZM17.3369 20.8846C17.2718 20.4895 17.0138 18.9415 17.5297 17.5593L17.9044 17.6991C17.4299 18.9708 17.6659 20.4208 17.7316 20.8195L17.3369 20.8846ZM17.3485 20.9492C17.3485 20.9557 17.3489 20.9601 17.349 20.9608C17.3491 20.962 17.3491 20.9622 17.349 20.961C17.3487 20.9585 17.3481 20.954 17.3469 20.9467C17.3447 20.9319 17.3414 20.9117 17.3369 20.8846L17.7316 20.8195C17.7359 20.8456 17.7397 20.8688 17.7424 20.8867C17.7441 20.8978 17.7485 20.9256 17.7485 20.9492H17.3485ZM17.4801 21.1669C17.4479 21.1289 17.4336 21.1133 17.4247 21.1063L17.6723 20.7921C17.7196 20.8294 17.7615 20.8802 17.7855 20.9086L17.4801 21.1669ZM17.5932 21.2834C17.546 21.2461 17.5041 21.1953 17.4801 21.1669L17.7855 20.9086C17.8177 20.9466 17.8319 20.9622 17.8408 20.9692L17.5932 21.2834ZM17.9417 21.3706C17.9146 21.3706 17.8601 21.3708 17.8033 21.3633C17.7531 21.3567 17.6655 21.3403 17.5932 21.2834L17.8408 20.9692C17.8304 20.961 17.8243 20.9599 17.8293 20.9615C17.8337 20.9629 17.8421 20.965 17.8554 20.9667C17.8828 20.9703 17.9127 20.9706 17.9417 20.9706V21.3706ZM17.9979 21.3706H17.9417V20.9706H17.9979V21.3706ZM22.2791 16.6958C22.0798 17.1221 21.5399 18.1975 20.7989 19.2083C20.4284 19.7137 20.0036 20.2085 19.5415 20.5985C19.0808 20.9874 18.5703 21.2828 18.029 21.3681L17.9667 20.973C18.4083 20.9034 18.8526 20.6565 19.2835 20.2928C19.713 19.9303 20.1167 19.4624 20.4763 18.9718C21.1956 17.9905 21.7228 16.9411 21.9167 16.5264L22.2791 16.6958ZM32.2154 13.8789C29.0665 14.9426 25.7463 15.9628 22.1434 16.8058L22.0523 16.4163C25.6386 15.5772 28.9458 14.5611 32.0874 13.5L32.2154 13.8789ZM32.5173 16.2098C32.4053 15.68 32.1811 14.6638 31.957 13.7364L32.3458 13.6425C32.571 14.5743 32.7961 15.5944 32.9087 16.127L32.5173 16.2098ZM32.943 16.5832C32.8301 16.5535 32.7441 16.5056 32.6759 16.4429C32.6116 16.3837 32.5707 16.3174 32.5441 16.2755L32.8819 16.0613C32.9115 16.1079 32.9267 16.1301 32.9467 16.1484C32.9628 16.1632 32.9891 16.1817 33.0447 16.1963L32.943 16.5832ZM33.1062 16.5897H32.9938V16.1897H33.1062V16.5897ZM33.5559 16.3641C33.451 16.5294 33.261 16.5897 33.1062 16.5897V16.1897C33.176 16.1897 33.2107 16.1615 33.2181 16.1498L33.5559 16.3641ZM35.4932 12.5312C35.2631 13.7552 34.6873 15.211 33.5301 16.3966L33.2439 16.1172C34.3333 15.001 34.8808 13.6237 35.1 12.4573L35.4932 12.5312ZM48.0179 5.91162C47.5447 6.31166 43.9618 9.33671 35.3691 12.6806L35.2241 12.3078C43.7724 8.9812 47.3175 5.97995 47.7596 5.60616L48.0179 5.91162ZM48 5.92512L48 5.92512L47.7776 5.59265L47.7776 5.59265L48 5.92512ZM48.0166 5.91268L48.0166 5.91269L47.7609 5.60508L47.7609 5.60507L48.0166 5.91268ZM48.02 5.90979L48.02 5.9098L47.7575 5.60795L47.7576 5.60795L48.02 5.90979ZM48.0183 5.91123L48.0182 5.91133L47.7593 5.60641L47.7595 5.60632L48.0183 5.91123ZM48.0181 5.91141L48.018 5.91149L47.7598 5.60606L47.7599 5.60598L48.0181 5.91141ZM48.0575 5.87846C48.0532 5.88184 48.042 5.89122 48.0181 5.91143L47.7599 5.60596C47.7801 5.58884 47.7986 5.57317 47.8099 5.5643L48.0575 5.87846ZM47.9898 5.67711C48.1898 5.67711 48.1898 5.67724 48.1898 5.67736C48.1898 5.6774 48.1898 5.67753 48.1898 5.67761C48.1898 5.67778 48.1898 5.67795 48.1898 5.67812C48.1898 5.67846 48.1898 5.67881 48.1898 5.67916C48.1898 5.67986 48.1898 5.68058 48.1898 5.68133C48.1898 5.68282 48.1897 5.6844 48.1896 5.68606C48.1895 5.68937 48.1893 5.69306 48.1889 5.69706C48.1882 5.70501 48.1869 5.71462 48.1846 5.72541C48.1802 5.74636 48.1711 5.77574 48.1517 5.80638C48.105 5.88006 48.0244 5.92138 47.9337 5.92138V5.52138C47.9211 5.52138 47.8987 5.52399 47.8731 5.53741C47.847 5.55115 47.8272 5.57119 47.8139 5.59211C47.8015 5.61168 47.796 5.62999 47.7933 5.64265C47.7919 5.64929 47.791 5.65544 47.7905 5.66096C47.7903 5.66376 47.7901 5.66649 47.79 5.66916C47.7899 5.67049 47.7899 5.67182 47.7899 5.67315C47.7899 5.67381 47.7898 5.67447 47.7898 5.67513C47.7898 5.67546 47.7898 5.67579 47.7898 5.67612C47.7898 5.67629 47.7898 5.67645 47.7898 5.67662C47.7898 5.6767 47.7898 5.67682 47.7898 5.67686C47.7898 5.67699 47.7898 5.67711 47.9898 5.67711ZM48.1898 5.58858V5.67711H47.7898V5.58858H48.1898ZM45.166 2.78099C45.7166 2.89519 46.5031 3.15788 47.1363 3.60469C47.7705 4.0522 48.2837 4.71139 48.1887 5.60961L47.7909 5.56755C47.8645 4.87216 47.4791 4.33613 46.9057 3.93151C46.3313 3.52617 45.6014 3.2798 45.0848 3.17266L45.166 2.78099ZM45.0559 2.76455C45.0871 2.76929 45.1105 2.77285 45.1266 2.77523C45.1348 2.77643 45.1402 2.77721 45.1435 2.77765C45.1453 2.77789 45.1455 2.77791 45.1448 2.77783C45.1445 2.77779 45.1431 2.77763 45.141 2.77746C45.1402 2.77739 45.1338 2.77682 45.1254 2.77682V3.17682C45.1166 3.17682 45.1095 3.17622 45.1077 3.17607C45.1047 3.17582 45.1021 3.17554 45.1003 3.17534C45.0968 3.17495 45.0933 3.17449 45.0903 3.1741C45.0843 3.17329 45.0767 3.1722 45.0682 3.17094C45.051 3.1684 45.0266 3.16468 44.9958 3.16L45.0559 2.76455ZM31.0751 2.06876C38.3069 1.73834 44.2212 2.63762 45.0559 2.76455L44.9958 3.16C44.1705 3.03451 38.2863 2.13969 31.0934 2.46834L31.0751 2.06876ZM24.7619 2.69085C26.9619 2.33516 29.1042 2.15753 31.0752 2.06876L31.0932 2.46835C29.1328 2.55665 27.0065 2.73315 24.8257 3.08573L24.7619 2.69085ZM12.7609 0.8994C12.9142 0.986376 13.1701 1.08077 13.5205 1.17836C13.8671 1.2749 14.293 1.3711 14.7777 1.46566C15.7469 1.65473 16.941 1.83532 18.1853 1.99831C20.6736 2.32425 23.3518 2.57843 24.8089 2.68886L24.7787 3.08772C23.3152 2.97681 20.6297 2.72192 18.1334 2.39492C16.8854 2.23145 15.682 2.04961 14.7011 1.85826C14.2108 1.7626 13.7737 1.6641 13.4132 1.56369C13.0564 1.46433 12.7613 1.35951 12.5635 1.24729L12.7609 0.8994ZM12.1957 0.843005C12.3538 0.780691 12.6025 0.771627 12.786 0.916268L12.5384 1.23042C12.5203 1.21618 12.4907 1.20401 12.4499 1.20079C12.4089 1.19756 12.3692 1.20458 12.3424 1.21515L12.1957 0.843005ZM11.8444 1.29468C11.8444 1.20061 11.8645 1.09563 11.9368 1.00441C12.0081 0.914558 12.1093 0.864257 12.2182 0.835641L12.3199 1.22251C12.2905 1.23022 12.2726 1.23819 12.2623 1.24409C12.2573 1.24696 12.2543 1.24924 12.2526 1.25064C12.251 1.252 12.2504 1.25278 12.2502 1.25294C12.2501 1.25309 12.25 1.25326 12.2498 1.25371C12.2495 1.25421 12.2489 1.25559 12.2481 1.25828C12.2465 1.26394 12.2444 1.27516 12.2444 1.29468H11.8444ZM11.8445 1.30148L11.8444 1.29714L12.2444 1.29222L12.2444 1.29655L11.8445 1.30148ZM8.77076 7.1285C10.3214 6.52779 11.0944 5.13643 11.4786 3.83777C11.8622 2.54169 11.8456 1.378 11.8445 1.30185L12.2444 1.29618C12.2457 1.38644 12.2628 2.59756 11.8622 3.95127C11.4624 5.30242 10.6335 6.83584 8.91525 7.50148L8.77076 7.1285ZM8.49031 7.70277C8.4306 7.5616 8.46565 7.4258 8.52669 7.32959C8.58543 7.23698 8.67579 7.16592 8.76967 7.12892L8.91633 7.50106C8.90874 7.50405 8.89838 7.50977 8.88777 7.51841C8.87723 7.52701 8.86936 7.53613 8.86446 7.54386C8.85958 7.55155 8.85931 7.55511 8.85947 7.55396C8.85957 7.55328 8.85966 7.55187 8.85942 7.55006C8.85932 7.5492 8.85916 7.54845 8.859 7.54785C8.85884 7.54724 8.85871 7.54693 8.85871 7.54695L8.49031 7.70277ZM9.0115 8.04619C8.89552 8.04619 8.77406 8.01639 8.67529 7.95584C8.57777 7.89605 8.47451 7.78582 8.47451 7.62486H8.87451C8.87451 7.5967 8.8555 7.59713 8.88435 7.61481C8.91195 7.63174 8.95899 7.64619 9.0115 7.64619V8.04619ZM10.3033 8.04619H9.0115V7.64619H10.3033V8.04619ZM12.9743 1.79137C12.9456 2.37913 12.8312 3.40685 12.4506 4.48224C12.0701 5.55732 11.4184 6.69413 10.3062 7.47844L10.0757 7.15155C11.0978 6.43079 11.7098 5.37638 12.0735 4.34878C12.4371 3.32149 12.5473 2.33506 12.5748 1.77188L12.9743 1.79137ZM22.4722 3.44155C21.067 3.30864 19.1262 3.10915 17.2899 2.85961C15.4595 2.61088 13.7141 2.31011 12.7105 1.97111L12.8385 1.59214C13.8007 1.91714 15.5094 2.21398 17.3438 2.46325C19.1722 2.71172 21.1068 2.91062 22.5099 3.04332L22.4722 3.44155ZM19.9128 3.62447C20.7609 3.40166 21.6082 3.22362 22.4499 3.04671L22.5322 3.43816C21.6889 3.61539 20.8513 3.79148 20.0144 4.01134L19.9128 3.62447ZM14.2787 2.71514C14.6732 2.94314 15.2216 3.11766 15.8352 3.24882C16.4459 3.37935 17.1077 3.46419 17.7208 3.5191C18.3334 3.57397 18.8943 3.59869 19.3021 3.60968C19.5058 3.61517 19.6712 3.61722 19.7854 3.61791C19.8424 3.61825 19.8867 3.61825 19.9166 3.61817C19.9315 3.61812 19.9429 3.61806 19.9504 3.61801C19.9542 3.61798 19.957 3.61796 19.9589 3.61794C19.9598 3.61793 19.9605 3.61793 19.9609 3.61792C19.9611 3.61792 19.9613 3.61792 19.9614 3.61792C19.9614 3.61792 19.9614 3.61792 19.9615 3.61792C19.9615 3.61792 19.9615 3.61792 19.9636 3.81791C19.9658 4.01789 19.9657 4.01789 19.9657 4.01789C19.9656 4.0179 19.9656 4.0179 19.9655 4.0179C19.9653 4.0179 19.9651 4.0179 19.9648 4.0179C19.9643 4.01791 19.9635 4.01792 19.9624 4.01793C19.9603 4.01794 19.9572 4.01797 19.9532 4.018C19.9451 4.01805 19.9332 4.01812 19.9177 4.01816C19.8867 4.01825 19.8413 4.01825 19.783 4.0179C19.6663 4.0172 19.4982 4.01511 19.2913 4.00953C18.8777 3.99839 18.3082 3.97331 17.6851 3.91751C17.0626 3.86175 16.3835 3.77505 15.7516 3.63999C15.1226 3.50554 14.5266 3.32039 14.0786 3.06146L14.2787 2.71514ZM13.5205 2.84767C13.6961 2.64003 14.024 2.58111 14.2717 2.71125L14.0856 3.06535C13.9963 3.01842 13.8749 3.04804 13.8259 3.10599L13.5205 2.84767ZM13.6925 3.55228C13.5689 3.48733 13.4709 3.38144 13.4321 3.24883C13.3918 3.1114 13.4216 2.96452 13.5205 2.84767L13.8259 3.106C13.8176 3.11575 13.8157 3.12221 13.8152 3.12478C13.8146 3.12746 13.8144 3.13101 13.816 3.13644C13.8193 3.14769 13.8336 3.17461 13.8785 3.19819L13.6925 3.55228ZM18.1538 4.54871C16.7486 4.46011 14.8548 4.19363 13.6889 3.55035L13.8821 3.20012C14.9627 3.79632 16.7759 4.06104 18.1789 4.14951L18.1538 4.54871ZM15.341 5.13691C16.2448 4.7807 17.1477 4.46942 18.1046 4.15888L18.2281 4.53934C17.2754 4.84853 16.381 5.15699 15.4876 5.50906L15.341 5.13691ZM13.4912 4.26697C13.7083 4.53321 14.1004 4.73944 14.5063 4.88585C14.9059 5.02998 15.2849 5.10427 15.4403 5.12469L15.3882 5.52128C15.2066 5.49743 14.7994 5.41678 14.3706 5.26212C13.948 5.10972 13.4695 4.87328 13.1812 4.51979L13.4912 4.26697ZM12.7377 4.12779C12.9853 3.99766 13.3133 4.05657 13.4889 4.26422L13.1835 4.52254C13.1345 4.46458 13.013 4.43496 12.9237 4.48189L12.7377 4.12779ZM12.5657 4.83241C12.4668 4.71556 12.437 4.56867 12.4773 4.43124C12.5161 4.29863 12.6141 4.19275 12.7377 4.12779L12.9237 4.48189C12.8788 4.50547 12.8645 4.53239 12.8612 4.54364C12.8596 4.54908 12.8598 4.55262 12.8604 4.5553C12.8609 4.55787 12.8628 4.56433 12.8711 4.57409L12.5657 4.83241ZM14.3993 5.91213C13.8305 5.7328 13.0535 5.40913 12.5657 4.83241L12.8711 4.57408C13.2819 5.05977 13.9651 5.35584 14.5196 5.53064L14.3993 5.91213ZM12.633 6.33734C13.1942 6.07191 13.759 5.80485 14.3805 5.53765L14.5385 5.90513C13.9245 6.16909 13.3659 6.43319 12.804 6.69894L12.633 6.33734ZM12.6326 6.33754L12.6327 6.33748L12.8043 6.69879L12.8042 6.69885L12.6326 6.33754ZM12.1936 6.03128C12.5369 6.21165 12.6923 6.29296 12.7917 6.33212L12.645 6.70426C12.5198 6.65489 12.3382 6.55914 12.0075 6.38537L12.1936 6.03128ZM11.4424 6.1677C11.618 5.96005 11.9459 5.90114 12.1936 6.03128L12.0075 6.38537C11.9182 6.33844 11.7968 6.36806 11.7478 6.42602L11.4424 6.1677ZM11.6144 6.87231C11.4908 6.80735 11.3928 6.70147 11.354 6.56886C11.3138 6.43143 11.3435 6.28454 11.4424 6.16769L11.7478 6.42602C11.7395 6.43577 11.7376 6.44224 11.7371 6.44481C11.7365 6.44748 11.7363 6.45103 11.7379 6.45646C11.7412 6.46772 11.7556 6.49463 11.8004 6.51821L11.6144 6.87231ZM11.9711 7.0584C11.86 7.01464 11.7218 6.96127 11.5836 6.85234L11.8312 6.53818C11.9177 6.60632 12.0041 6.64148 12.1177 6.68625L11.9711 7.0584ZM11.5467 6.92315C11.6719 6.84644 11.8072 6.76327 11.9589 6.69152L12.1299 7.05313C12.0008 7.11419 11.8834 7.18596 11.7558 7.26418L11.5467 6.92315ZM11.1726 7.1342C11.3017 7.07314 11.4191 7.00137 11.5467 6.92315L11.7558 7.26418C11.6306 7.34089 11.4953 7.42405 11.3436 7.4958L11.1726 7.1342ZM10.191 7.115H11.2581V7.515H10.191V7.115ZM31.8029 11.319C32.0297 11.1403 32.4929 10.7859 33.0258 10.5271C33.5482 10.2733 34.194 10.0832 34.7558 10.3176L34.6018 10.6868C34.2087 10.5228 33.7032 10.6426 33.2006 10.8868C32.7084 11.126 32.2731 11.4577 32.0505 11.6332L31.8029 11.319ZM32.188 12.4296C32.0788 12.1283 31.9185 11.7955 31.7676 11.5972L32.0858 11.3549C32.2719 11.5993 32.4486 11.9748 32.5641 12.2933L32.188 12.4296ZM32.8815 11.3876C33.0722 11.448 33.0721 11.4481 33.0721 11.4481C33.0721 11.4481 33.0721 11.4481 33.0721 11.4482C33.0721 11.4482 33.0721 11.4483 33.072 11.4484C33.072 11.4485 33.0719 11.4487 33.0719 11.4489C33.0717 11.4493 33.0716 11.4499 33.0713 11.4506C33.0709 11.4519 33.0703 11.4538 33.0695 11.4562C33.068 11.4609 33.0657 11.4675 33.0628 11.476C33.0571 11.4929 33.0486 11.517 33.0374 11.5471C33.0151 11.6072 32.9819 11.6916 32.9377 11.7902C32.8499 11.9863 32.7162 12.2447 32.5352 12.4826L32.2169 12.2403C32.3728 12.0355 32.4919 11.8069 32.5726 11.6267C32.6127 11.5373 32.6426 11.4612 32.6624 11.4078C32.6723 11.3812 32.6796 11.3604 32.6844 11.3465C32.6868 11.3396 32.6885 11.3344 32.6896 11.3311C32.6901 11.3294 32.6905 11.3283 32.6907 11.3276C32.6908 11.3273 32.6909 11.3271 32.6909 11.327C32.6909 11.3269 32.6909 11.3269 32.6909 11.3269C32.6909 11.3269 32.6909 11.327 32.6909 11.327C32.6909 11.327 32.6909 11.327 32.6909 11.327C32.6909 11.3271 32.6909 11.3271 32.8815 11.3876ZM33.28 11.3597C33.2455 11.3506 33.1947 11.3539 33.1476 11.3756C33.1012 11.3969 33.0792 11.4257 33.0722 11.448L32.6909 11.3271C32.74 11.1723 32.8584 11.0683 32.9805 11.0122C33.1019 10.9564 33.2476 10.9376 33.3817 10.9728L33.28 11.3597ZM33.4428 11.4947C33.4132 11.448 33.3979 11.4258 33.378 11.4075C33.3619 11.3927 33.3355 11.3742 33.28 11.3597L33.3817 10.9728C33.4946 11.0025 33.5806 11.0504 33.6487 11.1131C33.7131 11.1722 33.754 11.2386 33.7805 11.2804L33.4428 11.4947ZM33.8117 11.3433V11.3876H33.4117V11.3433H33.8117ZM34.0048 11.2777C33.9146 11.2777 33.8578 11.2961 33.8307 11.3133C33.8186 11.3208 33.8151 11.3263 33.8144 11.3276C33.814 11.3283 33.8117 11.332 33.8117 11.3433H33.4117C33.4117 11.1793 33.495 11.0521 33.6173 10.9749C33.7305 10.9035 33.8704 10.8777 34.0048 10.8777V11.2777ZM34.1512 11.3271C34.1539 11.3186 34.1519 11.3186 34.1532 11.3229C34.1541 11.3261 34.1546 11.3235 34.1468 11.3167C34.1289 11.301 34.0818 11.2777 34.0048 11.2777V10.8777C34.1525 10.8777 34.302 10.9208 34.4104 11.0158C34.5274 11.1183 34.5868 11.2765 34.5324 11.448L34.1512 11.3271ZM32.9196 14.6002C33.4899 14.1098 33.7998 13.3403 33.9649 12.6575C34.1287 11.9794 34.1418 11.4203 34.1418 11.3876H34.5418C34.5418 11.4433 34.5268 12.0352 34.3537 12.7515C34.1817 13.4631 33.8457 14.3314 33.1804 14.9035L32.9196 14.6002ZM32.885 14.9123C32.8758 14.877 32.866 14.8397 32.8562 14.801L33.2439 14.7026C33.2532 14.7394 33.2626 14.7751 33.2719 14.8106L32.885 14.9123ZM32.885 14.9123L32.8849 14.9118L33.272 14.811L33.2721 14.8115L32.885 14.9123ZM32.8852 14.913L32.8852 14.9128L33.272 14.811L33.272 14.8112L32.8852 14.913ZM32.9623 15.3273C32.9623 15.2113 32.9319 15.0908 32.8852 14.9129L33.2721 14.8113C33.3156 14.9771 33.3623 15.1499 33.3623 15.3273H32.9623ZM34.8788 10.5022C34.8788 11.1264 34.8251 13.5797 33.3182 15.4527L33.0065 15.2019C34.4201 13.445 34.4788 11.1175 34.4788 10.5022H34.8788ZM32.7152 13.8882C33.1975 13.166 33.333 12.1516 33.397 11.6615L33.7936 11.7133C33.7315 12.1892 33.5901 13.2984 33.0478 14.1104L32.7152 13.8882ZM32.9399 13.4859C32.9874 13.6284 33.0421 13.7921 33.0772 13.9579L32.6858 14.0407C32.6563 13.9008 32.6091 13.7587 32.5604 13.6123L32.9399 13.4859ZM32.9374 13.4789L32.9374 13.4789L32.5629 13.6193L32.5629 13.6193L32.9374 13.4789ZM32.9393 13.4841L32.9393 13.4842L32.5609 13.614L32.5609 13.6139L32.9393 13.4841ZM32.9403 13.4873L32.9404 13.4874L32.5598 13.6106L32.5598 13.6105L32.9403 13.4873ZM32.8507 13.1976C32.8724 13.283 32.9038 13.3775 32.9398 13.4857L32.5603 13.6121C32.5254 13.5075 32.489 13.3983 32.463 13.2959L32.8507 13.1976ZM33.8117 11.5646C33.8117 11.5888 33.8071 11.609 33.8063 11.613C33.8045 11.6216 33.8023 11.6297 33.8004 11.6366C33.7965 11.6507 33.7914 11.6669 33.7856 11.6842C33.7738 11.7193 33.7569 11.7654 33.7354 11.82C33.6922 11.9294 33.6285 12.077 33.5452 12.2454C33.3793 12.5808 33.1317 13.0066 32.8076 13.3782L32.5061 13.1153C32.7998 12.7787 33.0296 12.3856 33.1867 12.068C33.2649 11.9099 33.3241 11.7725 33.3633 11.6731C33.383 11.6232 33.3973 11.5839 33.4064 11.5569C33.411 11.5432 33.4137 11.5342 33.415 11.5294C33.4157 11.5269 33.4156 11.5272 33.4151 11.5296C33.4148 11.5308 33.4142 11.5339 33.4135 11.5383C33.413 11.5416 33.4117 11.5515 33.4117 11.5646H33.8117ZM33.3971 11.6604C33.4031 11.6146 33.4085 11.5727 33.4136 11.5367L33.8097 11.5925C33.805 11.6261 33.7998 11.6658 33.7937 11.7122L33.3971 11.6604ZM33.3969 11.6616L33.3971 11.6607L33.7938 11.712L33.7936 11.7129L33.3969 11.6616ZM33.3968 11.6626L33.3968 11.6624L33.7937 11.712L33.7937 11.7122L33.3968 11.6626ZM19.8635 16.9472L21.043 16.6816L21.1309 17.0718L19.9514 17.3374L19.8635 16.9472ZM20.0198 17.3423H19.9075V16.9423H20.0198V17.3423ZM20.0602 17.4185C20.0558 17.4289 20.0652 17.4211 20.0475 17.3933C20.0308 17.367 20.0016 17.3443 19.969 17.3357L20.0706 16.9488C20.2065 16.9845 20.3177 17.0725 20.3853 17.179C20.4518 17.2839 20.4892 17.4311 20.4287 17.5743L20.0602 17.4185ZM20.0035 17.5054C20.0215 17.4743 20.0377 17.4463 20.0505 17.4254C20.0568 17.415 20.064 17.4036 20.0713 17.3931C20.0735 17.3899 20.0919 17.362 20.1207 17.3393L20.3682 17.6535C20.3772 17.6465 20.3836 17.6401 20.3871 17.6364C20.3909 17.6325 20.3936 17.6292 20.3952 17.6273C20.3969 17.6252 20.3981 17.6237 20.3987 17.6228C20.3993 17.622 20.3997 17.6215 20.3997 17.6215C20.3997 17.6215 20.3995 17.6217 20.3991 17.6223C20.3987 17.6229 20.3982 17.6237 20.3975 17.6248C20.3961 17.627 20.3942 17.63 20.3919 17.6338C20.3821 17.6498 20.3687 17.6731 20.3497 17.7059L20.0035 17.5054ZM20.007 17.4997L20.007 17.4996L20.3462 17.7116L20.3462 17.7117L20.007 17.4997ZM17.9542 19.6692C19.1452 18.9833 19.7961 17.8634 20.0035 17.5054L20.3496 17.7059C20.1392 18.0691 19.444 19.2728 18.1538 20.0159L17.9542 19.6692ZM17.888 20.2664C17.8728 20.148 17.854 20.0032 17.854 19.8426H18.254C18.254 19.9743 18.2693 20.0952 18.2847 20.2155L17.888 20.2664ZM17.9102 20.5066C17.9102 20.4423 17.9009 20.3674 17.888 20.2664L18.2847 20.2155C18.2968 20.3095 18.3102 20.4116 18.3102 20.5066H17.9102ZM21.2646 16.9685C20.9529 17.5715 20.4979 18.3676 19.9695 19.0767C19.4468 19.7782 18.8297 20.4259 18.1865 20.6914L18.0339 20.3217C18.5701 20.1003 19.1325 19.5306 19.6488 18.8377C20.1595 18.1524 20.6031 17.3771 20.9093 16.7848L21.2646 16.9685ZM19.1211 17.8063C19.2681 17.9419 19.2681 17.9419 19.2681 17.9419C19.2681 17.9419 19.2681 17.9419 19.2681 17.942C19.268 17.942 19.268 17.942 19.268 17.9421C19.2679 17.9422 19.2678 17.9423 19.2676 17.9424C19.2673 17.9427 19.267 17.9432 19.2665 17.9437C19.2655 17.9448 19.264 17.9463 19.2622 17.9483C19.2585 17.9522 19.2532 17.9579 19.2462 17.9653C19.2323 17.9801 19.2119 18.0014 19.1859 18.0284C19.1337 18.0822 19.0585 18.1584 18.9655 18.2486C18.78 18.4286 18.5219 18.666 18.234 18.8929L17.9864 18.5788C18.2601 18.363 18.5075 18.1356 18.687 17.9615C18.7766 17.8746 18.8488 17.8014 18.8985 17.7501C18.9233 17.7245 18.9425 17.7044 18.9553 17.6908C18.9617 17.684 18.9666 17.6788 18.9697 17.6754C18.9713 17.6737 18.9725 17.6724 18.9732 17.6716C18.9736 17.6712 18.9739 17.671 18.974 17.6708C18.9741 17.6707 18.9741 17.6706 18.9742 17.6706C18.9742 17.6706 18.9742 17.6706 18.9742 17.6706L18.9742 17.6706C18.9742 17.6706 18.9742 17.6706 19.1211 17.8063ZM19.0596 17.2587C19.2045 17.2967 19.3174 17.3983 19.3609 17.5355C19.4045 17.6728 19.3707 17.821 19.2738 17.9354L18.9684 17.6771C18.9769 17.6671 18.9789 17.6604 18.9793 17.6582C18.9798 17.656 18.9794 17.6557 18.9797 17.6565C18.9799 17.6572 18.98 17.6566 18.9782 17.655C18.9764 17.6534 18.9708 17.6489 18.958 17.6456L19.0596 17.2587ZM18.9527 17.4079C18.9527 17.2079 18.9527 17.2079 18.9528 17.2079C18.9528 17.2079 18.9529 17.2079 18.953 17.2079C18.9531 17.2079 18.9532 17.2079 18.9533 17.2079C18.9535 17.2079 18.9537 17.2079 18.9539 17.2079C18.9544 17.2079 18.9549 17.2079 18.9554 17.2079C18.9563 17.2079 18.9574 17.2079 18.9585 17.2079C18.9608 17.208 18.9634 17.2081 18.9663 17.2083C18.972 17.2086 18.9792 17.2092 18.9875 17.2103C19.0029 17.2123 19.0271 17.2167 19.0541 17.2273C19.0805 17.2377 19.1195 17.258 19.1527 17.2974C19.1891 17.3404 19.2088 17.3947 19.2088 17.4521H18.8088C18.8088 17.4874 18.8215 17.5251 18.8473 17.5557C18.8701 17.5826 18.895 17.5946 18.9074 17.5995C18.9204 17.6046 18.9305 17.6062 18.9354 17.6068C18.9384 17.6072 18.9412 17.6075 18.9438 17.6076C18.9452 17.6077 18.9466 17.6078 18.948 17.6078C18.9488 17.6078 18.9495 17.6078 18.9503 17.6078C18.9507 17.6078 18.951 17.6079 18.9514 17.6079C18.9516 17.6079 18.9518 17.6079 18.952 17.6079C18.9521 17.6079 18.9522 17.6079 18.9523 17.6079C18.9524 17.6079 18.9525 17.6079 18.9525 17.6079C18.9526 17.6079 18.9527 17.6079 18.9527 17.4079ZM19.3685 17.5128C19.2438 17.5455 19.111 17.5805 18.9913 17.6041L18.914 17.2116C19.019 17.1909 19.1389 17.1595 19.2669 17.1259L19.3685 17.5128ZM19.7215 17.427C19.6165 17.4477 19.4965 17.4791 19.3685 17.5128L19.2669 17.1259C19.3917 17.0931 19.5245 17.0581 19.6441 17.0346L19.7215 17.427ZM19.3705 17.3636C19.3705 17.2596 19.4332 17.1882 19.4607 17.1593C19.4936 17.1247 19.5341 17.0933 19.559 17.0737L19.8066 17.3879C19.7921 17.3993 19.7806 17.4084 19.7703 17.4171C19.7599 17.4258 19.7538 17.4315 19.7505 17.4351C19.7466 17.4391 19.75 17.4364 19.755 17.4275C19.7602 17.418 19.7705 17.3956 19.7705 17.3636H19.3705ZM19.2695 17.436C19.3058 17.3806 19.3382 17.331 19.3633 17.2958C19.3755 17.2787 19.3902 17.2589 19.4057 17.2418C19.413 17.2336 19.4259 17.2202 19.443 17.2072C19.4524 17.2001 19.4997 17.1636 19.5705 17.1636V17.5636C19.6076 17.5636 19.6358 17.5531 19.6511 17.546C19.667 17.5387 19.6783 17.5308 19.6843 17.5262C19.6959 17.5175 19.7022 17.5102 19.7022 17.5102C19.7029 17.5094 19.6992 17.5137 19.689 17.5279C19.6696 17.5552 19.6425 17.5966 19.6042 17.6551L19.2695 17.436ZM17.9302 18.9772C18.6103 18.4412 19.0561 17.762 19.2695 17.436L19.6042 17.6551C19.3898 17.9825 18.9137 18.7113 18.1778 19.2913L17.9302 18.9772ZM18.2778 18.9764C18.2629 19.0467 18.254 19.0924 18.254 19.1343H17.854C17.854 19.0433 17.8732 18.9562 17.8864 18.8937L18.2778 18.9764ZM18.3102 18.7359C18.3102 18.8268 18.291 18.9139 18.2778 18.9764L17.8864 18.8937C17.9013 18.8234 17.9102 18.7777 17.9102 18.7359H18.3102ZM11.4638 31.5452C11.5466 32.5478 11.6057 33.2367 11.8382 33.7933C12.0632 34.3318 12.459 34.7609 13.2643 35.2051L13.0711 35.5554C12.2127 35.0818 11.7389 34.5931 11.4691 33.9475C11.2069 33.3199 11.1461 32.5585 11.0651 31.5781L11.4638 31.5452ZM11.4574 31.4683L11.4638 31.5451L11.0651 31.5781L11.0588 31.5012L11.4574 31.4683ZM11.437 31.206C11.444 31.2964 11.4507 31.384 11.4575 31.4689L11.0587 31.5006C11.0519 31.4151 11.0452 31.327 11.0382 31.2367L11.437 31.206ZM11.4368 31.2036L11.437 31.2058L11.0382 31.2369L11.0381 31.2347L11.4368 31.2036ZM11.4374 31.2191V31.2192H11.0374V31.2191H11.4374ZM11.1748 28.7974C11.3242 29.7397 11.386 30.5436 11.4369 31.2038L11.038 31.2345C10.9872 30.5744 10.9264 29.7848 10.7797 28.8601L11.1748 28.7974ZM16.4227 23.0896C15.48 23.3519 14.0212 23.896 12.8721 24.8233C11.7286 25.746 10.9081 27.0314 11.175 28.7989L10.7795 28.8586C10.4848 26.9076 11.4054 25.4928 12.6209 24.512C13.8306 23.5358 15.3486 22.9732 16.3155 22.7043L16.4227 23.0896ZM6.7264 24.0931C7.35524 23.7551 8.7616 23.0948 10.5165 22.6748C12.2702 22.2551 14.3878 22.0717 16.4284 22.706L16.3097 23.0879C14.3627 22.4828 12.3241 22.6535 10.6096 23.0638C8.89632 23.4738 7.52254 24.1193 6.91575 24.4454L6.7264 24.0931ZM7.28619 25.0181C7.06712 24.7591 6.85204 24.5483 6.69727 24.4263L6.94488 24.1122C7.1271 24.2558 7.36134 24.4876 7.59159 24.7598L7.28619 25.0181ZM12.4375 23.4954C12.3671 23.4954 11.5808 23.5271 10.591 23.7399C9.59868 23.9532 8.4275 24.3432 7.56503 25.0442L7.31274 24.7338C8.24755 23.974 9.49145 23.5671 10.507 23.3488C11.5251 23.13 12.3395 23.0954 12.4375 23.0954V23.4954ZM12.6307 23.561C12.6307 23.5811 12.6406 23.5684 12.6027 23.5415C12.5688 23.5174 12.5116 23.4954 12.4375 23.4954V23.0954C12.5882 23.0954 12.7276 23.1397 12.8341 23.2152C12.9366 23.2879 13.0307 23.408 13.0307 23.561H12.6307ZM12.4937 23.6708C12.5272 23.6708 12.5651 23.6568 12.5936 23.6318C12.6209 23.608 12.6307 23.5827 12.6307 23.561H13.0307C13.0307 23.8726 12.7469 24.0708 12.4937 24.0708V23.6708ZM7.70079 25.2693C8.55328 24.5279 9.74427 24.1316 10.7096 23.919C11.678 23.7057 12.4507 23.6708 12.4937 23.6708V24.0708C12.4948 24.0708 12.449 24.0723 12.3583 24.0788C12.2707 24.085 12.1461 24.0955 11.9927 24.1125C11.6856 24.1465 11.2646 24.2063 10.7956 24.3096C9.85134 24.5176 8.73958 24.8959 7.96329 25.5711L7.70079 25.2693ZM8.03455 26.4545C7.9199 26.093 7.8149 25.7665 7.66315 25.5273L8.00092 25.313C8.18617 25.6051 8.30583 25.9868 8.41583 26.3336L8.03455 26.4545ZM10.6964 26.0628C10.6501 26.0628 10.295 26.0732 9.82761 26.1436C9.35899 26.2142 8.79162 26.3432 8.31198 26.5742L8.1384 26.2139C8.66973 25.9579 9.28182 25.8213 9.76801 25.7481C10.2554 25.6746 10.6304 25.6628 10.6964 25.6628V26.0628ZM10.8896 26.1284C10.8896 26.1486 10.8995 26.1359 10.8616 26.109C10.8276 26.0849 10.7705 26.0628 10.6964 26.0628V25.6628C10.8471 25.6628 10.9865 25.7072 11.093 25.7827C11.1955 25.8554 11.2896 25.9755 11.2896 26.1284H10.8896ZM10.7526 26.2383C10.7695 26.2383 10.8067 26.2266 10.8455 26.1891C10.8632 26.1721 10.8759 26.1546 10.8834 26.1403C10.8914 26.1249 10.8896 26.1208 10.8896 26.1284H11.2896C11.2896 26.27 11.2073 26.3961 11.123 26.4772C11.0355 26.5615 10.9042 26.6383 10.7526 26.6383V26.2383ZM8.2204 26.8959C8.59262 26.627 9.11815 26.4653 9.58952 26.3696C10.0653 26.273 10.5139 26.2383 10.7526 26.2383V26.6383C10.542 26.6383 10.12 26.67 9.6691 26.7616C9.21376 26.854 8.75641 27.0022 8.45465 27.2202L8.2204 26.8959ZM7.87249 28.441C8.0839 27.9411 8.13752 27.4823 8.13752 27.0581H8.53753C8.53753 27.5191 8.47881 28.0342 8.2409 28.5968L7.87249 28.441ZM10.8171 29.9968C10.3582 29.8838 9.75819 29.6924 9.21407 29.461C8.94188 29.3453 8.68039 29.2182 8.45608 29.0841C8.23433 28.9516 8.03713 28.8054 7.904 28.648L8.2094 28.3897C8.30093 28.4979 8.45476 28.6173 8.66126 28.7407C8.86521 28.8626 9.1092 28.9817 9.37058 29.0929C9.89359 29.3153 10.4731 29.5001 10.9128 29.6084L10.8171 29.9968ZM10.9054 30.0788C10.901 30.0892 10.9103 30.0815 10.8926 30.0536C10.876 30.0274 10.8467 30.0046 10.8141 29.996L10.9158 29.6092C11.0516 29.6449 11.1628 29.7328 11.2304 29.8393C11.297 29.9443 11.3344 30.0914 11.2738 30.2346L10.9054 30.0788ZM10.7526 30.1781C10.763 30.1781 10.7973 30.1714 10.8376 30.1467C10.877 30.1226 10.8982 30.0958 10.9054 30.0788L11.2738 30.2347C11.2248 30.3504 11.1337 30.4344 11.0467 30.4877C10.9606 30.5405 10.8546 30.5781 10.7526 30.5781V30.1781ZM10.6403 30.1781H10.7526V30.5781H10.6403V30.1781ZM7.89968 28.9815C8.32375 29.3158 8.95963 29.6059 9.53102 29.8201C10.1009 30.0337 10.5812 30.1626 10.6789 30.1819L10.6016 30.5743C10.4747 30.5493 9.97213 30.4126 9.39062 30.1946C8.81063 29.9772 8.12664 29.6697 7.65207 29.2957L7.89968 28.9815ZM7.49466 29.2307C7.53887 29.161 7.57125 29.109 7.59167 29.0607L7.96008 29.2165C7.92434 29.301 7.87247 29.3818 7.83242 29.4449L7.49466 29.2307ZM7.36702 29.4591C7.40276 29.3746 7.45461 29.2938 7.49466 29.2307L7.83243 29.4449C7.78823 29.5146 7.75584 29.5666 7.73542 29.6149L7.36702 29.4591ZM10.2471 32.7242C10.1272 32.8843 10.1271 32.8842 10.1271 32.8842C10.127 32.8842 10.127 32.8841 10.1269 32.8841C10.1268 32.884 10.1267 32.8839 10.1265 32.8838C10.1262 32.8835 10.1257 32.8832 10.1251 32.8827C10.1238 32.8817 10.122 32.8804 10.1197 32.8786C10.1151 32.8751 10.1083 32.8699 10.0995 32.8632C10.0819 32.8498 10.0564 32.83 10.0239 32.8045C9.95884 32.7534 9.86589 32.6791 9.75328 32.5854C9.52825 32.3982 9.22377 32.133 8.9064 31.8211C8.58943 31.5095 8.25691 31.1486 7.97742 30.7701C7.69936 30.3935 7.4656 29.9885 7.35809 29.589L7.74434 29.485C7.8334 29.816 8.03493 30.1745 8.29921 30.5325C8.56206 30.8885 8.87894 31.2332 9.18681 31.5358C9.49426 31.838 9.79005 32.0957 10.0091 32.2779C10.1185 32.3689 10.2085 32.4409 10.2709 32.4899C10.3022 32.5144 10.3265 32.5332 10.3428 32.5458C10.351 32.552 10.3572 32.5567 10.3613 32.5598C10.3633 32.5614 10.3649 32.5625 10.3658 32.5633C10.3663 32.5636 10.3667 32.5639 10.3669 32.564C10.367 32.5641 10.3671 32.5642 10.3671 32.5642C10.3671 32.5642 10.3671 32.5642 10.3671 32.5642C10.3671 32.5642 10.3671 32.5642 10.2471 32.7242ZM10.1541 32.9456C10.1721 32.9361 10.1766 32.9291 10.1763 32.9296C10.1753 32.931 10.1735 32.9354 10.1735 32.94C10.1735 32.9486 10.1769 32.9235 10.1233 32.8813L10.3709 32.5672C10.4859 32.6578 10.5735 32.7876 10.5735 32.94C10.5735 33.1016 10.4754 33.2286 10.3401 33.2997L10.1541 32.9456ZM9.9663 33.0112C9.99726 33.0112 10.0317 33.0048 10.0638 32.994C10.0972 32.9827 10.1175 32.9701 10.1233 32.9656L10.3709 33.2797C10.2777 33.3532 10.1213 33.4112 9.9663 33.4112V33.0112ZM9.84867 32.9753C9.8839 32.9914 9.90163 32.9991 9.9187 33.0043C9.9323 33.0085 9.94613 33.0112 9.9663 33.0112V33.4112C9.83698 33.4112 9.75014 33.37 9.68299 33.3394L9.84867 32.9753ZM9.85523 32.9785L9.85527 32.9785L9.67639 33.3362L9.67634 33.3362L9.85523 32.9785ZM9.85518 32.9784L9.85523 32.9785L9.67634 33.3362L9.6763 33.3362L9.85518 32.9784ZM9.79848 32.9529C9.81709 32.9609 9.83417 32.9687 9.84855 32.9753L9.68293 33.3394C9.66813 33.3326 9.65466 33.3265 9.64039 33.3204L9.79848 32.9529ZM9.75881 32.9366C9.77298 32.9421 9.78619 32.9476 9.79851 32.9529L9.64036 33.3204C9.63113 33.3164 9.62179 33.3125 9.61215 33.3087L9.75881 32.9366ZM9.77803 32.9415L9.80753 32.9642L9.56343 33.2811L9.53394 33.2584L9.77803 32.9415ZM7.16847 30.1116C7.49994 30.7748 8.08066 31.4298 8.62213 31.9506C9.16072 32.4686 9.64687 32.841 9.7776 32.9411L9.53437 33.2587C9.39998 33.1558 8.89976 32.7726 8.34485 32.2389C7.79281 31.708 7.17288 31.0151 6.81067 30.2904L7.16847 30.1116ZM13.152 35.5796C12.2877 35.5115 11.1007 35.2727 9.92671 34.5016C8.75047 33.729 7.60174 32.4315 6.802 30.2704L7.17714 30.1316C7.95002 32.2201 9.04788 33.4458 10.1463 34.1673C11.247 34.8902 12.3627 35.1162 13.1834 35.1809L13.152 35.5796ZM1.9656 21.8186C2.29536 25.9337 5.54708 28.8091 6.60374 29.5981L6.36442 29.9186C5.28682 29.114 1.9111 26.1461 1.56688 21.8505L1.9656 21.8186ZM7.85108 10.7858C3.60407 14.4855 1.63683 18.1907 1.96543 21.8165L1.56706 21.8526C1.22168 18.0416 3.2983 14.2214 7.58834 10.4842L7.85108 10.7858ZM31.1505 2.9995C24.1389 3.35318 14.4262 4.94482 7.85254 10.7845L7.58688 10.4855C14.2681 4.55018 24.1007 2.9546 31.1303 2.60001L31.1505 2.9995ZM44.8271 3.69093C44.0111 3.56471 38.234 2.67109 31.1497 2.99954L31.1311 2.59997C38.2549 2.26969 44.0626 3.16792 44.8882 3.29563L44.8271 3.69093ZM44.9569 3.70802C44.948 3.70802 44.9408 3.70741 44.939 3.70725C44.9359 3.70699 44.9333 3.7067 44.9315 3.7065C44.9279 3.7061 44.9244 3.70563 44.9214 3.70523C44.9154 3.7044 44.9078 3.70329 44.8993 3.70201C44.8821 3.69944 44.8577 3.69567 44.8271 3.69093L44.8882 3.29563C44.9193 3.30043 44.9426 3.30404 44.9587 3.30645C44.9668 3.30766 44.9722 3.30845 44.9755 3.3089C44.9772 3.30913 44.9774 3.30914 44.9766 3.30906C44.9763 3.30902 44.9748 3.30885 44.9727 3.30868C44.9718 3.3086 44.9654 3.30802 44.9569 3.30802V3.70802ZM47.007 5.13858C46.9137 4.64241 46.4482 4.28177 45.9315 4.03743C45.6806 3.91877 45.4334 3.83514 45.245 3.78122C45.1511 3.75433 45.0727 3.73509 45.017 3.72272C44.9891 3.71652 44.9675 3.71219 44.9529 3.70952C44.9456 3.70817 44.9409 3.70741 44.9386 3.70707C44.9311 3.70597 44.9417 3.70802 44.9569 3.70802V3.30802C44.9756 3.30802 44.9935 3.31085 44.9968 3.31133C45.0052 3.31257 45.0148 3.3142 45.025 3.31606C45.0455 3.31981 45.0721 3.3252 45.1037 3.33223C45.1672 3.34632 45.2534 3.36754 45.3551 3.39667C45.5582 3.4548 45.8269 3.54548 46.1025 3.67582C46.6389 3.92949 47.2687 4.36565 47.4001 5.06469L47.007 5.13858ZM42.7196 6.03692C44.891 4.73081 46.4035 4.71648 47.2475 4.90652L47.1596 5.29675C46.4309 5.13265 45.0228 5.11833 42.9258 6.3797L42.7196 6.03692ZM42.6138 6.73587C42.5311 6.63806 42.4768 6.50876 42.4902 6.37148C42.5044 6.22605 42.5917 6.10372 42.7296 6.03126L42.9157 6.38536C42.8982 6.39457 42.892 6.40225 42.8905 6.40446C42.8891 6.40642 42.8886 6.40779 42.8883 6.41034C42.8877 6.41693 42.8896 6.44256 42.9192 6.47755L42.6138 6.73587ZM43.0473 6.93951C42.8925 6.93951 42.7025 6.87916 42.5976 6.71385L42.9354 6.49958C42.9429 6.51134 42.9775 6.53951 43.0473 6.53951V6.93951ZM43.3958 6.85232C43.3235 6.90928 43.2359 6.92569 43.1857 6.93228C43.1289 6.93974 43.0745 6.93951 43.0473 6.93951V6.53951C43.0764 6.53951 43.1062 6.53929 43.1336 6.53568C43.1469 6.53394 43.1553 6.5319 43.1597 6.53049C43.1648 6.52886 43.1587 6.52992 43.1482 6.53817L43.3958 6.85232ZM46.8807 5.87264C46.3217 5.75248 45.1393 5.73693 43.3798 6.86367L43.1641 6.52682C44.9992 5.35168 46.2881 5.33613 46.9647 5.48157L46.8807 5.87264ZM35.2228 11.6886C42.2251 8.90705 45.7467 6.34935 46.7989 5.52003L47.0465 5.83418C45.9645 6.687 42.4093 9.26428 35.3704 12.0604L35.2228 11.6886ZM35.5542 10.3939C35.5632 10.5488 35.597 11.1357 35.4948 11.901L35.0984 11.848C35.1956 11.1196 35.1633 10.5618 35.1549 10.417L35.5542 10.3939ZM35.5546 10.4054V10.4055H35.1546V10.4054H35.5546ZM35.5528 10.3694C35.5528 10.3667 35.5527 10.3653 35.5527 10.3667C35.5528 10.3676 35.5528 10.3692 35.553 10.3718C35.5533 10.3771 35.5537 10.3842 35.5542 10.3939L35.1549 10.417C35.1541 10.4028 35.1528 10.3819 35.1528 10.3694H35.5528ZM35.2576 9.962C35.4373 10.0328 35.5528 10.1894 35.5528 10.3694H35.1528C35.1528 10.3681 35.1525 10.3648 35.1487 10.3595C35.145 10.3544 35.1349 10.3436 35.1109 10.3341L35.2576 9.962ZM30.993 11.1137C31.1599 10.9676 31.782 10.4226 32.5768 10.042C33.3661 9.66409 34.3806 9.42338 35.2884 9.97735L35.0801 10.3188C34.3476 9.87186 33.4975 10.0447 32.7496 10.4028C32.0073 10.7582 31.4198 11.2717 31.2564 11.4147L30.993 11.1137ZM30.9604 11.1419C30.9595 11.1427 30.9597 11.1426 30.9615 11.141C30.9631 11.1396 30.9654 11.1377 30.9685 11.135C30.9747 11.1297 30.9827 11.1227 30.993 11.1137L31.2564 11.4147C31.239 11.4299 31.2198 11.4468 31.208 11.4561L30.9604 11.1419ZM30.9604 11.8102C30.7465 11.6416 30.7465 11.3105 30.9604 11.1419L31.208 11.4561C31.2044 11.4589 31.2 11.4651 31.2 11.4761C31.2 11.4871 31.2044 11.4932 31.208 11.4961L30.9604 11.8102ZM31.6249 13.2223C31.513 12.8915 31.4034 12.5898 31.2886 12.3397C31.1722 12.086 31.0587 11.9043 30.9468 11.7985L31.2217 11.5078C31.3906 11.6676 31.5299 11.9065 31.6521 12.1729C31.7761 12.4429 31.8911 12.7609 32.0038 13.0941L31.6249 13.2223ZM9.54159 18.3613C17.8448 17.0348 25.3028 15.2224 31.7484 12.9694L31.8804 13.347C25.408 15.6093 17.9263 17.4268 9.60469 18.7563L9.54159 18.3613ZM9.33701 18.446C9.39083 18.4036 9.44525 18.3819 9.48722 18.3709C9.50824 18.3654 9.52663 18.3624 9.54111 18.3607C9.54838 18.3599 9.55477 18.3594 9.56012 18.3592C9.56281 18.359 9.56524 18.3589 9.56741 18.3589C9.5685 18.3588 9.56952 18.3588 9.57048 18.3588C9.57096 18.3588 9.57141 18.3588 9.57186 18.3588C9.57208 18.3588 9.5723 18.3588 9.57251 18.3588C9.57262 18.3588 9.57273 18.3588 9.57283 18.3588C9.57288 18.3588 9.57296 18.3588 9.57299 18.3588C9.57307 18.3588 9.57314 18.3588 9.57314 18.5588C9.57314 18.7588 9.57322 18.7588 9.5733 18.7588C9.57332 18.7588 9.5734 18.7588 9.57345 18.7588C9.57355 18.7588 9.57365 18.7588 9.57375 18.7588C9.57395 18.7588 9.57415 18.7588 9.57434 18.7588C9.57473 18.7588 9.57511 18.7588 9.57548 18.7588C9.57622 18.7588 9.57692 18.7588 9.57758 18.7587C9.5789 18.7587 9.58008 18.7587 9.58112 18.7586C9.58318 18.7585 9.58474 18.7584 9.58587 18.7582C9.58699 18.7581 9.58775 18.758 9.5882 18.7579C9.58865 18.7578 9.58885 18.7578 9.58886 18.7578C9.58887 18.7578 9.58873 18.7578 9.58849 18.7579C9.58825 18.758 9.58794 18.7581 9.58756 18.7583C9.58686 18.7586 9.58587 18.7592 9.58462 18.7601L9.33701 18.446ZM9.33109 18.4471L9.36039 18.4301L9.56124 18.776L9.53195 18.793L9.33109 18.4471ZM5.70713 24.5232C5.1719 23.8201 5.11297 23.0839 5.33514 22.3868C5.55347 21.7016 6.04059 21.0589 6.58852 20.5056C7.686 19.3973 9.08978 18.5866 9.33144 18.4469L9.5316 18.7932C9.29185 18.9318 7.92937 19.72 6.87275 20.787C6.34364 21.3214 5.90675 21.9105 5.71625 22.5082C5.52958 23.094 5.577 23.6919 6.0254 24.2809L5.70713 24.5232ZM5.79864 24.6034L5.74247 24.5591L5.99006 24.245L6.04623 24.2892L5.79864 24.6034ZM5.85479 24.6477L5.79863 24.6034L6.04624 24.2892L6.10241 24.3335L5.85479 24.6477ZM5.90166 24.6812C5.88706 24.6711 5.86751 24.6577 5.8548 24.6477L6.1024 24.3335C6.10135 24.3327 6.10119 24.3326 6.10254 24.3336C6.10374 24.3344 6.10555 24.3357 6.10817 24.3376C6.11352 24.3414 6.12036 24.3461 6.12953 24.3525L5.90166 24.6812ZM6.82764 25.5818C6.45054 25.0617 6.03176 24.7714 5.90165 24.6812L6.12954 24.3525C6.27126 24.4507 6.7344 24.7718 7.15149 25.3471L6.82764 25.5818ZM6.89385 25.6658C6.88718 25.6605 6.78956 25.5944 6.78956 25.4645H7.18956C7.18956 25.4482 7.18688 25.4303 7.18044 25.4122C7.17406 25.3943 7.16542 25.38 7.15747 25.3696C7.14991 25.3597 7.14316 25.3534 7.14056 25.3511C7.13848 25.3492 7.13708 25.3482 7.14144 25.3516L6.89385 25.6658ZM6.84573 25.553C6.84573 25.5692 6.84841 25.5871 6.85485 25.6052C6.86122 25.6232 6.86986 25.6374 6.87781 25.6478C6.88537 25.6578 6.89212 25.664 6.89472 25.6663C6.89681 25.6682 6.89821 25.6692 6.89385 25.6658L7.14144 25.3516C7.14813 25.3569 7.24573 25.4231 7.24573 25.553H6.84573ZM7.03099 28.3944C7.56232 27.18 7.29506 26.2783 6.88008 25.6651L7.21137 25.4409C7.69503 26.1557 7.98942 27.2017 7.39746 28.5548L7.03099 28.3944ZM6.32494 29.6372C6.64878 29.2118 6.86576 28.7851 7.03002 28.3967L7.39843 28.5525C7.2257 28.9609 6.99336 29.4195 6.64322 29.8795L6.32494 29.6372ZM4.08479 23.0704C4.05469 23.0348 4.00392 23.0002 3.9478 22.9832C3.89214 22.9664 3.85077 22.972 3.82504 22.9855L3.63898 22.6314C3.78175 22.5564 3.93696 22.562 4.06384 22.6004C4.19025 22.6388 4.30797 22.7149 4.3902 22.8121L4.08479 23.0704ZM4.93508 24.1858C4.58553 23.8184 4.29677 23.408 4.06861 23.0484L4.40638 22.8341C4.62754 23.1827 4.90042 23.5691 5.22485 23.91L4.93508 24.1858ZM4.93077 24.2693C4.94831 24.26 4.95442 24.2524 4.95599 24.2502C4.95737 24.2482 4.95789 24.2468 4.95814 24.2443C4.95878 24.2377 4.95686 24.2121 4.92727 24.1771L5.23267 23.9187C5.3154 24.0166 5.36964 24.1459 5.35625 24.2831C5.34205 24.4286 5.25473 24.5509 5.11683 24.6234L4.93077 24.2693ZM4.79914 24.2906C4.82817 24.2906 4.85799 24.2903 4.88542 24.2867C4.89869 24.285 4.90716 24.283 4.91153 24.2816C4.91658 24.2799 4.91046 24.281 4.89999 24.2892L5.14761 24.6034C5.07533 24.6603 4.9877 24.6767 4.93752 24.6833C4.88071 24.6908 4.82627 24.6906 4.79914 24.6906V24.2906ZM4.6872 24.2506C4.69466 24.2624 4.72935 24.2906 4.79914 24.2906V24.6906C4.64427 24.6906 4.4543 24.6302 4.34943 24.4649L4.6872 24.2506ZM4.6701 24.2275L4.67017 24.2276L4.36647 24.4879L4.3664 24.4879L4.6701 24.2275ZM3.72699 23.0473C4.00179 23.4372 4.33274 23.8287 4.67095 24.2285L4.36555 24.4869C4.02983 24.0899 3.68686 23.6847 3.40005 23.2778L3.72699 23.0473ZM3.80534 22.9945C3.72609 23.0257 3.7066 23.061 3.7056 23.0634C3.70556 23.0635 3.70657 23.0611 3.70708 23.0564C3.7076 23.0516 3.70751 23.045 3.70575 23.0374C3.70179 23.0202 3.69234 23.0094 3.68732 23.0055L3.43971 23.3196C3.30634 23.2145 3.27732 23.0492 3.33719 22.9076C3.39236 22.7772 3.51328 22.6797 3.65868 22.6224L3.80534 22.9945ZM8.91064 11.0534C9.02559 11.144 9.11321 11.2739 9.11321 11.4263C9.11321 11.5878 9.01512 11.7149 8.87987 11.7859L8.69381 11.4318C8.7118 11.4224 8.71635 11.4153 8.71597 11.4159C8.71502 11.4173 8.71321 11.4216 8.71321 11.4263C8.71321 11.4348 8.71658 11.4097 8.66304 11.3675L8.91064 11.0534ZM8.28135 10.9219C8.38471 10.9219 8.66051 10.9182 8.87987 11.0334L8.69381 11.3875C8.57618 11.3257 8.40266 11.3219 8.28135 11.3219V10.9219ZM2.87411 22.223C1.88354 19.9037 2.53306 17.6301 3.75199 15.6805C4.97011 13.7323 6.77368 12.0778 8.15601 10.9661L8.4067 11.2778C7.03695 12.3794 5.27407 14.0007 4.09115 15.8926C2.90903 17.7832 2.32293 19.9141 3.24196 22.0659L2.87411 22.223ZM3.39502 22.5658C3.14037 22.5658 2.95897 22.4236 2.87383 22.2223L3.24224 22.0665C3.26943 22.1308 3.31269 22.1658 3.39502 22.1658V22.5658ZM3.50735 22.5658H3.39502V22.1658H3.50735V22.5658ZM3.91622 21.9337C3.97678 22.0769 3.93938 22.2241 3.87281 22.329C3.80522 22.4356 3.69404 22.5235 3.55817 22.5592L3.45654 22.1723C3.48916 22.1637 3.51839 22.141 3.53505 22.1147C3.55273 22.0869 3.54341 22.0791 3.54781 22.0895L3.91622 21.9337ZM8.91064 11.7659C7.59849 12.8001 5.91953 14.3441 4.78564 16.1369C3.65181 17.9297 3.08151 19.9388 3.91652 21.9344L3.54751 22.0888C2.64141 19.9233 3.27865 17.7714 4.44757 15.9231C5.61644 14.075 7.33545 12.4982 8.66304 11.4518L8.91064 11.7659ZM10.4876 10.0559C10.4758 10.042 10.4492 10.0244 10.3965 10.0212C10.3438 10.0181 10.2817 10.0312 10.2278 10.0595L10.0418 9.70543C10.1564 9.6452 10.2908 9.61411 10.4207 9.62198C10.5506 9.62985 10.6924 9.67869 10.793 9.79758L10.4876 10.0559ZM10.4911 10.1481C10.5086 10.1389 10.5147 10.1312 10.5163 10.129C10.5177 10.127 10.5182 10.1257 10.5185 10.1231C10.5191 10.1165 10.5172 10.0909 10.4876 10.0559L10.793 9.79759C10.8757 9.8954 10.93 10.0247 10.9166 10.162C10.9024 10.3074 10.815 10.4297 10.6771 10.5022L10.4911 10.1481ZM9.56976 10.7818C9.85172 10.5818 10.0774 10.4261 10.2329 10.3203C10.3106 10.2674 10.3707 10.2269 10.4116 10.1997C10.432 10.186 10.4476 10.1757 10.4581 10.1687C10.4634 10.1652 10.4674 10.1626 10.4701 10.1608C10.4714 10.1599 10.4725 10.1592 10.4732 10.1587C10.4735 10.1585 10.4738 10.1583 10.474 10.1582C10.4741 10.1581 10.4742 10.1581 10.4742 10.158C10.4742 10.158 10.4743 10.158 10.4743 10.158C10.4743 10.158 10.4743 10.158 10.4743 10.158C10.4743 10.158 10.4743 10.158 10.5841 10.3251C10.6939 10.4923 10.6939 10.4923 10.6939 10.4923C10.6939 10.4923 10.6939 10.4923 10.6939 10.4923C10.6939 10.4923 10.6939 10.4923 10.6939 10.4923C10.6939 10.4923 10.6938 10.4924 10.6937 10.4924C10.6936 10.4925 10.6934 10.4927 10.6931 10.4929C10.6925 10.4933 10.6916 10.4939 10.6903 10.4947C10.6878 10.4963 10.684 10.4988 10.679 10.5022C10.6689 10.5089 10.6538 10.5189 10.6338 10.5322C10.5939 10.5589 10.5347 10.5987 10.458 10.6509C10.3045 10.7554 10.0809 10.9096 9.80119 11.108L9.56976 10.7818ZM9.46082 10.8334C9.45188 10.8334 9.45168 10.8347 9.46307 10.8318C9.47263 10.8294 9.48538 10.8254 9.49982 10.8197C9.51413 10.814 9.52801 10.8076 9.53991 10.8012C9.55237 10.7945 9.55937 10.7896 9.56167 10.7878L9.80928 11.102C9.76046 11.1404 9.69896 11.1711 9.64648 11.1918C9.59788 11.211 9.52734 11.2334 9.46082 11.2334V10.8334ZM9.3038 10.7878C9.3096 10.7924 9.3299 10.805 9.36335 10.8163C9.3954 10.8271 9.42986 10.8334 9.46082 10.8334V11.2334C9.30586 11.2334 9.14938 11.1754 9.05619 11.102L9.3038 10.7878ZM9.30379 10.7036C9.30205 10.7049 9.29575 10.7099 9.29575 10.7291C9.29575 10.7496 9.30431 10.7822 9.3327 10.8157L9.0273 11.074C8.86799 10.8857 8.82618 10.5707 9.0562 10.3894L9.30379 10.7036ZM10.0569 10.1804C9.89442 10.2915 9.63666 10.4678 9.29571 10.7096L9.06428 10.3834C9.40811 10.1395 9.66815 9.96161 9.83107 9.85019L10.0569 10.1804ZM10.2586 10.0396C10.2297 10.0623 10.1562 10.1125 10.0569 10.1804L9.83107 9.85019C9.94013 9.7756 9.99604 9.73719 10.011 9.7254L10.2586 10.0396ZM35.9549 6.77315C35.59 5.91048 35.6575 5.04477 36.251 4.10916L36.5888 4.32344C36.059 5.1585 36.0141 5.88641 36.3233 6.61735L35.9549 6.77315ZM38.4748 8.96776C38.2105 8.83453 37.7272 8.59107 37.2402 8.23327C36.7547 7.87664 36.251 7.39601 35.9585 6.78118L36.3197 6.60932C36.5722 7.14011 37.0177 7.57348 37.477 7.91092C37.9347 8.24719 38.3917 8.47789 38.6549 8.61059L38.4748 8.96776ZM38.6099 9.01574C38.6256 9.04039 38.6425 9.0539 38.6442 9.05534C38.6487 9.05902 38.651 9.06036 38.6489 9.05903C38.6449 9.05642 38.6358 9.05097 38.619 9.04184C38.5858 9.02379 38.5383 8.99981 38.4748 8.96776L38.6549 8.61059C38.716 8.64143 38.7701 8.66869 38.8101 8.69041C38.8298 8.70115 38.8502 8.7127 38.8678 8.72425C38.8766 8.72999 38.8878 8.73769 38.8991 8.74703C38.9076 8.75412 38.9294 8.77257 38.9477 8.80146L38.6099 9.01574ZM38.9473 9.15287C38.8933 9.15287 38.771 9.15711 38.655 9.06567L38.9026 8.75152C38.9037 8.75234 38.9034 8.75196 38.902 8.75135C38.9007 8.75079 38.9003 8.75082 38.9017 8.75111C38.9035 8.75145 38.9073 8.75204 38.915 8.75242C38.9233 8.75283 38.9324 8.75287 38.9473 8.75287V9.15287ZM39.4532 8.88294C39.3984 8.96925 39.3076 9.03377 39.2299 9.07458C39.1508 9.11614 39.0478 9.15287 38.9473 9.15287V8.75287C38.9592 8.75287 38.9966 8.74533 39.0438 8.72049C39.0651 8.7093 39.0835 8.69709 39.0974 8.68581C39.1122 8.67372 39.1164 8.6671 39.1154 8.66866L39.4532 8.88294ZM39.2088 8.20035C39.307 8.25192 39.4193 8.33096 39.4822 8.44992C39.5548 8.58731 39.543 8.74136 39.4532 8.88294L39.1154 8.66866C39.1224 8.65763 39.1259 8.64964 39.1277 8.6447C39.1286 8.64224 39.129 8.64048 39.1292 8.6394C39.1295 8.63833 39.1295 8.6378 39.1295 8.63773C39.1295 8.63768 39.1295 8.63789 39.1295 8.63828C39.1296 8.63868 39.1296 8.63904 39.1297 8.6393C39.1298 8.63992 39.1298 8.63918 39.1285 8.63687C39.1258 8.63166 39.118 8.62025 39.0993 8.60433C39.0808 8.58857 39.0554 8.57156 39.0228 8.55444L39.2088 8.20035ZM39.0564 8.11795C39.1013 8.13987 39.1416 8.15947 39.1703 8.17458C39.1839 8.18177 39.2007 8.19097 39.2158 8.2009C39.2226 8.20536 39.2363 8.21468 39.2505 8.22808C39.2576 8.2347 39.2702 8.24746 39.2824 8.266C39.2931 8.28235 39.3158 8.32172 39.3158 8.3774H38.9158C38.9158 8.43207 38.938 8.4703 38.9479 8.48537C38.9592 8.50262 38.9707 8.51395 38.976 8.51899C38.9869 8.52924 38.9956 8.53484 38.9959 8.53498C38.9978 8.53628 38.9953 8.53452 38.9837 8.52843C38.962 8.51698 38.9287 8.50072 38.8811 8.47748L39.0564 8.11795ZM37.0502 6.43312C37.2597 6.87881 37.6476 7.24798 38.0497 7.53566C38.4494 7.8217 38.8459 8.01532 39.0564 8.11795L38.8811 8.47748C38.669 8.37408 38.2461 8.1681 37.8169 7.86096C37.39 7.55546 36.9394 7.13787 36.6882 6.60324L37.0502 6.43312ZM37.2627 4.58904C36.8442 5.24881 36.8023 5.8859 37.0514 6.43563L36.687 6.60073C36.3745 5.91099 36.4449 5.13154 36.925 4.37476L37.2627 4.58904ZM37.0184 3.90645C37.1309 3.96555 37.2367 4.05962 37.2947 4.17839C37.3569 4.30601 37.3643 4.47191 37.2466 4.61106L36.9412 4.35274C36.943 4.35055 36.9397 4.35442 36.9391 4.36175C36.9388 4.36701 36.9406 4.3648 36.9352 4.35381C36.9229 4.32871 36.8884 4.28998 36.8323 4.26054L37.0184 3.90645ZM36.2672 4.08714C36.3494 3.98993 36.4671 3.91382 36.5935 3.8755C36.7204 3.83704 36.8756 3.83144 37.0184 3.90645L36.8323 4.26054C36.8066 4.24702 36.7652 4.24142 36.7096 4.2583C36.6535 4.27531 36.6027 4.30987 36.5726 4.34546L36.2672 4.08714ZM35.0316 3.99861C35.0398 3.98886 35.0417 3.9824 35.0423 3.97982C35.0429 3.97715 35.0431 3.9736 35.0415 3.96817C35.0382 3.95691 35.0238 3.93 34.9789 3.90642L35.165 3.55232C35.2886 3.61728 35.3865 3.72316 35.4254 3.85577C35.4656 3.9932 35.4358 4.14009 35.337 4.25693L35.0316 3.99861ZM34.3248 7.4784C33.8972 6.419 34.1556 5.23996 35.0208 4.01255L35.3477 4.243C34.528 5.40601 34.3371 6.44031 34.6958 7.32866L34.3248 7.4784ZM37.3747 10.0825C37.3507 10.0825 37.3314 10.078 37.3279 10.0773C37.3202 10.0756 37.3133 10.0737 37.3082 10.0722C37.2976 10.0692 37.2862 10.0655 37.275 10.0616C37.2522 10.0536 37.2229 10.0425 37.1884 10.0287C37.1192 10.0008 37.0247 9.9598 36.912 9.90592C36.6866 9.7982 36.3851 9.63738 36.0635 9.42381C35.4252 8.99985 34.6845 8.35258 34.3253 7.47964L34.6952 7.32742C35.01 8.09236 35.6735 8.68456 36.2848 9.09061C36.5881 9.29204 36.8728 9.44386 37.0845 9.54502C37.1903 9.59559 37.277 9.63312 37.3378 9.65762C37.3684 9.66994 37.3914 9.67853 37.4063 9.68371C37.414 9.68638 37.4179 9.68756 37.4187 9.68781C37.4193 9.68797 37.4171 9.68733 37.4132 9.68648C37.4113 9.68604 37.4074 9.68525 37.4024 9.6845C37.3983 9.68389 37.3881 9.68248 37.3747 9.68248V10.0825ZM37.3743 10.1737C37.3813 10.1627 37.3848 10.1547 37.3866 10.1498C37.3875 10.1473 37.3879 10.1456 37.3881 10.1445C37.3884 10.1434 37.3884 10.1429 37.3884 10.1428C37.3884 10.1428 37.3884 10.143 37.3884 10.1434C37.3885 10.1438 37.3885 10.1441 37.3886 10.1444C37.3887 10.145 37.3887 10.1443 37.3874 10.142C37.3847 10.1368 37.3769 10.1253 37.3582 10.1094C37.3397 10.0937 37.3142 10.0767 37.2817 10.0595L37.4677 9.70544C37.5659 9.75701 37.6782 9.83605 37.7411 9.95501C37.8137 10.0924 37.8019 10.2464 37.7121 10.388L37.3743 10.1737ZM37.2062 10.258C37.2181 10.258 37.2555 10.2504 37.3027 10.2256C37.324 10.2144 37.3424 10.2022 37.3563 10.1909C37.3711 10.1788 37.3753 10.1722 37.3743 10.1737L37.7121 10.388C37.6573 10.4743 37.5665 10.5389 37.4888 10.5797C37.4097 10.6212 37.3067 10.658 37.2062 10.658V10.258ZM37.1615 10.2566C37.1625 10.2574 37.1622 10.257 37.1609 10.2564C37.1596 10.2559 37.1592 10.2559 37.1606 10.2562C37.1624 10.2565 37.1662 10.2571 37.1739 10.2575C37.1822 10.2579 37.1913 10.258 37.2062 10.258V10.658C37.1522 10.658 37.0299 10.6622 36.9139 10.5708L37.1615 10.2566ZM37.1014 10.2239L37.1103 10.2273L36.9651 10.6L36.9561 10.5965L37.1014 10.2239ZM33.965 7.50424C34.3291 8.38563 35.0562 9.04681 35.7326 9.50124C36.4062 9.95385 37.0098 10.1883 37.1012 10.2238L36.9563 10.5966C36.8541 10.5569 36.219 10.3099 35.5095 9.83326C34.8028 9.35841 34.0024 8.64242 33.5953 7.65696L33.965 7.50424ZM34.6727 3.93466C33.746 5.22362 33.5482 6.43643 33.9665 7.50787L33.5938 7.65333C33.1135 6.42288 33.365 5.06821 34.3479 3.70115L34.6727 3.93466ZM34.9789 3.90642C34.9003 3.8651 34.7605 3.87535 34.6341 3.97498L34.3865 3.66083C34.5971 3.49486 34.9066 3.41657 35.165 3.55232L34.9789 3.90642ZM42.2857 5.14591C42.2857 4.67837 41.8044 4.23923 41.0816 4.23923V3.83923C41.9313 3.83923 42.6857 4.37396 42.6857 5.14591H42.2857ZM41.0816 6.05258C41.8044 6.05258 42.2857 5.61344 42.2857 5.14591H42.6857C42.6857 5.91785 41.9313 6.45258 41.0816 6.45258V6.05258ZM39.8774 5.14591C39.8774 5.61344 40.3587 6.05258 41.0816 6.05258V6.45258C40.2318 6.45258 39.4774 5.91785 39.4774 5.14591H39.8774ZM41.0816 4.23923C40.3587 4.23923 39.8774 4.67837 39.8774 5.14591H39.4774C39.4774 4.37396 40.2318 3.83923 41.0816 3.83923V4.23923ZM41.9555 5.14592C41.9555 5.60799 41.5382 5.87712 41.0816 5.87712V5.47712C41.4112 5.47712 41.5555 5.30358 41.5555 5.14592H41.9555ZM41.0816 4.41471C41.5382 4.41471 41.9555 4.68384 41.9555 5.14592H41.5555C41.5555 4.98825 41.4112 4.81471 41.0816 4.81471V4.41471ZM40.2076 5.14592C40.2076 4.68384 40.6249 4.41471 41.0816 4.41471V4.81471C40.7519 4.81471 40.6076 4.98825 40.6076 5.14592H40.2076ZM41.0816 5.87712C40.8719 5.87712 40.6611 5.80901 40.4988 5.68815C40.3356 5.56665 40.2076 5.37953 40.2076 5.14592H40.6076C40.6076 5.22217 40.6481 5.30065 40.7376 5.36729C40.828 5.43457 40.9542 5.47712 41.0816 5.47712V5.87712Z" fill="#FF8F00"/>
</svg>
