<svg width="73" height="70" viewBox="0 0 73 70" fill="none" xmlns="http://www.w3.org/2000/svg">
<path fill-rule="evenodd" clip-rule="evenodd" d="M15.0539 14.3012C13.357 15.6772 11.745 17.2253 10.2178 18.9454C3.59988 26.4278 0.545479 34.0822 1.05454 41.6506C1.7333 51.1971 7.92696 57.2174 8.9451 58.1634C11.8298 67.8819 17.5992 69 20.1446 69C20.9082 69 21.4173 68.914 21.4173 68.914C21.6718 68.828 21.7566 68.656 21.8415 68.398C21.9263 68.14 21.7566 67.8819 21.5869 67.7959C18.0235 65.9038 17.9386 64.6998 17.6841 60.2275C17.6735 60.0556 17.6629 59.8782 17.6519 59.6953V59.6953C17.5754 58.4148 17.4826 56.8626 17.2599 54.9813C16.3266 46.6388 25.4898 44.3167 25.914 44.2307C26.1685 44.1447 26.3382 43.9727 26.3382 43.7147C26.4231 43.4567 26.2534 43.1987 26.0837 43.1127C18.9568 39.1565 11.3207 43.8007 9.19963 45.2628C7.67242 41.3066 13.6115 36.7483 14.46 36.1463C18.5325 35.2863 22.4354 34.3402 26.2534 33.3082C25.5054 35.8862 25.8785 38.7986 25.9773 39.5697L25.9773 39.57C25.9906 39.6733 25.9989 39.7381 25.9989 39.7585C26.0413 39.8015 26.0837 39.866 26.1261 39.9305C26.1685 39.995 26.211 40.0595 26.2534 40.1025C26.3382 40.1885 26.5079 40.1885 26.5928 40.1885H26.6776C29.6472 39.5865 32.2774 32.9641 32.8713 31.3301C38.3013 29.696 43.3072 27.7179 48.0585 25.6538C48.3978 27.4599 48.7372 29.438 48.9069 30.47C48.9917 30.642 49.0766 30.814 49.3311 30.9H49.5008C49.6705 30.9 49.8402 30.814 49.925 30.642C51.6219 28.4059 52.4704 25.6538 52.8098 23.3316C65.7567 16.8517 71.1406 10.9976 71.832 10.2458L71.832 10.2458L71.8321 10.2456C71.8656 10.2093 71.888 10.1849 71.8998 10.173C71.9846 10.173 71.9846 10.087 71.9846 10.087V9.91495C72.2392 6.81879 69.2696 5.27071 67.6576 4.84069C67.6517 4.84069 67.6007 4.83073 67.5071 4.81242C66.2533 4.56721 57.3417 2.82437 46.4464 3.46462C43.4768 3.63663 40.2528 3.98064 36.9438 4.66868C32.5319 4.23866 20.7385 2.69058 18.6174 1.1425C18.4477 0.970488 18.1932 0.970488 18.0235 1.05649C17.7689 1.1425 17.6841 1.31451 17.6841 1.57252L17.6842 1.58094C17.6877 1.90426 17.786 10.8088 12.8479 13.2691C12.6783 13.3551 12.5086 13.6131 12.5934 13.8712C12.5934 14.1292 12.8479 14.3012 13.1025 14.3012H15.0539ZM14.8842 13.2691C18.1083 10.345 18.7022 4.7547 18.7871 2.51858C21.7566 3.80865 29.2229 4.8407 33.4652 5.35673C32.1925 5.70075 30.9198 6.04476 29.6472 6.47478C29.6472 6.47478 23.4535 6.56079 20.9082 4.66869C20.6536 4.49668 20.3143 4.58269 20.1446 4.8407C19.9749 5.09871 20.0597 5.44273 20.3143 5.61474C22.0112 6.8188 24.811 7.33483 26.9321 7.50684C25.4898 8.10887 24.1323 8.7109 22.7748 9.39894C22.2657 9.31293 20.3991 8.79691 19.6355 7.59284C19.4658 7.33483 19.1264 7.24883 18.8719 7.42083C18.6174 7.59284 18.5325 7.93686 18.7022 8.19487C19.381 9.22693 20.484 9.82896 21.3324 10.173C20.3991 10.689 19.5507 11.205 18.7022 11.7211C18.5325 11.6351 18.278 11.463 17.7689 11.119C17.5144 10.947 17.175 11.033 17.0053 11.291C16.8356 11.549 16.9205 11.8931 17.175 12.0651C17.3447 12.2371 17.5144 12.3231 17.6841 12.4091C17.472 12.5381 17.2811 12.6886 17.0902 12.8391L17.0902 12.8391C16.8993 12.9896 16.7084 13.1401 16.4963 13.2691H14.8842ZM51.8765 19.4614C50.4341 18.6874 48.3978 20.6655 47.7191 21.3535C47.9736 21.7836 48.2281 22.4716 48.3978 23.0736C48.9069 22.2136 49.1614 21.1815 49.1614 21.1815C49.2463 20.8375 49.5857 20.6655 49.8402 20.7515C50.0947 20.8375 50.1796 21.0095 50.2644 21.1815V21.0955C50.2644 20.7515 50.5189 20.5795 50.8583 20.5795C51.1977 20.5795 51.4522 20.8375 51.3674 21.1815C51.3674 21.3535 51.2825 25.6538 49.416 27.7179C49.4305 27.7914 49.445 27.8624 49.4591 27.9313L49.4592 27.9318L49.4592 27.932C49.5274 28.2659 49.5857 28.5509 49.5857 28.8359C51.7916 25.3097 51.8765 20.6655 51.8765 19.4614ZM50.2397 21.7641C50.1445 22.7026 49.9353 24.7654 49.1614 26.2558C49.1126 25.9588 49.0357 25.6618 48.963 25.3812L48.963 25.3812C48.9094 25.1742 48.8581 24.9762 48.8221 24.7937C49.7282 23.4576 50.2345 21.7161 50.2631 21.5374L50.2644 21.5256C50.2644 21.5281 50.264 21.532 50.2631 21.5374C50.2561 21.6018 50.2485 21.6766 50.24 21.7603L50.2399 21.7616L50.2397 21.7639L50.2397 21.7641ZM31.3441 31.8461L29.5623 32.3621H29.732C29.9866 32.4481 30.1563 32.7921 30.0714 33.0501C30.0586 33.0631 30.0247 33.1383 29.9689 33.2624C29.6533 33.9629 28.6365 36.2201 26.7625 37.6084C26.7625 37.8924 26.7882 38.1505 26.8113 38.3824C26.8302 38.5718 26.8473 38.7438 26.8473 38.8984C28.629 37.9524 30.4108 34.1682 31.3441 31.8461ZM26.8473 35.4583C27.6957 34.5982 28.3745 33.6522 28.3745 33.6522C28.5442 33.3942 28.4593 33.0502 28.2048 32.9641C28.2048 32.8781 28.12 32.8781 28.12 32.8781C28.2897 32.8351 28.4806 32.7706 28.6715 32.7061L28.6715 32.7061C28.8624 32.6416 29.0533 32.5771 29.2229 32.5341C29.1381 32.6201 29.0533 32.7061 29.0533 32.7921C29.0313 32.7921 28.964 32.9243 28.8514 33.1456C28.5283 33.7803 27.832 35.1482 26.7625 36.2323C26.7625 36.1033 26.7837 35.9743 26.8049 35.8454L26.8049 35.8453C26.8261 35.7163 26.8473 35.5873 26.8473 35.4583ZM19.381 67.7959C16.8679 66.0127 16.7533 64.2295 16.5059 60.3769L16.4963 60.2275C16.486 60.0618 16.4758 59.8911 16.4653 59.7154L16.4651 59.7115C16.3883 58.4291 16.2957 56.881 16.072 55.0673C15.2236 47.8429 21.3324 44.5747 24.2171 43.5427C18.1932 41.1346 11.6601 44.9188 9.79354 46.2088C10.0481 46.4668 10.3875 46.8969 10.7268 47.4129C13.4419 44.5747 18.0235 44.3167 18.278 44.3167C18.6174 44.3167 18.8719 44.5747 18.8719 44.8327C18.8719 45.1768 18.6174 45.4348 18.3629 45.4348C18.278 45.4348 13.7812 45.6928 11.3207 48.4449C11.5753 48.961 11.745 49.649 11.9147 50.337C13.4419 49.391 15.4781 49.305 15.6478 49.305C15.9872 49.305 16.2417 49.563 16.2417 49.821C16.2417 50.079 15.9872 50.423 15.7327 50.423C15.0539 50.423 13.1025 50.681 12.0843 51.6271C12.0843 52.4871 11.9995 53.4332 11.6601 54.4652C12.3389 55.4973 14.5448 56.5294 15.9024 56.9594C16.1569 57.0454 16.3266 57.3894 16.2417 57.6474C16.1569 57.9054 15.9024 58.0774 15.7327 58.0774H15.563C15.2236 57.9914 12.5934 57.0454 11.2359 55.6693C11.1935 55.7983 11.1298 55.9273 11.0662 56.0563C11.0026 56.1853 10.9389 56.3143 10.8965 56.4433C11.4904 59.2815 14.9691 62.6357 14.9691 62.6357C15.2236 62.8937 15.2236 63.2377 14.9691 63.4097C14.8842 63.4957 14.7145 63.5817 14.5448 63.5817C14.4206 63.5817 14.3419 63.5356 14.242 63.4772C14.2055 63.4558 14.1661 63.4327 14.1206 63.4097C14.1121 63.4011 14.0971 63.3863 14.076 63.3655C13.6754 62.9709 11.096 60.4298 10.0481 57.7334C12.4237 65.9898 16.8356 67.5379 19.381 67.7959ZM9.28448 56.8734C7.67243 55.3253 2.6666 49.649 2.15752 41.4786C1.64846 34.2542 4.70287 26.9438 11.1511 19.7195C21.1627 8.28087 35.9257 5.18471 46.5313 4.49668C57.263 3.85677 66.0131 5.59744 67.2531 5.8441C67.3463 5.86265 67.3971 5.87275 67.403 5.87275C67.4879 5.87275 70.4574 6.64679 70.7968 8.96891C69.609 8.62489 67.403 8.62489 64.1789 11.119C63.9244 11.291 63.9244 11.635 64.0941 11.8931C64.1789 12.0651 64.3486 12.1511 64.5183 12.1511C64.6032 12.1511 64.7729 12.1511 64.8577 12.0651C67.5727 9.82895 69.4393 9.82895 70.3726 10.087C68.7606 11.7211 63.4153 16.7093 52.8098 22.1276C52.9604 20.6765 52.9104 19.5646 52.8973 19.2734C52.8957 19.2367 52.8946 19.2131 52.8946 19.2034C52.8946 19.0314 52.8098 18.8594 52.6401 18.7734C50.1621 16.8288 47.0065 20.3803 46.5075 20.9419C46.4769 20.9764 46.4562 20.9996 46.4464 21.0095C46.2767 21.1815 46.2767 21.5256 46.4464 21.6976C46.8706 22.2136 47.21 23.3317 47.5494 24.6217C37.7923 29.0079 26.5079 32.5341 13.9509 35.1143C13.9509 35.1143 13.8661 35.1143 13.7812 35.2003L13.737 35.2333C13.0097 35.7739 5.37934 41.4461 8.35119 46.4668L8.43603 46.5529L8.52088 46.6389C8.53074 46.6489 8.54977 46.6658 8.57678 46.6899C8.78211 46.873 9.44822 47.4669 10.0481 48.531C10.0481 48.574 10.0693 48.5955 10.0905 48.617C10.1117 48.6385 10.1329 48.66 10.1329 48.703C10.8117 49.993 11.2359 51.8851 10.3875 54.3793C10.1329 55.1533 9.79354 56.0133 9.28448 56.8734ZM5.1271 43.3707C5.38163 43.1987 5.72101 43.3707 5.8907 43.6287C6.23008 44.3167 6.6543 45.0908 7.16337 45.7788C7.33306 46.0368 7.33306 46.3808 7.07852 46.5529C6.99368 46.6389 6.82399 46.6389 6.73914 46.6389C6.56946 46.6389 6.39977 46.5529 6.31493 46.3808C5.80585 45.6068 5.29679 44.8328 4.87257 44.0587C4.70287 43.8867 4.78772 43.5427 5.1271 43.3707ZM12.7631 21.6116C13.0176 21.4395 13.0176 21.0955 12.7631 20.8375C12.5086 20.6655 12.1692 20.6655 11.9995 20.6655C7.84212 24.9657 1.22424 33.3942 4.10896 42.0806C4.19379 42.3386 4.36349 42.5106 4.61802 42.5106H4.78771C5.04224 42.4246 5.21193 42.0806 5.12709 41.8226C2.4969 33.7382 8.77541 25.6538 12.7631 21.6116ZM14.7994 18.2574C15.0539 18.0854 15.3933 18.0854 15.563 18.3434C15.7326 18.6014 15.7326 18.9454 15.4781 19.1174C15.4781 19.1174 14.969 19.5474 14.1206 20.3215C14.0358 20.4075 13.8661 20.4935 13.7812 20.4935C13.6115 20.4935 13.4418 20.4075 13.357 20.3215C13.1873 20.0635 13.1873 19.7194 13.357 19.5474C13.8742 19.0756 14.2653 18.7316 14.5111 18.5154L14.5112 18.5153L14.5112 18.5152C14.6685 18.3769 14.7662 18.2909 14.7994 18.2574ZM54.5067 7.24882C53.6582 8.9689 53.5734 10.517 54.0824 12.0651C54.9059 14.2908 56.9501 15.6166 57.7469 16.1333C57.9353 16.2554 58.0539 16.3324 58.0701 16.3653C58.155 16.4513 58.2398 16.4513 58.3247 16.4513C58.4944 16.4513 58.7489 16.2793 58.8337 16.1073C59.0034 15.7633 58.8337 15.5052 58.5792 15.3332C58.5792 15.3178 58.4969 15.2662 58.357 15.1784L58.357 15.1784C57.7188 14.7781 55.8813 13.6257 55.1854 11.721C54.7612 10.517 54.846 9.14091 55.5248 7.76484C55.6945 7.50683 55.5248 7.16281 55.2703 6.9908C55.0157 6.81879 54.6764 6.9908 54.5067 7.24882ZM52.4704 6.30275C52.7249 6.47476 52.8098 6.81878 52.6401 7.07679C51.3674 9.39891 51.028 11.549 51.6219 13.4411C52.6401 16.6233 55.8642 18.2574 55.949 18.2574C56.2035 18.4294 56.3732 18.6874 56.2035 19.0314C56.1187 19.2034 55.8642 19.3754 55.6945 19.3754C55.6096 19.3754 55.5248 19.3754 55.4399 19.2894L55.4264 19.2826C55.134 19.1365 51.6839 17.4122 50.5189 13.7851C49.8402 11.549 50.1796 9.05489 51.6219 6.47476C51.8765 6.21675 52.2158 6.13074 52.4704 6.30275ZM61.5487 6.90479C62.7366 6.90479 63.6698 7.85084 63.6698 9.0549C63.6698 10.259 62.7366 11.205 61.5487 11.205C60.3609 11.205 59.4276 10.259 59.4276 9.0549C59.4276 7.85084 60.3609 6.90479 61.5487 6.90479ZM61.5487 10.087C62.1426 10.087 62.5669 9.65695 62.5669 9.05492C62.5669 8.45289 62.1426 8.02286 61.5487 8.02286C60.9548 8.02286 60.5306 8.45289 60.5306 9.05492C60.5306 9.65695 61.0397 10.087 61.5487 10.087Z" fill="black"/>
<path d="M10.2178 18.9454L10.0679 18.8129L10.0682 18.8126L10.2178 18.9454ZM15.0539 14.3012V14.1012H15.6181L15.1799 14.4565L15.0539 14.3012ZM1.05454 41.6506L0.855042 41.6648L0.854996 41.664L1.05454 41.6506ZM8.9451 58.1634L9.08123 58.0169L9.12127 58.0541L9.13683 58.1065L8.9451 58.1634ZM21.4173 68.914L21.4813 69.1035L21.4662 69.1086L21.4506 69.1112L21.4173 68.914ZM21.8415 68.398L21.6515 68.3355L21.8415 68.398ZM21.5869 67.7959L21.4965 67.9744L21.4931 67.9726L21.5869 67.7959ZM17.6841 60.2275L17.8837 60.2152L17.8838 60.2162L17.6841 60.2275ZM17.6519 59.6953L17.4519 59.7073V59.6953H17.6519ZM17.6519 59.6953L17.8519 59.6833V59.6953H17.6519ZM17.2599 54.9813L17.0612 55.0048L17.0611 55.0035L17.2599 54.9813ZM25.914 44.2307L25.978 44.4202L25.9661 44.4242L25.9538 44.4267L25.914 44.2307ZM26.3382 43.7147H26.1382V43.6827L26.1482 43.6522L26.3382 43.7147ZM26.0837 43.1127L25.9932 43.2912L25.9866 43.2875L26.0837 43.1127ZM9.19963 45.2628L9.31313 45.4274L9.10436 45.5714L9.01305 45.3348L9.19963 45.2628ZM14.46 36.1463L14.3443 35.9832L14.3781 35.9592L14.4187 35.9506L14.46 36.1463ZM26.2534 33.3082L26.2012 33.1151L26.5446 33.0223L26.4455 33.3639L26.2534 33.3082ZM25.9773 39.5697L25.779 39.5956L25.7789 39.5951L25.9773 39.5697ZM25.9773 39.57L26.1756 39.5441L26.1757 39.5445L25.9773 39.57ZM25.9989 39.7585L25.8565 39.8989L25.7989 39.8405V39.7585H25.9989ZM26.1261 39.9305L25.959 40.0404V40.0404L26.1261 39.9305ZM26.2534 40.1025L26.3958 39.9621L26.2534 40.1025ZM26.6776 40.1885L26.7174 40.3845L26.6977 40.3885H26.6776V40.1885ZM32.8713 31.3301L32.6833 31.2617L32.7176 31.1674L32.8136 31.1385L32.8713 31.3301ZM48.0585 25.6538L47.9788 25.4703L48.2087 25.3704L48.255 25.6168L48.0585 25.6538ZM48.9069 30.47L48.7275 30.5585L48.7144 30.5318L48.7096 30.5025L48.9069 30.47ZM49.3311 30.9V31.1H49.2983L49.2671 31.0895L49.3311 30.9ZM49.925 30.642L49.7457 30.5535L49.7541 30.5364L49.7657 30.5211L49.925 30.642ZM52.8098 23.3316L52.6119 23.3027L52.6269 23.1995L52.7202 23.1528L52.8098 23.3316ZM71.832 10.2458L71.9837 10.3763L71.9792 10.3812L71.832 10.2458ZM71.832 10.2458L71.6802 10.1154L71.6852 10.11L71.832 10.2458ZM71.8321 10.2456L71.9794 10.381L71.9789 10.3815L71.8321 10.2456ZM71.8998 10.173L71.7574 10.0325L71.8162 9.97296H71.8998V10.173ZM71.9846 9.91495H71.7846V9.90674L71.7853 9.89856L71.9846 9.91495ZM67.6576 4.84069V4.64069H67.6838L67.7091 4.64744L67.6576 4.84069ZM67.5071 4.81242L67.5455 4.61614H67.5455L67.5071 4.81242ZM46.4464 3.46462L46.4581 3.66427L46.458 3.66428L46.4464 3.46462ZM36.9438 4.66868L36.9845 4.86449L36.9547 4.87069L36.9244 4.86774L36.9438 4.66868ZM18.6174 1.1425L18.4995 1.30405L18.4864 1.29449L18.475 1.28295L18.6174 1.1425ZM18.0235 1.05649L18.1139 1.23489L18.1011 1.24137L18.0875 1.24597L18.0235 1.05649ZM17.6841 1.57252L17.4841 1.57442V1.57252H17.6841ZM17.6842 1.58094L17.4842 1.58315V1.58285L17.6842 1.58094ZM12.8479 13.2691L12.7575 13.0907L12.7588 13.0901L12.8479 13.2691ZM12.5934 13.8712L12.7834 13.8087L12.7934 13.8391V13.8712H12.5934ZM18.7871 2.51858L18.5872 2.511L18.5983 2.21852L18.8667 2.33514L18.7871 2.51858ZM14.8842 13.2691V13.4691H14.366L14.7498 13.121L14.8842 13.2691ZM33.4652 5.35673L33.4893 5.15819L33.5174 5.5498L33.4652 5.35673ZM29.6472 6.47478L29.7112 6.66426L29.6814 6.67433L29.6499 6.67477L29.6472 6.47478ZM20.9082 4.66869L21.0203 4.50281L21.0275 4.50818L20.9082 4.66869ZM20.3143 5.61474L20.4263 5.44899L20.43 5.45163L20.3143 5.61474ZM26.9321 7.50684L26.9483 7.30749L27.0092 7.69141L26.9321 7.50684ZM22.7748 9.39894L22.8652 9.57733L22.8064 9.60712L22.7414 9.59614L22.7748 9.39894ZM19.6355 7.59284L19.8026 7.48293L19.8044 7.48573L19.6355 7.59284ZM18.8719 7.42083L18.9839 7.58654V7.58654L18.8719 7.42083ZM21.3324 10.173L21.4075 9.98763L21.796 10.1452L21.4292 10.348L21.3324 10.173ZM18.7022 11.7211L18.8061 11.8919L18.7111 11.9498L18.6118 11.8995L18.7022 11.7211ZM17.7689 11.119L17.6569 11.2847L17.7689 11.119ZM17.0053 11.291L16.8382 11.1811L17.0053 11.291ZM17.175 12.0651L17.287 11.8994L17.3034 11.9105L17.3174 11.9246L17.175 12.0651ZM17.6841 12.4091L17.7745 12.2307L18.0951 12.3932L17.788 12.58L17.6841 12.4091ZM17.0902 12.8391L16.9653 12.6829L16.9664 12.682L17.0902 12.8391ZM17.0902 12.8391L17.2151 12.9953L17.214 12.9962L17.0902 12.8391ZM16.4963 13.2691L16.6002 13.44L16.5523 13.4691H16.4963V13.2691ZM47.7191 21.3535L47.547 21.4554L47.4685 21.3228L47.5767 21.2131L47.7191 21.3535ZM51.8765 19.4614L51.971 19.2852L52.0765 19.3418V19.4614H51.8765ZM48.3978 23.0736L48.5699 23.1755L48.332 23.5774L48.2053 23.1279L48.3978 23.0736ZM49.1614 21.1815L48.9673 21.1336L49.1614 21.1815ZM50.2644 21.1815H50.4644L50.085 21.27L50.2644 21.1815ZM51.3674 21.1815H51.1674V21.1572L51.1732 21.1336L51.3674 21.1815ZM49.416 27.7179L49.2198 27.7566L49.2003 27.6581L49.2676 27.5837L49.416 27.7179ZM49.4591 27.9313L49.655 27.8913L49.6552 27.8921L49.4591 27.9313ZM49.4592 27.932L49.2633 27.9721L49.2631 27.9713L49.4592 27.932ZM49.5857 28.8359L49.7552 28.942L49.3857 29.5327V28.8359H49.5857ZM49.1614 26.2558L49.3389 26.348L49.0617 26.8819L48.9641 26.2882L49.1614 26.2558ZM50.2397 21.7641L50.4387 21.784L50.4386 21.7843L50.2397 21.7641ZM48.963 25.3812L49.1553 25.3263L49.1566 25.3311L48.963 25.3812ZM48.963 25.3812L48.7706 25.4361L48.7694 25.4313L48.963 25.3812ZM48.8221 24.7937L48.6258 24.8324L48.6097 24.7505L48.6565 24.6815L48.8221 24.7937ZM50.2644 21.5256L50.0656 21.5039L50.4644 21.5256H50.2644ZM50.24 21.7603L50.041 21.7404L50.0411 21.7401L50.24 21.7603ZM50.2399 21.7616L50.4389 21.7815L50.4389 21.7816L50.2399 21.7616ZM50.2397 21.7639L50.0407 21.744L50.0407 21.7439L50.2397 21.7639ZM29.5623 32.3621V32.5621L29.5067 32.17L29.5623 32.3621ZM31.3441 31.8461L31.2884 31.654L31.6827 31.5398L31.5297 31.9207L31.3441 31.8461ZM29.732 32.3621V32.1621H29.7649L29.7961 32.1726L29.732 32.3621ZM30.0714 33.0501L30.2614 33.1126L30.2467 33.1572L30.2138 33.1906L30.0714 33.0501ZM29.9689 33.2624L30.1512 33.3445L29.9689 33.2624ZM26.7625 37.6084H26.5625V37.5076L26.6434 37.4477L26.7625 37.6084ZM26.8113 38.3824L26.6123 38.4022V38.4022L26.8113 38.3824ZM26.8473 38.8984L26.9411 39.0751L26.6473 39.2311V38.8984H26.8473ZM28.3745 33.6522L28.5417 33.7622L28.537 33.7688L28.3745 33.6522ZM26.8473 35.4583H26.6473V35.3762L26.7049 35.3178L26.8473 35.4583ZM28.2048 32.9641L28.1408 33.1536L28.0048 33.1077V32.9641H28.2048ZM28.12 32.8781V33.0781L28.0708 32.6843L28.12 32.8781ZM28.6715 32.7061L28.7417 32.8935L28.7355 32.8956L28.6715 32.7061ZM28.6715 32.7061L28.6012 32.5187L28.6075 32.5166L28.6715 32.7061ZM29.2229 32.5341L29.1738 32.3403L29.8689 32.1641L29.3653 32.6746L29.2229 32.5341ZM29.0533 32.7921H29.2533V32.9921H29.0533V32.7921ZM28.8514 33.1456L28.6732 33.0549L28.8514 33.1456ZM26.7625 36.2323L26.9048 36.3728L26.5625 36.7198V36.2323H26.7625ZM26.8049 35.8454L26.6075 35.8129L26.6076 35.8125L26.8049 35.8454ZM26.8049 35.8453L27.0022 35.8777L27.0022 35.8782L26.8049 35.8453ZM16.5059 60.3769L16.7055 60.3641V60.3641L16.5059 60.3769ZM19.381 67.7959L19.4967 67.6328L20.1147 68.0713L19.3608 67.9949L19.381 67.7959ZM16.4963 60.2275L16.2967 60.2404L16.2966 60.2398L16.4963 60.2275ZM16.4653 59.7154L16.2657 59.7273L16.2657 59.7273L16.4653 59.7154ZM16.4651 59.7115L16.6647 59.6996L16.6647 59.6997L16.4651 59.7115ZM16.072 55.0673L15.8735 55.0918L15.8734 55.0906L16.072 55.0673ZM24.2171 43.5427L24.2914 43.357L24.7819 43.5531L24.2845 43.731L24.2171 43.5427ZM9.79354 46.2088L9.65117 46.3493L9.48389 46.1797L9.67983 46.0443L9.79354 46.2088ZM10.7268 47.4129L10.8714 47.5511L10.6977 47.7326L10.5597 47.5228L10.7268 47.4129ZM11.3207 48.4449L11.1414 48.5334L11.0816 48.4123L11.1716 48.3116L11.3207 48.4449ZM11.9147 50.337L12.02 50.5071L11.7863 50.6518L11.7205 50.3849L11.9147 50.337ZM12.0843 51.6271H11.8843V51.5399L11.9482 51.4806L12.0843 51.6271ZM11.6601 54.4652L11.493 54.5751L11.44 54.4945L11.4701 54.4028L11.6601 54.4652ZM15.9024 56.9594L15.9628 56.7687L15.9664 56.7699L15.9024 56.9594ZM16.2417 57.6474L16.4317 57.7099V57.7099L16.2417 57.6474ZM15.563 58.0774V58.2774H15.538L15.5138 58.2713L15.563 58.0774ZM11.2359 55.6693L11.0459 55.6068L11.1482 55.2957L11.3783 55.5288L11.2359 55.6693ZM11.0662 56.0563L11.2456 56.1448L11.2456 56.1448L11.0662 56.0563ZM10.8965 56.4433L10.7008 56.4843L10.6898 56.4318L10.7065 56.3809L10.8965 56.4433ZM14.9691 62.6357L15.1079 62.4916L15.1114 62.4952L14.9691 62.6357ZM14.9691 63.4097L14.8267 63.2692L14.8406 63.2551L14.8571 63.244L14.9691 63.4097ZM14.242 63.4772L14.343 63.3046L14.343 63.3046L14.242 63.4772ZM14.1206 63.4097L14.0302 63.5881L14.0011 63.5734L13.9782 63.5502L14.1206 63.4097ZM14.076 63.3655L14.2164 63.2231L14.076 63.3655ZM10.0481 57.7334L9.85587 57.7887L10.2345 57.661L10.0481 57.7334ZM2.15752 41.4786L2.35703 41.4645L2.35714 41.4662L2.15752 41.4786ZM9.28448 56.8734L9.45659 56.9753L9.32801 57.1925L9.14595 57.0176L9.28448 56.8734ZM11.1511 19.7195L11.3016 19.8512L11.3003 19.8526L11.1511 19.7195ZM46.5313 4.49668L46.5183 4.2971L46.5194 4.29703L46.5313 4.49668ZM67.2531 5.8441L67.214 6.04025H67.214L67.2531 5.8441ZM70.7968 8.96891L70.9947 8.93999L71.0397 9.24746L70.7412 9.16102L70.7968 8.96891ZM64.1789 11.119L64.3016 11.2775L64.2909 11.2847L64.1789 11.119ZM64.0941 11.8931L64.2612 11.7832L64.268 11.7935L64.2735 11.8046L64.0941 11.8931ZM64.8577 12.0651L64.7153 11.9246L64.7226 11.9173L64.7305 11.9107L64.8577 12.0651ZM70.3726 10.087L70.4259 9.8942L70.7542 9.98495L70.515 10.2274L70.3726 10.087ZM52.8098 22.1276L52.9008 22.3057L52.5728 22.4732L52.6108 22.1069L52.8098 22.1276ZM52.8973 19.2734L52.6975 19.2824L52.8973 19.2734ZM52.6401 18.7734L52.5497 18.9518L52.5321 18.9429L52.5166 18.9308L52.6401 18.7734ZM46.5075 20.9419L46.657 21.0747V21.0747L46.5075 20.9419ZM46.4464 21.0095L46.304 20.8691L46.304 20.8691L46.4464 21.0095ZM46.4464 21.6976L46.5888 21.5571L46.5952 21.5636L46.6009 21.5706L46.4464 21.6976ZM47.5494 24.6217L47.7428 24.5708L47.7859 24.7347L47.6314 24.8041L47.5494 24.6217ZM13.9509 35.1143L13.9912 35.3102L13.9713 35.3143H13.9509V35.1143ZM13.7812 35.2003L13.9236 35.3407L13.913 35.3515L13.9009 35.3605L13.7812 35.2003ZM13.737 35.2333L13.8567 35.3936L13.8563 35.3938L13.737 35.2333ZM8.35119 46.4668L8.20881 46.6073L8.19158 46.5898L8.17908 46.5687L8.35119 46.4668ZM8.43603 46.5529L8.29366 46.6933L8.29365 46.6933L8.43603 46.5529ZM8.52088 46.6389L8.66325 46.4984L8.66327 46.4984L8.52088 46.6389ZM8.57678 46.6899L8.70987 46.5406H8.70988L8.57678 46.6899ZM10.0481 48.531L10.2223 48.4327L10.2481 48.4785V48.531H10.0481ZM10.0905 48.617L10.2329 48.4765L10.0905 48.617ZM10.1329 48.703L9.95592 48.7961L9.93292 48.7524V48.703H10.1329ZM10.3875 54.3793L10.1975 54.3168L10.1981 54.3148L10.3875 54.3793ZM5.8907 43.6287L6.0578 43.5188L6.0646 43.5291L6.07007 43.5402L5.8907 43.6287ZM5.1271 43.3707L5.23908 43.5364L5.2287 43.5434L5.21751 43.5491L5.1271 43.3707ZM7.16337 45.7788L7.32439 45.6597L7.33047 45.6689L7.16337 45.7788ZM7.07852 46.5529L6.93614 46.4124L6.95009 46.3983L6.96654 46.3871L7.07852 46.5529ZM6.31493 46.3808L6.48203 46.2709L6.48882 46.2813L6.49429 46.2924L6.31493 46.3808ZM4.87257 44.0587L5.01495 43.9183L5.03454 43.9381L5.04795 43.9626L4.87257 44.0587ZM12.7631 20.8375L12.8751 20.6718L12.8915 20.6829L12.9055 20.6971L12.7631 20.8375ZM12.7631 21.6116L12.6207 21.4711L12.6347 21.457L12.6511 21.4458L12.7631 21.6116ZM11.9995 20.6655L11.8557 20.5265L11.9147 20.4655H11.9995V20.6655ZM4.10896 42.0806L4.29877 42.0176L4.29895 42.0181L4.10896 42.0806ZM4.78771 42.5106L4.85174 42.7001L4.82059 42.7106H4.78771V42.5106ZM5.12709 41.8226L4.9371 41.8851L4.9369 41.8845L5.12709 41.8226ZM15.563 18.3434L15.3959 18.4533L15.563 18.3434ZM14.7994 18.2574L14.657 18.1169L14.6709 18.1028L14.6874 18.0917L14.7994 18.2574ZM15.4781 19.1174L15.3491 18.9646L15.3572 18.9577L15.3661 18.9517L15.4781 19.1174ZM14.1206 20.3215L13.978 20.1808L13.9858 20.1737L14.1206 20.3215ZM13.357 20.3215L13.2146 20.4619L13.2008 20.4479L13.1899 20.4314L13.357 20.3215ZM13.357 19.5474L13.2144 19.4068L13.2222 19.3997L13.357 19.5474ZM14.5111 18.5154L14.3789 18.3651L14.385 18.3602L14.5111 18.5154ZM14.5112 18.5153L14.6466 18.663L14.6373 18.6705L14.5112 18.5153ZM14.5112 18.5152L14.3761 18.3678L14.3792 18.3651L14.5112 18.5152ZM54.0824 12.0651L53.8947 12.1345L53.8925 12.1275L54.0824 12.0651ZM54.5067 7.24882L54.3273 7.16034L54.3328 7.14925L54.3396 7.13892L54.5067 7.24882ZM57.7469 16.1333L57.638 16.3011L57.7469 16.1333ZM58.0701 16.3653L57.9278 16.5057L57.9051 16.4827L57.8908 16.4538L58.0701 16.3653ZM58.8337 16.1073L59.0131 16.1957L59.0131 16.1957L58.8337 16.1073ZM58.5792 15.3332L58.4672 15.4989L58.3792 15.4395V15.3332H58.5792ZM58.357 15.1784L58.2507 15.3479L58.2461 15.3448L58.357 15.1784ZM58.357 15.1784L58.4633 15.0089L58.468 15.012L58.357 15.1784ZM55.1854 11.721L54.9976 11.7897L54.9968 11.7875L55.1854 11.721ZM55.5248 7.76484L55.3454 7.67637L55.3509 7.66528L55.3577 7.65494L55.5248 7.76484ZM55.2703 6.9908L55.3822 6.82509L55.3823 6.82509L55.2703 6.9908ZM52.6401 7.07679L52.4647 6.98067L52.4685 6.97362L52.473 6.9669L52.6401 7.07679ZM52.4704 6.30275L52.5824 6.13704L52.5824 6.13704L52.4704 6.30275ZM51.6219 13.4411L51.4314 13.5021L51.4311 13.501L51.6219 13.4411ZM55.949 18.2574V18.0574H56.0102L56.061 18.0917L55.949 18.2574ZM56.2035 19.0314L56.3829 19.1199H56.3829L56.2035 19.0314ZM55.4399 19.2894L55.5296 19.1106L55.5591 19.1255L55.5823 19.149L55.4399 19.2894ZM55.4264 19.2826L55.5158 19.1037L55.5161 19.1039L55.4264 19.2826ZM50.5189 13.7851L50.3285 13.8463L50.3276 13.8432L50.5189 13.7851ZM51.6219 6.47476L51.4474 6.37717L51.4606 6.35356L51.4795 6.3343L51.6219 6.47476ZM10.0682 18.8126C11.6023 17.0848 13.2221 15.5291 14.9279 14.1458L15.1799 14.4565C13.4919 15.8254 11.8877 17.3658 10.3673 19.0782L10.0682 18.8126ZM0.854996 41.664C0.341362 34.0277 3.42568 26.3229 10.0679 18.8129L10.3676 19.0779C3.77409 26.5327 0.749596 34.1367 1.25409 41.6372L0.854996 41.664ZM8.80896 58.31C7.78053 57.3543 1.53934 51.2892 0.855049 41.6648L1.25404 41.6364C1.92725 51.1049 8.07338 57.0804 9.08123 58.0169L8.80896 58.31ZM20.1446 69.2C18.843 69.2 16.7206 68.914 14.5569 67.3897C12.3919 65.8644 10.2058 63.1136 8.75336 58.2203L9.13683 58.1065C10.5691 62.9318 12.7101 65.5992 14.7873 67.0627C16.8659 68.527 18.9008 68.8 20.1446 68.8V69.2ZM21.4173 68.914C21.4506 69.1112 21.4505 69.1112 21.4505 69.1112C21.4505 69.1112 21.4505 69.1112 21.4505 69.1112C21.4504 69.1112 21.4503 69.1112 21.4503 69.1112C21.4502 69.1113 21.45 69.1113 21.4498 69.1113C21.4494 69.1114 21.4489 69.1115 21.4483 69.1116C21.4471 69.1118 21.4453 69.1121 21.4431 69.1124C21.4387 69.1131 21.4323 69.1141 21.4241 69.1154C21.4076 69.1179 21.3836 69.1214 21.3526 69.1256C21.2906 69.134 21.2006 69.1451 21.0865 69.1561C20.8584 69.1781 20.5338 69.2 20.1446 69.2V68.8C20.519 68.8 20.8307 68.7789 21.048 68.7579C21.1567 68.7474 21.2417 68.737 21.299 68.7292C21.3276 68.7254 21.3494 68.7222 21.3637 68.72C21.3709 68.7189 21.3762 68.718 21.3796 68.7175C21.3813 68.7172 21.3825 68.717 21.3832 68.7169C21.3836 68.7169 21.3838 68.7168 21.3839 68.7168C21.384 68.7168 21.384 68.7168 21.384 68.7168C21.384 68.7168 21.384 68.7168 21.384 68.7168C21.384 68.7168 21.384 68.7168 21.384 68.7168C21.384 68.7168 21.3839 68.7168 21.4173 68.914ZM22.0315 68.4604C21.9883 68.5916 21.9379 68.7258 21.8538 68.8394C21.7644 68.9602 21.6449 69.0482 21.4813 69.1035L21.3532 68.7245C21.4441 68.6938 21.4943 68.6528 21.5322 68.6015C21.5754 68.5432 21.6098 68.4623 21.6515 68.3355L22.0315 68.4604ZM21.6774 67.6175C21.8053 67.6824 21.9192 67.8024 21.989 67.944C22.0604 68.0886 22.0934 68.2721 22.0315 68.4604L21.6515 68.3355C21.6744 68.2658 21.665 68.1913 21.6303 68.1209C21.5941 68.0475 21.5383 67.9955 21.4965 67.9743L21.6774 67.6175ZM17.8838 60.2162C18.0119 62.4676 18.0974 63.842 18.5767 64.8965C19.0472 65.9315 19.9103 66.6793 21.6807 67.6193L21.4931 67.9726C19.7001 67.0205 18.739 66.2202 18.2126 65.0621C17.695 63.9235 17.6108 62.4597 17.4844 60.2389L17.8838 60.2162ZM17.8516 59.6834C17.8625 59.8663 17.8731 60.0435 17.8837 60.2152L17.4845 60.2399C17.4738 60.0676 17.4632 59.8901 17.4523 59.7072L17.8516 59.6834ZM17.8519 59.6953V59.6953H17.4519V59.6953H17.8519ZM17.4585 54.9578C17.6819 56.8454 17.775 58.4026 17.8516 59.6833L17.4523 59.7072C17.3758 58.4269 17.2832 56.8799 17.0613 55.0048L17.4585 54.9578ZM25.9538 44.4267C25.7592 44.4662 23.3924 45.0597 21.1962 46.6711C19.0077 48.2768 17.0023 50.8797 17.4586 54.959L17.0611 55.0035C16.5842 50.7404 18.6937 48.0111 20.9596 46.3486C23.2176 44.6918 25.6446 44.0813 25.8743 44.0347L25.9538 44.4267ZM26.5382 43.7147C26.5382 44.086 26.2843 44.3167 25.978 44.4202L25.85 44.0412C26.0528 43.9727 26.1382 43.8594 26.1382 43.7147H26.5382ZM26.1741 42.9343C26.302 42.9991 26.416 43.1191 26.4858 43.2607C26.5571 43.4053 26.5902 43.5888 26.5282 43.7772L26.1482 43.6522C26.1712 43.5825 26.1618 43.508 26.1271 43.4376C26.0908 43.3642 26.0351 43.3122 25.9933 43.2911L26.1741 42.9343ZM9.08612 45.0981C10.1555 44.361 12.6158 42.8208 15.7111 41.9631C18.8081 41.105 22.5569 40.9262 26.1808 42.9378L25.9866 43.2875C22.4835 41.3429 18.8509 41.5082 15.8179 42.3486C12.7832 43.1895 10.3649 44.7025 9.31313 45.4274L9.08612 45.0981ZM14.5757 36.3094C14.1589 36.6052 12.4778 37.8834 11.0937 39.5734C9.69773 41.2779 8.66569 43.3243 9.38621 45.1908L9.01305 45.3348C8.20636 43.2451 9.38028 41.0342 10.7842 39.32C12.1999 37.5914 13.9126 36.2895 14.3443 35.9832L14.5757 36.3094ZM26.3056 33.5012C22.4841 34.5342 18.5776 35.4811 14.5013 36.342L14.4187 35.9506C18.4874 35.0914 22.3867 34.1462 26.2012 33.1151L26.3056 33.5012ZM25.7789 39.5951C25.6803 38.8256 25.3004 35.875 26.0613 33.2524L26.4455 33.3639C25.7103 35.8975 26.0767 38.7716 26.1757 39.5443L25.7789 39.5951ZM25.779 39.5958L25.779 39.5956L26.1756 39.5438L26.1756 39.5441L25.779 39.5958ZM25.7989 39.7585C25.7989 39.7635 25.7992 39.7636 25.7982 39.7536C25.7975 39.7454 25.7962 39.734 25.7944 39.7188C25.7908 39.6883 25.7856 39.6475 25.7789 39.5954L26.1757 39.5445C26.1823 39.5958 26.1878 39.639 26.1917 39.672C26.1949 39.6996 26.1989 39.734 26.1989 39.7585H25.7989ZM25.959 40.0404C25.9128 39.9701 25.882 39.9248 25.8565 39.8989L26.1412 39.618C26.2006 39.6782 26.2546 39.7618 26.2932 39.8206L25.959 40.0404ZM26.111 40.243C26.0517 40.1828 25.9977 40.0991 25.959 40.0404L26.2932 39.8206C26.3394 39.8909 26.3703 39.9362 26.3958 39.9621L26.111 40.243ZM26.5928 40.3885C26.5515 40.3885 26.4721 40.3889 26.3898 40.375C26.3119 40.3618 26.1977 40.3308 26.111 40.243L26.3958 39.9621C26.3939 39.9602 26.407 39.9722 26.4564 39.9806C26.5013 39.9881 26.5492 39.9885 26.5928 39.9885V40.3885ZM26.6776 40.3885H26.5928V39.9885H26.6776V40.3885ZM33.0592 31.3984C32.7605 32.2202 31.9501 34.2962 30.8391 36.2453C30.2837 37.2196 29.6494 38.1692 28.9617 38.9157C28.2773 39.6587 27.5206 40.2217 26.7174 40.3845L26.6379 39.9925C27.3194 39.8543 28.0051 39.3638 28.6675 38.6447C29.3268 37.9291 29.9439 37.0081 30.4916 36.0473C31.5865 34.1262 32.3881 32.074 32.6833 31.2617L33.0592 31.3984ZM48.1381 25.8372C43.3827 27.9031 38.3691 29.8844 32.9289 31.5216L32.8136 31.1385C38.2336 29.5075 43.2316 27.5326 47.9788 25.4703L48.1381 25.8372ZM48.7096 30.5025C48.5401 29.4715 48.2009 27.495 47.8619 25.6907L48.255 25.6168C48.5947 27.4247 48.9344 29.4044 49.1043 30.4376L48.7096 30.5025ZM49.2671 31.0895C48.9288 30.9752 48.8134 30.7326 48.7275 30.5585L49.0863 30.3815C49.1701 30.5515 49.2244 30.6529 49.3951 30.7106L49.2671 31.0895ZM49.5008 31.1H49.3311V30.7H49.5008V31.1ZM50.1044 30.7305C49.9816 30.9794 49.7366 31.1 49.5008 31.1V30.7C49.6044 30.7 49.6987 30.6487 49.7457 30.5535L50.1044 30.7305ZM53.0077 23.3606C52.6652 25.7038 51.8081 28.4915 50.0844 30.7629L49.7657 30.5211C51.4358 28.3203 52.2756 25.6038 52.6119 23.3027L53.0077 23.3606ZM71.9792 10.3812C71.2741 11.1478 65.8713 17.018 52.8993 23.5105L52.7202 23.1528C65.6422 16.6854 71.0071 10.8473 71.6848 10.1104L71.9792 10.3812ZM71.9837 10.3762L71.9837 10.3762L71.6803 10.1155L71.6803 10.1155L71.9837 10.3762ZM71.9789 10.3815L71.9788 10.3817L71.6852 10.11L71.6854 10.1098L71.9789 10.3815ZM72.0422 10.3134C72.0336 10.3221 72.0145 10.3429 71.9794 10.381L71.6849 10.1103C71.7167 10.0757 71.7425 10.0476 71.7574 10.0325L72.0422 10.3134ZM71.9846 10.087C72.1846 10.087 72.1846 10.0871 72.1846 10.0872C72.1846 10.0872 72.1846 10.0873 72.1846 10.0873C72.1846 10.0875 72.1846 10.0876 72.1846 10.0878C72.1846 10.088 72.1846 10.0883 72.1846 10.0886C72.1846 10.0892 72.1846 10.0898 72.1846 10.0904C72.1846 10.0916 72.1846 10.093 72.1845 10.0945C72.1844 10.0975 72.1842 10.1009 72.184 10.1047C72.1834 10.1123 72.1825 10.1219 72.1807 10.1328C72.1772 10.1538 72.1699 10.1849 72.1534 10.2184C72.1365 10.2527 72.1079 10.2934 72.0608 10.3252C72.0124 10.358 71.9566 10.373 71.8998 10.373V9.97296C71.8854 9.97296 71.8614 9.97721 71.8369 9.99382C71.8137 10.0095 71.801 10.0287 71.7947 10.0415C71.7887 10.0535 71.7868 10.0631 71.786 10.0679C71.7855 10.0709 71.7852 10.0737 71.785 10.0766C71.7849 10.0781 71.7848 10.0797 71.7847 10.0814C71.7847 10.0822 71.7847 10.0831 71.7847 10.084C71.7846 10.0845 71.7846 10.085 71.7846 10.0855C71.7846 10.0857 71.7846 10.0859 71.7846 10.0862C71.7846 10.0863 71.7846 10.0864 71.7846 10.0866C71.7846 10.0866 71.7846 10.0867 71.7846 10.0868C71.7846 10.0869 71.7846 10.087 71.9846 10.087ZM72.1846 9.91495V10.087H71.7846V9.91495H72.1846ZM67.7091 4.64744C68.5376 4.86845 69.7141 5.37554 70.6555 6.22992C71.6015 7.08855 72.3175 8.30675 72.184 9.93134L71.7853 9.89856C71.9063 8.42699 71.2647 7.32306 70.3867 6.52612C69.5039 5.72491 68.3896 5.24295 67.606 5.03393L67.7091 4.64744ZM67.5455 4.61614C67.5926 4.62535 67.6281 4.63228 67.6525 4.63693C67.6649 4.63927 67.6734 4.64084 67.6788 4.64176C67.6815 4.64224 67.6823 4.64234 67.6818 4.64227C67.6815 4.64223 67.6798 4.64199 67.6773 4.64172C67.6764 4.64162 67.6683 4.64069 67.6576 4.64069V5.04069C67.6461 5.04069 67.6369 5.03968 67.6345 5.03942C67.6306 5.039 67.6271 5.03852 67.6247 5.03818C67.6199 5.03749 67.615 5.03667 67.6107 5.03593C67.6019 5.03442 67.5908 5.03234 67.5779 5.02991C67.5521 5.025 67.5153 5.01781 67.4688 5.00871L67.5455 4.61614ZM46.4347 3.26496C57.3549 2.62325 66.2859 4.3698 67.5455 4.61614L67.4688 5.00871C66.2207 4.76463 57.3284 3.0255 46.4581 3.66427L46.4347 3.26496ZM36.9031 4.47287C40.2242 3.78231 43.4585 3.43736 46.4348 3.26495L46.458 3.66428C43.4952 3.8359 40.2813 4.17898 36.9845 4.86449L36.9031 4.47287ZM18.7353 0.980947C18.9767 1.1571 19.3709 1.34291 19.9003 1.53256C20.426 1.72088 21.0711 1.90821 21.804 2.0921C23.2695 2.45982 25.0746 2.81089 26.9548 3.12764C30.7146 3.76106 34.7613 4.255 36.9632 4.46962L36.9244 4.86774C34.7144 4.65233 30.6584 4.15723 26.8883 3.52208C25.0035 3.20454 23.1868 2.85145 21.7066 2.48007C20.9667 2.29441 20.3079 2.10346 19.7654 1.90913C19.2267 1.71612 18.7884 1.51491 18.4995 1.30405L18.7353 0.980947ZM17.933 0.878097C18.1618 0.76217 18.5155 0.754476 18.7598 1.00204L18.475 1.28295C18.3798 1.1865 18.2245 1.17881 18.1139 1.23489L17.933 0.878097ZM17.4841 1.57252C17.4841 1.4241 17.508 1.27484 17.5881 1.14504C17.6708 1.01092 17.7984 0.921436 17.9594 0.867016L18.0875 1.24597C17.994 1.27755 17.9519 1.31708 17.9286 1.35497C17.9025 1.39717 17.8841 1.46293 17.8841 1.57252H17.4841ZM17.4842 1.58285L17.4841 1.57442L17.8841 1.57062L17.8842 1.57904L17.4842 1.58285ZM12.7588 13.0901C15.1423 11.9025 16.3345 9.14194 16.9242 6.5788C17.5112 4.02782 17.4859 1.7395 17.4842 1.58315L17.8842 1.57874C17.886 1.7457 17.9116 4.0713 17.3141 6.66849C16.7193 9.25352 15.4917 12.1754 12.9371 13.4481L12.7588 13.0901ZM12.4034 13.9336C12.3415 13.7453 12.3745 13.5618 12.4459 13.4172C12.5157 13.2756 12.6296 13.1556 12.7575 13.0907L12.9384 13.4475C12.8966 13.4687 12.8408 13.5207 12.8046 13.5941C12.7699 13.6645 12.7605 13.739 12.7834 13.8087L12.4034 13.9336ZM13.1025 14.5012C12.9326 14.5012 12.7611 14.4444 12.6287 14.34C12.494 14.2338 12.3934 14.0719 12.3934 13.8712H12.7934C12.7934 13.9284 12.8201 13.9815 12.8763 14.0259C12.9347 14.0719 13.0179 14.1012 13.1025 14.1012V14.5012ZM15.0539 14.5012H13.1025V14.1012H15.0539V14.5012ZM18.9869 2.52616C18.9441 3.65359 18.7732 5.62661 18.2057 7.68891C17.639 9.7481 16.6709 11.9186 15.0186 13.4173L14.7498 13.121C16.3216 11.6955 17.2625 9.6088 17.82 7.58278C18.3767 5.55987 18.5451 3.61969 18.5872 2.511L18.9869 2.52616ZM33.441 5.55526C31.3185 5.29708 28.3875 4.90958 25.6144 4.42493C22.8484 3.94151 20.2169 3.35783 18.7074 2.70202L18.8667 2.33514C20.3267 2.9694 22.9132 3.54678 25.6833 4.03091C28.4464 4.51381 31.3696 4.90035 33.4893 5.15819L33.441 5.55526ZM29.5831 6.28531C30.8626 5.85299 32.1412 5.50743 33.413 5.16366L33.5174 5.5498C32.2438 5.89406 30.9771 6.23654 29.7112 6.66426L29.5831 6.28531ZM21.0275 4.50818C21.6353 4.95997 22.4725 5.30119 23.4005 5.55628C24.3259 5.81067 25.3279 5.97579 26.2551 6.08259C27.1817 6.18933 28.0299 6.23741 28.6466 6.25878C28.9548 6.26946 29.2049 6.27346 29.3776 6.27479C29.464 6.27546 29.531 6.27546 29.5763 6.27529C29.5989 6.27521 29.6161 6.27508 29.6275 6.27498C29.6333 6.27493 29.6376 6.27489 29.6404 6.27485C29.6418 6.27484 29.6428 6.27482 29.6435 6.27482C29.6438 6.27481 29.6441 6.27481 29.6442 6.27481C29.6443 6.27481 29.6443 6.2748 29.6444 6.2748C29.6444 6.2748 29.6444 6.2748 29.6472 6.47478C29.6499 6.67477 29.6499 6.67477 29.6498 6.67477C29.6498 6.67477 29.6497 6.67477 29.6495 6.67477C29.6493 6.67477 29.649 6.67478 29.6486 6.67478C29.6477 6.67479 29.6465 6.67481 29.645 6.67483C29.6418 6.67486 29.6372 6.67491 29.6311 6.67497C29.619 6.67507 29.6011 6.6752 29.5777 6.67529C29.531 6.67546 29.4625 6.67546 29.3745 6.67478C29.1986 6.67342 28.9449 6.66936 28.6327 6.65854C28.0085 6.63691 27.1492 6.58823 26.2093 6.47996C25.2699 6.37175 24.2462 6.2036 23.2944 5.94197C22.3452 5.68103 21.4538 5.32347 20.7889 4.8292L21.0275 4.50818ZM19.9775 4.7308C20.2015 4.39012 20.6633 4.2618 21.0202 4.50298L20.7962 4.8344C20.644 4.73156 20.427 4.77525 20.3117 4.9506L19.9775 4.7308ZM20.2023 5.78045C19.8654 5.55277 19.7423 5.08846 19.9775 4.7308L20.3117 4.9506C20.2075 5.10897 20.2541 5.33269 20.4262 5.44903L20.2023 5.78045ZM26.916 7.70618C25.8474 7.61953 24.6055 7.44609 23.4146 7.14158C22.226 6.83767 21.0753 6.39997 20.1985 5.77785L20.43 5.45163C21.2501 6.03357 22.3478 6.45592 23.5137 6.75404C24.6772 7.05156 25.8958 7.22214 26.9483 7.30749L26.916 7.70618ZM22.6843 9.22054C24.0478 8.52947 25.4103 7.92534 26.8551 7.32227L27.0092 7.69141C25.5693 8.2924 24.2167 8.89233 22.8652 9.57733L22.6843 9.22054ZM19.8044 7.48573C20.1561 8.04028 20.7729 8.44992 21.3847 8.73373C21.9935 9.01613 22.5702 9.16155 22.8081 9.20173L22.7414 9.59614C22.4702 9.55032 21.8591 9.39472 21.2164 9.09659C20.5768 8.79987 19.8785 8.34947 19.4666 7.69996L19.8044 7.48573ZM18.7599 7.25512C19.1168 7.01394 19.5785 7.14227 19.8026 7.48294L19.4684 7.70274C19.3531 7.52739 19.1361 7.48371 18.9839 7.58654L18.7599 7.25512ZM18.5351 8.30477C18.2999 7.94711 18.423 7.48281 18.7599 7.25512L18.9839 7.58654C18.8117 7.70288 18.7652 7.92661 18.8693 8.08498L18.5351 8.30477ZM21.2572 10.3583C20.3953 10.0088 19.2471 9.38738 18.5351 8.30477L18.8693 8.08498C19.5148 9.06648 20.5726 9.64908 21.4075 9.98763L21.2572 10.3583ZM18.5983 11.5502C19.4463 11.0344 20.2982 10.5163 21.2356 9.99795L21.4292 10.348C20.5 10.8617 19.655 11.3757 18.8061 11.8919L18.5983 11.5502ZM17.8809 10.9533C18.3969 11.302 18.6373 11.4639 18.7926 11.5427L18.6118 11.8995C18.4277 11.8062 18.1591 11.6241 17.6569 11.2847L17.8809 10.9533ZM16.8382 11.1811C17.0623 10.8405 17.524 10.7121 17.8809 10.9533L17.6569 11.2847C17.5048 11.1819 17.2877 11.2256 17.1724 11.4009L16.8382 11.1811ZM17.063 12.2308C16.7261 12.0031 16.603 11.5388 16.8382 11.1811L17.1724 11.4009C17.0683 11.5593 17.1148 11.783 17.287 11.8994L17.063 12.2308ZM17.5937 12.5875C17.4238 12.5014 17.2275 12.403 17.0326 12.2055L17.3174 11.9246C17.462 12.0712 17.605 12.1448 17.7745 12.2307L17.5937 12.5875ZM16.9664 12.682C17.1558 12.5327 17.356 12.3745 17.5802 12.2382L17.788 12.58C17.588 12.7016 17.4064 12.8445 17.214 12.9961L16.9664 12.682ZM16.9652 12.6829L16.9653 12.6829L17.2152 12.9952L17.2151 12.9953L16.9652 12.6829ZM16.3923 13.0983C16.5924 12.9766 16.774 12.8337 16.9663 12.6821L17.214 12.9962C17.0245 13.1455 16.8243 13.3037 16.6002 13.44L16.3923 13.0983ZM14.8842 13.0691H16.4963V13.4691H14.8842V13.0691ZM47.5767 21.2131C47.9174 20.8677 48.61 20.1867 49.4054 19.6896C50.1865 19.2016 51.1456 18.8423 51.971 19.2852L51.7819 19.6377C51.1649 19.3066 50.3848 19.5493 49.6174 20.0288C48.8644 20.4993 48.1995 21.1513 47.8615 21.494L47.5767 21.2131ZM48.2053 23.1279C48.0375 22.5323 47.7885 21.8635 47.547 21.4554L47.8912 21.2517C48.1587 21.7036 48.4188 22.4109 48.5903 23.0194L48.2053 23.1279ZM49.1614 21.1815C49.3556 21.2294 49.3556 21.2295 49.3556 21.2295C49.3556 21.2295 49.3556 21.2295 49.3556 21.2296C49.3556 21.2296 49.3555 21.2297 49.3555 21.2298C49.3555 21.23 49.3554 21.2303 49.3553 21.2306C49.3552 21.2312 49.3549 21.2321 49.3547 21.2332C49.3541 21.2355 49.3533 21.2388 49.3522 21.2429C49.3501 21.2513 49.3469 21.2634 49.3428 21.279C49.3345 21.3101 49.3222 21.3552 49.3059 21.4117C49.2732 21.5247 49.2244 21.6841 49.1594 21.8708C49.0299 22.2429 48.8339 22.7296 48.5699 23.1755L48.2257 22.9718C48.4709 22.5576 48.6567 22.0983 48.7817 21.7393C48.8439 21.5605 48.8906 21.4081 48.9216 21.3007C48.937 21.2471 48.9486 21.2048 48.9562 21.1761C48.96 21.1618 48.9629 21.1509 48.9647 21.1437C48.9656 21.1402 48.9663 21.1375 48.9667 21.1358C48.9669 21.1349 48.9671 21.1343 48.9672 21.134C48.9672 21.1338 48.9672 21.1337 48.9673 21.1336C48.9673 21.1336 48.9673 21.1336 48.9673 21.1336C48.9673 21.1336 48.9673 21.1336 48.9673 21.1336C48.9673 21.1336 48.9673 21.1336 49.1614 21.1815ZM49.7762 20.941C49.6445 20.8965 49.4155 20.9865 49.3556 21.2294L48.9673 21.1336C49.077 20.6885 49.5268 20.4345 49.9042 20.562L49.7762 20.941ZM50.085 21.27C50.0012 21.1001 49.9469 20.9987 49.7762 20.941L49.9042 20.562C50.2425 20.6763 50.3579 20.919 50.4438 21.0931L50.085 21.27ZM50.4644 21.0955V21.1815H50.0644V21.0955H50.4644ZM50.8583 20.7795C50.7197 20.7795 50.6205 20.8148 50.5601 20.8639C50.5054 20.9082 50.4644 20.9778 50.4644 21.0955H50.0644C50.0644 20.8693 50.1507 20.6808 50.3081 20.5532C50.4598 20.4302 50.6576 20.3795 50.8583 20.3795V20.7795ZM51.1732 21.1336C51.2005 21.0229 51.1724 20.9406 51.1224 20.8843C51.0694 20.8247 50.9781 20.7795 50.8583 20.7795V20.3795C51.078 20.3795 51.2835 20.4633 51.4215 20.6187C51.5624 20.7774 51.6191 20.9962 51.5616 21.2294L51.1732 21.1336ZM49.2676 27.5837C50.1622 26.5945 50.642 25.0499 50.8951 23.7032C51.1468 22.3639 51.1674 21.2587 51.1674 21.1815H51.5674C51.5674 21.2764 51.5456 22.4073 51.2882 23.7771C51.0322 25.1396 50.5363 26.7771 49.5643 27.852L49.2676 27.5837ZM49.2631 27.9714C49.249 27.9025 49.2344 27.8309 49.2198 27.7566L49.6122 27.6792C49.6265 27.7519 49.6409 27.8223 49.655 27.8913L49.2631 27.9714ZM49.2631 27.9711L49.263 27.9706L49.6552 27.8921L49.6553 27.8926L49.2631 27.9711ZM49.2631 27.9713L49.2631 27.9711L49.6553 27.8926L49.6553 27.8928L49.2631 27.9713ZM49.3857 28.8359C49.3857 28.5749 49.3324 28.3105 49.2633 27.9721L49.6552 27.892C49.7225 28.2214 49.7857 28.527 49.7857 28.8359H49.3857ZM52.0765 19.4614C52.0765 20.6661 51.9943 25.3629 49.7552 28.942L49.4161 28.7299C51.589 25.2566 51.6765 20.6649 51.6765 19.4614H52.0765ZM48.9839 26.1636C49.7372 24.7129 49.9448 22.6897 50.0407 21.7439L50.4386 21.7843C50.3442 22.7155 50.1334 24.8178 49.3389 26.348L48.9839 26.1636ZM49.1566 25.3311C49.2289 25.6102 49.3082 25.9159 49.3588 26.2234L48.9641 26.2882C48.917 26.0017 48.8424 25.7134 48.7694 25.4314L49.1566 25.3311ZM49.1553 25.3262L49.1553 25.3263L48.7707 25.4362L48.7707 25.4361L49.1553 25.3262ZM49.0183 24.755C49.0529 24.9307 49.1026 25.1227 49.1566 25.331L48.7694 25.4313C48.7161 25.2258 48.6632 25.0218 48.6258 24.8324L49.0183 24.755ZM50.4606 21.569C50.4427 21.6808 50.3021 22.1776 50.058 22.8042C49.8117 23.4363 49.4523 24.2208 48.9876 24.906L48.6565 24.6815C49.098 24.0305 49.4448 23.2763 49.6853 22.6589C49.928 22.036 50.0549 21.5727 50.0656 21.5057L50.4606 21.569ZM50.0643 21.5157L50.0656 21.5039L50.4632 21.5473L50.4619 21.5591L50.0643 21.5157ZM50.4644 21.5256C50.4644 21.545 50.4617 21.5623 50.4606 21.569L50.0656 21.5057C50.0657 21.5053 50.0655 21.5064 50.0653 21.5087C50.0651 21.5099 50.0649 21.5118 50.0648 21.5144C50.0646 21.5168 50.0644 21.5207 50.0644 21.5256H50.4644ZM50.0411 21.7401C50.0495 21.6566 50.0572 21.5811 50.0643 21.5158L50.462 21.559C50.455 21.6226 50.4475 21.6966 50.439 21.7805L50.0411 21.7401ZM50.0409 21.7417L50.041 21.7404L50.439 21.7802L50.4389 21.7815L50.0409 21.7417ZM50.0407 21.7439L50.0409 21.7416L50.4389 21.7816L50.4387 21.7839L50.0407 21.7439ZM50.0407 21.7442L50.0407 21.744L50.4387 21.7838L50.4387 21.784L50.0407 21.7442ZM29.5067 32.17L31.2884 31.654L31.3997 32.0382L29.618 32.5542L29.5067 32.17ZM29.732 32.5621H29.5623V32.1621H29.732V32.5621ZM29.8814 32.9877C29.9038 32.9196 29.8959 32.8238 29.8496 32.7301C29.8033 32.6362 29.7331 32.5736 29.668 32.5516L29.7961 32.1726C29.9855 32.2366 30.1274 32.389 30.2084 32.5531C30.2894 32.7174 30.3239 32.9227 30.2614 33.1126L29.8814 32.9877ZM29.7865 33.1802C29.8141 33.119 29.8375 33.067 29.8556 33.0288C29.8646 33.0099 29.8736 32.9916 29.8819 32.9762C29.8858 32.9691 29.9027 32.9364 29.929 32.9097L30.2138 33.1906C30.2216 33.1827 30.2267 33.176 30.2291 33.1728C30.2318 33.1692 30.2335 33.1666 30.2342 33.1655C30.2355 33.1634 30.2355 33.1633 30.2338 33.1664C30.2305 33.1726 30.225 33.1834 30.217 33.2003C30.201 33.234 30.1795 33.2817 30.1512 33.3445L29.7865 33.1802ZM26.6434 37.4477C28.4709 36.0939 29.4701 33.8827 29.7865 33.1802L30.1512 33.3445C29.8365 34.0431 28.8021 36.3464 26.8815 37.7691L26.6434 37.4477ZM26.6123 38.4022C26.5892 38.171 26.5625 37.9037 26.5625 37.6084H26.9625C26.9625 37.8812 26.9871 38.1299 27.0103 38.3626L26.6123 38.4022ZM26.6473 38.8984C26.6473 38.7557 26.6314 38.5943 26.6123 38.4022L27.0103 38.3626C27.0289 38.5492 27.0473 38.7319 27.0473 38.8984H26.6473ZM31.5297 31.9207C31.0612 33.0863 30.3784 34.6225 29.5869 35.9885C29.1912 36.6716 28.7661 37.3158 28.3247 37.8512C27.8849 38.3845 27.4197 38.8209 26.9411 39.0751L26.7535 38.7218C27.1658 38.5029 27.5915 38.1116 28.0161 37.5967C28.4389 37.0839 28.8517 36.4596 29.2408 35.788C30.019 34.4449 30.6937 32.928 31.1585 31.7715L31.5297 31.9207ZM28.3745 33.6522C28.537 33.7688 28.537 33.7688 28.537 33.7688C28.537 33.7688 28.5369 33.7688 28.5369 33.7689C28.5369 33.7689 28.5369 33.769 28.5368 33.769C28.5367 33.7692 28.5365 33.7694 28.5364 33.7697C28.536 33.7702 28.5354 33.771 28.5347 33.7719C28.5333 33.7739 28.5313 33.7767 28.5286 33.7805C28.5232 33.7879 28.5153 33.7988 28.5049 33.8128C28.4842 33.841 28.4539 33.882 28.415 33.9337C28.337 34.0372 28.2244 34.184 28.0851 34.3578C27.8068 34.705 27.4204 35.1622 26.9897 35.5987L26.7049 35.3178C27.1227 34.8943 27.4998 34.4485 27.773 34.1076C27.9094 33.9374 28.0195 33.7939 28.0954 33.6931C28.1333 33.6428 28.1627 33.6031 28.1824 33.5762C28.1923 33.5627 28.1998 33.5524 28.2048 33.5456C28.2073 33.5422 28.2091 33.5396 28.2103 33.5379C28.2109 33.5371 28.2114 33.5365 28.2117 33.5361C28.2118 33.5359 28.2119 33.5357 28.2119 33.5357C28.212 33.5356 28.212 33.5356 28.212 33.5356C28.212 33.5356 28.212 33.5356 28.212 33.5356C28.212 33.5356 28.212 33.5356 28.3745 33.6522ZM28.2688 32.7747C28.4717 32.8432 28.5977 33.0124 28.6429 33.1958C28.688 33.3786 28.6572 33.5863 28.5416 33.7621L28.2074 33.5423C28.2615 33.46 28.2731 33.3667 28.2546 33.2916C28.2361 33.2169 28.1925 33.1711 28.1408 33.1536L28.2688 32.7747ZM28.12 32.8781C28.12 32.6781 28.1201 32.6781 28.1202 32.6781C28.1202 32.6781 28.1203 32.6781 28.1204 32.6781C28.1205 32.6781 28.1206 32.6781 28.1208 32.6781C28.1211 32.6781 28.1213 32.6781 28.1216 32.6782C28.1222 32.6782 28.1228 32.6782 28.1235 32.6782C28.1248 32.6782 28.1262 32.6782 28.1277 32.6783C28.1307 32.6784 28.1342 32.6786 28.1381 32.6788C28.1458 32.6794 28.1555 32.6804 28.1665 32.6823C28.1878 32.6859 28.2191 32.6934 28.2528 32.7105C28.2873 32.728 28.3276 32.7573 28.3587 32.8045C28.3905 32.8529 28.4048 32.9082 28.4048 32.9641H28.0048C28.0048 32.9771 28.0085 33.0001 28.0245 33.0243C28.0396 33.0474 28.0586 33.0605 28.072 33.0673C28.0845 33.0736 28.0946 33.0758 28.0999 33.0767C28.103 33.0772 28.1061 33.0776 28.1092 33.0778C28.1107 33.0779 28.1124 33.078 28.1142 33.078C28.1151 33.0781 28.116 33.0781 28.1169 33.0781C28.1174 33.0781 28.1179 33.0781 28.1184 33.0781C28.1187 33.0781 28.1189 33.0781 28.1192 33.0781C28.1193 33.0781 28.1194 33.0781 28.1196 33.0781C28.1196 33.0781 28.1197 33.0781 28.1198 33.0781C28.1199 33.0781 28.12 33.0781 28.12 32.8781ZM28.7355 32.8956C28.5466 32.9594 28.3478 33.0267 28.1691 33.072L28.0708 32.6843C28.2315 32.6436 28.4145 32.5818 28.6074 32.5167L28.7355 32.8956ZM28.7417 32.8934L28.7417 32.8934L28.6012 32.5189L28.6013 32.5189L28.7417 32.8934ZM29.2721 32.728C29.1114 32.7687 28.9284 32.8304 28.7355 32.8956L28.6075 32.5166C28.7964 32.4528 28.9951 32.3855 29.1738 32.3403L29.2721 32.728ZM28.8533 32.7921C28.8533 32.6847 28.9051 32.5988 28.9455 32.5442C28.9874 32.4875 29.0407 32.4341 29.0806 32.3937L29.3653 32.6746C29.3203 32.7202 29.2888 32.7527 29.2671 32.7821C29.2439 32.8134 29.2533 32.8135 29.2533 32.7921H28.8533ZM28.6732 33.0549C28.7287 32.9457 28.7756 32.8535 28.8114 32.7889C28.8289 32.7574 28.8471 32.7262 28.8647 32.7012C28.8731 32.6893 28.8862 32.6717 28.9034 32.6549C28.9121 32.6465 28.9266 32.6335 28.9467 32.6216C28.9654 32.6105 29.0028 32.5921 29.0533 32.5921V32.9921C29.101 32.9921 29.1352 32.9748 29.1506 32.9657C29.1672 32.9559 29.1779 32.946 29.1824 32.9416C29.1913 32.9329 29.1947 32.9273 29.1919 32.9313C29.1872 32.938 29.1774 32.9537 29.1613 32.9828C29.1298 33.0397 29.0867 33.1242 29.0296 33.2363L28.6732 33.0549ZM26.6201 36.0919C27.6653 35.0323 28.3496 33.6905 28.6732 33.0549L29.0296 33.2363C28.707 33.8702 27.9986 35.264 26.9048 36.3728L26.6201 36.0919ZM27.0022 35.8778C26.9805 36.0097 26.9625 36.1224 26.9625 36.2323H26.5625C26.5625 36.0842 26.5868 35.939 26.6075 35.8129L27.0022 35.8778ZM27.0022 35.8782L27.0021 35.8782L26.6076 35.8125L26.6076 35.8124L27.0022 35.8782ZM27.0473 35.4583C27.0473 35.6064 27.023 35.7516 27.0022 35.8777L26.6075 35.8129C26.6292 35.681 26.6473 35.5682 26.6473 35.4583H27.0473ZM16.7055 60.3641C16.8298 62.2996 16.9198 63.6796 17.284 64.8006C17.6426 65.9043 18.27 66.7624 19.4967 67.6328L19.2652 67.959C17.9789 67.0463 17.2925 66.1211 16.9036 64.9242C16.5204 63.7447 16.4294 62.3068 16.3063 60.3897L16.7055 60.3641ZM16.6959 60.2147L16.7055 60.3641L16.3063 60.3897L16.2967 60.2404L16.6959 60.2147ZM16.665 59.7034C16.6755 59.8792 16.6857 60.0497 16.6959 60.2152L16.2966 60.2398C16.2864 60.0739 16.2762 59.903 16.2657 59.7273L16.665 59.7034ZM16.6647 59.6997L16.665 59.7035L16.2657 59.7273L16.2654 59.7234L16.6647 59.6997ZM16.2705 55.0428C16.495 56.8634 16.588 58.4171 16.6647 59.6996L16.2654 59.7235C16.1887 58.441 16.0964 56.8986 15.8735 55.0918L16.2705 55.0428ZM24.2845 43.731C22.8586 44.2411 20.6413 45.3027 18.8887 47.1216C17.1418 48.9345 15.8545 51.5002 16.2707 55.0439L15.8734 55.0906C15.4412 51.41 16.784 48.7294 18.6006 46.8441C20.4114 44.9648 22.691 43.8763 24.1498 43.3544L24.2845 43.731ZM9.67983 46.0443C10.6243 45.3915 12.7428 44.1118 15.3875 43.2978C18.0315 42.484 21.2214 42.1297 24.2914 43.357L24.1429 43.7284C21.1889 42.5475 18.1003 42.8813 15.5051 43.6801C12.9107 44.4786 10.8293 45.7361 9.90726 46.3733L9.67983 46.0443ZM10.5597 47.5228C10.2246 47.0132 9.89333 46.5947 9.65117 46.3493L9.93592 46.0684C10.2028 46.3389 10.5503 46.7805 10.8939 47.303L10.5597 47.5228ZM18.278 44.5167C18.1686 44.5167 16.9775 44.5788 15.4784 44.9933C13.9789 45.4078 12.1938 46.1688 10.8714 47.5511L10.5823 47.2746C11.9749 45.8188 13.8381 45.0317 15.3718 44.6077C16.9059 44.1836 18.1329 44.1167 18.278 44.1167V44.5167ZM18.6719 44.8327C18.6719 44.7021 18.5246 44.5167 18.278 44.5167V44.1167C18.7102 44.1167 19.0719 44.4474 19.0719 44.8327H18.6719ZM18.3629 45.2348C18.4852 45.2348 18.6719 45.0893 18.6719 44.8327H19.0719C19.0719 45.2642 18.7495 45.6348 18.3629 45.6348V45.2348ZM11.1716 48.3116C12.4382 46.8949 14.2194 46.1285 15.6782 45.7154C17.1374 45.3021 18.3011 45.2348 18.3629 45.2348V45.6348C18.3655 45.6348 18.3501 45.6352 18.3102 45.6379C18.2737 45.6404 18.2214 45.6443 18.155 45.6504C18.0222 45.6626 17.8334 45.683 17.6009 45.7161C17.1358 45.7823 16.498 45.8989 15.7872 46.1002C14.3612 46.5041 12.6638 47.2428 11.4698 48.5782L11.1716 48.3116ZM11.7205 50.3849C11.5491 49.6901 11.3843 49.0258 11.1414 48.5334L11.5001 48.3565C11.7663 48.8961 11.9408 49.6079 12.1088 50.2891L11.7205 50.3849ZM15.6478 49.505C15.5757 49.505 15.0369 49.5253 14.3284 49.6626C13.6191 49.8 12.7547 50.0519 12.02 50.5071L11.8093 50.167C12.6018 49.6761 13.5191 49.412 14.2523 49.2699C14.986 49.1277 15.5503 49.105 15.6478 49.105V49.505ZM16.0417 49.821C16.0417 49.6903 15.8944 49.505 15.6478 49.505V49.105C16.08 49.105 16.4417 49.4357 16.4417 49.821H16.0417ZM15.7327 50.223C15.7729 50.223 15.8489 50.1899 15.927 50.0932C16.0025 49.9996 16.0417 49.8921 16.0417 49.821H16.4417C16.4417 50.008 16.3537 50.2014 16.2383 50.3444C16.1255 50.4842 15.9469 50.623 15.7327 50.623V50.223ZM11.9482 51.4806C12.4929 50.9744 13.2729 50.6628 13.9852 50.4768C14.7007 50.29 15.3752 50.223 15.7327 50.223V50.623C15.4114 50.623 14.7708 50.6851 14.0863 50.8638C13.3987 51.0433 12.6939 51.3337 12.2205 51.7736L11.9482 51.4806ZM11.4701 54.4028C11.8009 53.3968 11.8843 52.4732 11.8843 51.6271H12.2843C12.2843 52.5011 12.1981 53.4696 11.8501 54.5277L11.4701 54.4028ZM15.842 57.15C15.1514 56.9313 14.2486 56.5608 13.4307 56.1135C12.6214 55.671 11.8615 55.1353 11.493 54.5751L11.8272 54.3553C12.1375 54.8272 12.82 55.3236 13.6227 55.7626C14.4169 56.1969 15.2958 56.5574 15.9628 56.7687L15.842 57.15ZM16.0517 57.5849C16.0741 57.5169 16.0662 57.4211 16.0199 57.3274C15.9736 57.2335 15.9034 57.1708 15.8383 57.1488L15.9664 56.7699C16.1559 56.8339 16.2977 56.9863 16.3787 57.1504C16.4597 57.3147 16.4942 57.5199 16.4317 57.7099L16.0517 57.5849ZM15.7327 57.8774C15.758 57.8774 15.8216 57.8601 15.8952 57.8021C15.9649 57.7472 16.0235 57.6709 16.0517 57.5849L16.4317 57.7099C16.3751 57.882 16.2641 58.0207 16.1428 58.1162C16.0255 58.2087 15.877 58.2774 15.7327 58.2774V57.8774ZM15.563 57.8774H15.7327V58.2774H15.563V57.8774ZM11.3783 55.5288C12.0327 56.1922 13.0048 56.7608 13.8681 57.177C14.7313 57.5931 15.4603 57.8451 15.6121 57.8836L15.5138 58.2713C15.3263 58.2238 14.5705 57.9597 13.6944 57.5373C12.8184 57.115 11.7967 56.5225 11.0935 55.8098L11.3783 55.5288ZM10.8868 55.9679C10.9518 55.8362 11.0087 55.72 11.0459 55.6068L11.4259 55.7318C11.3783 55.8766 11.3079 56.0185 11.2456 56.1448L10.8868 55.9679ZM10.7065 56.3809C10.7541 56.2361 10.8245 56.0942 10.8869 55.9678L11.2456 56.1448C11.1806 56.2765 11.1237 56.3926 11.0865 56.5058L10.7065 56.3809ZM14.9691 62.6357C14.8302 62.7796 14.8302 62.7796 14.8302 62.7796C14.8301 62.7795 14.8301 62.7795 14.83 62.7794C14.8299 62.7793 14.8297 62.7791 14.8294 62.7788C14.8289 62.7784 14.8282 62.7777 14.8273 62.7768C14.8255 62.7751 14.8229 62.7725 14.8195 62.7692C14.8126 62.7625 14.8025 62.7526 14.7894 62.7397C14.7633 62.7139 14.725 62.6759 14.6763 62.6267C14.5788 62.5282 14.4393 62.3847 14.2701 62.2038C13.932 61.8421 13.4748 61.3299 12.9986 60.7279C12.0522 59.5313 11.0079 57.9521 10.7008 56.4843L11.0923 56.4024C11.379 57.7727 12.371 59.2897 13.3124 60.4797C13.7801 61.071 14.2297 61.5748 14.5624 61.9307C14.7286 62.1085 14.8655 62.2492 14.9606 62.3453C15.0081 62.3933 15.0452 62.4302 15.0703 62.4549C15.0828 62.4672 15.0923 62.4766 15.0987 62.4827C15.1018 62.4858 15.1042 62.4881 15.1058 62.4896C15.1065 62.4904 15.1071 62.4909 15.1074 62.4913C15.1076 62.4914 15.1077 62.4916 15.1078 62.4916C15.1079 62.4917 15.1079 62.4917 15.1079 62.4917C15.1079 62.4917 15.1079 62.4917 14.9691 62.6357ZM14.8571 63.244C14.9283 63.1958 14.96 63.1295 14.96 63.0549C14.96 62.9763 14.9235 62.8743 14.8267 62.7761L15.1114 62.4952C15.2692 62.6551 15.36 62.8541 15.36 63.0549C15.36 63.2599 15.2643 63.4516 15.0811 63.5754L14.8571 63.244ZM14.5448 63.3817C14.5971 63.3817 14.6547 63.3681 14.7091 63.3445C14.7643 63.3206 14.8053 63.2909 14.8267 63.2692L15.1114 63.5502C14.9918 63.6714 14.7719 63.7817 14.5448 63.7817V63.3817ZM14.343 63.3046C14.4441 63.3637 14.4805 63.3817 14.5448 63.3817V63.7817C14.3607 63.7817 14.2396 63.7075 14.141 63.6498L14.343 63.3046ZM14.211 63.2313C14.2626 63.2574 14.3068 63.2834 14.343 63.3046L14.141 63.6498C14.1041 63.6282 14.0696 63.6081 14.0302 63.5881L14.211 63.2313ZM14.2164 63.2231C14.2368 63.2432 14.2532 63.2593 14.263 63.2692L13.9782 63.5502C13.9711 63.5429 13.9574 63.5294 13.9357 63.508L14.2164 63.2231ZM10.2345 57.661C11.2647 60.3118 13.8125 62.8252 14.2164 63.2231L13.9357 63.508C13.5383 63.1166 10.9272 60.5478 9.86166 57.8059L10.2345 57.661ZM19.3608 67.9949C18.0582 67.8629 16.2777 67.4001 14.5218 65.9169C12.7668 64.4343 11.0519 61.9455 9.85587 57.7887L10.2403 57.6781C11.4199 61.7778 13.0988 64.1912 14.78 65.6113C16.4603 67.0307 18.1584 67.471 19.4011 67.5969L19.3608 67.9949ZM2.35714 41.4662C2.86169 49.5642 7.82681 55.1963 9.42301 56.7291L9.14595 57.0176C7.51806 55.4543 2.4715 49.7339 1.95791 41.491L2.35714 41.4662ZM11.3003 19.8526C4.87483 27.0515 1.85296 34.311 2.35703 41.4645L1.95802 41.4926C1.44396 34.1974 4.53091 26.8361 11.0019 19.5863L11.3003 19.8526ZM46.5442 4.69626C35.9566 5.38313 21.2604 8.47297 11.3016 19.8512L11.0006 19.5877C21.0651 8.08878 35.8948 4.9863 46.5183 4.2971L46.5442 4.69626ZM67.214 6.04025C65.98 5.79477 57.2495 4.05793 46.5432 4.69632L46.5194 4.29703C57.2764 3.65562 66.0462 5.4001 67.2921 5.64794L67.214 6.04025ZM67.403 6.07275C67.3915 6.07275 67.3822 6.07172 67.3797 6.07146C67.3757 6.07102 67.3722 6.07053 67.3698 6.07018C67.3649 6.06947 67.36 6.06863 67.3557 6.06787C67.3469 6.06633 67.3357 6.06422 67.3229 6.06175C67.2971 6.05678 67.2604 6.04948 67.214 6.04025L67.2921 5.64794C67.339 5.65727 67.3743 5.6643 67.3987 5.66901C67.411 5.67138 67.4195 5.67296 67.4248 5.67389C67.4275 5.67437 67.4282 5.67447 67.4276 5.67438C67.4274 5.67434 67.4256 5.67409 67.4231 5.67381C67.4221 5.6737 67.4139 5.67275 67.403 5.67275V6.07275ZM70.5989 8.99783C70.4417 7.92227 69.6736 7.19107 68.9006 6.72091C68.5164 6.48729 68.1389 6.32321 67.8523 6.21766C67.7091 6.16495 67.5896 6.12719 67.5044 6.10285C67.4617 6.09066 67.4284 6.08205 67.4056 6.07669C67.3941 6.07397 67.3864 6.07236 67.3821 6.07156C67.3712 6.06949 67.3839 6.07275 67.403 6.07275V5.67275C67.4275 5.67275 67.4511 5.67752 67.4564 5.67853C67.4684 5.68079 67.4823 5.68381 67.4972 5.68733C67.5274 5.69444 67.5669 5.70473 67.6142 5.71823C67.709 5.7453 67.838 5.78615 67.9905 5.84229C68.2951 5.95444 68.6971 6.12901 69.1084 6.37916C69.9262 6.87655 70.8125 7.69343 70.9947 8.93999L70.5989 8.99783ZM64.0566 10.9608C67.3186 8.43737 69.5894 8.41101 70.8525 8.7768L70.7412 9.16102C69.6286 8.83878 67.4875 8.81241 64.3013 11.2772L64.0566 10.9608ZM63.927 12.003C63.7237 11.6938 63.6864 11.2105 64.067 10.9533L64.2909 11.2847C64.1625 11.3715 64.1251 11.5763 64.2612 11.7832L63.927 12.003ZM64.5183 12.3511C64.2825 12.3511 64.0375 12.2304 63.9147 11.9815L64.2735 11.8046C64.3204 11.8997 64.4147 11.9511 64.5183 11.9511V12.3511ZM65.0001 12.2055C64.9134 12.2934 64.7992 12.3244 64.7213 12.3375C64.639 12.3514 64.5596 12.3511 64.5183 12.3511V11.9511C64.5619 11.9511 64.6098 11.9507 64.6547 11.9431C64.704 11.9348 64.7171 11.9228 64.7153 11.9246L65.0001 12.2055ZM70.3193 10.2797C69.4632 10.0431 67.6623 10.0143 64.9848 12.2194L64.7305 11.9107C67.4832 9.64362 69.4154 9.61485 70.4259 9.8942L70.3193 10.2797ZM52.7188 21.9495C63.3037 16.5418 68.6318 11.5668 70.2302 9.94651L70.515 10.2274C68.8893 11.8754 63.527 16.8769 52.9008 22.3057L52.7188 21.9495ZM53.0971 19.2645C53.1104 19.5595 53.1609 20.6828 53.0087 22.1482L52.6108 22.1069C52.76 20.6703 52.7104 19.5696 52.6975 19.2824L53.0971 19.2645ZM53.0946 19.2034C53.0946 19.2028 53.0946 19.2037 53.0947 19.2072C53.0948 19.2104 53.095 19.2147 53.0952 19.2202C53.0956 19.2314 53.0963 19.2459 53.0971 19.2645L52.6975 19.2824C52.696 19.2494 52.6946 19.2189 52.6946 19.2034H53.0946ZM52.7305 18.595C52.9776 18.7202 53.0946 18.9682 53.0946 19.2034H52.6946C52.6946 19.0947 52.642 18.9986 52.5497 18.9518L52.7305 18.595ZM46.358 20.809C46.6081 20.5276 47.5385 19.4793 48.7268 18.7475C49.9096 18.0191 51.4224 17.5636 52.7635 18.6161L52.5166 18.9308C51.3798 18.0386 50.0758 18.3866 48.9365 19.0881C47.8028 19.7863 46.9059 20.7946 46.657 21.0747L46.358 20.809ZM46.304 20.8691C46.304 20.8691 46.3043 20.8688 46.3052 20.8678C46.3061 20.8669 46.3073 20.8657 46.3088 20.864C46.3118 20.8608 46.3156 20.8565 46.3204 20.8512C46.3302 20.8404 46.3425 20.8264 46.358 20.809L46.657 21.0747C46.629 21.1063 46.6034 21.1352 46.5888 21.15L46.304 20.8691ZM46.304 21.838C46.1737 21.7059 46.1192 21.5215 46.1192 21.3535C46.1192 21.1856 46.1737 21.0012 46.304 20.8691L46.5888 21.15C46.5495 21.1899 46.5192 21.2635 46.5192 21.3535C46.5192 21.4436 46.5495 21.5172 46.5888 21.5571L46.304 21.838ZM47.356 24.6726C47.1865 24.0285 47.0186 23.4334 46.8414 22.9366C46.6624 22.4352 46.4809 22.0544 46.2919 21.8246L46.6009 21.5706C46.8362 21.8568 47.0364 22.293 47.2181 22.8022C47.4014 23.3159 47.5729 23.9249 47.7428 24.5708L47.356 24.6726ZM13.9107 34.9184C26.456 32.3406 37.7259 28.8185 47.4674 24.4393L47.6314 24.8041C37.8586 29.1974 26.5599 32.7276 13.9912 35.3102L13.9107 34.9184ZM13.6389 35.0598C13.7056 34.9922 13.7758 34.9552 13.8339 34.9355C13.8625 34.9259 13.8878 34.9206 13.9077 34.9177C13.9177 34.9162 13.9264 34.9154 13.9336 34.9149C13.9373 34.9146 13.9405 34.9145 13.9434 34.9144C13.9449 34.9143 13.9462 34.9143 13.9475 34.9143C13.9481 34.9143 13.9487 34.9143 13.9493 34.9143C13.9496 34.9143 13.9498 34.9143 13.9501 34.9143C13.9503 34.9143 13.9504 34.9143 13.9505 34.9143C13.9506 34.9143 13.9507 34.9143 13.9507 34.9143C13.9508 34.9143 13.9509 34.9143 13.9509 35.1143C13.9509 35.3143 13.951 35.3143 13.9511 35.3143C13.9512 35.3143 13.9513 35.3143 13.9513 35.3143C13.9515 35.3143 13.9516 35.3143 13.9517 35.3143C13.952 35.3143 13.9522 35.3143 13.9525 35.3143C13.953 35.3143 13.9534 35.3142 13.9539 35.3142C13.9548 35.3142 13.9557 35.3142 13.9565 35.3142C13.9581 35.3141 13.9595 35.3141 13.9606 35.314C13.9629 35.3138 13.9643 35.3136 13.965 35.3135C13.9664 35.3133 13.9651 35.3134 13.9619 35.3145C13.9563 35.3164 13.9417 35.3223 13.9236 35.3407L13.6389 35.0598ZM13.6173 35.0731L13.6616 35.04L13.9009 35.3605L13.8567 35.3936L13.6173 35.0731ZM8.17908 46.5687C6.62579 43.9445 7.86189 41.1736 9.49846 39.048C11.1434 36.9115 13.252 35.3447 13.6177 35.0728L13.8563 35.3938C13.4948 35.6626 11.4245 37.2021 9.8154 39.292C8.19791 41.3928 7.10474 43.9684 8.5233 46.365L8.17908 46.5687ZM8.29365 46.6933L8.20881 46.6073L8.49357 46.3264L8.57841 46.4124L8.29365 46.6933ZM8.3785 46.7793L8.29366 46.6933L8.57841 46.4124L8.66325 46.4984L8.3785 46.7793ZM8.44369 46.8392C8.41977 46.8179 8.39412 46.7952 8.37848 46.7793L8.66327 46.4984C8.66325 46.4984 8.66426 46.4994 8.66686 46.5019C8.66935 46.5042 8.6726 46.5072 8.67682 46.511C8.68538 46.5188 8.69614 46.5284 8.70987 46.5406L8.44369 46.8392ZM9.87385 48.6292C9.28972 47.593 8.64224 47.0162 8.44369 46.8392L8.70988 46.5406C8.92198 46.7297 9.60673 47.3408 10.2223 48.4327L9.87385 48.6292ZM9.94812 48.7574C9.92446 48.7334 9.84808 48.6608 9.84808 48.531H10.2481C10.2481 48.5249 10.2473 48.5164 10.2445 48.5063C10.2417 48.4961 10.2376 48.4872 10.2334 48.4801C10.2295 48.4735 10.2262 48.4696 10.2258 48.4692C10.2256 48.469 10.2259 48.4694 10.2271 48.4706C10.2285 48.4721 10.23 48.4736 10.2329 48.4765L9.94812 48.7574ZM9.93292 48.703C9.93292 48.709 9.9337 48.7176 9.9365 48.7277C9.93931 48.7378 9.94337 48.7467 9.94756 48.7538C9.9515 48.7604 9.95485 48.7643 9.95522 48.7647C9.95541 48.7649 9.95509 48.7646 9.95386 48.7633C9.95251 48.7619 9.95096 48.7603 9.94812 48.7574L10.2329 48.4765C10.2565 48.5005 10.3329 48.5731 10.3329 48.703H9.93292ZM10.1981 54.3148C11.0278 51.8757 10.6107 50.0405 9.95592 48.7961L10.3099 48.6098C11.0127 49.9456 11.444 51.8945 10.5768 54.4437L10.1981 54.3148ZM9.11237 56.7715C9.61159 55.9281 9.94563 55.0826 10.1975 54.3168L10.5774 54.4417C10.3202 55.224 9.9755 56.0986 9.45659 56.9753L9.11237 56.7715ZM5.7236 43.7386C5.65928 43.6408 5.56361 43.562 5.46806 43.5248C5.37548 43.4887 5.29916 43.4958 5.23908 43.5364L5.01511 43.205C5.20956 43.0736 5.4302 43.0807 5.61337 43.1521C5.79356 43.2224 5.95243 43.3586 6.0578 43.5188L5.7236 43.7386ZM7.00259 45.8978C6.48338 45.196 6.05309 44.41 5.71133 43.7172L6.07007 43.5402C6.40707 44.2234 6.82523 44.9855 7.32414 45.6599L7.00259 45.8978ZM6.96654 46.3871C7.09502 46.3003 7.13233 46.0956 6.99627 45.8887L7.33047 45.6689C7.53379 45.9781 7.57111 46.4614 7.19051 46.7186L6.96654 46.3871ZM6.73914 46.4389C6.78273 46.4389 6.8306 46.4385 6.87552 46.4309C6.92487 46.4226 6.93797 46.4105 6.93614 46.4124L7.2209 46.6933C7.13424 46.7812 7.02007 46.8121 6.94215 46.8253C6.85981 46.8392 6.7804 46.8389 6.73914 46.8389V46.4389ZM6.49429 46.2924C6.54121 46.3875 6.63554 46.4389 6.73914 46.4389V46.8389C6.50338 46.8389 6.25832 46.7182 6.13556 46.4693L6.49429 46.2924ZM5.04795 43.9626C5.46762 44.7283 5.97205 45.4955 6.48203 46.2709L6.14783 46.4907C5.63966 45.7181 5.12596 44.9372 4.69718 44.1549L5.04795 43.9626ZM5.21751 43.5491C5.08941 43.614 5.02293 43.7042 4.99892 43.7772C4.97453 43.8514 4.99387 43.8969 5.01495 43.9183L4.73019 44.1992C4.58157 44.0485 4.55849 43.8361 4.61894 43.6522C4.67978 43.4672 4.82541 43.2994 5.03668 43.1923L5.21751 43.5491ZM12.9055 20.6971C13.0632 20.8569 13.154 21.0559 13.154 21.2568C13.154 21.4618 13.0584 21.6534 12.8751 21.7773L12.6511 21.4458C12.7224 21.3977 12.754 21.3313 12.754 21.2568C12.754 21.1781 12.7175 21.0761 12.6207 20.978L12.9055 20.6971ZM11.9995 20.4655C12.1603 20.4655 12.5623 20.4604 12.8751 20.6718L12.6511 21.0032C12.4548 20.8706 12.1781 20.8655 11.9995 20.8655V20.4655ZM3.91915 42.1436C2.4547 37.7339 3.40643 33.3992 5.23357 29.6408C7.0603 25.8832 9.77033 22.6835 11.8557 20.5265L12.1433 20.8045C10.0713 22.9477 7.39368 26.1123 5.59331 29.8157C3.79333 33.5182 2.87849 37.7409 4.29876 42.0176L3.91915 42.1436ZM4.61802 42.7106C4.24679 42.7106 4.01993 42.4501 3.91896 42.1431L4.29895 42.0181C4.36766 42.2271 4.48019 42.3106 4.61802 42.3106V42.7106ZM4.78771 42.7106H4.61802V42.3106H4.78771V42.7106ZM5.31709 41.7601C5.37954 41.9501 5.34506 42.1553 5.26403 42.3196C5.18309 42.4837 5.04121 42.6361 4.85174 42.7001L4.72369 42.3212C4.78875 42.2992 4.85898 42.2366 4.9053 42.1426C4.95153 42.0489 4.95948 41.9532 4.9371 41.8851L5.31709 41.7601ZM12.9055 21.752C10.9196 23.765 8.36908 26.7792 6.64286 30.2895C4.91669 33.7997 4.02409 37.7858 5.31728 41.7607L4.9369 41.8845C3.59991 37.7749 4.53146 33.6766 6.28392 30.113C8.03633 26.5494 10.6189 23.5003 12.6207 21.4711L12.9055 21.752ZM15.3959 18.4533C15.3108 18.324 15.1133 18.2866 14.9113 18.4231L14.6874 18.0917C14.9945 17.8841 15.4757 17.8468 15.7301 18.2335L15.3959 18.4533ZM15.3661 18.9517C15.4946 18.8649 15.5319 18.6602 15.3959 18.4533L15.7301 18.2335C15.9334 18.5426 15.9707 19.0259 15.5901 19.2831L15.3661 18.9517ZM13.9858 20.1737C14.4111 19.7857 14.7515 19.4838 14.9858 19.2787C15.1029 19.1762 15.1935 19.0978 15.255 19.045C15.2857 19.0186 15.3091 18.9986 15.3249 18.9852C15.3328 18.9784 15.3388 18.9733 15.3428 18.9699C15.3448 18.9682 15.3464 18.9669 15.3474 18.966C15.3479 18.9656 15.3483 18.9652 15.3486 18.965C15.3487 18.9649 15.3488 18.9648 15.3489 18.9647C15.349 18.9647 15.349 18.9647 15.349 18.9647C15.349 18.9647 15.349 18.9647 15.349 18.9646C15.349 18.9646 15.3491 18.9646 15.4781 19.1174C15.6072 19.2702 15.6072 19.2702 15.6072 19.2702C15.6072 19.2702 15.6072 19.2702 15.6072 19.2702C15.6072 19.2702 15.6071 19.2702 15.6071 19.2702C15.6071 19.2703 15.607 19.2704 15.6069 19.2705C15.6067 19.2706 15.6063 19.2709 15.6058 19.2713C15.6049 19.2721 15.6035 19.2733 15.6016 19.275C15.5977 19.2782 15.592 19.2831 15.5843 19.2897C15.5689 19.3027 15.5459 19.3224 15.5157 19.3484C15.4551 19.4004 15.3655 19.478 15.2493 19.5797C15.0169 19.7831 14.6785 20.0832 14.2554 20.4692L13.9858 20.1737ZM13.7812 20.2935C13.7729 20.2935 13.7769 20.2948 13.7967 20.2884C13.8141 20.2828 13.8361 20.2737 13.8605 20.2613C13.9116 20.2354 13.9555 20.2041 13.9782 20.181L14.263 20.4619C14.2009 20.5249 14.1175 20.5795 14.0413 20.6181C13.9717 20.6534 13.8728 20.6935 13.7812 20.6935V20.2935ZM13.4994 20.181C13.5208 20.2027 13.5618 20.2323 13.617 20.2563C13.6713 20.2799 13.729 20.2935 13.7812 20.2935V20.6935C13.5541 20.6935 13.3342 20.5832 13.2146 20.4619L13.4994 20.181ZM13.4994 19.6879C13.4613 19.7265 13.4297 19.7991 13.4297 19.9022C13.4297 20.0033 13.4609 20.1155 13.5241 20.2116L13.1899 20.4314C13.0834 20.2694 13.0297 20.0806 13.0297 19.9022C13.0297 19.7258 13.083 19.5404 13.2146 19.407L13.4994 19.6879ZM14.6432 18.6656C14.3976 18.8815 14.0076 19.2246 13.4918 19.6952L13.2222 19.3997C13.7408 18.9266 14.133 18.5816 14.379 18.3652L14.6432 18.6656ZM14.6373 18.6705L14.6372 18.6706L14.385 18.3602L14.3851 18.3601L14.6373 18.6705ZM14.6464 18.6627L14.6463 18.6627L14.376 18.3679L14.3761 18.3678L14.6464 18.6627ZM14.9417 18.3978C14.9021 18.438 14.796 18.5311 14.6433 18.6654L14.3792 18.3651C14.541 18.2227 14.6304 18.1439 14.657 18.1169L14.9417 18.3978ZM53.8925 12.1275C53.3662 10.5271 53.4569 8.92492 54.3273 7.16034L54.686 7.33729C53.8595 9.01289 53.7806 10.5069 54.2724 12.0026L53.8925 12.1275ZM57.638 16.3011C56.8446 15.7865 54.7439 14.4295 53.8949 12.1345L54.27 11.9957C55.0678 14.1522 57.0557 15.4466 57.8557 15.9655L57.638 16.3011ZM57.8908 16.4538C57.9015 16.4755 57.9133 16.4875 57.9136 16.4879C57.9157 16.4901 57.9153 16.4894 57.9106 16.4854C57.901 16.4774 57.8845 16.4648 57.8585 16.4467C57.8068 16.4105 57.7335 16.363 57.638 16.3011L57.8557 15.9655C57.9486 16.0257 58.0289 16.0777 58.0877 16.1188C58.1169 16.1393 58.1449 16.1598 58.168 16.1793C58.1828 16.1917 58.2247 16.2266 58.2495 16.2768L57.8908 16.4538ZM58.3247 16.6513C58.2365 16.6513 58.0748 16.6548 57.9278 16.5057L58.2125 16.2248C58.2289 16.2415 58.239 16.2447 58.2465 16.2467C58.2609 16.2503 58.2785 16.2513 58.3247 16.2513V16.6513ZM59.0131 16.1957C58.9504 16.323 58.8363 16.4329 58.723 16.5095C58.6122 16.5843 58.4665 16.6513 58.3247 16.6513V16.2513C58.3525 16.2513 58.4189 16.2322 58.499 16.1781C58.5767 16.1256 58.6323 16.0636 58.6544 16.0188L59.0131 16.1957ZM58.6912 15.1675C58.8369 15.266 58.9771 15.4011 59.0505 15.5797C59.1274 15.7668 59.1209 15.9773 59.0131 16.1957L58.6544 16.0188C58.7163 15.8933 58.7097 15.8027 58.6806 15.7318C58.6479 15.6524 58.5761 15.5725 58.4672 15.4989L58.6912 15.1675ZM58.4633 15.009C58.5318 15.052 58.5911 15.0891 58.6328 15.1174C58.6531 15.1311 58.675 15.1467 58.6934 15.1622C58.7021 15.1696 58.7162 15.1821 58.7298 15.1986C58.7349 15.2049 58.7792 15.2554 58.7792 15.3332H58.3792C58.3792 15.3751 58.3926 15.406 58.4001 15.4208C58.4082 15.4367 58.4167 15.4476 58.421 15.4529C58.4258 15.4587 58.4298 15.4627 58.4316 15.4645C58.4336 15.4664 58.4349 15.4674 58.4349 15.4675C58.435 15.4676 58.4345 15.4671 58.4332 15.4661C58.4319 15.4651 58.4302 15.4638 58.4278 15.4621C58.423 15.4585 58.4166 15.4541 58.4084 15.4485C58.374 15.4252 58.3222 15.3926 58.2508 15.3479L58.4633 15.009ZM58.468 15.012L58.468 15.012L58.2461 15.3448L58.2461 15.3448L58.468 15.012ZM55.3733 11.6524C56.0428 13.4849 57.8204 14.6058 58.4633 15.009L58.2508 15.3479C57.6172 14.9505 55.7198 13.7664 54.9976 11.7897L55.3733 11.6524ZM55.7042 7.85332C55.0467 9.18631 54.9696 10.5065 55.3741 11.6546L54.9968 11.7875C54.5528 10.5274 54.6454 9.09551 55.3454 7.67637L55.7042 7.85332ZM55.3823 6.82509C55.5409 6.93229 55.6748 7.09324 55.7436 7.27462C55.8134 7.45852 55.8204 7.67939 55.6919 7.87474L55.3577 7.65494C55.3989 7.59228 55.4059 7.51213 55.3696 7.41652C55.3324 7.31839 55.2542 7.22132 55.1583 7.15651L55.3823 6.82509ZM54.3396 7.13892C54.4449 6.9787 54.6038 6.84246 54.784 6.77221C54.9672 6.7008 55.1878 6.69369 55.3822 6.82509L55.1583 7.15651C55.0982 7.11591 55.0219 7.10879 54.9293 7.14489C54.8338 7.18214 54.7381 7.26092 54.6738 7.35871L54.3396 7.13892ZM52.473 6.9669C52.5771 6.80853 52.5305 6.5848 52.3584 6.46846L52.5824 6.13704C52.9193 6.36472 53.0424 6.82903 52.8072 7.18669L52.473 6.9669ZM51.4311 13.501C50.8161 11.5417 51.1747 9.33436 52.4647 6.98067L52.8154 7.17292C51.5601 9.46347 51.2399 11.5564 51.8127 13.3812L51.4311 13.501ZM55.949 18.4574C55.9181 18.4574 55.8931 18.45 55.8886 18.4487C55.8787 18.4459 55.8696 18.4428 55.8626 18.4402C55.8482 18.4348 55.8323 18.4281 55.816 18.4208C55.7829 18.406 55.7398 18.3851 55.6885 18.3585C55.5855 18.3052 55.4443 18.2265 55.2755 18.1227C54.9379 17.9152 54.4865 17.6055 54.0055 17.1946C53.0455 16.3746 51.9559 15.1412 51.4314 13.5021L51.8124 13.3802C52.3061 14.9232 53.3376 16.098 54.2654 16.8905C54.7283 17.2859 55.1624 17.5836 55.485 17.7819C55.6463 17.8811 55.7789 17.9549 55.8725 18.0033C55.9194 18.0277 55.9553 18.0449 55.9792 18.0556C55.9914 18.0611 55.9985 18.0639 56.0014 18.065C56.003 18.0656 56.0011 18.0648 55.9969 18.0636C55.9947 18.063 55.9902 18.0618 55.984 18.0606C55.9791 18.0597 55.9661 18.0574 55.949 18.0574V18.4574ZM56.0242 18.9429C56.0861 18.8174 56.0795 18.7269 56.0504 18.6559C56.0177 18.5765 55.9459 18.4967 55.837 18.4231L56.061 18.0917C56.2066 18.1901 56.3469 18.3252 56.4203 18.5038C56.4972 18.6909 56.4907 18.9014 56.3829 19.1199L56.0242 18.9429ZM55.6945 19.1754C55.7223 19.1754 55.7887 19.1564 55.8688 19.1022C55.9465 19.0498 56.0021 18.9877 56.0242 18.9429L56.3829 19.1199C56.3202 19.2471 56.2061 19.3571 56.0928 19.4336C55.982 19.5085 55.8363 19.5754 55.6945 19.5754V19.1754ZM55.5823 19.149C55.5987 19.1656 55.6087 19.1689 55.6163 19.1708C55.6307 19.1745 55.6483 19.1754 55.6945 19.1754V19.5754C55.6062 19.5754 55.4446 19.5789 55.2976 19.4299L55.5823 19.149ZM55.5161 19.1039L55.5296 19.1106L55.3503 19.4682L55.3368 19.4614L55.5161 19.1039ZM50.7094 13.724C51.8471 17.2661 55.2263 18.959 55.5158 19.1037L55.337 19.4615C55.0417 19.314 51.5208 17.5582 50.3285 13.8463L50.7094 13.724ZM51.7965 6.57235C50.375 9.11522 50.0505 11.5532 50.7103 13.727L50.3276 13.8432C49.6299 11.5449 49.9842 8.99457 51.4474 6.37717L51.7965 6.57235ZM52.3584 6.46846C52.2143 6.37111 51.9811 6.39551 51.7643 6.61522L51.4795 6.3343C51.7719 6.03799 52.2174 5.89038 52.5824 6.13704L52.3584 6.46846ZM63.4698 9.0549C63.4698 7.95873 62.6235 7.10479 61.5487 7.10479V6.70479C62.8496 6.70479 63.8698 7.74296 63.8698 9.0549H63.4698ZM61.5487 11.005C62.6235 11.005 63.4698 10.1511 63.4698 9.0549H63.8698C63.8698 10.3669 62.8496 11.405 61.5487 11.405V11.005ZM59.6276 9.0549C59.6276 10.1511 60.4739 11.005 61.5487 11.005V11.405C60.2479 11.405 59.2276 10.3669 59.2276 9.0549H59.6276ZM61.5487 7.10479C60.4739 7.10479 59.6276 7.95873 59.6276 9.0549H59.2276C59.2276 7.74296 60.2479 6.70479 61.5487 6.70479V7.10479ZM62.7669 9.05492C62.7669 9.76484 62.2557 10.287 61.5487 10.287V9.88697C62.0296 9.88697 62.3669 9.54906 62.3669 9.05492H62.7669ZM61.5487 7.82286C62.2557 7.82286 62.7669 8.345 62.7669 9.05492H62.3669C62.3669 8.56077 62.0296 8.22286 61.5487 8.22286V7.82286ZM60.3306 9.05492C60.3306 8.345 60.8418 7.82286 61.5487 7.82286V8.22286C61.0678 8.22286 60.7306 8.56077 60.7306 9.05492H60.3306ZM61.5487 10.287C60.9375 10.287 60.3306 9.77553 60.3306 9.05492H60.7306C60.7306 9.53837 61.1418 9.88697 61.5487 9.88697V10.287Z" fill="black"/>
</svg>
