<svg width="25" height="24" viewBox="0 0 25 24" fill="none" xmlns="http://www.w3.org/2000/svg">
<path fill-rule="evenodd" clip-rule="evenodd" d="M6.70604 9C6.70604 7.34315 8.04919 6 9.70604 6H15C16.6568 6 18 7.34315 18 9V15C18 16.6569 16.6568 18 15 18H9.70604C8.04919 18 6.70604 16.6569 6.70604 15V9ZM7.78841 9.25C7.78841 8.0902 8.72861 7.15 9.88841 7.15H14.8412C16.001 7.15 16.9412 8.0902 16.9412 9.25V14.775C16.9412 15.9348 16.001 16.875 14.8412 16.875H9.88841C8.72862 16.875 7.78841 15.9348 7.78841 14.775V9.25ZM6.00024 8.90476H6V15.0952H6.00024V8.90476Z" fill="#F5942A"/>
<path d="M16.941 23.25H19.806C20.7311 23.25 21.6182 22.8596 22.2723 22.1646C22.9264 21.4696 23.2939 20.527 23.2939 19.5441V16.5M23.2939 7.5V4.45588C23.2939 3.47302 22.9264 2.53042 22.2723 1.83543C21.6182 1.14044 20.7311 0.75 19.806 0.75H16.941M7.76456 23.25H4.89951C3.97446 23.25 3.08731 22.8596 2.4332 22.1646C1.77909 21.4696 1.41162 20.527 1.41162 19.5441V16.5M1.41162 7.5V4.45588C1.41162 3.47302 1.77909 2.53042 2.4332 1.83543C3.08731 1.14044 3.97446 0.75 4.89951 0.75H7.76456" stroke="#F5942A" stroke-width="1.5" stroke-linecap="round" stroke-linejoin="round"/>
</svg>
