<?xml version="1.0" encoding="UTF-8"?>
<svg width="100%" height="100%" viewBox="0 0 22 24" version="1.1" xmlns="http://www.w3.org/2000/svg" xmlns:xlink="http://www.w3.org/1999/xlink">
    <!-- Generator: Sketch 63.1 (92452) - https://sketch.com -->
    <title>Shape</title>
    <desc>Created with Sketch.</desc>
    <g id="Icons" stroke="none" stroke-width="1" fill-rule="evenodd">
        <g id="Icon/-Send">
            <path d="M20.8537832,0.00603562884 C21.1468119,-0.0406790642 21.4291766,0.190131228 21.455212,0.478527867 L21.4557727,0.558444013 L19.7982869,20.7997721 C19.7697571,21.0994 19.4648231,21.3124682 19.1750885,21.2579819 L19.096666,21.2363524 L13.4041507,19.0822964 L7.74272915,23.885068 C7.46869482,24.1209878 7.02359815,23.969247 6.90847679,23.651824 L6.88799593,23.5757324 L6.8805985,23.4943649 L6.88013481,16.6117906 L0.309763866,14.1236054 C0.00139606258,13.9986261 -0.0878162166,13.5933811 0.0923366818,13.3354838 L0.148185489,13.2691227 L0.217617587,13.2119958 L16.601423,2.69062912 L20.7610563,0.0411430862 L20.8537832,0.00603562884 Z M7.92241002,17.0036234 L7.92241002,22.3658551 L12.2864476,18.6610761 L7.92241002,17.0036234 Z M20.2671019,2.3069553 L8.35146692,16.0730206 L18.8094839,20.0295521 L20.2671019,2.3069553 Z M18.6478529,2.59201365 L1.63251426,13.5231687 L7.32780377,15.683147 L18.6478529,2.59201365 Z" id="Shape"></path>
        </g>
    </g>
</svg>
