<!-- Generated by IcoMoon.io -->
<svg version="1.1" xmlns="http://www.w3.org/2000/svg" width="24" height="24" viewBox="0 0 1024 1024">
<title></title>
<g id="icomoon-ignore">
</g>
<path fill="#000" d="M789.333 0c94.257 0 170.667 76.41 170.667 170.667s-76.41 170.667-170.667 170.667c-60.231 0-113.175-31.201-143.55-78.323l-314.251 191.846c6.347 17.865 9.801 37.101 9.801 57.143 0 13.506-1.569 26.646-4.535 39.248l319.066 195.712c31.271-39.185 79.438-64.293 133.469-64.293 94.257 0 170.667 76.41 170.667 170.667s-76.41 170.667-170.667 170.667c-94.257 0-170.667-76.41-170.667-170.667 0-18.795 3.038-36.879 8.65-53.791l-314.561-192.97c-30.594 45.874-82.812 76.094-142.089 76.094-94.257 0-170.667-76.41-170.667-170.667s76.41-170.667 170.667-170.667c52.761 0 99.931 23.942 131.237 61.554l320.679-195.703c-2.565-11.765-3.916-23.984-3.916-36.518 0-94.257 76.41-170.667 170.667-170.667zM789.333 742.4c-61.267 0-110.933 49.667-110.933 110.933s49.667 110.933 110.933 110.933c61.267 0 110.933-49.667 110.933-110.933s-49.667-110.933-110.933-110.933zM170.667 401.067c-61.267 0-110.933 49.667-110.933 110.933s49.667 110.933 110.933 110.933c61.267 0 110.933-49.667 110.933-110.933s-49.667-110.933-110.933-110.933zM789.333 59.733c-61.267 0-110.933 49.667-110.933 110.933s49.667 110.933 110.933 110.933c61.267 0 110.933-49.667 110.933-110.933s-49.667-110.933-110.933-110.933z"></path>
</svg>
