<?xml version="1.0" encoding="UTF-8"?>
<svg width="246px" height="205px" viewBox="0 0 246 205" version="1.1" xmlns="http://www.w3.org/2000/svg" xmlns:xlink="http://www.w3.org/1999/xlink">
    <!-- Generator: Sketch 63.1 (92452) - https://sketch.com -->
    <title>No Transactions Illustration</title>
    <desc>Created with Sketch.</desc>
    <defs>
        <linearGradient x1="49.9946628%" y1="99.9937813%" x2="49.9946628%" y2="-0.000220870294%" id="linearGradient-1">
            <stop stop-color="#808080" stop-opacity="0.25" offset="0%"></stop>
            <stop stop-color="#808080" stop-opacity="0.12" offset="54%"></stop>
            <stop stop-color="#808080" stop-opacity="0.1" offset="100%"></stop>
        </linearGradient>
    </defs>
    <g id="Components" stroke="none" stroke-width="1" fill="none" fill-rule="evenodd">
        <g id="My-Account---Default-State---Transactions" transform="translate(-80.000000, -401.000000)">
            <g id="No-Transactions-Illustration" transform="translate(0.000000, 401.000000)">
                <g transform="translate(80.000000, 0.000000)" id="undraw_blank_canvas_3rbb">
                    <g>
                        <path d="M78.7686918,7.3366107 C85.9953664,0.906079264 97.3388456,-0.412179681 107.665494,0.0997895529 C140.097701,1.71236897 169.373031,17.3632932 194.697318,35.0695142 C203.866115,41.4777861 212.891417,48.3856608 218.841486,57.2128018 C230.964289,75.1811906 227.362085,100.072294 210.518812,114.874883 C204.786458,119.910483 197.83935,123.778695 190.706689,127.194297 C178.024754,133.278569 164.340831,138.1633 149.946859,139.560703 C139.684536,140.550016 129.293563,139.7462 119.088142,138.363635 C90.5797649,134.490477 62.6008321,125.942816 39.1394988,111.320777 C28.8524352,104.907559 19.1566674,96.9336999 14.9161607,86.5632313 C10.6756539,76.1927627 13.3896772,63.0349061 23.8944564,56.8838554 C28.2388729,54.3437955 33.4343596,53.196193 38.5185144,52.1178423 C46.0049633,50.532469 53.6101662,48.9693552 60.3642988,45.7466696 C67.3435692,42.417633 75.6043931,35.9796817 74.2189299,28.6093034 C72.7444013,20.7121161 71.5519135,13.7671421 78.7686918,7.3366107 Z" id="Path" fill="#F5942A" fill-rule="nonzero" opacity="0.1"></path>
                        <path d="M168,164 C168,164 174.405818,153.233769 184.050331,150.131716 C188.105004,148.85496 191.613845,146.364817 194.050154,143.035075 C195.193895,141.445984 196.181328,139.760541 197,138" id="Path" stroke="#535461" stroke-width="0.5"></path>
                        <path d="M203.046627,137.496196 C201.80123,138.728929 196,140 196,140 C196,140 197.422069,134.134198 198.667465,132.904415 C199.912728,131.673077 201.902521,131.702785 203.111793,132.97077 C204.321065,134.238756 204.291889,136.264858 203.046627,137.496196 L203.046627,137.496196 Z" id="Path" fill="#F5942A" fill-rule="nonzero"></path>
                        <path d="M198.920636,143.970497 C197.528103,144.240983 193,142.562585 193,142.562585 C193,142.562585 196.538172,139.326005 197.928338,139.048584 C199.320651,138.778542 200.673599,139.661437 200.95023,141.020586 C201.226862,142.379735 200.322423,143.700455 198.930109,143.970497 L198.920636,143.970497 Z" id="Path" fill="#F5942A" fill-rule="nonzero"></path>
                        <path d="M189.471934,154.8434 C188.104303,154.381891 185,150.712894 185,150.712894 C185,150.712894 189.824092,149.660654 191.184487,150.112933 C192.087662,150.390958 192.762812,151.114852 192.949031,152.004872 C193.135249,152.894891 192.803368,153.811625 192.081639,154.400809 C191.35991,154.989992 190.361384,155.159336 189.471934,154.8434 L189.471934,154.8434 Z" id="Path" fill="#F5942A" fill-rule="nonzero"></path>
                        <path d="M181.00867,160.962663 C179.618287,160.731781 176,157.612567 176,157.612567 C176,157.612567 180.448753,155.793217 181.839135,156.019481 C182.745883,156.157684 183.507267,156.7629 183.833355,157.604665 C184.159444,158.446429 184,159.395192 183.41587,160.089667 C182.83169,160.784142 181.912632,161.117448 181.00867,160.962663 L181.00867,160.962663 Z" id="Path" fill="#F5942A" fill-rule="nonzero"></path>
                        <path d="M191,140.851798 C191,142.430284 193.497696,147 193.497696,147 C193.497696,147 196,142.430284 196,140.854429 C196,139.277971 194.880712,138 193.5,138 C192.119288,138 191,139.277971 191,140.854429 L191,140.851798 Z" id="Path" fill="#F5942A" fill-rule="nonzero"></path>
                        <path d="M179.115684,147.401612 C179.532606,148.781611 183.132033,152 183.132033,152 C183.132033,152 184.32721,147.215843 183.912604,145.835844 C183.497497,144.456109 182.087159,143.688121 180.762526,144.120496 C179.437893,144.552871 178.700577,146.021877 179.115684,147.401612 Z" id="Path" fill="#F5942A" fill-rule="nonzero"></path>
                        <path d="M168.022599,154.892102 C168.20726,156.289013 171.224149,160 171.224149,160 C171.224149,160 173.172316,155.609371 172.987656,154.21246 C172.803445,152.81559 171.542647,151.835347 170.171585,152.023025 C168.800522,152.210703 167.838389,153.495232 168.022599,154.892102 L168.022599,154.892102 Z" id="Path" fill="#F5942A" fill-rule="nonzero"></path>
                        <path d="M203.046627,137.496196 C201.80123,138.728929 196,140 196,140 C196,140 197.422069,134.134198 198.667465,132.904415 C199.912728,131.673077 201.902521,131.702785 203.111793,132.97077 C204.321065,134.238756 204.291889,136.264858 203.046627,137.496196 L203.046627,137.496196 Z" id="Path" fill="#000000" fill-rule="nonzero" opacity="0.25"></path>
                        <path d="M198.920636,143.970497 C197.528103,144.240983 193,142.562585 193,142.562585 C193,142.562585 196.538172,139.326005 197.928338,139.048584 C199.320651,138.778542 200.673599,139.661437 200.95023,141.020586 C201.226862,142.379735 200.322423,143.700455 198.930109,143.970497 L198.920636,143.970497 Z" id="Path" fill="#000000" fill-rule="nonzero" opacity="0.25"></path>
                        <path d="M189.471934,154.8434 C188.104303,154.381891 185,150.712894 185,150.712894 C185,150.712894 189.824092,149.660654 191.184487,150.112933 C192.087662,150.390958 192.762812,151.114852 192.949031,152.004872 C193.135249,152.894891 192.803368,153.811625 192.081639,154.400809 C191.35991,154.989992 190.361384,155.159336 189.471934,154.8434 L189.471934,154.8434 Z" id="Path" fill="#000000" fill-rule="nonzero" opacity="0.25"></path>
                        <path d="M181.00867,160.962663 C179.618287,160.731781 176,157.612567 176,157.612567 C176,157.612567 180.448753,155.793217 181.839135,156.019481 C182.745883,156.157684 183.507267,156.7629 183.833355,157.604665 C184.159444,158.446429 184,159.395192 183.41587,160.089667 C182.83169,160.784142 181.912632,161.117448 181.00867,160.962663 L181.00867,160.962663 Z" id="Path" fill="#000000" fill-rule="nonzero" opacity="0.25"></path>
                        <path d="M191,140.851798 C191,142.430284 193.497696,147 193.497696,147 C193.497696,147 196,142.430284 196,140.854429 C196,139.277971 194.880712,138 193.5,138 C192.119288,138 191,139.277971 191,140.854429 L191,140.851798 Z" id="Path" fill="#000000" fill-rule="nonzero" opacity="0.25"></path>
                        <path d="M179.115684,147.401612 C179.532606,148.781611 183.132033,152 183.132033,152 C183.132033,152 184.32721,147.215843 183.912604,145.835844 C183.497497,144.456109 182.087159,143.688121 180.762526,144.120496 C179.437893,144.552871 178.700577,146.021877 179.115684,147.401612 Z" id="Path" fill="#000000" fill-rule="nonzero" opacity="0.25"></path>
                        <path d="M168.022599,154.892102 C168.20726,156.289013 171.224149,160 171.224149,160 C171.224149,160 173.172316,155.609371 172.987656,154.21246 C172.803445,152.81559 171.542647,151.835347 170.171585,152.023025 C168.800522,152.210703 167.838389,153.495232 168.022599,154.892102 L168.022599,154.892102 Z" id="Path" fill="#000000" fill-rule="nonzero" opacity="0.25"></path>
                        <path d="M169,167 C169,167 170.224281,154.315 177.520203,147.57 C180.597585,144.759157 182.68442,141.021274 183.467424,136.9175 C183.825598,134.965638 184.003857,132.984752 184,131" id="Path" stroke="#535461" stroke-width="0.5"></path>
                        <path d="M188.794724,126.69991 C188.279853,128.056806 184.473487,131 184.473487,131 C184.473487,131 183.655211,126.075152 184.170081,124.720697 C184.48738,123.819579 185.240037,123.172076 186.136096,123.029356 C187.032155,122.886636 187.930624,123.271155 188.482987,124.033757 C189.03535,124.79636 189.154693,125.817053 188.794724,126.69991 L188.794724,126.69991 Z" id="Path" fill="#F5942A" fill-rule="nonzero"></path>
                        <path d="M190.77009,134.059556 C189.461989,134.769519 184,135 184,135 C184,135 186.135675,131.116811 187.435768,130.406847 C188.282224,129.947713 189.382142,129.871556 190.321192,130.207064 C191.260242,130.542573 191.89576,131.238775 191.988353,132.033418 C192.080946,132.828062 191.616547,133.600421 190.77009,134.059556 Z" id="Path" fill="#F5942A" fill-rule="nonzero"></path>
                        <path d="M182.676782,147.995541 C181.269315,148.110811 177,145.952953 177,145.952953 C177,145.952953 180.849421,143.126528 182.240467,143.008952 C183.641591,142.893087 184.872997,143.915446 184.990891,145.292455 C185.108785,146.669463 184.068522,147.879676 182.667399,147.995541 L182.676782,147.995541 Z" id="Path" fill="#F5942A" fill-rule="nonzero"></path>
                        <path d="M177.019928,156.945491 C175.642044,157.2919 171,155.873931 171,155.873931 C171,155.873931 174.347308,152.439859 175.725192,152.093449 C176.623561,151.848104 177.588185,152.093918 178.247211,152.736134 C178.906237,153.378349 179.15674,154.316667 178.902154,155.189373 C178.647567,156.062079 177.927651,156.732877 177.019928,156.943181 L177.019928,156.945491 Z" id="Path" fill="#F5942A" fill-rule="nonzero"></path>
                        <path d="M179.195684,133.75407 C179.754314,135.122758 183.669344,138 183.669344,138 C183.669344,138 184.336469,132.934855 183.77553,131.566167 C183.199369,130.228032 181.739297,129.635035 180.491629,130.232437 C179.243962,130.829838 178.667765,132.397831 179.195684,133.759065 L179.195684,133.75407 Z" id="Path" fill="#F5942A" fill-rule="nonzero"></path>
                        <path d="M168.855579,145.085774 C170.052883,146.346737 176,148 176,148 C176,148 174.996689,142.334072 173.796354,141.073109 C173.027397,140.235505 171.829456,139.846542 170.662811,140.055668 C169.496165,140.264794 168.542301,141.039478 168.167717,142.082066 C167.793132,143.124654 168.056099,144.272959 168.855579,145.085774 L168.855579,145.085774 Z" id="Path" fill="#F5942A" fill-rule="nonzero"></path>
                        <path d="M164.349719,156.299147 C165.029473,157.628125 168.999754,160 168.999754,160 C168.999754,160 169.032227,154.673684 168.350308,153.344706 C167.911008,152.485702 167.123617,151.973506 166.284739,152.001058 C165.44586,152.02861 164.68294,152.591723 164.283362,153.478278 C163.883784,154.364834 163.908254,155.440143 164.347554,156.299147 L164.349719,156.299147 Z" id="Path" fill="#F5942A" fill-rule="nonzero"></path>
                        <ellipse id="Oval" fill="#F5942A" fill-rule="nonzero" opacity="0.1" cx="91" cy="200.5" rx="29" ry="4.5"></ellipse>
                        <ellipse id="Oval" fill="#F5942A" fill-rule="nonzero" opacity="0.1" cx="149" cy="164.5" rx="29" ry="4.5"></ellipse>
                        <polygon id="Path" fill="#B77B7F" fill-rule="nonzero" points="152 99.1506111 151.96983 100.127073 150.115743 160 147 160 148.527702 100.127073 148.557872 99"></polygon>
                        <polygon id="Path" fill="#DDA2A6" fill-rule="nonzero" points="165 147 163.017997 146.994718 133.569765 146.923415 132 146.920775 132.836121 144 164.790387 144"></polygon>
                        <polygon id="Path" fill="#000000" fill-rule="nonzero" opacity="0.1" points="152 98.2672606 151.973934 100 149 100 149.026066 98"></polygon>
                        <rect id="Rectangle" fill="#B77B7F" fill-rule="nonzero" x="147" y="96" width="5" height="3"></rect>
                        <polygon id="Path" fill="#000000" fill-rule="nonzero" opacity="0.1" points="135 144 134.572519 147 132 146.99729 133.370229 144"></polygon>
                        <polygon id="Path" fill="#DDA2A6" fill-rule="nonzero" points="140 97 139.923636 97.8597544 133.803636 167 131 166.847544 137.449455 97.8597544 137.521455 97.0749786"></polygon>
                        <polygon id="Path" fill="#000000" fill-rule="nonzero" opacity="0.1" points="169 147 166.357143 146.994718 166 144 168.720497 144"></polygon>
                        <polygon id="Path" fill="#DDA2A6" fill-rule="nonzero" points="172 166.847544 169.194182 167 163.076364 97.8597544 163 97 165.476364 97.0749786 165.548364 97.8597544"></polygon>
                        <rect id="Rectangle" fill="#FFFFFF" fill-rule="nonzero" x="115" y="29" width="70" height="67"></rect>
                        <path d="M151.998638,5.37312311 L151.998638,21 L149.001362,21 L149.001362,5.37312311 C148.977931,4.88963002 149.258335,4.43379324 149.731664,4.18591139 C150.204993,3.93802954 150.795007,3.93802954 151.268336,4.18591139 C151.741665,4.43379324 152.022069,4.88963002 151.998638,5.37312311 Z" id="Path" fill="#DDA2A6" fill-rule="nonzero"></path>
                        <rect id="Rectangle" fill="#000000" fill-rule="nonzero" opacity="0.1" x="149" y="21" width="3" height="3"></rect>
                        <path d="M152,21.5523648 L152,26 L147,26 L147,21.5523648 C146.999326,21.4057022 147.071149,21.2648882 147.199531,21.1611814 C147.327912,21.0574745 147.502229,20.9994556 147.683787,21 L151.321302,21 C151.696957,21.0022601 152,21.2489009 152,21.5523648 L152,21.5523648 Z" id="Path" fill="#DDA2A6" fill-rule="nonzero"></path>
                        <circle id="Oval" fill="#000000" fill-rule="nonzero" opacity="0.1" cx="150.5" cy="25.5" r="1.5"></circle>
                        <circle id="Oval" fill="#B77B7F" fill-rule="nonzero" cx="150.5" cy="25.5" r="1.5"></circle>
                        <rect id="Rectangle" fill="#000000" fill-rule="nonzero" opacity="0.1" x="147" y="28" width="5" height="1"></rect>
                        <rect id="Rectangle" fill="#000000" fill-rule="nonzero" opacity="0.1" x="144" y="29" width="9" height="3"></rect>
                        <rect id="Rectangle" fill="#DDA2A6" fill-rule="nonzero" x="144" y="26" width="9" height="3"></rect>
                        <path d="M132.628475,94 L170.371525,94 C171.270907,94 172,95.1023292 172,96.4621212 L172,97 L131,97 L131,96.4621212 C131,95.1023292 131.729093,94 132.628475,94 Z" id="Path" fill="#000000" fill-rule="nonzero" opacity="0.1"></path>
                        <polygon id="Path" fill="#000000" fill-rule="nonzero" opacity="0.1" points="137.084688 95.1744186 140 95 139.91018 97 137 97"></polygon>
                        <rect id="Rectangle" fill="#000000" fill-rule="nonzero" opacity="0.1" x="147" y="95" width="5" height="2"></rect>
                        <polygon id="Path" fill="#000000" fill-rule="nonzero" opacity="0.1" points="164 97 161.089897 97 161 95 163.91524 95.1744186"></polygon>
                        <path d="M132.628475,94 L170.371525,94 C171.270907,94 172,95.1023292 172,96.4621212 L172,97 L131,97 L131,96.4621212 C131,95.8091261 131.171571,95.1828759 131.476969,94.7211386 C131.782368,94.2594013 132.196577,94 132.628475,94 L132.628475,94 Z" id="Path" fill="#DDA2A6" fill-rule="nonzero"></path>
                        <path d="M123.603002,62.8610717 C123.044478,62.5654626 116.959764,57.9638145 116.959764,57.9638145 L107.140075,51.7289261 C107.140075,51.7289261 107.088405,51.5811215 106.994908,51.3273904 C109.68911,48.2653729 109.10106,43.8213829 106.360109,40.6977801 C103.03849,36.909057 88.0296941,28.7527095 83.5073716,35.729084 C82.8750337,36.7144476 82.8528896,37.8328354 82.6880389,38.9167354 C82.3017469,41.4466565 81.056755,43.8977485 79.103151,45.9620854 C77.5973504,47.5559111 75.6216023,49.0241029 74.755521,50.8273183 C74.755521,50.8051476 74.7382978,50.782977 74.7309164,50.7583429 C74.5218491,51.1448256 74.3701666,51.5597558 74.2806525,51.9900474 C73.8500723,54.1898717 75.3263473,56.2985499 76.1112336,58.4392524 C76.3746876,59.1641823 76.5658934,59.9134199 76.6820599,60.6760279 C76.7017436,60.5232965 76.7189668,60.3730286 76.73619,60.2202972 C76.9274746,61.3061663 76.9926999,62.4105396 76.9305662,63.5114117 C71.4806508,64.6224092 71.4781904,73.9562663 71.4781904,73.9562663 C71.4781904,73.9562663 70.8064852,77.6661604 70.9196663,79.0037915 C71.0328474,80.3414226 71.0303869,83.2334649 71.0303869,83.9306097 C71.0303869,84.6277545 70.3586818,88.9756715 70.2922494,89.4979142 C70.292902,89.50529 70.292902,89.5127091 70.2922494,89.5200849 C70.1938311,90.0915958 69.1727408,92.8456872 71.6405806,93.4615395 C71.8128127,93.5058808 71.9948866,93.542832 72.1843419,93.5773197 C72.2901416,95.8067049 72.4820574,100.474865 72.3122858,101.514424 C72.3122858,101.514424 73.2103531,107.786263 73.955872,109.380089 C74.4273049,110.314643 74.9788777,111.206461 75.6043791,112.045498 C75.5502452,112.427394 75.4214898,112.794871 75.2254685,113.126934 C74.8440975,113.676274 75.0409342,114.127078 75.6781929,114.321688 C75.6560488,114.51137 75.6314442,114.725687 75.6043791,114.967101 C75.3312682,117.386169 74.9228321,122.194743 75.6166814,124.631055 C76.5688788,127.971437 76.6254694,129.084898 76.6254694,129.084898 C76.6254694,129.084898 76.6254694,130.085042 77.0191427,130.641773 C77.4128161,131.198503 78.1386513,136.376589 78.1386513,137.211685 C78.1386513,138.046781 80.0430461,145.560178 79.4820616,147.341223 C78.9210771,149.122268 79.371341,151.627555 79.371341,151.627555 C79.371341,151.627555 79.0342582,156.02474 78.6332034,156.970689 C78.2321487,157.916638 78.0722189,173.167604 78.6873335,177.118912 C79.3024481,181.07022 79.6961215,184.353945 79.6961215,184.353945 C79.6961215,184.353945 79.3049086,187.972693 79.6395309,188.472765 C79.9741533,188.972837 80.5917283,191.980659 80.1439249,192.145708 C79.6961215,192.310756 79.4722198,193.537534 79.4722198,193.537534 C79.7090283,193.897951 79.9644424,194.245764 80.2374223,194.579556 C80.0647931,194.519231 79.8963004,194.447639 79.7330283,194.365239 C79.9101814,194.61158 80.1759109,194.961384 80.5031518,195.350603 L80.1955945,199.353643 C80.1689389,199.675889 80.3759439,199.971225 80.6876862,200.055714 C82.6894929,200.60051 84.8283263,199.998419 86.2532431,198.488986 C89.0532448,195.651139 90.0054422,196.040357 90.5098362,194.315971 C90.5639663,194.131215 90.610715,193.948923 90.6500823,193.776484 C91.0117697,192.239317 89.3755649,191.096295 88.0739824,191.751562 C88.2535958,190.534638 88.393842,189.152666 88.2585167,188.371765 C87.9780245,186.758232 88.034615,182.528559 88.034615,182.528559 L87.6434021,162.267019 C87.6434021,162.267019 88.3692374,158.259052 89.2107142,156.702178 C90.0521909,155.145303 89.9488517,149.688852 89.9488517,149.688852 L90.9010491,131.765087 L91.7966559,123.027375 C91.7966559,123.027375 92.6922628,120.022016 93.8117714,123.362399 C93.8117714,123.362399 93.1966568,130.094896 93.477149,131.710892 C93.7576413,133.326889 94.1488542,141.172847 93.8683619,142.897233 C93.5878697,144.621619 92.3576405,154.086037 93.1302244,156.478007 C93.9028083,158.869978 94.7639688,161.76941 94.5917367,162.717823 C94.4195046,163.666235 93.8535992,184.201213 93.8535992,184.201213 C93.8535992,184.201213 95.3667811,188.142668 94.2472725,189.433494 C93.1277639,190.724321 94.190682,195.838358 94.190682,195.838358 C94.190682,195.838358 94.3260072,195.934431 94.5572903,196.067455 L94.5253043,196.493625 L94.1734588,201.097736 C94.1475798,201.420325 94.3540327,201.715907 94.6655505,201.802271 C96.6673595,202.347632 98.8064823,201.745459 100.231107,200.235543 C103.031109,197.395232 103.983306,197.786914 104.4877,196.060065 C104.541831,195.875309 104.588579,195.69548 104.630407,195.520578 C105.02408,193.842997 103.031109,192.626072 101.697541,193.722289 L101.631108,193.778948 C101.561434,193.838245 101.488312,193.893358 101.412127,193.943996 C101.376738,193.970089 101.33976,193.993948 101.301407,194.015435 C101.581899,192.744316 101.990335,190.566662 101.793498,189.546811 C101.513006,188.044132 102.07153,183.481898 102.07153,183.481898 C102.07153,183.481898 103.695433,178.025447 103.752023,175.84533 L104.199827,158.480759 C104.199827,158.480759 104.145697,151.410775 104.369598,149.686389 C104.5935,147.962002 106.384714,133.043597 108.175928,128.589753 C109.551324,125.180395 110.166438,116.479634 109.802291,112.067668 C109.782607,111.850888 109.762923,111.641499 109.738319,111.446889 C111.935508,109.823503 112.154489,107.123606 112.154489,107.123606 C112.154489,107.123606 110.136913,103.265908 108.195611,101.632667 C106.25431,99.9994272 105.836032,97.1911408 105.904924,95.9963874 C105.937903,95.2683545 105.69838,94.5541963 105.233219,93.9936358 C105.233219,93.9936358 104.337612,91.0991302 103.739721,90.8035211 C103.690813,90.7785938 103.646671,90.7452391 103.609317,90.7049847 C103.203341,90.2689613 103.515819,89.0224763 103.515819,89.0224763 L103.515819,88.9830617 C103.587173,88.6948429 104.007911,86.8275788 103.882428,86.3496774 C103.73234,85.8323615 103.956241,83.3812695 103.956241,83.3812695 C103.956241,83.3812695 105.375926,79.1515961 105.152024,75.8112133 C104.928122,72.4708306 108.065207,72.7689031 108.065207,72.7689031 L117.752032,72.6679033 L118.854317,72.6679033 C119.243008,72.3374597 119.598212,71.9694529 119.914775,71.5692229 C121.760118,71.3499795 125.492634,70.6528347 125.910912,68.613132 C126.479278,65.9058454 124.163986,63.1591442 123.603002,62.8610717 Z M78.7242404,93.7423681 L78.7906728,92.0450792 C79.0194954,92.242152 79.1720438,92.3677858 79.1720438,92.3677858 C79.2955727,92.8118731 79.3015084,93.2805069 79.189267,93.7275877 C79.0675344,94.1529358 78.7586035,94.4994259 78.3502507,94.6686099 C78.3034175,94.688993 78.2581816,94.7128733 78.2149255,94.7400488 L78.1214281,93.7817827 L78.7242404,93.7423681 Z M113.859587,63.9351181 C113.44869,63.7503624 112.065912,63.7873136 111.35484,63.7873136 C110.643767,63.7873136 109.489812,63.193632 109.489812,63.193632 C109.243767,62.7132672 107.883133,62.4275117 106.672588,62.2649267 C105.752376,59.9936636 104.458175,57.7790588 104.283482,55.4117226 C104.283482,55.3255033 104.283482,55.239284 104.27118,55.1530647 L104.411426,55.3994056 C104.411426,55.3994056 110.050797,59.0009097 110.685595,60.0798829 C111.177687,60.9026615 113.547108,62.7403647 114.644473,63.5631433 C114.493375,63.7605138 114.281504,63.9025082 114.04166,63.9671424 C113.979165,63.9739323 113.916028,63.9628274 113.859587,63.9351181 Z" id="Shape" fill="url(#linearGradient-1)" fill-rule="nonzero"></path>
                        <path d="M102.961617,198.287939 C102.925214,198.467998 102.886669,198.655774 102.839559,198.846122 C102.411285,200.646712 101.591139,200.230004 99.1992265,203.170111 C97.9844976,204.734179 96.1479833,205.360239 94.430391,204.795786 C94.1588757,204.709546 93.9782227,204.401398 94.0021166,204.065261 L94.30405,199.296269 L94.447522,197.001803 C94.447522,197.001803 98.2677296,198.287939 100.212095,196.654546 C100.277325,196.601014 100.340221,196.543491 100.400536,196.482204 C100.415537,196.46595 100.429832,196.448778 100.443364,196.430759 C100.957875,195.919104 101.686373,195.857356 102.255599,196.277154 C102.824826,196.696951 103.108637,197.505263 102.961617,198.287939 L102.961617,198.287939 Z" id="Path" fill="#67647E" fill-rule="nonzero"></path>
                        <path d="M90.9616171,195.287939 C90.9252138,195.467998 90.8866691,195.655774 90.8395589,195.846122 C90.4112845,197.646712 89.591139,197.230004 87.1992265,200.170111 C85.9844976,201.734179 84.1479833,202.360239 82.430391,201.795786 C82.1588757,201.709546 81.9782227,201.401398 82.0021166,201.065261 L82.30405,196.296269 L82.447522,194.001803 C82.447522,194.001803 86.2677296,195.287939 88.2120954,193.654546 C88.2773248,193.601014 88.3402213,193.543491 88.4005362,193.482204 C88.4155372,193.46595 88.4298319,193.448778 88.4433636,193.430759 C88.9578753,192.919104 89.6863733,192.857356 90.2555995,193.277154 C90.8248256,193.696951 91.1086366,194.505263 90.9616171,195.287939 Z" id="Path" fill="#67647E" fill-rule="nonzero"></path>
                        <path d="M86.7784615,194.08024 L87,196.228879 C83.8492308,198.509023 80.0984615,195.11444 79,194 C81.8892308,195.078778 86.7784615,194.08024 86.7784615,194.08024 Z" id="Path" fill="#000000" fill-rule="nonzero" opacity="0.1"></path>
                        <path d="M101.605654,195.295017 L101.994201,195.10451 C99.2830736,198.148334 95.2555274,196.744151 94,196.198317 L94.1942733,194.288971 C94.1942733,194.288971 99.367162,195.359232 102,194 C101.794128,194.744902 101.605654,195.295017 101.605654,195.295017 Z" id="Path" fill="#000000" fill-rule="nonzero" opacity="0.1"></path>
                        <path d="M106.357146,130.05761 C104.650382,134.46141 102.945995,149.215245 102.732055,150.93452 C102.518116,152.653795 102.572789,159.634051 102.572789,159.634051 L102.144909,176.799783 C102.090236,178.948877 100.545115,184.344944 100.545115,184.344944 C100.545115,184.344944 100.012643,188.859269 100.278879,190.345213 C100.545115,191.831158 99.5871403,195.748649 99.5871403,195.748649 L99.9056729,195.527599 C97.2409338,199.702981 93.0310739,196.573901 93.0310739,196.573901 C93.0310739,196.573901 92.0184255,191.509408 93.0857474,190.242057 C94.1530693,188.974706 92.7125413,185.067039 92.7125413,185.067039 C92.7125413,185.067039 93.2450137,164.750122 93.40428,163.814345 C93.5635463,162.878568 92.7648377,160.014747 92.0184255,157.64706 C91.2720133,155.279373 92.4463051,145.919149 92.7125413,144.212155 C92.9787775,142.50516 92.6055714,134.741406 92.3393352,133.144936 C92.073099,131.548467 92.6578678,124.885048 92.6578678,124.885048 C91.592923,121.581584 90.7395409,124.55593 90.7395409,124.55593 L89.8861588,133.198971 L88.9804803,150.929607 C88.9804803,150.929607 89.0874502,156.333043 88.2887416,157.86811 C87.490033,159.403177 86.7959172,163.372246 86.7959172,163.372246 L87.1691233,183.416535 C87.1691233,183.416535 87.1168269,187.591917 87.3830631,189.195755 C87.6492993,190.799593 86.7959172,194.923397 86.7959172,194.923397 C83.8126455,202.186106 79.020394,194.311826 79.020394,194.311826 C79.020394,194.311826 79.2343338,193.100966 79.6598363,192.936406 C80.0853388,192.771847 79.50057,189.797502 79.1844145,189.301368 C78.868259,188.805234 79.2367109,185.226686 79.2367109,185.226686 C79.2367109,185.226686 78.8635048,181.979713 78.2858673,178.06959 C77.7082298,174.159468 77.8603648,159.074058 78.2335709,158.138282 C78.606777,157.202505 78.9253096,152.852739 78.9253096,152.852739 C78.9253096,152.852739 78.4998071,150.374527 79.0322795,148.611042 C79.5647519,146.847558 77.7533949,139.417834 77.7533949,138.590126 C77.7533949,137.762418 77.0616562,132.64389 76.6884501,132.093722 C76.315244,131.543554 76.315244,130.551287 76.315244,130.551287 C76.315244,130.551287 76.2629476,129.450951 75.3644005,126.147487 C74.7035642,123.73559 75.09341,118.980567 75.3525149,116.585862 C75.4452222,115.699208 75.5260439,115.134303 75.5260439,115.134303 C75.5260439,115.134303 106.088533,110.01332 107.30799,111.170146 C107.593243,111.442774 107.783412,112.378551 107.895136,113.712217 C108.258834,118.074263 107.659802,126.695199 106.357146,130.05761 Z" id="Path" fill="#444053" fill-rule="nonzero"></path>
                        <path d="M97,154.972627 C97.1448803,154.972627 100.573713,155.26893 101.829342,155.009665 C103.084971,154.7504 97,154.972627 97,154.972627 Z" id="Path" fill="#000000" fill-rule="nonzero" opacity="0.1"></path>
                        <path d="M97,156.001181 C97,156.001181 101.749641,157.587345 101.991846,156.761986 C102.234051,155.936628 97,156.001181 97,156.001181 Z" id="Path" fill="#000000" fill-rule="nonzero" opacity="0.1"></path>
                        <path d="M82,156 C82,156 85.0584897,156.245227 86.7231991,157.634849 C88.3879086,159.02447 82,156 82,156 Z" id="Path" fill="#000000" fill-rule="nonzero" opacity="0.1"></path>
                        <path d="M73,94.0756848 C73,94.0756848 73.513302,101.954469 73.2347418,103.349592 C73.2347418,103.349592 74.3552426,109.722249 75.2910798,111.341903 C76.2269171,112.961557 78.2394366,115 78.2394366,115 L81,99.3584815 L80.342723,94 L73,94.0756848 Z" id="Path" fill="#EFB7B9" fill-rule="nonzero"></path>
                        <circle id="Oval" fill="#EFB7B9" fill-rule="nonzero" cx="94.5" cy="52.5" r="8.5"></circle>
                        <path d="M90.6806323,56.2701753 C90.6806323,56.2701753 87.9726402,61.0243515 85.2646481,63.2480791 C82.556656,65.4718067 101.512601,68 101.963094,68 C102.413587,68 98.5781036,57.889482 99.2551016,56.6693637 C99.9320997,55.4492454 90.6806323,56.2701753 90.6806323,56.2701753 Z" id="Path" fill="#EFB7B9" fill-rule="nonzero"></path>
                        <path d="M108,114.577741 C107.593042,114.995934 107.143955,115.33411 106.666229,115.58211 C103.358284,117.325176 99.7590282,119.745382 97.3129788,118.779892 C94.8669293,117.814401 89.6859269,118.779892 89.6859269,118.779892 C89.6859269,118.779892 79.2492887,117.616767 77.1667761,118.293907 C76.2182097,118.601697 75.4815058,118.588737 75,118.368424 C75.0938936,117.19882 75.1757496,116.453643 75.1757496,116.453643 C75.1757496,116.453643 106.165463,109.69845 107.400525,111.224444 C107.694244,111.584073 107.882031,112.818475 108,114.577741 Z" id="Path" fill="#000000" fill-rule="nonzero" opacity="0.1"></path>
                        <path d="M114,107.360623 C114,107.360623 113.700491,111.059166 110.237262,112.390147 C106.774033,113.721128 103.016329,115.569163 100.459177,114.831928 C97.9020258,114.094694 92.4856967,114.831928 92.4856967,114.831928 C92.4856967,114.831928 81.5750153,113.943783 79.3979128,114.460837 C77.2208103,114.977891 76.0856967,114.314874 76.7627379,113.352511 C77.439779,112.390147 77.3667894,109.211132 77.3667894,107.880151 C77.3667894,106.54917 76.611725,101.151028 77.2887661,100.188664 C77.9658072,99.2263007 78.5673419,95.530231 79.9214242,94.9364849 C80.3332675,94.7660101 80.6442706,94.4211909 80.7670964,93.9988608 C80.8790202,93.5537162 80.8729543,93.0877979 80.7494782,92.6456144 C80.7494782,92.6456144 80.520442,92.4600687 80.2058318,92.1854611 C79.4079804,91.4853355 78.0589319,90.1865158 78.4918355,89.7609977 C79.0933702,89.1672516 78.4918355,85.3227454 78.4918355,85.3227454 C78.4918355,85.3227454 77.0622468,82.3663844 77.5907919,81.2580583 C78.119337,80.1497322 73,74.3062806 73,74.3062806 C73,74.3062806 73,64.2521794 79.1688766,63.8068698 C79.1688766,63.8068698 83.5331492,63.9553063 84.0591774,62.0330532 C84.5852056,60.1108001 88.0459177,59 88.0459177,59 L95.9464088,60.7020723 C95.9464088,60.7020723 102.940823,62.1864376 104.221915,61.2933445 C105.503008,60.4002513 106.487109,62.4758888 106.487109,62.4758888 C106.487109,62.4758888 110.848864,62.6985436 111.299386,63.5866889 C111.749908,64.4748342 109.872314,73.1237362 109.872314,73.1237362 C109.872314,73.1237362 106.711111,72.8293371 106.93763,76.1567894 C107.16415,79.4842417 105.71946,83.6998393 105.71946,83.6998393 C105.71946,83.6998393 105.49294,86.1391463 105.643953,86.6562002 C105.784899,87.1336711 105.346961,88.9940757 105.276489,89.281053 L105.276489,89.3181621 C105.276489,89.3181621 104.961878,90.5551332 105.369613,90.9954949 C105.4074,91.035337 105.451621,91.0687726 105.500491,91.0944526 C106.104543,91.3888517 107.01062,94.2734684 107.01062,94.2734684 C107.480332,94.8334257 107.721625,95.5449549 107.687661,96.2699398 C107.614672,97.4549581 108.065193,100.262883 110.02081,101.890737 C111.976427,103.518591 114,107.360623 114,107.360623 Z" id="Path" fill="#A36468" fill-rule="nonzero"></path>
                        <path d="M79,93.1901547 L79,93.4980999 L78.8633179,96.8927706 C78.8633179,96.8927706 74.2085328,97.2540606 71.6748516,96.6502941 C69.1411703,96.0465277 70.2067845,93.352614 70.3080305,92.7949181 C70.3089575,92.7876709 70.3089575,92.7803424 70.3080305,92.7730952 C70.3814339,92.2638946 71.0673755,88.0254057 71.0673755,87.3367725 C71.0673755,86.6481392 71.0673755,83.8208635 70.9534738,82.51634 C70.839572,81.2118165 71.5103268,77.577094 71.5103268,77.577094 L72.0013699,77 L77.3319721,78.9567852 L79,93.1901547 Z" id="Path" fill="#A36468" fill-rule="nonzero"></path>
                        <path d="M79,91.8361095 L78.8633179,95.8725003 C78.8633179,95.8725003 74.2085328,96.3020876 71.6748516,95.5841866 C69.1411703,94.8662857 70.2067845,91.6631213 70.3080305,91 L79,91.8361095 Z" id="Path" fill="#000000" fill-rule="nonzero" opacity="0.1"></path>
                        <path d="M79.5352,96 C79.6419262,95.5284767 79.636142,95.0349487 79.5184,94.5665618 C79.5184,94.5665618 79.3,94.370021 79,94.0791405 C82.7992,93.5 97.8448,91.2463312 102.9112,91 L102.9112,91.0393082 C102.9112,91.0393082 102.6112,92.3495807 103,92.8160377 L79.5352,96 Z" id="Path" fill="#000000" fill-rule="nonzero" opacity="0.1"></path>
                        <path d="M104.871622,99 C104.871622,99 105.924459,104.917934 102,107 C101.997296,107.01073 104.224763,104.075973 104.871622,99 Z" id="Path" fill="#000000" fill-rule="nonzero" opacity="0.1"></path>
                        <path d="M82,106.461711 C82,106.461711 89.409959,103.644307 90.8601939,105.832491 C92.3104287,108.020675 82,106.461711 82,106.461711 Z" id="Path" fill="#000000" fill-rule="nonzero" opacity="0.1"></path>
                        <path d="M101.530615,73 C101.530615,73 98.6387512,79.3786984 100.804962,80.8436074 C102.971172,82.3085164 101.530615,73 101.530615,73 Z" id="Path" fill="#000000" fill-rule="nonzero" opacity="0.1"></path>
                        <path d="M77.0580026,68 C77.0580026,68 78.6579368,70.2221557 77.6875913,72.525412 C76.7172458,74.8286683 77.0580026,68 77.0580026,68 Z" id="Path" fill="#000000" fill-rule="nonzero" opacity="0.1"></path>
                        <path d="M74,87 C74,87 76.7209839,88.028617 75.8154335,89.6363481 C74.9098831,91.2440792 74,87 74,87 Z" id="Path" fill="#000000" fill-rule="nonzero" opacity="0.1"></path>
                        <path d="M71,82 C71,82 73.6358958,83.0698093 73.9755731,84.647267 C74.3152504,86.2247247 71,82 71,82 Z" id="Path" fill="#000000" fill-rule="nonzero" opacity="0.1"></path>
                        <path d="M97,125.580122 C97,125.580122 104.500683,127.537456 106,123 C106,123.026168 99.2346381,126.443652 97,125.580122 Z" id="Path" fill="#000000" fill-rule="nonzero" opacity="0.1"></path>
                        <path d="M79,124 C79,124 89.0195412,127.894067 91,124.81494 C91,124.81494 82.3899745,125.881922 79,124 Z" id="Path" fill="#000000" fill-rule="nonzero" opacity="0.1"></path>
                        <path d="M94,127.928887 C94,127.928887 99.2101266,127.928887 101.625039,128.040001 C104.039952,128.151114 94,127.928887 94,127.928887 Z" id="Path" fill="#000000" fill-rule="nonzero" opacity="0.1"></path>
                        <path d="M80,131 C80,131 82.1113209,134.563726 84.4973491,133.922881 C86.8833772,133.282035 80,131 80,131 Z" id="Path" fill="#000000" fill-rule="nonzero" opacity="0.1"></path>
                        <path d="M83.8144465,38.7007753 C83.2084254,39.6668387 83.1868673,40.7853091 83.0287749,41.8570741 C82.6598925,44.361956 81.4646177,46.7881764 79.593857,48.8333793 C77.8763981,50.7065099 75.5217787,52.4051099 75.0762454,54.6936724 C74.6546655,56.8667005 76.0846836,58.9586088 76.8344251,61.0849316 C78.8105808,66.6625343 76.0511488,72.5129947 75.2463145,78.2700443 C75.0235479,79.8604846 75.291826,81.8933966 77.2009121,82.4219046 C77.7973519,82.5890606 78.4800238,82.566937 79.01658,82.8324201 C79.7351821,83.1863975 79.9555534,83.9213923 80.0872971,84.5826419 C80.5677675,86.9479429 80.7337572,89.3691434 80.5807372,91.780183 C80.4945049,93.1321801 80.3986913,94.6882059 81.6442682,95.6173967 C82.2095685,96.0426612 82.9712867,96.2589808 83.7066562,96.4630095 C85.6684398,97.0062665 88.2051051,97.4462801 89.5273329,96.1704864 C90.0830518,95.6370621 90.2914464,94.8848601 90.9836997,94.4620537 C92.0208821,93.8303023 93.4916209,94.258025 94.7970814,94.3243958 C97.4774671,94.4620537 99.9398768,92.8494898 100.996222,90.9050721 C102.052567,88.9606544 101.954358,86.7261719 101.571103,84.6293472 C101.187849,82.5325226 100.502782,80.450447 100.454875,78.321666 C100.438108,77.584213 100.502782,76.8344692 100.91478,76.1805942 C101.712429,74.9146332 103.568817,74.3394199 104.838348,73.3438584 C107.21692,71.4756441 107.209734,68.4152142 106.345017,65.8537942 C105.480299,63.2923742 103.928118,60.8366557 103.736491,58.1891995 C103.650968,57.5492082 103.774812,56.8981845 104.088606,56.3381925 C104.428744,55.7998518 105.022789,55.3967109 105.52581,54.9517809 C108.996658,51.9429727 108.587055,47.0020377 105.717437,43.6195867 C102.541216,39.8708674 88.1500123,31.7957572 83.8144465,38.7007753 Z" id="Path" fill="#E3787D" fill-rule="nonzero"></path>
                        <g id="Group" opacity="0.1" transform="translate(75.000000, 46.000000)" fill="#000000" fill-rule="nonzero">
                            <path d="M2.43021429,15.9967742 C2.69657143,13.7975806 2.64707143,11.6177419 1.89042857,9.4766129 C1.518,8.4266129 0.978214286,7.38387097 0.584571429,6.33145161 C0.38793527,6.71197064 0.245073734,7.11928196 0.160285714,7.54112903 C-0.254571429,9.67983871 1.15264286,11.7387097 1.89042857,13.8314516 C2.13879308,14.5334093 2.31958448,15.2586447 2.43021429,15.9967742 Z" id="Path"></path>
                            <path d="M5.577,39.6870968 C5.72719699,37.3142466 5.5646582,34.9314449 5.09378571,32.6032258 C4.96178571,31.9524194 4.74492857,31.2314516 4.03778571,30.8830645 C3.50978571,30.6217742 2.838,30.641129 2.25107143,30.4790323 C1.52029958,30.2992128 0.91136412,29.7831355 0.601071429,29.0806452 C0.492642857,29.6322581 0.398357143,30.1814516 0.320571429,30.7330645 C0.101357143,32.2983871 0.365357143,34.2991935 2.244,34.8193548 C2.83092857,34.9814516 3.50271429,34.9596774 4.03071429,35.2209677 C4.73785714,35.5693548 4.95471429,36.2927419 5.08671429,36.9435484 C5.30294551,38.0232843 5.45408958,39.1156806 5.53928571,40.2145161 C5.55578571,40.0354839 5.56521429,39.8612903 5.577,39.6870968 Z" id="Path"></path>
                            <path d="M25.6692857,38.8282258 C24.6274286,40.7491935 22.2042857,42.3290323 19.5666429,42.1935484 C18.282,42.1258065 16.8347143,41.7096774 15.8164286,42.3290323 C15.1352143,42.7427419 14.9277857,43.4854839 14.3809286,44.0104839 C13.0797857,45.2564516 10.5835714,44.8330645 8.65307143,44.2983871 C7.92942857,44.0951613 7.18221429,43.8846774 6.62357143,43.466129 C6.09119057,43.0642356 5.73194469,42.4655957 5.62178571,41.7967742 C5.63592857,42.5395161 5.62178571,43.2846774 5.577,44.0274194 C5.49214286,45.3580645 5.39785714,46.8895161 6.62357143,47.8064516 C7.18221429,48.2225806 7.92942857,48.4354839 8.65307143,48.6362903 C10.5835714,49.1709677 13.0797857,49.6040323 14.3809286,48.3483871 C14.9277857,47.8233871 15.1352143,47.0830645 15.8164286,46.6548387 C16.8347143,46.0330645 18.282,46.4540323 19.5666429,46.5193548 C22.2042857,46.6548387 24.6274286,45.0677419 25.6692857,43.1540323 C26.6687143,41.3056452 26.6239286,39.2153226 26.2750714,37.2193548 C26.1436636,37.7808822 25.9399423,38.3219337 25.6692857,38.8282258 Z" id="Path"></path>
                            <path d="M30.1337143,3.45241935 C29.6292857,3.88790323 29.0447143,4.28709677 28.7194286,4.81693548 C28.410638,5.36808354 28.2887694,6.00882567 28.3729286,6.63870968 C28.4413876,7.43041026 28.6044694,8.21046128 28.8585,8.96129032 C29.2510463,8.53159475 29.6810508,8.13964042 30.1431429,7.79032258 C32.4531429,5.78951613 33.0141429,2.91774194 32.2645714,0.237096774 C31.8690653,1.49626565 31.1294443,2.61230486 30.1337143,3.45241935 Z" id="Path"></path>
                            <path d="M29.4477857,21.5419355 C28.2008571,22.5217742 26.3717143,23.0903226 25.5891429,24.3362903 C25.1813571,24.9798387 25.1177143,25.7225806 25.1342143,26.441129 C25.1631994,27.287257 25.2641547,28.1291679 25.4359286,28.9572581 C25.4805353,28.8593667 25.5317306,28.764783 25.5891429,28.6741935 C26.3717143,27.4282258 28.2008571,26.8620968 29.4477857,25.8822581 C31.5857143,24.2032258 31.7648571,21.5467742 31.1331429,19.1782258 C30.8126439,20.1204982 30.2259025,20.9434016 29.4477857,21.5419355 Z" id="Path"></path>
                        </g>
                        <path d="M119.119699,74 C119.119699,74 125.374221,73.6714966 125.915989,70.9968902 C126.457757,68.3222839 124.222963,65.6035502 123.676358,65.3167225 C123.129752,65.0298949 117.233185,60.4798771 117.233185,60.4798771 L107.728054,54.3265665 C107.728054,54.3265665 103.173814,41.0883682 102.165255,46.1556563 C101.156695,51.2229444 105.094189,57.9523619 105.094189,57.9523619 C105.094189,57.9523619 110.55057,61.5070633 111.164896,62.5685707 C111.779223,63.630078 115.540159,66.4150027 115.540159,66.4150027 L119.119699,74 Z" id="Path" fill="#EFB7B9" fill-rule="nonzero"></path>
                        <path d="M120.833054,68.8611327 C119.361769,72.4802172 117.455349,73.9069046 117.455349,73.9069046 L116.395158,73.9069046 L107.074615,74 L106,71.1582622 L107.50975,65 L108.442526,65.0372382 C108.442526,65.0372382 109.55801,65.5934833 110.238359,65.5934833 C110.918708,65.5934833 112.252962,65.5585725 112.64242,65.7307991 C112.696831,65.7565279 112.758089,65.7654642 112.817916,65.7564003 C113.171313,65.7214895 113.539134,65.2094647 113.539134,65.2094647 C113.539134,65.2094647 122.306743,65.2443755 120.833054,68.8611327 Z" id="Path" fill="#A36468" fill-rule="nonzero"></path>
                        <path d="M121.837205,68.7842823 C120.400736,72.5252606 118.539429,74 118.539429,74 L117.504327,74 C118.044176,72.5180433 119.182554,69.4771451 119.616781,68.7746592 C120.041619,68.1106656 116.229813,66.457899 114,65.5653569 C114.345034,65.5292702 114.704151,65 114.704151,65 C114.704151,65 123.276021,65.0457097 121.837205,68.7842823 Z" id="Path" fill="#000000" fill-rule="nonzero" opacity="0.1"></path>
                        <ellipse id="Oval" fill="#F5942A" fill-rule="nonzero" opacity="0.1" cx="22.5" cy="187.5" rx="10.5" ry="2.5"></ellipse>
                        <ellipse id="Oval" fill="#F5942A" fill-rule="nonzero" opacity="0.1" cx="204.5" cy="174.5" rx="8.5" ry="1.5"></ellipse>
                        <ellipse id="Oval" fill="#F5942A" fill-rule="nonzero" opacity="0.1" cx="237.5" cy="179.5" rx="8.5" ry="1.5"></ellipse>
                        <ellipse id="Oval" fill="#F5942A" fill-rule="nonzero" opacity="0.1" cx="184.5" cy="194.5" rx="8.5" ry="1.5"></ellipse>
                        <path d="M31.9531607,131 C31.9531607,131 33.7559544,133.407627 31.1214852,137.038136 C28.4870159,140.668644 26.3181853,143.734746 27.1996618,146 C27.1996618,146 31.1712861,139.255085 34.4058566,139.161017 C37.640427,139.066949 35.5114372,135.057627 31.9531607,131 Z" id="Path" fill="#F5942A" fill-rule="nonzero"></path>
                        <path d="M31.9086582,131 C32.0681866,131.234942 32.1936982,131.491633 32.2814039,131.762324 C35.4724095,135.545994 37.1724322,139.075555 34.1048357,139.164493 C31.2487975,139.245807 27.821048,144.40166 27,145.702694 C27.0262831,145.80385 27.0590943,145.903164 27.0982235,146 C27.0982235,146 31.1153143,139.258513 34.3869135,139.164493 C37.6585128,139.070473 35.5076693,135.055565 31.9086582,131 Z" id="Path" fill="#000000" fill-rule="nonzero" opacity="0.1"></path>
                        <path d="M36.20541,132.789888 C36.20541,134.0165 36.11439,135 36.00123,135 C35.88807,135 35.79459,134.00545 35.79459,132.789888 C35.79459,131.574327 35.91021,132.141589 36.02337,132.141589 C36.13653,132.141589 36.20541,131.548542 36.20541,132.789888 Z" id="Path" fill="#FFD037" fill-rule="nonzero"></path>
                        <path d="M38.2854513,133.01132 C37.1156937,133.71185 36.0941588,134.139218 36.0060264,133.958578 C35.917894,133.777938 36.8072302,133.077407 37.9649697,132.363659 C39.1227092,131.649912 38.6740351,132.174208 38.7661735,132.363659 C38.858312,132.553111 39.4552088,132.306383 38.2854513,133.01132 Z" id="Path" fill="#FFD037" fill-rule="nonzero"></path>
                        <path d="M24.0483935,131 C24.0483935,131 22.2478091,133.407627 24.8790499,137.038136 C27.5102907,140.668644 29.6764633,143.734746 28.8035281,146 C28.8035281,146 24.824336,139.255085 21.5912424,139.161017 C18.3581489,139.066949 20.4944776,135.057627 24.0483935,131 Z" id="Path" fill="#F5942A" fill-rule="nonzero"></path>
                        <path d="M24.0969249,131 C23.9375779,131.234942 23.812209,131.491633 23.7246031,131.762324 C20.5372269,135.545994 18.8391378,139.075555 21.9032453,139.164493 C24.756035,139.245807 28.1924643,144.40166 29,145.702694 C28.9734506,145.80346 28.9415388,145.902706 28.9044039,146 C28.9044039,146 24.8793037,139.258513 21.6089098,139.164493 C18.3385159,139.070473 20.5020073,135.055565 24.0969249,131 Z" id="Path" fill="#000000" fill-rule="nonzero" opacity="0.1"></path>
                        <path d="M19.79459,132.789888 C19.79459,134.0165 19.88561,135 19.99877,135 C20.11193,135 20.20541,134.00545 20.20541,132.789888 C20.20541,131.574327 20.08979,132.141589 19.97663,132.141589 C19.86347,132.141589 19.79459,131.548542 19.79459,132.789888 Z" id="Path" fill="#FFD037" fill-rule="nonzero"></path>
                        <path d="M17.7134748,133.01132 C18.8854742,133.71185 19.9014737,134.139218 19.9934737,133.958578 C20.0854737,133.777938 19.1934741,133.077407 18.0334746,132.363659 C16.8734752,131.649912 17.325475,132.174208 17.233475,132.363659 C17.1414751,132.553111 16.5454753,132.306383 17.7134748,133.01132 Z" id="Path" fill="#FFD037" fill-rule="nonzero"></path>
                        <ellipse id="Oval" fill="#F5942A" fill-rule="nonzero" opacity="0.1" cx="27" cy="158.5" rx="18" ry="2.5"></ellipse>
                        <path d="M39.9956767,141.129958 L39.9031942,141.895166 L39.7721774,142.958806 L39.7182294,143.402627 L39.5872126,144.468818 L39.5306955,144.912639 L39.3996788,145.976279 L37.914822,158.076776 C37.7812362,159.158271 36.0035184,160 33.8558708,160 L26.1438637,160 C23.9962162,160 22.2210673,159.158271 22.0874815,158.076776 L20.6000558,145.973728 L20.469039,144.910088 L20.4150909,144.466267 L20.2815052,143.400077 L20.2275571,142.956256 L20.0965403,141.892616 L20.0040579,141.127407 C19.9295582,140.51524 20.8903479,140 22.1054642,140 L37.9096841,140 C39.1093867,140.002551 40.0727453,140.517791 39.9956767,141.129958 Z" id="Path" fill="#65617D" fill-rule="nonzero"></path>
                        <polygon id="Path" fill="#9D9CB5" fill-rule="nonzero" points="40 141 39.8703656 143 20.1296344 143 20 141"></polygon>
                        <polygon id="Path" fill="#9D9CB5" fill-rule="nonzero" points="40 141 39.8678996 143 20.1347424 143 20 141"></polygon>
                        <polygon id="Path" fill="#9D9CB5" fill-rule="nonzero" points="40 144 39.8626448 146 20.1373552 146 20 144"></polygon>
                        <circle id="Oval" fill="#F5942A" fill-rule="nonzero" opacity="0.1" cx="44.5" cy="31.5" r="7.5"></circle>
                        <circle id="Oval" fill="#F5942A" fill-rule="nonzero" opacity="0.1" cx="28.5" cy="12.5" r="4.5"></circle>
                        <circle id="Oval" fill="#F5942A" fill-rule="nonzero" opacity="0.1" cx="2.5" cy="23.5" r="2.5"></circle>
                    </g>
                </g>
            </g>
        </g>
    </g>
</svg>