<?xml version="1.0" encoding="UTF-8"?>
<svg width="284px" height="171px" viewBox="0 0 284 171" version="1.1" xmlns="http://www.w3.org/2000/svg" xmlns:xlink="http://www.w3.org/1999/xlink">
    <!-- Generator: Sketch 63.1 (92452) - https://sketch.com -->
    <title>undraw_vault_9cmw (1)</title>
    <desc>Created with Sketch.</desc>
    <defs>
        <linearGradient x1="50%" y1="100%" x2="50%" y2="0%" id="linearGradient-1">
            <stop stop-color="#808080" stop-opacity="0.25" offset="0%"></stop>
            <stop stop-color="#808080" stop-opacity="0.12" offset="54%"></stop>
            <stop stop-color="#808080" stop-opacity="0.1" offset="100%"></stop>
        </linearGradient>
        <linearGradient x1="50%" y1="-1134.63028%" x2="50%" y2="0%" id="linearGradient-2">
            <stop stop-color="#808080" stop-opacity="0.25" offset="0%"></stop>
            <stop stop-color="#808080" stop-opacity="0.12" offset="54%"></stop>
            <stop stop-color="#808080" stop-opacity="0.1" offset="100%"></stop>
        </linearGradient>
        <linearGradient x1="50%" y1="100%" x2="50%" y2="0%" id="linearGradient-3">
            <stop stop-color="#808080" stop-opacity="0.25" offset="0%"></stop>
            <stop stop-color="#808080" stop-opacity="0.12" offset="54%"></stop>
            <stop stop-color="#808080" stop-opacity="0.1" offset="100%"></stop>
        </linearGradient>
        <linearGradient x1="50%" y1="100%" x2="50%" y2="0%" id="linearGradient-4">
            <stop stop-color="#808080" stop-opacity="0.25" offset="0%"></stop>
            <stop stop-color="#808080" stop-opacity="0.12" offset="54%"></stop>
            <stop stop-color="#808080" stop-opacity="0.1" offset="100%"></stop>
        </linearGradient>
        <linearGradient x1="49.959217%" y1="100.038941%" x2="49.959217%" y2="0%" id="linearGradient-5">
            <stop stop-color="#808080" stop-opacity="0.25" offset="0%"></stop>
            <stop stop-color="#808080" stop-opacity="0.12" offset="54%"></stop>
            <stop stop-color="#808080" stop-opacity="0.1" offset="100%"></stop>
        </linearGradient>
        <linearGradient x1="50%" y1="100.038941%" x2="50%" y2="0%" id="linearGradient-6">
            <stop stop-color="#808080" stop-opacity="0.25" offset="0%"></stop>
            <stop stop-color="#808080" stop-opacity="0.12" offset="54%"></stop>
            <stop stop-color="#808080" stop-opacity="0.1" offset="100%"></stop>
        </linearGradient>
        <linearGradient x1="50%" y1="100%" x2="50%" y2="-0.00984639622%" id="linearGradient-7">
            <stop stop-color="#808080" stop-opacity="0.25" offset="0%"></stop>
            <stop stop-color="#808080" stop-opacity="0.12" offset="54%"></stop>
            <stop stop-color="#808080" stop-opacity="0.1" offset="100%"></stop>
        </linearGradient>
        <linearGradient x1="49.9866203%" y1="100%" x2="49.9866203%" y2="0%" id="linearGradient-8">
            <stop stop-color="#808080" stop-opacity="0.25" offset="0%"></stop>
            <stop stop-color="#808080" stop-opacity="0.12" offset="54%"></stop>
            <stop stop-color="#808080" stop-opacity="0.1" offset="100%"></stop>
        </linearGradient>
        <linearGradient x1="49.9999296%" y1="100%" x2="49.9999296%" y2="0%" id="linearGradient-9">
            <stop stop-color="#808080" stop-opacity="0.25" offset="0%"></stop>
            <stop stop-color="#808080" stop-opacity="0.12" offset="54%"></stop>
            <stop stop-color="#808080" stop-opacity="0.1" offset="100%"></stop>
        </linearGradient>
    </defs>
    <g id="Delegate" stroke="none" stroke-width="1" fill="none" fill-rule="evenodd">
        <g id="Delegate---Onboarding1" transform="translate(-64.000000, -294.000000)" fill-rule="nonzero">
            <g id="Group-Copy">
                <g id="undraw_vault_9cmw-(1)" transform="translate(64.000000, 294.000000)">
                    <rect id="Rectangle-Copy" fill="#85848B" opacity="0.2" x="0" y="168.278408" width="283.386611" height="2.07090008"></rect>
                    <rect id="Rectangle" fill="url(#linearGradient-1)" x="192" y="153" width="11" height="13"></rect>
                    <rect id="Rectangle" fill="#504F60" transform="translate(197.500000, 159.500000) rotate(-180.000000) translate(-197.500000, -159.500000) " x="192" y="153" width="11" height="13"></rect>
                    <rect id="Rectangle" fill="url(#linearGradient-2)" x="81" y="153" width="11" height="13"></rect>
                    <rect id="Rectangle" fill="#504F60" x="81" y="153" width="11" height="13"></rect>
                    <rect id="Rectangle" fill="url(#linearGradient-3)" x="65" y="0" width="154" height="154" rx="14.86"></rect>
                    <rect id="Rectangle" fill="#504F60" x="66" y="1" width="152" height="152" rx="14.86"></rect>
                    <rect id="Rectangle" fill="url(#linearGradient-4)" x="90" y="25" width="103" height="104"></rect>
                    <polygon id="Rectangle" fill="#3C3B48" points="91 26 192 26 192 127 91 127 91 94.7539062"></polygon>
                    <circle id="Oval" fill="url(#linearGradient-3)" cx="142" cy="77" r="19"></circle>
                    <ellipse id="Oval" fill="#FAFAFA" cx="141.5" cy="77" rx="18.5" ry="18"></ellipse>
                    <rect id="Rectangle" fill="url(#linearGradient-5)" x="128" y="113" width="6" height="6"></rect>
                    <rect id="Rectangle" fill="url(#linearGradient-5)" x="135" y="113" width="6" height="6"></rect>
                    <rect id="Rectangle" fill="url(#linearGradient-6)" x="143" y="113" width="6" height="6"></rect>
                    <rect id="Rectangle" fill="url(#linearGradient-6)" x="150" y="113" width="6" height="6"></rect>
                    <rect id="Rectangle" fill="#FCD104" x="128" y="114" width="5" height="5"></rect>
                    <rect id="Rectangle" fill="#FCD104" opacity="0.7" x="136" y="114" width="5" height="5"></rect>
                    <rect id="Rectangle" fill="#FCD104" opacity="0.5" x="143" y="114" width="5" height="5"></rect>
                    <rect id="Rectangle" fill="#FCD104" opacity="0.3" x="151" y="114" width="5" height="5"></rect>
                    <polygon id="Rectangle" fill="#FCD104" transform="translate(148.939763, 67.026947) rotate(35.000000) translate(-148.939763, -67.026947) " points="148.411731 65.1761782 149.470388 65.1754376 149.467796 68.877716 148.409139 68.8784566"></polygon>
                    <polygon id="Rectangle" fill="#FCD104" transform="translate(151.714298, 83.813647) rotate(125.000000) translate(-151.714298, -83.813647) " points="151.183944 81.9611946 152.242061 81.9619352 152.244653 85.6661001 151.186535 85.6653594"></polygon>
                    <polygon id="Rectangle" fill="#FCD104" transform="translate(134.900486, 86.584169) rotate(-145.000000) translate(-134.900486, -86.584169) " points="134.372453 84.7333998 135.43111 84.7326591 135.428519 88.4349375 134.369862 88.4356782"></polygon>
                    <polygon id="Rectangle" fill="#FCD104" transform="translate(132.127927, 69.797529) rotate(-55.000000) translate(-132.127927, -69.797529) " points="131.597572 67.9450761 132.65569 67.9458168 132.658281 71.6499816 131.600164 71.6492409"></polygon>
                    <polygon id="Rectangle" fill="#000000" opacity="0.2" transform="translate(148.930132, 66.995780) rotate(35.000000) translate(-148.930132, -66.995780) " points="148.4021 65.1450109 149.460756 65.1442703 149.458165 68.8465487 148.399508 68.8472893"></polygon>
                    <polygon id="Rectangle" fill="#000000" opacity="0.2" transform="translate(151.705654, 83.783239) rotate(125.000000) translate(-151.705654, -83.783239) " points="151.1753 81.930786 152.233417 81.9315267 152.236009 85.6356915 151.177891 85.6349509"></polygon>
                    <polygon id="Rectangle" fill="#000000" opacity="0.2" transform="translate(134.893274, 86.552335) rotate(-145.000000) translate(-134.893274, -86.552335) " points="134.365241 84.701566 135.423898 84.7008254 135.421306 88.4031038 134.36265 88.4038444"></polygon>
                    <polygon id="Rectangle" fill="#000000" opacity="0.2" transform="translate(132.119393, 69.766382) rotate(-55.000000) translate(-132.119393, -69.766382) " points="131.589039 67.9139291 132.647156 67.9146698 132.649748 71.6188346 131.59163 71.618094"></polygon>
                    <circle id="Oval" fill="url(#linearGradient-7)" cx="141.5" cy="76.5" r="11.5"></circle>
                    <circle id="Oval" fill="#FCD104" cx="142" cy="77" r="11"></circle>
                    <path d="M133.082747,78.2955298 C133.078547,74.4727292 135.097006,70.9375193 138.378979,69.0195016 C141.660951,67.1014839 145.708755,67.0915086 149,68.9933274 C146.03867,66.1218206 141.699709,65.2277683 137.857279,66.697346 C134.01485,68.1669238 131.357591,71.7367544 131.033276,75.8648908 C130.70896,79.9930272 132.775712,83.9396262 136.34082,86 C134.2587,83.986115 133.082025,81.2035943 133.082747,78.2955298 Z" id="Path" fill="#FFFFFF" opacity="0.2"></path>
                    <path d="M94.9978592,67 L87,67 L87,45.8218782 C87.00118,45.3676004 87.3487514,45 87.7770939,45 L94.2229061,45 C94.6520832,45 95,45.3689839 95,45.8241486 L94.9978592,67 Z" id="Path" fill="url(#linearGradient-8)"></path>
                    <path d="M94.1841441,109 L87.8158447,109 C87.3652661,109 87,108.612719 87,108.134985 L87,87 L95,87 L95,108.130444 C95.0011285,108.360646 94.9156771,108.581834 94.7625528,108.74504 C94.6094285,108.908245 94.4012636,109 94.1841441,109 Z" id="Path" fill="url(#linearGradient-9)"></path>
                    <path d="M87.7177441,46 L94.2754315,46 C94.6755997,46 95,46.319105 95,46.7127409 L95,67 L87,67 L87,46.7194861 C86.9982055,46.5304529 87.0727968,46.3484489 87.2073957,46.2135173 C87.3419945,46.0785856 87.5255739,46.0017805 87.7177441,46 L87.7177441,46 Z" id="Path" fill="#2B2943"></path>
                    <path d="M87,87 L95,87 L95,107.761645 C95,107.893285 94.891525,108 94.7577143,108 L87.2445714,108 C87.1107607,108 87.0022857,107.893285 87.0022857,107.761645 L87.0022857,87 L87,87 Z" id="Path" fill="#2B2943"></path>
                </g>
            </g>
        </g>
    </g>
</svg>