<!-- Generated by IcoMoon.io -->
<svg version="1.1" xmlns="http://www.w3.org/2000/svg" width="24" height="24" viewBox="0 0 1024 1024">
<title></title>
<g id="icomoon-ignore">
</g>
<path fill="#000" d="M615.814 1022.989c-73.357 0-126.815-17.559-160.372-52.677s-50.336-72.967-50.336-113.548c0-14.828 2.926-27.314 8.779-37.459s13.852-18.144 23.997-23.997c10.145-5.853 22.632-8.779 37.459-8.779s27.314 2.926 37.459 8.779c10.145 5.853 18.144 13.852 23.997 23.997s8.779 22.632 8.779 37.459c0 17.949-4.292 32.582-12.877 43.897s-18.73 18.73-30.435 22.241c10.145 14.047 26.143 23.997 47.994 29.85 21.851 6.243 43.702 9.365 65.553 9.365 30.436 0 57.945-8.194 82.527-24.583s42.727-40.581 54.433-72.577c11.706-31.996 17.559-68.285 17.559-108.865 0-44.092-6.438-81.747-19.315-112.963-12.486-31.606-31.021-55.018-55.603-70.236s-51.116-22.827-79.601-22.827c-18.73 0-42.141 7.804-70.236 23.412l-51.506 25.753v-25.753l231.778-309.038h-320.743v320.743c0 26.534 5.853 48.385 17.559 65.553s29.655 25.753 53.847 25.753c18.73 0 36.679-6.243 53.847-18.73s31.996-27.704 44.483-45.653c1.561-3.512 3.512-6.048 5.853-7.609 2.341-1.951 4.877-2.927 7.609-2.927 4.292 0 9.365 2.146 15.218 6.438 5.463 6.243 8.194 13.462 8.194 21.656-0.39 3.902-1.366 9.365-2.926 16.388-13.267 29.655-31.606 52.287-55.018 67.895s-49.165 23.412-77.259 23.412c-69.455 0-117.45-13.657-143.983-40.971s-39.8-64.383-39.8-111.207v-320.743h-163.884v-59.7h163.884v-135.789l-37.459-37.459v-30.436h108.865l40.971 21.071v182.613l423.756-1.171 42.141 42.141-259.872 259.872c15.608-6.243 31.996-10.145 49.165-11.706 28.094 0 59.7 8.975 94.818 26.924 35.508 17.559 62.822 41.751 81.942 72.577 19.12 30.435 31.411 59.7 36.874 87.795 5.853 28.094 8.779 53.067 8.779 74.918 0 49.945-10.535 96.379-31.606 139.301s-53.067 74.918-95.989 95.989c-42.922 21.071-89.355 31.606-139.301 31.606v0z"></path>
</svg>
